<svg xmlns="http://www.w3.org/2000/svg" viewBox="0 0 32 32">
    <title>Bicycle</title>
    <path fill="#000" fill-rule="evenodd" d="M23.14 22.86a3.56 3.56 0 01-1.97-6.5l1.48 3.18a.54.54 0 00.98-.45l-1.49-3.18a3.55 3.55 0 111 6.95zm-6.71-4.5l-2.37-5.07h5.1l-2.73 5.06zm-6.8 4.57a3.56 3.56 0 01-3.56-3.55 3.56 3.56 0 014.77-3.34l-1.61 3.02a.53.53 0 00.47.79l3.46.03a3.56 3.56 0 01-3.52 3.05zm3.52-4.12l-2.56-.02 1.2-2.24a3.56 3.56 0 011.36 2.26zm.03-4.88l2.29 4.9h-1.23a4.62 4.62 0 00-1.95-3.24l.89-1.66zm8.5 1L18.91 9h-1.68a.54.54 0 100 1.07h1l1 2.14h-5.67l-1-2.14h1.04a.54.54 0 100-1.07h-2.82a.54.54 0 100 1.07h.6l1.23 2.64-1.27 2.38A4.63 4.63 0 005 19.39a4.63 4.63 0 009.24.5l2.24.03c.2 0 .39-.11.48-.29l3.07-5.7.68 1.45a4.62 4.62 0 002.43 8.55 4.63 4.63 0 004.63-4.62 4.63 4.63 0 00-6.09-4.38z"/>
</svg>
