<svg xmlns="http://www.w3.org/2000/svg" viewBox="0 0 32 32">
    <title>Car 3</title>
    <path fill="#000" fill-rule="evenodd" d="M8.22 21.29a2.38 2.38 0 110 4.77 2.38 2.38 0 010-4.77zm15.62 0a2.43 2.43 0 012.48 2.38 2.38 2.38 0 11-2.48-2.38zm.06 1.14a1.24 1.24 0 00-.06 2.49c.7 0 1.27-.55 1.29-1.25 0-.68-.55-1.23-1.23-1.24zm-15.66 0a1.24 1.24 0 00-.02 2.49 1.24 1.24 0 10.02-2.49zM17.62 7a3.74 3.74 0 013.74 3.74h-3.74v.94h1.36c.2 0 .4.07.55.2l.09.08.36.44 3.35 4.08h2.99a2.8 2.8 0 012.8 2.8v2.06l.11.01c.45.08.78.47.77.93v.08c0 .51-.42.93-.94.93H27.2a3.4 3.4 0 00-6.77 0h-8.84a3.4 3.4 0 00-6.77 0h-.87a.94.94 0 01-.94-.93v-.08c0-.52.42-.93.94-.93h-1A.94.94 0 012 20.4v-4.9c0-.52.42-.93.94-.93H3c.52 0 .94.41.94.93v-1.96c0-1.01.8-1.84 1.8-1.87h1.12v-.94h-1.4c-.98 0-1.79-.76-1.86-1.72l-.01-.15C3.59 7.84 4.43 7 5.46 7h12.16zm-4.98 5.61h-6.8a.94.94 0 00-.94.94v2.38c0 .48.3.55.76.55h6.98v-3.87zm6.46 0h-5.5v3.87h9.36l-3.86-3.87zm-2.42-1.87H7.8v.94h8.88v-.94z"/>
</svg>
