<svg xmlns="http://www.w3.org/2000/svg" width="50" height="50" viewBox="0 0 32 32">
    <g fill="none" fill-rule="evenodd">
        <g stroke-linecap="square">
            <path stroke="#4D4E4C" d="M1 23V13h6"/>
            <path stroke="#D8DAD9" d="M1 55h63v-6"/>
        </g>
 <path fill="#000" fill-rule="evenodd" d="m14.3057 19.4119c-.8982-.0115-.8657-.0707-.9383-.4113-.0705-.3306-.1206-2.6933-.1319-2.8191 5.5659-.2324 8.2595 1.5851 10.8697 3.2346-.0286-.0007-.0565-.0035-.0854-.0042-2.6178 0-7.0217.0341-9.7141 0zm-10.96566 0c-.64159 0-.22523-2.8651.43553-3.2657.07547-.0138 3.78897-.0508 3.78023 0-.0034.0189 0 3.2657 0 3.2657zm4.84215 0c0-.1474-.13117-2.3467 0-3.2657.07548-.0138 4.32451-.0508 4.31571 0-.0034.0189.1636 2.9288.0575 3.2657zm15.98371 2.7693c1.2846 0 2.3258 1.0027 2.3258 2.2396s-1.0412 2.2397-2.3258 2.2397c-1.2844 0-2.3256-1.0028-2.3256-2.2397s1.0412-2.2396 2.3256-2.2396zm-14.64423 0c1.28433 0 2.32563 1.0027 2.32563 2.2396s-1.0413 2.2397-2.32563 2.2397c-1.28437 0-2.3256-1.0028-2.3256-2.2397s1.04123-2.2396 2.3256-2.2396zm14.64423 1.0738c-.6685 0-1.2106.522-1.2106 1.1658 0 .6441.5421 1.1661 1.2106 1.1661.6687 0 1.2108-.522 1.2108-1.1661 0-.6438-.5421-1.1658-1.2108-1.1658zm-14.64423 0c-.66873 0-1.21057.522-1.21057 1.1658 0 .6441.54184 1.1661 1.21057 1.1661.66853 0 1.21053-.522 1.21053-1.1661 0-.6438-.542-1.1658-1.21053-1.1658zm-5.9421-7.6175c1.44203-.5609 8.06783-.379 9.68913-.379 5.3534 0 8.6714 1.7861 11.0644 4.1691 4.4521-.0343 5.6669 3.2682 5.6669 5.149l-2.9743.0327c.011-.0986.017-.1988.017-.3002 0-1.596-1.4156-2.8899-3.1613-2.8899-1.7461 0-3.1615 1.2939-3.1615 2.8899 0 .1065.0072.2116.0196.3153l-8.3072-.0151c.0111-.0986.0171-.1988.0171-.3002 0-1.596-1.4154-2.8899-3.16148-2.8899-1.74592 0-3.16146 1.2939-3.16146 2.8899 0 .1045.00697.2074.01872.309h-2.56561c-2.44483-.0088-1.7379-8.3046 0-8.9806zm15.42043-2.1375c.5 0 .5.8856 0 .8856h-15c-.5 0-.5-.8856 0-.8856z" />
    <path fill="#8c8c8c" d="m15.354 13.3929c-1.1209 0-2.0325-.849-2.0325-1.893 0-.656.3605-1.2352.9066-1.57476l.8478 1.69556c.0519.104.1627.1652.2784.1652.0434 0 .0872-.0088.129-.027.1535-.0665.2202-.2364.1488-.3797l-.8481-1.69577c.1812-.04952.3721-.07618.57-.07618 1.1209 0 2.0326.84905 2.0326 1.89265 0 1.044-.9117 1.893-2.0326 1.893zm-3.8295-2.4054-1.3511-2.70191h2.9046zm-3.87851 2.4412c-1.12056 0-2.03255-.8491-2.03255-1.893 0-1.0436.91199-1.893 2.03255-1.893.24066 0 .47157.03956.6858.11134l-.91828 1.61206c-.05033.0881-.04781.1942.00724.28.05474.0859.15352.1386.26048.1395l1.97655.0185c-.14062.917-.98875 1.6246-2.01179 1.6246zm2.00612-2.1963-1.46031-.0134.67951-1.1925c.40739.288.69555.7158.7808 1.2059zm.01573-2.60431 1.30836 2.61641-.704-.0062c-.0925-.7108-.51029-1.32898-1.11116-1.721zm4.85476.53294-1.5808-3.16103h-.9627c-.1692 0-.3064.12774-.3064.28566 0 .15763.1372.28566.3064.28566h.5716l.5716 1.14295h-3.23456l-.5716-1.14295h.59236c.1696 0 .3067-.12803.3067-.28566 0-.15792-.1371-.28566-.3067-.28566h-1.61068c-.16925 0-.30673.12774-.30673.28566 0 .15763.13748.28566.30673.28566h.34132l.70405 1.40751-.72166 1.26688c-.30201-.11222-.63106-.17433-.97554-.17433-1.45905 0-2.64599 1.10542-2.64599 2.46432s1.18694 2.4643 2.64599 2.4643c1.35965 0 2.48271-.9601 2.62901-2.1904l1.2794.0118h.0032c.1129 0 .217-.0581.2705-.1509l1.7501-3.04475.3885.777c-.7547.4345-1.2587 1.21205-1.2587 2.09715 0 1.3589 1.187 2.4644 2.646 2.4644 1.4591 0 2.646-1.1055 2.646-2.4644 0-1.3588-1.1869-2.46427-2.646-2.46427-.2904 0-.5697.04454-.8314.1254z" />
    </g>
</svg>
