<svg xmlns="http://www.w3.org/2000/svg" viewBox="0 0 32 32">
    <title>Car 5</title>
    <path fill="#000" fill-rule="evenodd" d="M14.3 14.91c-.9-.01-.86-.07-.93-.4-.07-.34-.12-2.7-.13-2.83 5.56-.23 8.26 1.59 10.87 3.24h-.09c-2.62 0-7.02.03-9.71 0zm-10.96 0c-.64 0-.23-2.86.44-3.26a73.7 73.7 0 013.78 0v3.26H3.34zm4.84 0c0-.15-.13-2.34 0-3.26.08-.02 4.33-.05 4.32 0 0 .02.16 2.93.06 3.26H8.18zm15.99 2.77c1.28 0 2.32 1 2.32 2.24a2.28 2.28 0 01-2.32 2.24c-1.29 0-2.33-1-2.33-2.24a2.28 2.28 0 012.33-2.24zm-14.65 0c1.29 0 2.33 1 2.33 2.24a2.28 2.28 0 01-2.33 2.24c-1.28 0-2.32-1-2.32-2.24a2.28 2.28 0 012.32-2.24zm14.65 1.07c-.67 0-1.21.53-1.21 1.17 0 .64.54 1.17 1.2 1.17.67 0 1.22-.53 1.22-1.17 0-.64-.55-1.17-1.21-1.17zm-14.65 0c-.67 0-1.2.53-1.2 1.17 0 .64.53 1.17 1.2 1.17.67 0 1.21-.53 1.21-1.17 0-.64-.54-1.17-1.2-1.17zm-5.94-7.61c1.44-.56 8.07-.38 9.69-.38 5.35 0 8.67 1.78 11.06 4.17C28.8 14.89 30 18.2 30 20.08l-2.97.03.01-.3c0-1.6-1.41-2.9-3.16-2.9-1.74 0-3.16 1.3-3.16 2.9 0 .1 0 .21.02.31l-8.3-.01v-.3c0-1.6-1.4-2.9-3.15-2.9s-3.16 1.3-3.16 2.9c0 .1 0 .2.02.3H3.58c-2.45 0-1.74-8.3 0-8.97zM16.59 7c1.54 0 2.8 1.2 2.88 2.72v.17H4.26a1.44 1.44 0 110-2.89H16.6z"/>
</svg>
