<svg xmlns="http://www.w3.org/2000/svg" width="84" height="56" viewBox="0 0 84 56">
    <g fill="none" fill-rule="evenodd">
        <g stroke-linecap="square">
            <path stroke="#4D4E4C" d="M1 23V13h6"/>
            <path stroke="#D8DAD9" d="M1 55h63v-6"/>
        </g>
        <path fill="#8c8c8c" d="M59.094 51.404l-.505-.002h-.445c-.262 0-.525-.131-.525-.395l-1.58-11.316h-.131l-1.185-.527a1.054 1.054 0 0 1-.658-1.051l.264-8.29a3.553 3.553 0 0 1 3.553-3.29h3.42a3.553 3.553 0 0 1 3.553 3.29l.526 8.29a1.183 1.183 0 0 1-.658 1.051l-1.183.527h-.132l-1.58 11.316c-.131.264-.262.395-.526.395h-.54l-.36.002c-.08 0-.169-.016-.208-.047a.525.525 0 0 1-.127-.167l-.333-.586-.334.586a.54.54 0 0 1-.126.167c-.04.031-.1.047-.18.047zm.366-33.029a3.42 3.42 0 1 1 0 6.841 3.42 3.42 0 0 1 0-6.841z"/>
        <path fill="#000" d="M12.206 23.75v-1.969H9.253a3.938 3.938 0 0 1 0-7.875h25.594a7.875 7.875 0 0 1 7.875 7.875h-7.875v1.969h2.875c.51-.003.996.212 1.338.59l.768.926 7.048 8.603h6.28a5.906 5.906 0 0 1 5.907 5.907v4.311a1.969 1.969 0 0 1 1.85 1.989v.157a1.969 1.969 0 0 1-1.969 1.969h-3.937a7.166 7.166 0 0 0-14.254 0H22.13a7.166 7.166 0 0 0-14.254 0h-1.83a1.969 1.969 0 0 1-1.97-1.969v-.157c0-1.088.882-1.97 1.97-1.97H3.936a1.969 1.969 0 0 1-1.968-1.968V31.822c0-1.087.881-1.969 1.968-1.969h.138c1.088 0 1.97.882 1.97 1.969v-4.134a3.938 3.938 0 0 1 3.799-3.938h2.362zm1.969 0h18.703v-1.969H14.175v1.969zm33.764 20.239a5.119 5.119 0 0 1 5.217 5.02 5.02 5.02 0 1 1-5.217-5.02zm0 7.639a2.678 2.678 0 0 0 2.717-2.619 2.618 2.618 0 1 0-2.717 2.618zm-32.878-7.64a5.02 5.02 0 1 1 0 10.041 5.02 5.02 0 0 1 0-10.04zm0 7.64a2.678 2.678 0 0 0 2.658-2.619 2.618 2.618 0 1 0-2.658 2.618zm-6.99-23.94v5.02c0 1.083.749 1.161 1.832 1.161h14.47v-8.15H10.041a1.969 1.969 0 0 0-1.97 1.969zm18.33-1.97v8.151h19.687l-8.11-8.15H26.4z"/>
    </g>
</svg>
