<svg xmlns="http://www.w3.org/2000/svg" width="84" height="56" viewBox="0 0 84 56">
    <path fill="#000" fill-rule="evenodd" d="M68.603 34.853V44.91h-2.059V34.853H4.18a.63.63 0 0 1-.41-.134.453.453 0 0 1-.175-.34V12.411a.453.453 0 0 1 .176-.34.63.63 0 0 1 .409-.133h.055v.003h77.463a.63.63 0 0 1 .408.133c.11.089.173.211.177.34v21.965a.454.454 0 0 1-.177.34.632.632 0 0 1-.408.134H68.603zm-44.4.796c2.43-.004 4.402 2.05 4.406 4.587.004 2.538-1.962 4.598-4.39 4.602-2.43.005-4.402-2.05-4.406-4.587v-.015c0-2.533 1.966-4.587 4.39-4.587zm-.041 6.952c1.2.04 2.231-.878 2.383-2.122.153-1.243-.625-2.403-1.796-2.68-1.17-.275-2.35.424-2.723 1.615-.373 1.191.181 2.484 1.28 2.985.272.118.562.18.856.182v.02zm-9.845-7.016c2.43-.004 4.402 2.05 4.406 4.588.004 2.537-1.962 4.598-4.391 4.602-2.43.004-4.402-2.05-4.406-4.587v-.015c0-2.534 1.966-4.588 4.391-4.588zm-.041 6.952c1.199.04 2.23-.878 2.383-2.121.152-1.243-.626-2.404-1.796-2.68-1.17-.276-2.35.423-2.723 1.615-.374 1.19.18 2.483 1.28 2.985.272.117.562.178.856.179v.022zM51.322 21.4h-.732l.403-.7a.913.913 0 0 0-1.582-.913L48.48 21.4h-3.41l1.707-2.954h1.863a.913.913 0 0 0 0-1.826h-.807l.366-.635a.913.913 0 1 0-1.582-.913l-.366.634-.403-.699a.913.913 0 0 0-1.582.914l.931 1.612-1.705 2.954-1.708-2.954.932-1.612a.913.913 0 1 0-1.582-.914l-.404.7-.366-.635a.913.913 0 1 0-1.582.913l.364.635h-.807a.913.913 0 0 0 0 1.827h1.863L41.91 21.4h-3.415l-.931-1.613a.913.913 0 0 0-1.582.913l.403.7h-.731a.913.913 0 1 0 0 1.826h.734l-.403.699a.913.913 0 0 0 1.582.913l.931-1.612h3.411l-1.708 2.954h-1.863a.913.913 0 0 0 0 1.826h.808l-.366.635a.913.913 0 0 0 1.581.913l.367-.634.403.699a.914.914 0 1 0 1.582-.914l-.932-1.612 1.708-2.954 1.705 2.954-.931 1.612a.913.913 0 0 0 1.582.914l.404-.7.366.635a.913.913 0 1 0 1.582-.913l-.367-.636h.807a.913.913 0 0 0 0-1.827h-1.863l-1.708-2.954h3.411l.932 1.612a.913.913 0 1 0 1.582-.913l-.403-.699h.731a.913.913 0 1 0 0-1.826l.003.001z"/>
</svg>
