<svg xmlns="http://www.w3.org/2000/svg" width="84" height="56" viewBox="0 0 84 56">
    <path fill="#000" fill-rule="evenodd" d="M68.603 34.853V44.91h-2.059V34.853H4.18a.63.63 0 0 1-.41-.134.453.453 0 0 1-.175-.34V12.411a.453.453 0 0 1 .176-.34.63.63 0 0 1 .409-.133h.055v.003h77.463a.63.63 0 0 1 .408.133c.11.089.173.211.177.34v21.965a.454.454 0 0 1-.177.34.632.632 0 0 1-.408.134H68.603zm-44.4.796c2.43-.004 4.402 2.05 4.406 4.587.004 2.538-1.962 4.598-4.39 4.602-2.43.005-4.402-2.05-4.406-4.587v-.015c0-2.533 1.966-4.587 4.39-4.587zm-.041 6.952c1.2.04 2.231-.878 2.383-2.122.153-1.243-.625-2.403-1.796-2.68-1.17-.275-2.35.424-2.723 1.615-.373 1.191.181 2.484 1.28 2.985.272.118.562.18.856.182v.02zm-9.845-7.016c2.43-.004 4.402 2.05 4.406 4.588.004 2.537-1.962 4.598-4.391 4.602-2.43.004-4.402-2.05-4.406-4.587v-.015c0-2.534 1.966-4.588 4.391-4.588zm-.041 6.952c1.199.04 2.23-.878 2.383-2.121.152-1.243-.626-2.404-1.796-2.68-1.17-.276-2.35.423-2.723 1.615-.374 1.19.18 2.483 1.28 2.985.272.117.562.178.856.179v.022zM52.433 29.24l-.156-.268-8.065-13.978-.096-.166a.585.585 0 0 0-1.02.007l-.097.167-8.152 14.14-.051.09a.571.571 0 0 0 .094.695.58.58 0 0 0 .411.168h16.622a.58.58 0 0 0 .51-.855zm-7.725-1.521a.252.252 0 0 1-.05.177.249.249 0 0 1-.176.05h-1.74a.245.245 0 0 1-.176-.05.25.25 0 0 1-.05-.177V26.12a.187.187 0 0 1 .227-.227h1.739a.187.187 0 0 1 .226.227v1.597zm-.184-3.486a.247.247 0 0 1-.05.177.25.25 0 0 1-.177.052h-1.371a.188.188 0 0 1-.226-.227l-.183-5.41a.187.187 0 0 1 .226-.227h1.739a.187.187 0 0 1 .226.226l-.184 5.409z"/>
</svg>
