<svg xmlns="http://www.w3.org/2000/svg" width="32" height="32" viewBox="0 0 32 32">
    <path fill="#000" fill-rule="evenodd" d="M22.172 17.672H25.7l1.883-2.354h4.04v.589a.196.196 0 0 1-.197.196h-3.354l-1.817 2.354h-3.044v3.531h-.785v-3.531H2.196A.196.196 0 0 1 2 18.261v-.589h4.775a3.335 3.335 0 1 1 .494 0h6.96a3.335 3.335 0 1 1 .495 0h6.96a3.337 3.337 0 0 1 .247-6.67 3.337 3.337 0 0 1 .24 6.67zM9.39 18.862a1.57 1.57 0 1 1 0 3.138 1.57 1.57 0 0 1 0-3.139zm0 2.387a.818.818 0 1 0 0-1.637.818.818 0 0 0 0 1.637zm3.75-2.388a1.57 1.57 0 1 1 0 3.139 1.57 1.57 0 0 1 0-3.139zm0 2.388h.01a.818.818 0 1 0-.01 0zM5.644 18.86a1.57 1.57 0 1 1 0 3.139 1.57 1.57 0 0 1 0-3.139zm0 2.388a.818.818 0 1 0-.004-1.637.818.818 0 0 0 .004 1.637zm1.373-8.26a1.361 1.361 0 1 1 0 2.724 1.361 1.361 0 0 1 0-2.723zm0 2.068a.708.708 0 1 0 0-1.416.708.708 0 0 0 0 1.416zm7.455-2.067a1.361 1.361 0 1 1 0 2.723 1.361 1.361 0 0 1 0-2.723zm0 2.067a.708.708 0 1 0 0-1.416.708.708 0 0 0 0 1.416zm7.455-2.067a1.361 1.361 0 1 1 0 2.723 1.361 1.361 0 0 1 0-2.723zm0 2.067a.708.708 0 1 0 0-1.416.708.708 0 0 0 0 1.416zm.005 1.026v-.006c.961 0 1.74-.779 1.74-1.74a1.74 1.74 0 1 0-1.74 1.746zm-7.454 0a1.74 1.74 0 1 0 0-3.48 1.74 1.74 0 0 0 0 3.48zm-7.455 0a1.74 1.74 0 1 0 0-3.48 1.74 1.74 0 0 0 0 3.48z"/>
</svg>
