<svg xmlns="http://www.w3.org/2000/svg" width="84" height="56" viewBox="0 0 84 56">
    <path fill="#000" fill-rule="evenodd" d="M57.508 31.837h9.151l4.885-6.105h10.477v1.526a.509.509 0 0 1-.509.509h-8.7l-4.713 6.106h-7.897v9.159h-2.035v-9.16H5.697a.509.509 0 0 1-.51-.508v-1.526h12.385a8.65 8.65 0 1 1 1.283 0h18.053a8.65 8.65 0 1 1 1.282 0h18.054a8.656 8.656 0 0 1 .64-17.3 8.656 8.656 0 0 1 .624 17.3zm-33.153 3.084a4.07 4.07 0 1 1 0 8.141 4.07 4.07 0 0 1 0-8.14zm0 6.193a2.122 2.122 0 1 0 0-4.244 2.122 2.122 0 0 0 0 4.244zm9.729-6.193a4.07 4.07 0 1 1 0 8.141 4.07 4.07 0 0 1 0-8.14zm0 6.193h.025a2.122 2.122 0 1 0-.025 0zM14.636 34.92a4.07 4.07 0 1 1 0 8.141 4.07 4.07 0 0 1 0-8.14zm0 6.193a2.122 2.122 0 1 0-.01-4.244 2.122 2.122 0 0 0 .01 4.244zm3.562-21.422a3.531 3.531 0 1 1 0 7.062 3.531 3.531 0 0 1 0-7.062zm0 5.363a1.837 1.837 0 1 0 0-3.674 1.837 1.837 0 0 0 0 3.674zm19.336-5.363a3.531 3.531 0 1 1 0 7.062 3.531 3.531 0 0 1 0-7.062zm0 5.363a1.837 1.837 0 1 0 0-3.674 1.837 1.837 0 0 0 0 3.674zm19.335-5.363a3.531 3.531 0 1 1 0 7.062 3.531 3.531 0 0 1 0-7.062zm0 5.363a1.837 1.837 0 1 0 0-3.674 1.837 1.837 0 0 0 0 3.674zm.016 2.661v-.015a4.513 4.513 0 0 0 4.513-4.514 4.513 4.513 0 1 0-4.513 4.529zm-19.336 0a4.513 4.513 0 1 0 0-9.027 4.513 4.513 0 0 0 0 9.027zm-19.335 0a4.513 4.513 0 1 0 0-9.027 4.513 4.513 0 0 0 0 9.027z"/>
</svg>
