<svg xmlns="http://www.w3.org/2000/svg" width="32" height="32" viewBox="0 0 32 32">
    <path fill="#000" fill-rule="evenodd" d="M26.064 18.835v3.877h-.794v-3.877H1.225a.243.243 0 0 1-.157-.052.174.174 0 0 1-.068-.13v-8.47a.174.174 0 0 1 .068-.132.243.243 0 0 1 .157-.051h.022v.001h29.865a.243.243 0 0 1 .157.052.175.175 0 0 1 .068.13v8.47a.175.175 0 0 1-.068.13.244.244 0 0 1-.157.052h-5.048zm-17.118.307c.937-.002 1.697.79 1.698 1.768.002.979-.756 1.773-1.692 1.775-.937.001-1.697-.79-1.699-1.769v-.006c0-.977.758-1.768 1.693-1.768zm-.016 2.68c.462.016.86-.339.919-.818.058-.48-.241-.927-.693-1.033-.45-.106-.905.163-1.05.622-.144.46.07.958.494 1.151.105.046.217.07.33.07v.008zm-3.796-2.705c.937-.001 1.697.79 1.699 1.769.001.978-.757 1.773-1.693 1.774-.937.002-1.697-.79-1.698-1.768v-.006c0-.977.757-1.769 1.692-1.769zm-.016 2.68c.463.016.86-.338.92-.817.058-.48-.242-.927-.693-1.033-.451-.107-.906.163-1.05.622-.144.46.07.957.494 1.15a.836.836 0 0 0 .33.07v.008zM19.83 16.67l-.06-.103-3.11-5.389-.037-.064a.225.225 0 0 0-.393.003l-.037.064-3.143 5.451-.02.035a.22.22 0 0 0 .036.268c.042.042.1.065.159.065h6.408a.224.224 0 0 0 .197-.33zm-2.979-.586a.097.097 0 0 1-.019.068.096.096 0 0 1-.068.02h-.67a.095.095 0 0 1-.069-.02.096.096 0 0 1-.019-.068v-.616a.072.072 0 0 1 .088-.087h.67a.072.072 0 0 1 .087.087v.616zm-.07-1.344a.095.095 0 0 1-.02.068.096.096 0 0 1-.068.02h-.529a.072.072 0 0 1-.087-.087l-.07-2.086a.072.072 0 0 1 .087-.088h.67a.072.072 0 0 1 .087.088l-.07 2.085z"/>
</svg>
