<svg xmlns="http://www.w3.org/2000/svg" width="32" height="32" viewBox="0 0 32 32">
    <path fill="#000" fill-rule="evenodd" d="M26.064 18.835v3.877h-.794v-3.877H1.225a.243.243 0 0 1-.157-.052.174.174 0 0 1-.068-.13v-8.47a.174.174 0 0 1 .068-.132.243.243 0 0 1 .157-.051h.022v.001h29.865a.243.243 0 0 1 .157.052.175.175 0 0 1 .068.13v8.47a.175.175 0 0 1-.068.13.244.244 0 0 1-.157.052h-5.048zm-17.118.307c.937-.002 1.697.79 1.698 1.768.002.979-.756 1.773-1.692 1.775-.937.001-1.697-.79-1.699-1.769v-.006c0-.977.758-1.768 1.693-1.768zm-.016 2.68c.462.016.86-.339.919-.818.058-.48-.241-.927-.693-1.033-.45-.106-.905.163-1.05.622-.144.46.07.958.494 1.151.105.046.217.07.33.07v.008zm-3.796-2.705c.937-.001 1.697.79 1.699 1.769.001.978-.757 1.773-1.693 1.774-.937.002-1.697-.79-1.698-1.768v-.006c0-.977.757-1.769 1.692-1.769zm-.016 2.68c.463.016.86-.338.92-.817.058-.48-.242-.927-.693-1.033-.451-.107-.906.163-1.05.622-.144.46.07.957.494 1.15a.836.836 0 0 0 .33.07v.008zm13.25-8.291v-.468a2.038 2.038 0 1 0-4.077 0v.468c-.16 0-.291.13-.291.291v2.912c0 .16.13.291.291.291h4.077c.16 0 .29-.13.29-.291v-2.912c0-.16-.13-.291-.29-.291zm-1.747 1.957v.627a.291.291 0 1 1-.583 0v-.627a.582.582 0 1 1 .583 0zm1.164-1.957h-2.911v-.468a1.456 1.456 0 1 1 2.911 0v.468z"/>
</svg>
