<?xml version="1.0" encoding="UTF-8"?>
<svg width="24px" height="24px" viewBox="0 0 24 24" version="1.1" xmlns="http://www.w3.org/2000/svg" xmlns:xlink="http://www.w3.org/1999/xlink">
    <!-- Generator: Sketch 63.1 (92452) - https://sketch.com -->
    <title>➕ICONS/FREIGHT&amp;LOGISTICS/Fernetti-Lights</title>
    <desc>Created with Sketch.</desc>
    <g id="➕ICONS/FREIGHT&amp;LOGISTICS/Fernetti-Lights" stroke="none" stroke-width="1" fill="none" fill-rule="evenodd">
        <path fill="#000" d="M12,2 C13.3062521,2 14.4175144,2.8348501 14.8293257,4.00008893 L19,4 L19,20 L15,20 L15,22 L9,22 L9,20 L5,20 L5,4 L9.17067428,4.00008893 C9.58248558,2.8348501 10.6937479,2 12,2 Z M12,15 C10.8954305,15 10,15.8954305 10,17 C10,18.1045695 10.8954305,19 12,19 C13.1045695,19 14,18.1045695 14,17 C14,15.8954305 13.1045695,15 12,15 Z M12,10 C10.8954305,10 10,10.8954305 10,12 C10,13.1045695 10.8954305,14 12,14 C13.1045695,14 14,13.1045695 14,12 C14,10.8954305 13.1045695,10 12,10 Z M12,5 C10.8954305,5 10,5.8954305 10,7 C10,8.1045695 10.8954305,9 12,9 C13.1045695,9 14,8.1045695 14,7 C14,5.8954305 13.1045695,5 12,5 Z" id="Combined-Shape"></path>
    </g>
</svg>