<svg xmlns="http://www.w3.org/2000/svg" width="84" height="56" viewBox="0 0 84 56">
    <path fill="#000" fill-rule="evenodd" d="M13.844 51.378c-2.322 0-4.065-1.882-4.065-4.204a4.204 4.204 0 1 1 8.409 0c0 2.322-2.022 4.204-4.344 4.204m.14-12.28a8.076 8.076 0 1 1-.002 16.153 8.076 8.076 0 0 1 .001-16.153zm34.383 0a8.076 8.076 0 1 1-4.058 1.093l-1.92-4.033-7.954 14.49a.256.256 0 0 1-.224.131h-8.05a.257.257 0 0 1-.245-.178l-3.105-9.316a.265.265 0 0 0-.086-.124l-6.383-5.433a.257.257 0 0 0-.167-.061h-9.7a.257.257 0 0 1-.257-.257v-2.468c0-.141.115-.256.257-.256l12.422-.001c.052 0 .099.015.139.04l3.684 2.346a.26.26 0 0 0 .14.042h4.594a.254.254 0 0 0 .192-.088l4.218-4.21a.256.256 0 0 1 .177-.07h7.773l-1.533-3.224h-4.596a.257.257 0 0 1-.257-.257v-1.289c0-.141.114-.256.257-.256h5.75c.103 0 .19.058.232.145 0 0 4.228 8.85 6.527 13.53a8.07 8.07 0 0 1 2.173-.296zm0 12.28a4.204 4.204 0 1 0 0-8.408 4.204 4.204 0 0 0 0 8.408z"/>
</svg>
