<svg xmlns="http://www.w3.org/2000/svg" viewBox="0 0 32 32">
    <title>Motorcycle</title>
    <path fill="#000" fill-rule="evenodd" d="M7.77 21.19c-1.1 0-1.93-.9-1.93-2a2 2 0 114 0c0 1.1-.97 2-2.07 2m.07-5.84a3.84 3.84 0 110 7.67 3.84 3.84 0 010-7.67zM19.92 9c.05 0 .1.03.11.07 0 0 2.01 4.2 3.1 6.42a3.83 3.83 0 11-.9.38l-.9-1.91-3.78 6.88a.12.12 0 01-.1.06h-3.83a.12.12 0 01-.12-.08l-1.47-4.43a.13.13 0 00-.04-.06l-3.03-2.58a.12.12 0 00-.08-.03H4.27a.12.12 0 01-.12-.12v-1.17c0-.07.05-.12.12-.12h5.9c.02 0 .05 0 .07.02l1.74 1.11.07.02h2.18c.04 0 .07-.02.1-.04l2-2a.12.12 0 01.08-.03h3.7l-.74-1.53H17.2a.12.12 0 01-.12-.13v-.6c0-.08.05-.13.12-.13zm4.24 8.2a2 2 0 100 3.99 2 2 0 000-4z"/>
</svg>
