<svg xmlns="http://www.w3.org/2000/svg" width="84" height="56" viewBox="0 0 84 56">
    <g fill="none" fill-rule="evenodd">
        <g stroke-linecap="square">
            <path stroke="#4D4E4C" d="M1 23V13h6"/>
            <path stroke="#D8DAD9" d="M1 55h63v-6"/>
        </g>
        <path fill="#000" d="M14.921 52.297a2.427 2.427 0 1 1 0-4.854 2.427 2.427 0 0 1 0 4.854m0-7.091a4.663 4.663 0 1 1 0 9.326 4.663 4.663 0 0 1 0-9.326zm34.195 0a4.664 4.664 0 1 1-.002 9.327 4.664 4.664 0 0 1 .002-9.327zm0 7.09a2.427 2.427 0 1 0 0-4.853 2.427 2.427 0 0 0 0 4.854zm11.288-12.692a.8.8 0 0 1 .627.779v8.444a.8.8 0 0 1-.798.798l-5.24-.118a5.875 5.875 0 0 0-11.73.078h-21.63l-.476-.352a5.877 5.877 0 1 0-11.673 1.369l-.488.386-7.027-.714c.217-.362 0-24.524 0-24.524H38.9c4.09 0 10.416 3.382 12.024 4.282h-8.431s-1.121.042-1.121.902.075 1.611.213 2.534c.14.923.588 1.892 2.342 2.307.69.163 16.476 3.829 16.476 3.829z"/>
    </g>
</svg>
