<svg xmlns="http://www.w3.org/2000/svg" viewBox="0 0 32 32">
    <title>Private van</title>
    <path fill="#000" fill-rule="evenodd" d="M8.14 21.59a1.15 1.15 0 110-2.3 1.15 1.15 0 010 2.3m0-3.37a2.21 2.21 0 110 4.43 2.21 2.21 0 010-4.43zm16.21 0a2.21 2.21 0 110 4.43 2.21 2.21 0 010-4.43zm0 1.06a1.15 1.15 0 100 2.3 1.15 1.15 0 000-2.3zM19.51 9c1.94 0 4.94 1.6 5.7 2.03h-4s-.53.02-.53.43c0 .4.04.76.1 1.2.07.44.28.9 1.11 1.1l7.81 1.8c.17.05.3.2.3.38v4c0 .2-.17.38-.38.38l-2.48-.06a2.79 2.79 0 00-5.56.04H11.32l-.22-.17a2.79 2.79 0 10-5.54.65l-.23.18L2 20.63c.1-.17.01-10.4 0-11.53V9z"/>
</svg>
