<svg xmlns="http://www.w3.org/2000/svg" width="84" height="56" viewBox="0 0 84 56">
    <g fill="none" fill-rule="evenodd">
        <g stroke-linecap="square">
            <path stroke="#4D4E4C" d="M1 23V13h6"/>
            <path stroke="#D8DAD9" d="M1 55h63v-6"/>
        </g>
        <path fill="#000" d="M57.428 46.328v3.8H30.3v-.769a6.99 6.99 0 0 0-13.958 0v.768H6.32a3.78 3.78 0 0 1-3.8-3.8v-7.574c9.773-.14 34.28-.14 44.73-.14l-.139 6.651c.17.327.22.704.138 1.063h10.178zm-34.197-1.97a4.902 4.902 0 0 1 4.942 4.923 4.922 4.922 0 1 1-4.942-4.922zm0 7.482a2.56 2.56 0 1 0 .04-5.119 2.56 2.56 0 0 0-.04 5.119zM7.906 28.687h33.407a2 2 0 0 1 2 2v5.875H5.906v-5.874a2 2 0 0 1 2-2z"/>
    </g>
</svg>
