<svg xmlns="http://www.w3.org/2000/svg" width="32" height="32" viewBox="0 0 32 32">
  <path fill="#000" fill-rule="evenodd" d="M5.454544,6.5335277 C6.09817382,6.5335277 6.6199389,7.0856663 6.6199389,7.7667638 C6.6199389,8.4478614 6.09817382,9 5.454544,9 C4.81091417,9 4.28914911,8.4478614 4.28914911,7.7667638 C4.28914911,7.0856663 4.81091417,6.5335277 5.454544,6.5335277 Z M8.26140999,6.5335277 C8.90503983,6.5335277 9.42680489,7.0856663 9.42680489,7.7667638 C9.42680489,8.4478614 8.90503983,9 8.26140999,9 C7.61778017,9 7.0960151,8.4478614 7.0960151,7.7667638 C7.0960151,7.0856663 7.61778017,6.5335277 8.26140999,6.5335277 Z M2.65238918,6.5335277 C3.296019,6.5335277 3.81778408,7.0856663 3.81778408,7.7667638 L3.81778408,7.7667638 L3.81176727,7.8928551 C3.75208741,8.5147219 3.25579215,9 2.65238918,9 C2.00875935,9 1.48699429,8.4478614 1.48699429,7.7667638 C1.48699429,7.0856663 2.00875935,6.5335277 2.65238918,6.5335277 Z M20.2736559,6.5335277 C20.9172856,6.5335277 21.4390507,7.0856663 21.4390507,7.7667638 C21.4390507,8.4478614 20.9172856,9 20.2736559,9 C19.630026,9 19.1082609,8.4478614 19.1082609,7.7667638 C19.1082609,7.0856663 19.630026,6.5335277 20.2736559,6.5335277 Z M27.9278207,6.5246064 C28.5714505,6.5246064 29.0932156,7.076745 29.0932156,7.7578426 C29.0932156,8.4389401 28.5714505,8.9910787 27.9278207,8.9910787 C27.2841909,8.9910787 26.7624258,8.4389401 26.7624258,7.7578426 C26.7624258,7.076745 27.2841909,6.5246064 27.9278207,6.5246064 Z M5.68441555,7.1731275 C5.45509125,7.0736725 5.19173252,7.1302081 5.01716131,7.3163679 C4.8425901,7.5025277 4.79119154,7.7816439 4.88693626,8.0235458 C4.98268097,8.2654478 5.20671021,8.4224882 5.454544,8.4214286 L5.454544,8.4214286 L5.454544,8.4227405 L5.55070455,8.4146753 C5.67712264,8.3933284 5.79489464,8.3302505 5.88647405,8.233143 C6.00094832,8.1117588 6.06509385,7.9471741 6.06476712,7.7756851 L6.06476712,7.7756851 C6.06385991,7.5084383 5.91373984,7.2725824 5.68441555,7.1731275 Z M8.49128154,7.1731275 C8.26195724,7.0736725 7.99859851,7.1302081 7.8240273,7.3163679 C7.64945609,7.5025277 7.59805753,7.7816439 7.69380225,8.0235458 C7.78954696,8.2654478 8.0135762,8.4224882 8.26140999,8.4214286 L8.26140999,8.4214286 C8.4234656,8.4227405 8.57886578,8.3545273 8.69334004,8.233143 C8.80781431,8.1117588 8.87195985,7.9471741 8.87163311,7.7756851 L8.87163311,7.7756851 C8.8707259,7.5084383 8.72060584,7.2725824 8.49128154,7.1731275 Z M2.65998892,7.12470233 C2.32186934,7.1228908 2.04626596,7.411257 2.04414503,7.7690574 C2.04207198,8.1268578 2.31427417,8.4188192 2.65238918,8.4214286 L2.65238918,8.4214286 C2.82138756,8.4227405 2.97678774,8.3545273 3.09126201,8.233143 C3.20573628,8.1117588 3.26988181,7.9471741 3.26955884,7.7756851 L3.26955884,7.7756851 L3.26328659,7.6799178 C3.22077151,7.3673038 2.96737036,7.1263813 2.65998892,7.12470233 Z M20.5035274,7.1731275 C20.2742031,7.0736725 20.0108444,7.1302081 19.8362731,7.3163679 C19.6617019,7.5025277 19.6103034,7.7816439 19.7060481,8.0235458 C19.8017928,8.2654478 20.0258221,8.4224882 20.2736559,8.4214286 L20.2736559,8.4214286 C20.4357115,8.4227405 20.5911117,8.3545273 20.7055859,8.233143 C20.8200602,8.1117588 20.8842057,7.9471741 20.883879,7.7756851 L20.883879,7.7756851 C20.8829718,7.5084383 20.7328517,7.2725824 20.5035274,7.1731275 Z M28.1576923,7.1655182 C27.928368,7.0660632 27.6650093,7.1225988 27.490438,7.3087586 C27.3158668,7.4949184 27.2644682,7.7740346 27.3602129,8.0159365 C27.4559577,8.2578384 27.6799869,8.4148789 27.9278207,8.41382988 L27.9278207,8.41382988 C28.0897042,8.4127697 28.2449538,8.3447002 28.3593996,8.223543 C28.4738453,8.1023859 28.5381071,7.9380711 28.5380414,7.7667638 L28.5380414,7.7667638 C28.5371366,7.500829 28.3870165,7.2649731 28.1576923,7.1655182 Z M26.3168483,0.6008746 L29.9122154,1.0939067 C30.9791716,1.2516035 31,2.5900583 31,3.122449 L31,3.122449 L27.3733903,3.122449 C27.3733903,3.122449 27.1544448,3.1329446 27.1626274,3.3090087 C27.162567,3.4840913 27.1765858,3.6588617 27.204532,3.8314286 C27.2321762,4.0823036 27.4212635,4.2789032 27.6587881,4.3037318 C27.9974964,4.3900583 30.9814033,4.9988047 30.9814033,4.9988047 L30.9814033,4.9988047 L30.9814033,7.7103499 C30.9814033,7.9740525 30.7984115,8.2747522 30.5504551,8.2747522 L30.5504551,8.2747522 L29.4696134,8.2747522 L29.4696134,7.6780758 C29.4611914,6.7932287 28.7765135,6.0831432 27.9403425,6.0920554 C27.1041715,6.1009676 26.4331483,6.8255027 26.4415703,7.7103499 L26.4415703,7.7103499 L26.4415703,8.2747522 L21.7993313,8.2747522 C21.9789909,7.7815571 21.8778025,7.2231585 21.5384812,6.835277 L21.5384812,6.835277 L25.8501944,6.835277 L25.8501944,1.0495627 C25.8555862,0.9244783 25.9078501,0.8068215 25.9954256,0.7226177 C26.083001,0.6384138 26.1986705,0.5946025 26.3168483,0.6008746 L26.3168483,0.6008746 Z M25.1326087,0 C25.2035241,0 25.2588184,0.0695335 25.2588184,0.1553353 L25.2588184,0.1553353 L25.2588184,6.0711953 C25.2588184,6.1567347 25.2022845,6.2262682 25.1326087,6.2262682 L25.1326087,6.2262682 L0.126209787,6.2262682 C0.05653405,6.2262682 0,6.1567347 0,6.0711953 L0,6.0711953 L0,0.1553353 C0,0.0695335 0.05653405,0 0.126209787,0 L0.126209787,0 L25.1326087,0 Z" transform="translate(0 12)"/>
</svg>
