<svg xmlns="http://www.w3.org/2000/svg" width="84" height="56" viewBox="0 0 84 56">
    <g fill="none" fill-rule="evenodd">
        <path fill="#000" d="M16.652 31.478c1.729 0 3.13 1.432 3.13 3.198 0 1.767-1.401 3.199-3.13 3.199-1.73 0-3.13-1.432-3.13-3.199 0-1.766 1.4-3.198 3.13-3.198zm0 4.896v.004c.435 0 .852-.177 1.16-.492.307-.315.48-.742.479-1.187v-.012a1.682 1.682 0 0 0-1.022-1.55 1.62 1.62 0 0 0-1.792.371 1.709 1.709 0 0 0-.35 1.834 1.646 1.646 0 0 0 1.525 1.032zm-7.527-4.896c1.729 0 3.13 1.432 3.13 3.198 0 1.767-1.401 3.199-3.13 3.199-1.73 0-3.13-1.432-3.13-3.199 0-1.766 1.4-3.198 3.13-3.198zm0 4.896l.018.004c.436 0 .853-.177 1.16-.492.308-.315.48-.742.48-1.187.003-.928-.73-1.683-1.638-1.688-.908-.005-1.648.743-1.654 1.671-.006.928.725 1.686 1.634 1.692zm52.367-4.92c1.73 0 3.13 1.433 3.13 3.2 0 1.766-1.4 3.198-3.13 3.198-1.729 0-3.13-1.432-3.13-3.199 0-1.766 1.401-3.199 3.13-3.199zm0 4.9v-.002c.435 0 .852-.177 1.16-.49.307-.315.48-.741.48-1.186v-.01a1.682 1.682 0 0 0-1.022-1.55 1.62 1.62 0 0 0-1.793.372 1.709 1.709 0 0 0-.35 1.835 1.646 1.646 0 0 0 1.525 1.032zm-20.56-4.876c1.729 0 3.13 1.432 3.13 3.198 0 1.767-1.401 3.199-3.13 3.199-1.729 0-3.13-1.432-3.13-3.199 0-1.766 1.401-3.198 3.13-3.198zm0 4.896v.004c.435 0 .853-.177 1.16-.492.308-.315.48-.742.48-1.187v-.012a1.682 1.682 0 0 0-1.022-1.55 1.62 1.62 0 0 0-1.793.371 1.709 1.709 0 0 0-.35 1.834 1.646 1.646 0 0 0 1.525 1.032zM60.003 22.63s-.588.027-.566.484c0 .454.037.907.112 1.355.075.65.583 1.16 1.22 1.225.91.224 8.926 1.803 8.926 1.803v7.033c0 .684-.492 1.464-1.158 1.464h-2.903v-1.548c-.023-2.295-1.862-4.137-4.108-4.113-2.246.023-4.049 1.902-4.026 4.197v1.464H45.03a3.653 3.653 0 0 0-.7-3.734h11.582V17.262v-.008c.014-.325.154-.63.39-.848a1.18 1.18 0 0 1 .863-.316l9.658 1.279c2.866.409 2.922 3.88 2.922 5.261h-9.742zm-6.508-8.099c.145 0 .258.18.258.403v15.344c0 .222-.116.403-.258.403H2.259c-.143 0-.259-.18-.259-.403V14.934c0-.222.116-.403.259-.403h51.236z"/>
        <g stroke="#4D4E4C" stroke-linecap="square">
            <path d="M11 55H1v-6M61 55h10v-6"/>
        </g>
    </g>
</svg>
