<svg xmlns="http://www.w3.org/2000/svg" width="32" height="32" viewBox="0 0 32 32">
  <path fill="#000" fill-rule="evenodd" d="M17.728022,6.71186441 C18.3425146,6.71186441 18.8406593,7.22408103 18.8406593,7.8559322 C18.8406593,8.48778338 18.3425146,9 17.728022,9 C17.1135293,9 16.6153846,8.48778338 16.6153846,7.8559322 C16.6153846,7.22408103 17.1135293,6.71186441 17.728022,6.71186441 Z M1.8543956,6.71186441 C2.46888825,6.71186441 2.96703297,7.22408103 2.96703297,7.8559322 C2.96703297,8.48778338 2.46888825,9 1.8543956,9 C1.23990296,9 0.741758242,8.48778338 0.741758242,7.8559322 C0.741758242,7.22408103 1.23990296,6.71186441 1.8543956,6.71186441 Z M17.9474872,7.30643545 C17.7285445,7.21417149 17.477108,7.26661937 17.3104396,7.43931892 C17.1437713,7.61201855 17.0946995,7.87095343 17.1861099,8.09536485 C17.2775202,8.31977619 17.4914076,8.46546193 17.728022,8.46448873 L17.728022,8.46448873 C17.882577,8.46350527 18.0307984,8.40035746 18.1400632,8.2879605 C18.2493279,8.17556354 18.3106806,8.02312947 18.3106179,7.86420847 L18.3106179,7.86420847 C18.3097541,7.61750184 18.16643,7.39869933 17.9474872,7.30643545 Z M2.07386085,7.30521831 C1.85491808,7.21295443 1.60348162,7.26540224 1.43681326,7.43810186 C1.2701449,7.61080149 1.22107316,7.86973637 1.31248351,8.09414771 C1.40389385,8.31855905 1.61778126,8.4642448 1.8543956,8.46326181 L1.8543956,8.46326181 C2.00911494,8.46447887 2.15748014,8.40119781 2.26677214,8.28859012 C2.37606415,8.1759825 2.43730581,8.02329803 2.43699387,7.86420847 L2.43699387,7.86420847 C2.43612772,7.61628478 2.29280361,7.39748227 2.07386085,7.30521831 Z M16.0197338,0.763299763 L19.6660358,1.25328989 C20.7481073,1.41001368 20.7692308,2.7402104 20.7692308,3.26931628 L20.7692308,3.26931628 L17.0912436,3.26931628 C17.0912436,3.26931628 16.8691964,3.2797472 16.8774949,3.45472505 C16.8774336,3.62872731 16.8916511,3.80241946 16.9199931,3.97392163 C16.948029,4.22324878 17.1397951,4.41863535 17.3806846,4.44331075 C17.7241914,4.52910463 20.7503706,5.13409515 20.7503706,5.13409515 L20.7503706,5.13409515 L20.7503706,7.82891047 C20.7503706,8.09098604 20.5647864,8.38983051 20.3133173,8.38983051 L20.3133173,8.38983051 L19.2171634,8.38983051 L19.2171634,7.79683553 C19.2086222,6.91744782 18.5142446,6.21174341 17.6662277,6.22060063 C16.8182108,6.22945792 16.1376814,6.94952275 16.1462227,7.82891047 L16.1462227,7.82891047 L16.1462227,8.38983051 L3.23157847,8.38983051 C3.41378329,7.89967831 3.31116129,7.34472503 2.96703297,6.95923665 L2.96703297,6.95923665 L15.5464689,6.95923665 L15.5464689,1.20921941 C15.5519371,1.08490675 15.6049414,0.967975932 15.6937576,0.884291644 C15.7825736,0.80060728 15.8998818,0.757066271 16.0197338,0.763299763 L16.0197338,0.763299763 Z M14.7610386,0 C14.8026891,0 14.8351648,0.0681423559 14.8351648,0.152227373 L14.8351648,0.152227373 L14.8351648,5.94972465 C14.8351648,6.03355256 14.8019609,6.10169492 14.7610386,6.10169492 L14.7610386,6.10169492 L0.0741263118,6.10169492 C0.033203925,6.10169492 0,6.03355256 0,5.94972465 L0,5.94972465 L0,0.152227373 C0,0.0681423559 0.033203925,0 0.0741263118,0 L0.0741263118,0 L14.7610386,0 Z" transform="translate(6 12)"/>
</svg>
