<svg xmlns="http://www.w3.org/2000/svg" width="32" height="32" viewBox="0 0 32 32">
  <path fill="#000" fill-rule="evenodd" d="M5.45021872,6.4287306 C6.09333817,6.4287306 6.61468949,6.97201299 6.61468949,7.64218575 C6.61468949,8.31235851 6.09333817,8.8556409 5.45021872,8.8556409 C4.80709928,8.8556409 4.28574795,8.31235851 4.28574795,7.64218575 C4.28574795,6.97201299 4.80709928,6.4287306 5.45021872,6.4287306 Z M2.65028592,6.4287306 C3.29340537,6.4287306 3.81475669,6.97201299 3.81475669,7.64218575 L3.81475669,7.64218575 L3.80874466,7.76625453 C3.74911212,8.37814662 3.25321041,8.8556409 2.65028592,8.8556409 C2.00716647,8.8556409 1.48581515,8.31235851 1.48581515,7.64218575 C1.48581515,6.97201299 2.00716647,6.4287306 2.65028592,6.4287306 Z M14.4821614,6.4287306 C15.1252809,6.4287306 15.6466322,6.97201299 15.6466322,7.64218575 C15.6466322,8.31235851 15.1252809,8.8556409 14.4821614,8.8556409 C13.8390421,8.8556409 13.3176907,8.31235851 13.3176907,7.64218575 C13.3176907,6.97201299 13.8390421,6.4287306 14.4821614,6.4287306 Z M22.1302569,6.41995236 C22.7733763,6.41995236 23.2947276,6.96323475 23.2947276,7.6334076 C23.2947276,8.30358036 22.7733763,8.84686275 22.1302569,8.84686275 C21.4871374,8.84686275 20.9657861,8.30358036 20.9657861,7.6334076 C20.9657861,6.96323475 21.4871374,6.41995236 22.1302569,6.41995236 Z M5.67990798,7.05807126 C5.45076553,6.96021156 5.18761564,7.01584038 5.01318286,7.19901414 C4.83875007,7.3821879 4.78739227,7.65682713 4.88306107,7.89484896 C4.97872985,8.13287079 5.20258144,8.28739233 5.45021872,8.28634977 L5.45021872,8.28634977 L5.45021872,8.28764064 L5.54630302,8.2797048 C5.67262086,8.25870024 5.79029947,8.19663408 5.88180626,8.10108432 C5.99618975,7.98164694 6.06028442,7.81970229 6.05995795,7.65096399 L6.05995795,7.65096399 C6.05905145,7.38800379 5.90905043,7.15593096 5.67990798,7.05807126 Z M2.65787963,7.01042286 C2.32002817,7.00864038 2.04464334,7.29238122 2.04252409,7.6444425 C2.04045268,7.99650378 2.31243903,8.28378225 2.65028592,8.28634977 L2.65028592,8.28634977 C2.81915029,8.28764064 2.97442724,8.22052161 3.08881074,8.10108432 C3.20319422,7.98164694 3.26728889,7.81970229 3.26696618,7.65096399 L3.26696618,7.65096399 L3.26171695,7.56443727 C3.2224338,7.25310027 2.9675768,7.01208864 2.65787963,7.01042286 Z M14.7118507,7.05807126 C14.4827083,6.96021156 14.2195584,7.01584038 14.0451256,7.19901414 C13.8706928,7.3821879 13.819335,7.65682713 13.9150039,7.89484896 C14.0106726,8.13287079 14.2345242,8.28739233 14.4821614,8.28634977 L14.4821614,8.28634977 C14.6440885,8.28764064 14.7993655,8.22052161 14.913749,8.10108432 C15.0281325,7.98164694 15.0922272,7.81970229 15.0919007,7.65096399 L15.0919007,7.65096399 C15.0909942,7.38800379 14.9409931,7.15593096 14.7118507,7.05807126 Z M22.3599461,7.05058398 C22.1308036,6.95272428 21.8676538,7.0083531 21.693221,7.19152686 C21.5187882,7.37470062 21.4674304,7.64933985 21.5630992,7.88736168 C21.658768,8.12538351 21.8826195,8.27990505 22.1302569,8.2788729 L22.1302569,8.2788729 C22.292012,8.27782974 22.4471385,8.2108521 22.5614934,8.09163828 C22.6758484,7.97242446 22.7400592,7.81074531 22.7399937,7.64218575 L22.7399937,7.64218575 C22.7390896,7.38051651 22.5890886,7.14844368 22.3599461,7.05058398 Z M20.5205618,0.59123664 L24.113078,1.07636058 C25.1791882,1.23152787 25.2,2.54851407 25.2,3.07236519 L25.2,3.07236519 L21.5762661,3.07236519 C21.5762661,3.07236519 21.3574942,3.08269251 21.3656703,3.25593261 C21.3656099,3.42820683 21.3796176,3.60017397 21.4075417,3.76997283 C21.435164,4.01682393 21.6241014,4.21027002 21.8614375,4.23470034 C22.1738435,4.31310825 24.7383591,4.82951493 25.1310514,4.90849812 L25.1814181,4.91862438 L25.1814181,7.58667663 C25.1814181,7.84614951 24.9985714,8.14202604 24.7508116,8.14202604 L24.7508116,8.14202604 L23.6708269,8.14202604 L23.6708269,7.55492022 C23.6624116,6.68426598 22.9782766,5.98557015 22.1427687,5.99433948 C21.3072608,6.00310872 20.6367697,6.71602239 20.645185,7.58667663 L20.645185,7.58667663 L20.645185,8.14202604 L16.0066272,8.14202604 C16.1861443,7.65674172 16.0850361,7.10729982 15.7459839,6.72563979 L15.7459839,6.72563979 L20.054278,6.72563979 L20.054278,1.03272777 C20.0596656,0.90964971 20.1118881,0.79388019 20.199394,0.711027 C20.2869,0.62817372 20.4024777,0.58506516 20.5205618,0.59123664 L20.5205618,0.59123664 Z M19.1552006,0 C19.20925,0 19.2513933,0.06841818 19.2513933,0.15284376 L19.2513933,0.15284376 L19.2513933,5.97381399 C19.2513933,6.05798127 19.2083051,6.12639954 19.1552006,6.12639954 L19.1552006,6.12639954 L0.096192711,6.12639954 C0.043088292,6.12639954 0,6.05798127 0,5.97381399 L0,5.97381399 L0,0.15284376 C0,0.06841818 0.043088292,0 0.096192711,0 L0.096192711,0 L19.1552006,0 Z" transform="translate(3 12)"/>
</svg>
