<svg width="48" height="32" viewBox="0 0 48 32" fill="none" xmlns="http://www.w3.org/2000/svg">
<g id="americanexpress-light-large">
<rect id="card_bg" width="48" height="32" rx="4" fill="#DFE3E8"/>
<g id="amex">
<path id="Path" d="M3.65 10.54L4.19 11.86H2.38L2.93 10.54L3.29 9.66L3.65 10.54Z" fill="#296DB6"/>
<path id="Shape" fill-rule="evenodd" clip-rule="evenodd" d="M41.69 8.9V7.24H45.28V15.4H41.9L40.9 13.82V15.4H36L35.51 14.18H34.39L33.93 15.4H31.06C30.1945 15.4217 29.3453 15.1621 28.64 14.66V15.4H23.83L22.67 13.94V15.4H4.33L3.87 14.18H2.75L2.28 15.4H0V14.18H1.52L2 13H4.63L5.11 14.14H6.65L4.23 8.5H2.45L0 14.18V11L1.6 7.2H4.86L5.8 9.3V7.2H9.8L10.4 9L11 7.24H28.64V8.06C29.3524 7.50384 30.2366 7.21382 31.14 7.24H36.48L37.48 9.34V7.24H40.62L41.69 8.9ZM12.59 14.14H13.91V8.5H11.7L10.58 11.76L10.4 12.38L10.22 11.76L9.12 8.5H6.91V14.14H8.22V10.44V9.58L8.5 10.44L9.78 14.14H11L12.33 10.44L12.59 9.58V10.44V14.14ZM19.5 9.7H16.33V10.7H19.42V11.9H16.33V12.9H19.5V14.1H15V8.5H19.5V9.7ZM22.41 12.14L24.09 14.14H25.83L23.95 12.06C24.8453 11.9521 25.5119 11.1815 25.49 10.28C25.4973 9.76612 25.2808 9.27446 24.8969 8.93278C24.513 8.59111 23.9996 8.43316 23.49 8.5H20.4V14.14H21.79V12.14H22.41ZM27.48 14.14H26.11V8.5H27.48V14.14ZM30.9 14.14H30.98L31.53 12.94H31.1C30.685 12.9613 30.2819 12.7972 29.9999 12.492C29.7179 12.1868 29.586 11.772 29.64 11.36V11.28C29.5925 10.8712 29.7272 10.4621 30.0085 10.1616C30.2897 9.86113 30.6889 9.6996 31.1 9.72H32.59V8.5H31C30.2529 8.44684 29.5202 8.72484 28.9963 9.26022C28.4725 9.7956 28.2106 10.5342 28.28 11.28V11.36C28.1964 12.0915 28.4396 12.8226 28.9445 13.3583C29.4494 13.8941 30.1649 14.1801 30.9 14.14ZM36.76 14.14L36.28 13H33.61L33.13 14.18H31.67L34.09 8.5H35.89L38.3 14.14H36.76ZM42.35 14.14H43.95L44 8.46H42.6V11.46V12.14L42.22 11.5L40.22 8.5H38.56V14.18H39.9V11.04V10.38L40.26 11L42.35 14.14ZM35.9 11.86L35.36 10.54L35 9.66L34.64 10.54L34.12 11.86H35.9ZM21.79 9.7H23.37C23.5471 9.68019 23.7243 9.73632 23.8577 9.85448C23.9912 9.97265 24.0683 10.1418 24.07 10.32C24.0749 10.5004 23.9998 10.6737 23.8647 10.7933C23.7296 10.913 23.5485 10.9667 23.37 10.94H21.79V9.7Z" fill="#296DB6"/>
<path id="Shape_2" fill-rule="evenodd" clip-rule="evenodd" d="M48 19.16H45.07C44.5679 19.1017 44.0653 19.2646 43.6929 19.6063C43.3204 19.948 43.115 20.4348 43.13 20.94C43.0996 21.4069 43.2791 21.863 43.6194 22.1841C43.9598 22.5051 44.4257 22.6576 44.89 22.6H46.18C46.3825 22.5593 46.5895 22.6447 46.7044 22.8164C46.8192 22.988 46.8192 23.212 46.7044 23.3836C46.5895 23.5553 46.3825 23.6407 46.18 23.6H43.29V24.8H46.16C46.9542 24.8735 47.6995 24.4067 47.98 23.66V25.56C47.4338 25.8976 46.802 26.0712 46.16 26.06H30.54L29.38 24.6V26.06H25.95V24C25.4643 24.1502 24.9584 24.2244 24.45 24.22H23.89V26.06H18.84L18 24.84L17.14 26.06H8.88V17.9H17.16L18 19.1L18.86 17.9H48V19.16ZM47.46 20.36H45C44.7975 20.3193 44.5905 20.4047 44.4756 20.5764C44.3608 20.748 44.3608 20.972 44.4756 21.1436C44.5905 21.3153 44.7975 21.4007 45 21.36H46.31C47.0018 21.2889 47.6617 21.6671 47.95 22.3V19.2L47.46 20.36ZM14.71 20.36H11.54V21.36H14.65V22.54H11.54V23.54H14.71V24.74H10.18V19.16H14.71V20.36ZM18 23L19.36 24.8L21.08 24.84L18.8 22L21.04 19.16H19.38L18 20.94L16.63 19.18H14.93L17.2 22L15 24.8H16.59L18 23ZM24.36 22.94H22.66V24.8H21.32V19.16H24.43C24.9544 19.1041 25.4772 19.2798 25.8615 19.641C26.2458 20.0022 26.4534 20.5131 26.43 21.04C26.4473 21.574 26.2328 22.0895 25.8418 22.4537C25.4508 22.8178 24.9215 22.9952 24.39 22.94H24.36ZM29.07 22.8L30.75 24.8H32.49L30.6 22.72C31.2359 22.645 31.7835 22.2364 32.0365 21.6481C32.2895 21.0599 32.2095 20.3813 31.8265 19.8681C31.4436 19.3549 30.8159 19.085 30.18 19.16H27.12V24.8H28.45V22.8H29.07ZM37.33 20.36H34.19V21.36H37.28V22.54H34.19V23.54H37.36V24.74H32.81V19.16H37.36L37.33 20.36ZM38.08 24.8H41C41.4967 24.8401 41.9869 24.6666 42.3478 24.3229C42.7086 23.9793 42.9059 23.4981 42.89 23C42.9153 22.5378 42.7326 22.0885 42.392 21.7749C42.0514 21.4614 41.5885 21.3166 41.13 21.38H39.82C39.6175 21.4207 39.4105 21.3353 39.2956 21.1636C39.1808 20.992 39.1808 20.768 39.2956 20.5964C39.4105 20.4247 39.6175 20.3393 39.82 20.38H42.25L42.79 19.18H39.86C39.3615 19.1222 38.8623 19.2825 38.4906 19.6197C38.1189 19.9569 37.9109 20.4382 37.92 20.94C37.8896 21.4069 38.0691 21.863 38.4094 22.1841C38.7498 22.5051 39.2157 22.6576 39.68 22.6H41C41.2025 22.5593 41.4095 22.6447 41.5244 22.8164C41.6392 22.988 41.6392 23.212 41.5244 23.3836C41.4095 23.5553 41.2025 23.6407 41 23.6H38.08V24.8ZM30.06 20.36H28.48V21.6H30.06C30.2385 21.6267 30.4196 21.573 30.5547 21.4533C30.6898 21.3337 30.7649 21.1604 30.76 20.98C30.7615 20.8007 30.6853 20.6296 30.5511 20.5107C30.4169 20.3918 30.2378 20.3369 30.06 20.36ZM22.69 20.36H24.31C24.6911 20.36 25 20.6689 25 21.05C25 21.4311 24.6911 21.74 24.31 21.74H22.69V20.36Z" fill="#296DB6"/>
</g>
</g>
</svg>
