<!-- Generated by IcoMoon.io -->
<svg version="1.1" xmlns="http://www.w3.org/2000/svg" width="32" height="32" viewBox="0 0 32 32">
<title>Account</title>
<path fill="#000" d="M24.615 8.527c0 4.709-3.858 8.526-8.615 8.526-4.759 0-8.615-3.817-8.615-8.526 0-4.71 3.857-8.527 8.615-8.527 4.758 0 8.615 3.817 8.615 8.527zM31.896 26.642l0.104 1.088c-4.386 2.788-10.129 4.27-15.727 4.27-0.091 0-0.183-0.001-0.272-0.003-0.091 0.001-0.183 0.003-0.272 0.003-5.6 0-11.342-1.481-15.728-4.27l0.111-1.114c0.108-1.618 0.657-3.121 1.528-4.395 1.627-2.378 4.379-3.95 7.483-3.95h1.768l0.475 0.004c0.575 0 1.006 0.11 1.295 0.333 0.288 0.221 0.591 0.616 0.911 1.186l2.461 4.177 2.398-4.177c0.321-0.57 0.623-0.965 0.911-1.186 0.288-0.223 0.72-0.333 1.295-0.333l0.475-0.004h1.768c3.105 0 5.856 1.572 7.483 3.95 0.871 1.274 1.42 2.777 1.535 4.421z"></path>
</svg>
