<!-- Generated by IcoMoon.io -->
<svg version="1.1" xmlns="http://www.w3.org/2000/svg" width="32" height="32" viewBox="0 0 32 32">
<title>Account-Signed-In</title>
<path fill="#000" d="M19.394 27.743c-2.12 0.57-4.361 0.863-6.573 0.863-0.072 0-0.144-0.001-0.215-0.002-0.072 0.001-0.144 0.002-0.215 0.002-4.412 0-8.936-1.167-12.392-3.364l0.087-0.877c0.085-1.275 0.518-2.459 1.204-3.463 1.282-1.874 3.45-3.112 5.896-3.112h1.393l0.374 0.003c0.453 0 0.793 0.086 1.020 0.262 0.227 0.174 0.465 0.485 0.718 0.934l1.939 3.291 1.889-3.291c0.253-0.449 0.491-0.76 0.718-0.934 0.227-0.176 0.567-0.262 1.020-0.262l0.374-0.003h1.393c0.468 0 0.926 0.045 1.369 0.132v9.821zM12.606 16.829c-3.749 0-6.788-3.007-6.788-6.717s3.038-6.718 6.788-6.718c3.748 0 6.788 3.007 6.788 6.718s-3.039 6.717-6.788 6.717z"></path>
<path fill="#8c8c8c" d="M30.667 15.18h-2c0-1.112-0.895-2.014-2-2.014s-2 0.902-2 2.014v3.357h7.333v10.070h-10.667v-10.070h1.333v-3.357c0-2.225 1.791-4.028 4-4.028s4 1.803 4 4.028z"></path>
</svg>
