<!-- Generated by IcoMoon.io -->
<svg version="1.1" xmlns="http://www.w3.org/2000/svg" width="32" height="32" viewBox="0 0 32 32">
<title>Alert-Warning</title>
<path fill="#000" d="M0 16c0-8.836 7.164-16 16-16 8.837 0 16 7.164 16 16s-7.163 16-16 16c-8.836 0-16-7.164-16-16zM16 28c6.627 0 12-5.373 12-12s-5.373-12-12-12c-6.627 0-12 5.373-12 12s5.373 12 12 12zM14.090 8.084c0.060-0.055 0.167-0.084 0.323-0.084h3.174c0.155 0 0.261 0.029 0.323 0.084 0.059 0.057 0.090 0.157 0.090 0.302l-0.337 9.226c0 0.146-0.029 0.246-0.090 0.302-0.059 0.055-0.167 0.084-0.323 0.084h-2.503c-0.154 0-0.262-0.029-0.322-0.084-0.060-0.056-0.090-0.157-0.090-0.302l-0.335-9.226c0-0.146 0.029-0.245 0.090-0.302zM17.91 23.903c-0.061 0.066-0.168 0.097-0.323 0.097h-3.174c-0.155 0-0.262-0.031-0.323-0.097s-0.090-0.179-0.090-0.346v-3.116c0-0.166 0.030-0.28 0.090-0.346 0.060-0.062 0.168-0.095 0.323-0.095h3.174c0.155 0 0.261 0.033 0.323 0.095 0.060 0.066 0.090 0.18 0.090 0.346v3.116c0 0.167-0.030 0.28-0.090 0.346z"></path>
</svg>
