<!-- Generated by IcoMoon.io -->
<svg version="1.1" xmlns="http://www.w3.org/2000/svg" width="32" height="32" viewBox="0 0 32 32">
<title>Burger-Menu</title>
<path fill="#000" d="M1.846 23.692h28.308c1.020 0 1.846 0.827 1.846 1.846s-0.827 1.846-1.846 1.846h-28.308c-1.020 0-1.846-0.827-1.846-1.846s0.827-1.846 1.846-1.846zM1.846 13.846h28.308c1.020 0 1.846 0.827 1.846 1.846s-0.827 1.846-1.846 1.846h-28.308c-1.020 0-1.846-0.827-1.846-1.846s0.827-1.846 1.846-1.846zM1.846 4h28.308c1.020 0 1.846 0.827 1.846 1.846s-0.827 1.846-1.846 1.846h-28.308c-1.020 0-1.846-0.827-1.846-1.846s0.827-1.846 1.846-1.846z"></path>
</svg>
