<!-- Generated by IcoMoon.io -->
<svg version="1.1" xmlns="http://www.w3.org/2000/svg" width="32" height="32" viewBox="0 0 32 32">
<title>Cancelled</title>
<path fill="#000" d="M23.067 6.3c-1.982-1.447-4.425-2.3-7.067-2.3-6.627 0-12 5.373-12 12 0 2.618 0.838 5.040 2.261 7.013l16.805-16.712zM25.862 9.162l-16.755 16.662c1.95 1.371 4.328 2.176 6.893 2.176 6.627 0 12-5.373 12-12 0-2.541-0.79-4.898-2.138-6.838zM16 0c4.243 0 8.313 1.686 11.314 4.686s4.686 7.070 4.686 11.314c0 8.837-7.163 16-16 16s-16-7.163-16-16c0-8.837 7.163-16 16-16z"></path>
</svg>
