<!-- Generated by IcoMoon.io -->
<svg version="1.1" xmlns="http://www.w3.org/2000/svg" width="32" height="32" viewBox="0 0 32 32">
<title>Complete</title>
<path fill="#000" d="M16 0c4.095 0 8.189 1.562 11.313 4.687 6.249 6.248 6.249 16.378 0 22.626-3.124 3.125-7.218 4.687-11.313 4.687s-8.189-1.562-11.313-4.687c-6.249-6.248-6.249-16.378 0-22.626 3.124-3.125 7.218-4.687 11.313-4.687zM16 4c-3.205 0-6.219 1.248-8.485 3.515-4.679 4.678-4.679 12.292 0 16.97 2.266 2.267 5.28 3.515 8.485 3.515s6.219-1.248 8.485-3.515c4.679-4.678 4.679-12.292 0-16.97-2.266-2.267-5.28-3.515-8.485-3.515zM19.987 9.961c0.386-0.733 1.293-1.015 2.026-0.629s1.015 1.293 0.629 2.026l-5.821 11.064c-0.443 0.842-1.548 1.064-2.282 0.459l-6.197-5.113c-0.639-0.527-0.73-1.473-0.202-2.112s1.473-0.73 2.112-0.202l4.774 3.939 4.962-9.431z"></path>
</svg>
