<!-- Generated by IcoMoon.io -->
<svg version="1.1"
  xmlns="http://www.w3.org/2000/svg" width="32" height="32" viewBox="0 0 32 32">
  <title>Credit-Card-Payment</title>
  <path color="#000" d="M29.752 22.503v-0.595c0-0.159-0.131-0.29-0.292-0.29h-2.625c-0.16 0-0.292 0.13-0.292 0.29v0.595c0 0.159 0.131 0.29 0.292 0.29h2.625c0.16 0 0.292-0.13 0.292-0.29zM25.409 22.503v-0.595c0-0.159-0.131-0.29-0.292-0.29h-2.625c-0.16 0-0.292 0.13-0.292 0.29v0.595c0 0.159 0.131 0.29 0.292 0.29h2.625c0.16 0 0.292-0.13 0.292-0.29zM21.066 22.503v-0.595c0-0.159-0.131-0.29-0.292-0.29h-2.625c-0.16 0-0.292 0.13-0.292 0.29v0.595c0 0.159 0.131 0.29 0.292 0.29h2.625c0.16 0 0.292-0.13 0.292-0.29zM21.066 25.965v-0.595c0-0.159-0.131-0.29-0.292-0.29h-6.968c-0.16 0-0.292 0.13-0.292 0.29v0.595c0 0.159 0.131 0.29 0.292 0.29h6.968c0.16 0 0.292-0.13 0.292-0.29zM16.723 21.908c0-0.159-0.131-0.29-0.292-0.29h-2.625c-0.16 0-0.292 0.13-0.292 0.29v0.595c0 0.159 0.131 0.29 0.292 0.29h2.625c0.16 0 0.292-0.13 0.292-0.29v-0.595zM13.241 19.305c0 0.372 0.306 0.676 0.681 0.676h3.255c0.374 0 0.681-0.304 0.681-0.676v-2.264c0-0.372-0.306-0.676-0.681-0.676h-3.255c-0.374 0-0.681 0.304-0.681 0.676v2.264zM31.222 14.5c0.428 0 0.778 0.348 0.778 0.773v11.455c0 0.425-0.35 0.773-0.778 0.773h-18.944c-0.428 0-0.778-0.348-0.778-0.773v-11.455c0-0.425 0.35-0.773 0.778-0.773h18.944zM16.615 6.134c0.367-0.211 0.84-0.085 1.052 0.281l0.826 1.429-17.564 10.127-0.826-1.429c-0.212-0.366-0.085-0.839 0.282-1.050l16.231-9.358zM22 13.5h-8.5l6.375-3.5 2.125 3.5zM10.998 17.563v6.504l-4.21 2.33c-0.381 0.211-0.873 0.085-1.093-0.281l-3.695-6.136 9-4.981c-0.001 0.019-0.002 0.039-0.002 0.058v1.364c-0.093-0.068-0.225-0.081-0.332-0.021l-6.205 3.434c-0.143 0.079-0.192 0.256-0.11 0.393l0.308 0.512c0.083 0.137 0.267 0.184 0.41 0.105l5.929-3.282z"></path>
</svg>
