<!-- Generated by IcoMoon.io -->
<svg version="1.1" xmlns="http://www.w3.org/2000/svg" width="32" height="32" viewBox="0 0 32 32">
<title>Cusomer-Service</title>
<path fill="#000" d="M22.216 18.428c2.821 0 5.109-2.287 5.109-5.109s-2.288-5.108-5.109-5.108-5.109 2.287-5.109 5.108c0 2.822 2.288 5.109 5.109 5.109zM31.269 24.932l0.004 0.016 0.060 0.629c-2.512 1.613-5.497 1.988-8.703 1.988-3.588 0-6.9-0.608-9.578-2.588l0.002-0.036c0.175-2.691 2.43-4.838 5.162-4.838l1.338 0.003c0.329 0 0.577 0.063 0.741 0.191s0.339 0.357 0.522 0.687l1.373 2.416 1.373-2.416c0.184-0.33 0.356-0.559 0.522-0.687s0.412-0.191 0.741-0.191l0.272-0.003h1.012c1.779 0 3.354 0.909 4.286 2.285 0.499 0.736 0.813 1.607 0.875 2.543zM10.572 7.967v-0.653c0-0.737-0.212-1.305-0.64-1.703-0.428-0.397-1.055-0.596-1.886-0.596-0.435 0-1.256 0.012-2.463 0.038-0.077 0-0.128 0.014-0.157 0.044s-0.044 0.080-0.044 0.156v1.27c0 0.075 0.014 0.127 0.044 0.158s0.080 0.043 0.157 0.043c0.151 0 0.272-0.004 0.364-0.011 0.822-0.018 1.479-0.027 1.974-0.027 0.293 0 0.505 0.063 0.635 0.188s0.196 0.336 0.196 0.63v0.289c0 0.193-0.030 0.346-0.088 0.459-0.060 0.112-0.185 0.211-0.378 0.295l-0.666 0.276c-0.394 0.168-0.695 0.38-0.906 0.634-0.209 0.256-0.313 0.647-0.313 1.176v0.465c0 0.076 0.014 0.128 0.044 0.158 0.028 0.028 0.082 0.044 0.156 0.044h1.421c0.076 0 0.128-0.016 0.158-0.044 0.028-0.030 0.044-0.082 0.044-0.158v-0.301c0-0.176 0.010-0.301 0.031-0.371 0.021-0.071 0.069-0.134 0.145-0.189 0.074-0.054 0.217-0.123 0.426-0.207l0.303-0.126c0.419-0.167 0.764-0.403 1.037-0.704s0.408-0.713 0.408-1.232zM8.298 13.687v-1.421c0-0.075-0.014-0.128-0.043-0.158-0.029-0.028-0.083-0.043-0.157-0.043h-1.559c-0.075 0-0.128 0.015-0.158 0.043-0.028 0.030-0.043 0.083-0.043 0.158v1.421c0 0.075 0.015 0.127 0.043 0.156 0.030 0.030 0.083 0.045 0.158 0.045h1.559c0.074 0 0.128-0.014 0.157-0.045s0.043-0.081 0.043-0.156zM13.676 13.289l2.692 2.869h-9.66c-3.689 0-6.707-3.018-6.707-6.707s3.018-6.707 6.707-6.707h1.482c3.689 0 6.707 3.018 6.707 6.707 0 1.426-0.455 2.748-1.221 3.838z"></path>
</svg>
