<!-- Generated by IcoMoon.io -->
<svg version="1.1" xmlns="http://www.w3.org/2000/svg" width="32" height="32" viewBox="0 0 32 32">
<title>Date</title>
<path fill="#000" d="M28.125 30.129h-26.25v-26.182h3.75v0.728c0 0.512 0.422 0.934 0.938 0.934s0.938-0.422 0.938-0.934v-0.728h15v0.728c0 0.512 0.422 0.934 0.938 0.934s0.938-0.422 0.938-0.934v-0.728h3.75v26.182zM24.375 2.078v-1.144c0-0.514-0.422-0.934-0.938-0.934s-0.938 0.42-0.938 0.934v1.144h-15v-1.144c0-0.514-0.422-0.934-0.938-0.934s-0.938 0.42-0.938 0.934v1.144h-4.357c-0.699 0-1.268 0.584-1.268 1.303v27.315c0 0.721 0.568 1.304 1.268 1.304h27.465c0.699 0 1.267-0.584 1.267-1.304v-27.315c0-0.719-0.568-1.303-1.267-1.303h-4.358zM7.5 7.685c1.031 0 1.875 0.841 1.875 1.869v1.871c0 1.028-0.844 1.869-1.875 1.869h-1.875c-1.031 0-1.875-0.841-1.875-1.869v-1.871c0-1.028 0.844-1.869 1.875-1.869h1.875zM24.375 7.685c1.031 0 1.875 0.841 1.875 1.869v1.871c0 1.028-0.844 1.869-1.875 1.869h-1.875c-1.031 0-1.875-0.841-1.875-1.869v-1.871c0-1.028 0.844-1.869 1.875-1.869h1.875zM15.771 7.685c1.031 0 1.875 0.841 1.875 1.869v1.871c0 1.028-0.844 1.869-1.875 1.869h-1.875c-1.031 0-1.875-0.841-1.875-1.869v-1.871c0-1.028 0.844-1.869 1.875-1.869h1.875zM7.5 15.165c1.031 0 1.875 0.841 1.875 1.871v1.869c0 1.030-0.844 1.869-1.875 1.869h-1.875c-1.031 0-1.875-0.84-1.875-1.869v-1.869c0-1.030 0.844-1.871 1.875-1.871h1.875zM24.375 15.165c1.031 0 1.875 0.841 1.875 1.871v1.869c0 1.030-0.844 1.869-1.875 1.869h-1.875c-1.031 0-1.875-0.84-1.875-1.869v-1.869c0-1.030 0.844-1.871 1.875-1.871h1.875zM15.771 15.165c1.031 0 1.875 0.841 1.875 1.871v1.869c0 1.030-0.844 1.869-1.875 1.869h-1.875c-1.031 0-1.875-0.84-1.875-1.869v-1.869c0-1.030 0.844-1.871 1.875-1.871h1.875zM7.5 22.646c1.031 0 1.875 0.841 1.875 1.871v1.869c0 1.028-0.844 1.869-1.875 1.869h-1.875c-1.031 0-1.875-0.841-1.875-1.869v-1.869c0-1.030 0.844-1.871 1.875-1.871h1.875zM24.375 22.646c1.031 0 1.875 0.841 1.875 1.871v1.869c0 1.028-0.844 1.869-1.875 1.869h-1.875c-1.031 0-1.875-0.841-1.875-1.869v-1.869c0-1.030 0.844-1.871 1.875-1.871h1.875zM15.771 22.646c1.031 0 1.875 0.841 1.875 1.871v1.869c0 1.028-0.844 1.869-1.875 1.869h-1.875c-1.031 0-1.875-0.841-1.875-1.869v-1.869c0-1.030 0.844-1.871 1.875-1.871h1.875z"></path>
</svg>
