<!-- Generated by IcoMoon.io -->
<svg version="1.1" xmlns="http://www.w3.org/2000/svg" width="32" height="32" viewBox="0 0 32 32">
<title>Delete</title>
<path fill="#000" d="M28.933 3.739h-8.367v-0.78c0-0.785-0.312-1.537-0.866-2.092s-1.307-0.866-2.092-0.866h-3.504c-1.634 0-2.958 1.324-2.958 2.958v0.78h-8.359c-1.539 0-2.786 1.248-2.786 2.786s1.248 2.786 2.786 2.786h0.898v19.902c0.004 1.434 1.165 2.595 2.599 2.599h19.044c1.434-0.004 2.595-1.165 2.599-2.599v-19.902h1.007c1.539 0 2.786-1.248 2.786-2.786s-1.247-2.786-2.786-2.786zM12.972 2.786c-0-0.549 0.443-0.995 0.991-0.999h3.778c0.562 0.017 1.004 0.484 0.991 1.046 0 0.070 0 0.944 0 0.944h-5.76v-0.991zM26.193 29.167c0 0.474-0.384 0.859-0.859 0.859h-18.966c-0.474 0-0.859-0.384-0.859-0.859v-19.801h3.856c0 0 0 0 0 0.055v16.898c-0.033 0.368 0.145 0.723 0.459 0.917s0.711 0.194 1.026 0c0.314-0.194 0.492-0.549 0.459-0.917v-16.952c0 0 0 0 0-0.055h3.645c0 0 0 0 0 0.055v16.952c0 0.535 0.433 0.968 0.968 0.968s0.968-0.433 0.968-0.968v-16.952c0 0 0 0 0-0.055h3.684c0 0 0 0 0 0.055v16.952c0 0.535 0.433 0.968 0.968 0.968s0.968-0.433 0.968-0.968v-16.952c0 0 0 0 0-0.055h3.778l-0.094 19.856zM28.784 7.36h-25.85c-0.377 0.033-0.74-0.149-0.938-0.47s-0.199-0.728 0-1.050c0.199-0.322 0.562-0.504 0.938-0.47h25.85c0.516 0.046 0.911 0.478 0.911 0.995s-0.395 0.949-0.911 0.995z"></path>
</svg>
