<!-- Generated by IcoMoon.io -->
<svg version="1.1" xmlns="http://www.w3.org/2000/svg" width="32" height="32" viewBox="0 0 32 32">
<title>Edit</title>
<path fill="#000" d="M28 9.941l-18.005 18.059-5.995-6.014 18.076-17.986 5.924 5.941zM7.541 30.216l-6.204 1.744c-0.79 0.222-1.519-0.506-1.297-1.297l1.744-6.204c0.049-0.173 0.141-0.331 0.269-0.459l5.947 5.947c-0.127 0.127-0.285 0.22-0.459 0.269zM31.381 6.507l-1.492 1.493-5.889-5.893 1.498-1.487c0.834-0.828 2.165-0.825 2.984-0.005l2.911 2.913c0.809 0.809 0.814 2.153-0.011 2.979z"></path>
</svg>
