<!-- Generated by IcoMoon.io -->
<svg version="1.1" xmlns="http://www.w3.org/2000/svg" width="32" height="32" viewBox="0 0 32 32">
<title>Help</title>
<path fill="#000" d="M16 32c-8.837 0-16-7.163-16-16s7.163-16 16-16c8.837 0 16 7.163 16 16s-7.163 16-16 16zM10.707 9.97c0.333 0 0.602-0.009 0.806-0.028 1.815-0.037 3.27-0.056 4.363-0.056 0.648 0 1.116 0.139 1.403 0.417s0.431 0.741 0.431 1.389v0.639c0 0.426-0.065 0.764-0.195 1.014s-0.408 0.468-0.834 0.653l-1.473 0.611c-0.871 0.37-1.538 0.838-2.001 1.403s-0.695 1.431-0.695 2.598v1.028c0 0.167 0.032 0.282 0.097 0.347s0.181 0.097 0.347 0.097h3.14c0.167 0 0.282-0.032 0.347-0.097s0.097-0.181 0.097-0.347v-0.667c0-0.389 0.023-0.662 0.069-0.82s0.153-0.296 0.32-0.417c0.167-0.12 0.482-0.273 0.945-0.459l0.667-0.278c0.926-0.37 1.69-0.889 2.292-1.556s0.903-1.575 0.903-2.723v-1.445c0-1.63-0.472-2.885-1.417-3.765s-2.334-1.32-4.168-1.32c-0.963 0-2.779 0.028-5.446 0.083-0.167 0-0.283 0.032-0.347 0.097s-0.097 0.181-0.097 0.347v2.807c0 0.167 0.032 0.283 0.097 0.347s0.181 0.097 0.347 0.097zM16.709 25.364v-3.14c0-0.167-0.032-0.282-0.097-0.347s-0.181-0.097-0.347-0.097h-3.446c-0.167 0-0.283 0.032-0.347 0.097s-0.097 0.181-0.097 0.347v3.14c0 0.167 0.032 0.282 0.097 0.347s0.181 0.097 0.347 0.097h3.446c0.167 0 0.282-0.032 0.347-0.097s0.097-0.181 0.097-0.347z"></path>
</svg>
