<!-- Generated by IcoMoon.io -->
<svg version="1.1" xmlns="http://www.w3.org/2000/svg" width="32" height="32" viewBox="0 0 32 32">
<title>Hidden</title>
<path fill="#000" d="M16.507 13.862l1.54-2.668c-0.643-0.249-1.341-0.386-2.070-0.386-3.175 0-5.758 2.583-5.758 5.758 0 1.806 0.837 3.42 2.142 4.477l1.54-2.667c-0.423-0.484-0.679-1.117-0.679-1.811 0-1.522 1.234-2.755 2.755-2.755 0.181 0 0.359 0.018 0.53 0.052zM8.876 20.531c-0.658-1.174-1.034-2.527-1.034-3.966 0-1.443 0.378-2.799 1.040-3.975-2.544 1.313-4.537 2.996-5.584 3.973 1.047 0.975 3.040 2.654 5.579 3.967zM20.997 6.085h2.368l-12.478 21.613h-2.368l2.19-3.794c-5.721-1.932-9.764-6.302-9.979-6.538l-0.73-0.801 0.73-0.801c0.277-0.304 6.883-7.444 15.247-7.444 1.206 0 2.376 0.149 3.496 0.404l1.524-2.64zM23.077 20.531c2.538-1.313 4.53-2.991 5.577-3.966-1.048-0.975-3.040-2.654-5.578-3.966 0.659 1.174 1.035 2.527 1.035 3.967s-0.376 2.792-1.034 3.966zM31.224 15.765l0.73 0.801-0.73 0.801c-0.277 0.304-6.883 7.444-15.247 7.444-0.345 0-0.686-0.014-1.025-0.037l1.423-2.464c2.99-0.205 5.36-2.702 5.36-5.743 0-0.906-0.212-1.762-0.587-2.525l2.272-3.935c4.547 2.136 7.616 5.454 7.803 5.659z"></path>
</svg>
