<!-- Generated by IcoMoon.io -->
<svg version="1.1" xmlns="http://www.w3.org/2000/svg" width="32" height="32" viewBox="0 0 32 32">
<title>Information</title>
<path fill="#000" d="M16 32c-8.837 0-16-7.163-16-16s7.163-16 16-16c8.837 0 16 7.163 16 16s-7.163 16-16 16zM18.704 8.48v-3.296c0-0.192-0.037-0.325-0.112-0.4s-0.208-0.112-0.4-0.112h-4.384c-0.192 0-0.325 0.037-0.4 0.112s-0.112 0.208-0.112 0.4v3.296c0 0.192 0.037 0.325 0.112 0.4s0.208 0.112 0.4 0.112h4.384c0.192 0 0.325-0.037 0.4-0.112s0.112-0.208 0.112-0.4zM13.68 11.616v15.872c0 0.192 0.037 0.325 0.112 0.4s0.208 0.112 0.4 0.112h3.616c0.192 0 0.325-0.037 0.4-0.112s0.112-0.208 0.112-0.4v-15.872c0-0.192-0.037-0.325-0.112-0.4s-0.208-0.112-0.4-0.112h-3.616c-0.192 0-0.325 0.037-0.4 0.112s-0.112 0.208-0.112 0.4z"></path>
</svg>
