<!-- Generated by IcoMoon.io -->
<svg version="1.1" xmlns="http://www.w3.org/2000/svg" width="32" height="32" viewBox="0 0 32 32">
<title>Loading-Spinner</title>
<path fill="#000" opacity="0.7" d="M16.727 0v6.1c2.044 0.171 3.981 1.012 5.527 2.4l4.17-4.3c-2.66-2.522-6.089-4.007-9.697-4.2z"></path>
<path fill="#000" opacity="0.1" d="M23.321 22.5l4.17 4.3c2.445-2.743 3.886-6.279 4.073-10h-6.012c-0.138 2.096-0.919 4.092-2.23 5.7z"></path>
<path fill="#000" opacity="0.6" d="M9.649 8.4c1.573-1.408 3.547-2.25 5.624-2.4v-6c-3.608 0.193-7.037 1.678-9.697 4.2l4.073 4.2z"></path>
<path fill="#000" opacity="0.5" d="M8.582 9.5l-4.073-4.3c-2.445 2.743-3.886 6.279-4.073 10h5.915c0.138-2.096 0.919-4.092 2.23-5.7z"></path>
<path fill="#000" opacity="0.2" d="M22.255 23.6c-1.547 1.388-3.484 2.229-5.527 2.4v6c3.608-0.193 7.037-1.678 9.697-4.2l-4.17-4.2z"></path>
<path fill="#000" opacity="0.8" d="M23.321 9.5c1.346 1.595 2.162 3.592 2.327 5.7h5.818c-0.187-3.721-1.628-7.257-4.073-10l-4.073 4.3z"></path>
<path fill="#000" opacity="0.4" d="M6.351 16.8h-5.915c0.187 3.721 1.628 7.257 4.073 10l4.17-4.3c-1.346-1.595-2.162-3.592-2.327-5.7z"></path>
<path fill="#000" opacity="0.3" d="M15.176 25.9c-2.044-0.171-3.981-1.012-5.527-2.4l-4.17 4.3c2.66 2.522 6.089 4.007 9.697 4.2v-6.1z"></path>
</svg>
