<!-- Generated by IcoMoon.io -->
<svg version="1.1"
  xmlns="http://www.w3.org/2000/svg" width="32" height="32" viewBox="0 0 32 32">
  <title>Lock-Open</title>
  <path color="#000" d="M17.5 23.805v3.342c0 0.859-0.672 1.553-1.5 1.553s-1.5-0.694-1.5-1.553v-3.342c-0.894-0.539-1.5-1.528-1.5-2.676 0-1.715 1.344-3.106 3-3.106s3 1.392 3 3.106c0 1.148-0.608 2.137-1.5 2.676zM26.5 13.364h-0.033v-2.493c0-5.995-4.712-10.871-10.5-10.871-5.4 0-9.857 4.243-10.434 9.675h3.050c0.561-3.712 3.643-6.569 7.384-6.569 4.134 0 7.5 3.483 7.5 7.765v2.493h-17.967c-0.825 0-1.5 0.7-1.5 1.553v15.53c0 0.854 0.675 1.553 1.5 1.553h21c0.825 0 1.5-0.699 1.5-1.553v-15.53c0-0.853-0.675-1.553-1.5-1.553z"></path>
</svg>
