<!-- Generated by IcoMoon.io -->
<svg version="1.1" xmlns="http://www.w3.org/2000/svg" width="32" height="32" viewBox="0 0 32 32">
<title>Lock</title>
<path fill="#000" d="M23.5 13.364h-15v-2.493c0-4.282 3.364-7.765 7.5-7.765s7.5 3.483 7.5 7.765v2.493zM17.5 23.805v3.342c0 0.859-0.672 1.553-1.5 1.553s-1.5-0.694-1.5-1.553v-3.342c-0.893-0.539-1.5-1.53-1.5-2.676 0-1.715 1.344-3.106 3-3.106s3 1.392 3 3.106c0 1.146-0.606 2.137-1.5 2.676zM26.5 10.871c0-5.995-4.712-10.871-10.5-10.871-5.79 0-10.5 4.877-10.5 10.871v2.493c-0.825 0-1.5 0.699-1.5 1.553v15.53c0 0.854 0.675 1.553 1.5 1.553h21c0.825 0 1.5-0.699 1.5-1.553v-15.53c0-0.854-0.675-1.553-1.5-1.553v-2.493z"></path>
</svg>
