<!-- Generated by IcoMoon.io -->
<svg version="1.1" xmlns="http://www.w3.org/2000/svg" width="32" height="32" viewBox="0 0 32 32">
<title>MapNavigation</title>
<path fill="#000" d="M26.702 16.457l5.224 14.629h-31.852l5.225-14.629h4.836c0.327 0.624 0.66 1.235 0.993 1.829h-4.54l-3.919 10.971h26.662l-3.918-10.971h-4.476c0.334-0.593 0.666-1.205 0.993-1.829h4.772zM16.033 0.914c3.931 0 7.118 3.187 7.118 7.119s-7.118 14.824-7.118 14.824c0 0-7.118-10.894-7.118-14.824 0-3.931 3.186-7.119 7.118-7.119zM16.033 10.531c1.655 0 2.996-1.342 2.996-2.997s-1.341-2.997-2.996-2.997c-1.655 0-2.996 1.342-2.996 2.997s1.341 2.997 2.996 2.997z"></path>
</svg>
