<!-- Generated by IcoMoon.io -->
<svg version="1.1" xmlns="http://www.w3.org/2000/svg" width="32" height="32" viewBox="0 0 32 32">
<title>More</title>
<path fill="#000" d="M3.81 19.619c-2.104 0-3.81-1.706-3.81-3.81s1.706-3.81 3.81-3.81c2.104 0 3.81 1.706 3.81 3.81s-1.706 3.81-3.81 3.81zM16 19.619c-2.104 0-3.81-1.706-3.81-3.81s1.706-3.81 3.81-3.81c2.104 0 3.81 1.706 3.81 3.81s-1.706 3.81-3.81 3.81zM28.19 19.619c-2.104 0-3.81-1.706-3.81-3.81s1.706-3.81 3.81-3.81c2.104 0 3.81 1.706 3.81 3.81s-1.706 3.81-3.81 3.81z"></path>
</svg>
