<!-- Generated by IcoMoon.io -->
<svg version="1.1" xmlns="http://www.w3.org/2000/svg" width="32" height="32" viewBox="0 0 32 32">
<title>Notification-Alert</title>
<path fill="#000" d="M15.972 28.585c-2.302 0-4.227-1.59-4.752-3.731h9.503c-0.524 2.141-2.45 3.731-4.752 3.731zM24.134 17.636c1.431 0.12 2.565 1.326 2.565 2.786 0 1.539-1.259 2.799-2.798 2.799h-15.857c-1.539 0-2.799-1.26-2.799-2.799 0-1.461 1.135-2.667 2.565-2.786v-4.676c0-3.697 2.459-6.818 5.83-7.822v-0.69c0-1.346 1.102-2.449 2.449-2.449s2.448 1.102 2.448 2.449v0.764c3.251 1.075 5.597 4.137 5.597 7.748v4.676zM29.402 17.262c0-2.106-0.484-4.101-1.347-5.88h2.565c0.729 1.82 1.134 3.803 1.134 5.88s-0.405 4.060-1.134 5.88h-2.565c0.863-1.779 1.347-3.774 1.347-5.88zM2.352 17.262c0 2.106 0.484 4.101 1.347 5.88h-2.565c-0.729-1.82-1.134-3.803-1.134-5.88s0.405-4.060 1.134-5.88h2.565c-0.863 1.779-1.347 3.774-1.347 5.88z"></path>
</svg>
