<!-- Generated by IcoMoon.io -->
<svg version="1.1" xmlns="http://www.w3.org/2000/svg" width="32" height="32" viewBox="0 0 32 32">
<title>Pin-1</title>
<path fill="#8c8c8c" opacity="0.7" d="M15.647 21.376c-4.644 0-8.409-3.791-8.409-8.468s3.765-8.468 8.409-8.468 8.409 3.791 8.409 8.468c0 4.677-3.765 8.468-8.409 8.468z"></path>
<path fill="#000" d="M15.647 20.445c-4.231 0-7.662-3.454-7.662-7.715s3.43-7.715 7.662-7.715 7.662 3.454 7.662 7.715c0 4.261-3.43 7.715-7.662 7.715zM15.647 0.093c-7.041 0-12.77 5.768-12.77 12.858 0 4.308 3.705 9.879 5.298 12.075 0.519 0.716 5.141 6.991 7.471 6.991 3.262 0 12.77-12.255 12.77-19.066 0-7.090-5.728-12.858-12.77-12.858z"></path>
</svg>
