<!-- Generated by IcoMoon.io -->
<svg version="1.1" xmlns="http://www.w3.org/2000/svg" width="32" height="32" viewBox="0 0 32 32">
<title>Pin-2</title>
<path fill="#000" opacity="0.8" d="M16 0.788c-5.355 0-9.697 4.418-9.697 9.869s9.697 20.555 9.697 20.555 9.697-15.104 9.697-20.555c0-3.695-1.995-6.916-4.95-8.607-1.403-0.803-3.023-1.262-4.747-1.262zM16 14.12c-2.254 0-4.082-1.86-4.082-4.154s1.828-4.154 4.082-4.154c2.254 0 4.082 1.86 4.082 4.154s-1.828 4.154-4.082 4.154z"></path>
<path fill="#8c8c8c" d="M16 0.124c1.766 0 3.468 0.46 4.974 1.322 3.177 1.819 5.185 5.239 5.185 9.017 0 2.019-1.204 5.291-3.323 9.524-0.488 0.974-1.017 1.985-1.583 3.025-1.064 1.957-2.204 3.925-3.344 5.807-0.399 0.659-0.77 1.26-1.102 1.791-0.117 0.186-0.22 0.35-0.309 0.491-0.054 0.085-0.091 0.143-0.11 0.173l-0.387 0.602-0.387-0.602c-0.019-0.030-0.057-0.088-0.11-0.173-0.089-0.141-0.193-0.305-0.309-0.491-0.333-0.531-0.703-1.133-1.102-1.791-1.14-1.882-2.28-3.85-3.344-5.807-0.566-1.040-1.095-2.051-1.583-3.025-2.12-4.234-3.323-7.505-3.323-9.524 0-5.71 4.548-10.338 10.159-10.338zM16.027 30.105c0.33-0.528 0.698-1.125 1.095-1.78 1.133-1.871 2.266-3.826 3.322-5.769 0.561-1.031 1.086-2.033 1.568-2.996 2.053-4.1 3.223-7.28 3.223-9.098 0-3.435-1.825-6.544-4.714-8.197-1.369-0.784-2.915-1.201-4.521-1.201-5.1 0-9.235 4.208-9.235 9.399 0 1.818 1.17 4.998 3.223 9.098 0.482 0.964 1.007 1.965 1.568 2.996 1.057 1.943 2.19 3.898 3.322 5.769 0.396 0.655 0.765 1.252 1.095 1.78 0.009 0.015 0.018 0.029 0.027 0.043 0.009-0.014 0.018-0.029 0.027-0.043zM19.62 9.771c0-2.035-1.621-3.684-3.62-3.684s-3.62 1.649-3.62 3.684c0 2.035 1.621 3.684 3.62 3.684s3.62-1.649 3.62-3.684zM11.456 9.771c0-2.554 2.034-4.624 4.544-4.624s4.544 2.070 4.544 4.624c0 2.554-2.034 4.624-4.544 4.624s-4.544-2.070-4.544-4.624z"></path>
</svg>
