<!-- Generated by IcoMoon.io -->
<svg version="1.1" xmlns="http://www.w3.org/2000/svg" width="32" height="32" viewBox="0 0 32 32">
<title>Search</title>
<path fill="#000" d="M0 29.314v0 0zM14.173 17.593l0.878 0.693c1.401 1.105 3.123 1.714 4.949 1.714 4.418 0 8-3.582 8-8s-3.582-8-8-8c-4.418 0-8 3.582-8 8 0 1.713 0.535 3.334 1.516 4.688l0.656 0.905zM3.757 30.243v0zM2.343 31.657l-2.343-2.343 10.278-10.278c-1.433-1.977-2.278-4.408-2.278-7.036 0-6.627 5.373-12 12-12s12 5.373 12 12c0 6.627-5.373 12-12 12-2.804 0-5.384-0.962-7.427-2.573l-10.23 10.23z"></path>
</svg>
