<!-- Generated by IcoMoon.io -->
<svg version="1.1" xmlns="http://www.w3.org/2000/svg" width="32" height="32" viewBox="0 0 32 32">
<title>Settings</title>
<path fill="#000" d="M16 25.333c-5.155 0-9.333-4.179-9.333-9.333s4.179-9.333 9.333-9.333c5.155 0 9.333 4.179 9.333 9.333s-4.179 9.333-9.333 9.333zM30.667 12h-1.001c-0.551 0-1.027-0.338-1.229-0.818v0.040c-0.082-0.212-0.164-0.423-0.255-0.63l0.020 0.020c-0.196-0.483-0.099-1.058 0.291-1.447l0.708-0.708c0.519-0.519 0.519-1.368 0-1.886l-3.771-3.771c-0.519-0.518-1.367-0.518-1.886 0l-0.708 0.708c-0.39 0.39-0.965 0.486-1.447 0.291l0.020 0.020c-0.207-0.092-0.419-0.174-0.63-0.255h0.040c-0.479-0.202-0.818-0.678-0.818-1.229v-1.001c0-0.733-0.6-1.333-1.333-1.333h-5.334c-0.733 0-1.333 0.6-1.333 1.333v1.001c0 0.551-0.338 1.027-0.818 1.229h0.040c-0.212 0.082-0.423 0.164-0.63 0.255l0.020-0.020c-0.482 0.196-1.058 0.099-1.447-0.291l-0.708-0.708c-0.519-0.518-1.368-0.518-1.886 0l-3.771 3.771c-0.518 0.518-0.518 1.367 0 1.886l0.708 0.708c0.39 0.39 0.486 0.965 0.291 1.447l0.020-0.020c-0.091 0.207-0.173 0.418-0.255 0.63v-0.040c-0.202 0.479-0.678 0.818-1.229 0.818h-1.001c-0.733 0-1.333 0.6-1.333 1.333v5.334c0 0.733 0.6 1.333 1.333 1.333h1.001c0.551 0 1.027 0.338 1.229 0.818v-0.040c0.082 0.212 0.164 0.423 0.255 0.63l-0.020-0.020c0.196 0.482 0.099 1.058-0.291 1.447l-0.708 0.708c-0.518 0.519-0.518 1.367 0 1.886l3.771 3.771c0.518 0.519 1.367 0.519 1.886 0l0.708-0.708c0.701-0.701 2.091-0.326 2.609 0.44 0.146 0.216 0.226 0.473 0.226 0.734v1.001c0 0.733 0.6 1.333 1.333 1.333h5.334c0.733 0 1.333-0.6 1.333-1.333v-1.001c0-0.551 0.338-1.027 0.818-1.229h-0.040c0.212-0.082 0.423-0.164 0.63-0.255l-0.020 0.020c0.482-0.196 1.058-0.099 1.447 0.291l0.708 0.708c0.519 0.519 1.367 0.519 1.886 0l3.771-3.771c0.519-0.519 0.519-1.367 0-1.886l-0.708-0.708c-0.39-0.39-0.486-0.965-0.291-1.447l-0.020 0.020c0.091-0.207 0.173-0.418 0.255-0.63v0.040c0.202-0.479 0.678-0.818 1.229-0.818h1.001c0.733 0 1.333-0.6 1.333-1.333v-5.334c0-0.733-0.6-1.333-1.333-1.333z"></path>
</svg>
