<!-- Generated by IcoMoon.io -->
<svg version="1.1" xmlns="http://www.w3.org/2000/svg" width="32" height="32" viewBox="0 0 32 32">
<title>Shown</title>
<path fill="#000" d="M15.977 13.574c-1.522 0-2.755 1.234-2.755 2.755s1.234 2.755 2.755 2.755c1.522 0 2.755-1.234 2.755-2.755s-1.234-2.755-2.755-2.755zM23.077 20.295c0.658-1.174 1.034-2.527 1.034-3.966s-0.376-2.793-1.035-3.967c2.538 1.313 4.53 2.991 5.578 3.966-1.048 0.975-3.040 2.654-5.577 3.966zM8.882 12.355c-0.661 1.176-1.040 2.532-1.040 3.975 0 1.439 0.376 2.792 1.034 3.966-2.539-1.313-4.532-2.992-5.579-3.967 1.047-0.977 3.040-2.66 5.584-3.973zM15.977 22.088c-3.175 0-5.758-2.583-5.758-5.758s2.583-5.758 5.758-5.758 5.758 2.583 5.758 5.758c0 3.175-2.583 5.758-5.758 5.758zM31.224 15.529c-0.277-0.304-6.883-7.444-15.247-7.444s-14.97 7.14-15.247 7.444l-0.73 0.801 0.73 0.801c0.277 0.304 6.883 7.444 15.247 7.444s14.97-7.14 15.247-7.444l0.73-0.801-0.73-0.801z"></path>
</svg>
