<!-- Generated by IcoMoon.io -->
<svg version="1.1" xmlns="http://www.w3.org/2000/svg" width="32" height="32" viewBox="0 0 32 32">
<title>Zoom-Find</title>
<path fill="#8c8c8c" d="M13.268 7.445l-2.277 0.122c-0.071-0.936-0.367-0.845-0.944-1.517l1.825-1.825c0.93 1.022 1.446 1.468 1.597 2.73h4.131c-0.12 2.633-1.158 5.141-2.935 7.087l-3.026-3.026c0.874-1.013 1.438-2.253 1.629-3.57zM7.143 2c1.589 0.071 3.103 0.698 4.279 1.77l-1.825 1.825c-0.688-0.593-1.548-0.949-2.453-1.015v-2.58zM4.049 5.595l-1.825-1.825c1.175-1.072 2.689-1.699 4.279-1.77v2.58c-0.906 0.066-1.766 0.422-2.453 1.015zM3.595 6.049c-0.593 0.688-0.949 1.548-1.015 2.453h-2.58c0.071-1.589 0.698-3.103 1.77-4.279l1.825 1.825zM10.884 11.77l3.026 3.022c-1.947 1.777-4.454 2.816-7.087 2.935v-4.271c1.5-0.112 2.923-0.704 4.061-1.687zM2.58 9.143c0.066 0.906 0.422 1.766 1.015 2.453l-1.825 1.825c-1.072-1.175-1.699-2.689-1.77-4.279h2.58zM6.503 13.062v2.58c-1.589-0.071-3.103-0.698-4.279-1.77l1.825-1.825c0.688 0.593 1.548 0.949 2.453 1.015z"></path>
<path fill="#000" d="M31.712 29.959l-9.288-9.288c3.186-4.26 2.54-10.257-1.481-13.74s-10.049-3.267-13.811 0.495c-3.761 3.761-3.977 9.79-0.495 13.811s9.48 4.667 13.74 1.481l9.288 9.284 2.046-2.042zM9.193 19.73c-2.069-2.069-2.689-5.18-1.569-7.883s3.757-4.466 6.683-4.466c2.926 0 5.564 1.763 6.683 4.466s0.5 5.815-1.569 7.883c-2.825 2.809-7.388 2.809-10.212 0h-0.016z"></path>
</svg>
