<!-- Generated by IcoMoon.io -->
<svg version="1.1" xmlns="http://www.w3.org/2000/svg" width="24" height="24" viewBox="0 0 24 24">
<title>Archive</title>
<path fill="#002b45" d="M12 4c4.418 0 8 3.582 8 8s-3.582 8-8 8c-3.728 0-6.86-2.549-7.748-6h2.090c0.824 2.33 3.046 3.999 5.658 3.999 3.314 0 6-2.686 6-6s-2.686-6-6-6c-1.66 0-3.162 0.674-4.249 1.763l1.907 1.906c0.037 0.037 0.059 0.088 0.059 0.141 0 0.11-0.090 0.2-0.2 0.2v0h-5.317c-0.11 0-0.2-0.090-0.2-0.2v0-5.317c0-0.053 0.021-0.104 0.059-0.141 0.078-0.078 0.205-0.078 0.283 0v0l1.996 1.997c1.448-1.451 3.451-2.349 5.663-2.349zM13 8v4l2.536 2.121-1.414 1.414-3.121-2.536v-5h2z"></path>
</svg>
