<!-- Generated by IcoMoon.io -->
<svg version="1.1" xmlns="http://www.w3.org/2000/svg" width="24" height="24" viewBox="0 0 24 24">
<title>Attach</title>
<path fill="#002b45" d="M19.571 10.586l-8.132 8.132c-1.563 1.563-4.094 1.563-5.657 0s-1.563-4.094 0-5.657l8.839-8.839c0.976-0.976 2.56-0.976 3.536 0s0.976 2.56 0 3.536l-8.132 8.132c-0.389 0.389-1.025 0.389-1.414 0s-0.389-1.025 0-1.414l7.425-7.425-1.061-1.061-7.425 7.425c-0.976 0.976-0.976 2.56 0 3.536s2.56 0.976 3.536 0l8.132-8.132c1.563-1.563 1.563-4.094 0-5.657s-4.094-1.563-5.657 0l-8.839 8.839c-2.15 2.15-2.15 5.629 0 7.778s5.629 2.15 7.778 0l8.132-8.132-1.061-1.061z"></path>
</svg>
