<!-- Generated by IcoMoon.io -->
<svg version="1.1" xmlns="http://www.w3.org/2000/svg" width="24" height="24" viewBox="0 0 24 24">
<title>Bolt</title>
<path fill="#002b45" d="M12 22c5.523 0 10-4.477 10-10s-4.477-10-10-10c-5.523 0-10 4.477-10 10s4.477 10 10 10zM12.66 5c0.11 0 0.2 0.090 0.2 0.2v0 5.228h2.66c0.017 0 0.034 0.002 0.050 0.006l0.047 0.019c0.097 0.054 0.131 0.175 0.078 0.272v0l-4.46 8.028c-0.035 0.063-0.102 0.103-0.175 0.103-0.11 0-0.2-0.090-0.2-0.2v0-5.228h-2.66c-0.017 0-0.034-0.002-0.050-0.006l-0.047-0.019c-0.097-0.054-0.131-0.175-0.078-0.272v0l4.46-8.028c0.035-0.063 0.102-0.103 0.175-0.103z"></path>
</svg>
