<!-- Generated by IcoMoon.io -->
<svg version="1.1" xmlns="http://www.w3.org/2000/svg" width="24" height="24" viewBox="0 0 24 24">
<title>Bookmark</title>
<path fill="#000" d="M6.341 21.659c-0.078 0.078-0.205 0.078-0.283 0-0.038-0.037-0.059-0.088-0.059-0.141v-19.317c0-0.11 0.090-0.2 0.2-0.2h11.8v19.517c0 0.053-0.021 0.104-0.059 0.141-0.078 0.078-0.205 0.078-0.283 0v0l-5.659-5.659-5.659 5.659z"></path>
<path fill="#8c8c8c" d="M12 10.981l-2.461 1.729c-0.090 0.063-0.215 0.042-0.279-0.049-0.035-0.051-0.046-0.115-0.028-0.174l0.883-2.875-2.405-1.807c-0.088-0.066-0.106-0.192-0.040-0.28 0.037-0.049 0.095-0.079 0.157-0.080l3.007-0.048 0.975-2.845c0.036-0.104 0.15-0.16 0.254-0.124 0.058 0.020 0.104 0.066 0.124 0.124l0.975 2.845 3.007 0.048c0.11 0.002 0.199 0.093 0.197 0.203-0.001 0.062-0.030 0.12-0.080 0.157l-2.405 1.807 0.883 2.875c0.032 0.106-0.027 0.217-0.132 0.25-0.059 0.018-0.123 0.008-0.174-0.028l-2.461-1.729z"></path>
</svg>
