<!-- Generated by IcoMoon.io -->
<svg version="1.1" xmlns="http://www.w3.org/2000/svg" width="24" height="24" viewBox="0 0 24 24">
<title>BUFreightShipping</title>
<path fill="#8c8c8c" d="M10 8v5h-8v-5h8zM20 8v5h-9v-5h9zM10 2v5h-8v-5h8z"></path>
<path fill="#000" opacity="0.99" d="M22 14l-2.833 6.765c-0.311 0.743-1.038 1.227-1.844 1.227l-15.323 0.007v-8h20zM17.238 16c-0.526 0-0.952 0.448-0.952 1s0.426 1 0.952 1c0.526 0 0.952-0.448 0.952-1s-0.426-1-0.952-1zM14.381 16c-0.526 0-0.952 0.448-0.952 1s0.426 1 0.952 1c0.526 0 0.952-0.448 0.952-1s-0.426-1-0.952-1zM11.524 16c-0.526 0-0.952 0.448-0.952 1s0.426 1 0.952 1c0.526 0 0.952-0.448 0.952-1s-0.426-1-0.952-1z"></path>
</svg>
