<!-- Generated by IcoMoon.io -->
<svg version="1.1" xmlns="http://www.w3.org/2000/svg" width="24" height="24" viewBox="0 0 24 24">
<title>BULogistics</title>
<path fill="#8c8c8c" d="M15.462 9.337c0.814 0 1.474-0.523 1.474-1.169s-0.66-1.169-1.474-1.169c-0.814 0-1.474 0.523-1.474 1.169s0.66 1.169 1.474 1.169zM18 11.825l-0.253-1.105-0.001-0.003c-0.016-0.187-0.095-0.361-0.22-0.508-0.235-0.275-0.632-0.456-1.080-0.456h-1.989c-0.688 0-1.256 0.429-1.3 0.966l-0.158 1.282z"></path>
<path fill="#000" d="M17.955 11.723c-0.112-0.304-0.399-0.522-0.735-0.522h-10.958c-0.335 0-0.623 0.218-0.735 0.522 0.086-0.441 0.283-1.377 0.659-2.837 0.332-1.29 0.976-1.522 1.731-1.553h0.496c0.226 0.005 0.458 0.012 0.691 0h5.272c0.233 0.012 0.465 0.005 0.691 0h0.496c0.755 0.030 1.4 0.263 1.731 1.553 0.376 1.461 0.573 2.396 0.659 2.837zM17.549 17.643c0 0.392-0.314 0.713-0.697 0.713h-0.819c-0.383 0-0.697-0.321-0.697-0.713v-0.159c0-0.392 0.314-0.713 0.697-0.713h0.819c0.383 0 0.697 0.321 0.697 0.713v0.159zM11.753 13.662h-3.469c-0.097-0.417-0.205-0.814-0.325-1.188h7.564c-0.119 0.374-0.228 0.771-0.325 1.188h-3.446zM14.83 15.812h-6.179c-0.048-0.408-0.105-0.805-0.173-1.188h6.524c-0.067 0.383-0.125 0.78-0.173 1.188zM14.681 17.961h-5.881c-0.010-0.403-0.029-0.8-0.058-1.188h5.996c-0.029 0.388-0.048 0.785-0.058 1.188zM8.146 17.643c0 0.392-0.314 0.713-0.697 0.713h-0.819c-0.383 0-0.697-0.321-0.697-0.713v-0.159c0-0.392 0.314-0.713 0.697-0.713h0.819c0.383 0 0.697 0.321 0.697 0.713v0.159zM19.494 7.645c-0.030 0-0.059 0.002-0.088 0.005l0.004-0.012-0.049 0.018c-0.116 0.018-0.224 0.059-0.32 0.119l-1.368 0.508-0.229-2.533-0.163-2.705c0-0.441-0.353-0.802-0.784-0.802 0 0-2.442-0.212-4.745-0.213h-0.023c-2.303 0.001-4.745 0.213-4.745 0.213-0.431 0-0.784 0.361-0.784 0.802l-0.159 2.706-0.232 2.532-1.368-0.508c-0.096-0.060-0.205-0.101-0.32-0.119l-0.049-0.018 0.004 0.012c-0.029-0.003-0.058-0.005-0.088-0.005h-0.107c-0.484 0-0.881 0.405-0.881 0.9v1.673c0 0.495 0.396 0.9 0.881 0.9h0.107c0.484 0 0.881-0.405 0.881-0.9v-1.15h0.87l-0.266 2.953c0 0 0.002-0.012 0.006-0.035 0 0.006 0 0.011 0 0.017v5.864c0 0.441 0.353 0.802 0.784 0.802h-0.84c-0.183 0-0.332 0.153-0.332 0.339v1.245c0 0.187 0.149 0.339 0.332 0.339h0.429v0.665c0 0.404 0.324 0.735 0.719 0.735h2.082c0.396 0 0.719-0.331 0.719-0.735l0.030-0.665h4.679l0.030 0.665c0 0.404 0.324 0.735 0.719 0.735h2.082c0.396 0 0.719-0.331 0.719-0.735v-0.665h0.429c0.183 0 0.332-0.153 0.332-0.339v-1.245c0-0.187-0.149-0.339-0.332-0.339h-0.84c0.431 0 0.784-0.361 0.784-0.802v-5.864c0-0.006 0-0.011 0-0.017 0.004 0.023 0.006 0.035 0.006 0.035l-0.266-2.953h0.869v1.15c0 0.495 0.396 0.9 0.881 0.9h0.107c0.484 0 0.881-0.405 0.881-0.9v-1.673c0-0.495-0.396-0.9-0.881-0.9h-0.107z"></path>
</svg>
