<!-- Generated by IcoMoon.io -->
<svg version="1.1" xmlns="http://www.w3.org/2000/svg" width="24" height="24" viewBox="0 0 24 24">
<title>BUPax</title>
<path fill="#002b45" d="M12.498 10.083c2.906 0.306 7.547 2.917 7.547 4.935l-1.875 5.324c-0.865 0.245-1.13 1.072-2.258 1.072-1.245 0-2.595-1.009-3.834-1.127l0.419-10.204zM3.704 15.018c0-2.018 4.642-4.629 7.547-4.935l0.419 10.204c-1.239 0.118-2.59 1.127-3.835 1.127-1.128 0-1.392-0.828-2.257-1.072l-1.875-5.324zM6.403 8.456h11.158c-0.010-0.020-0.020-0.038-0.031-0.058-0.543-1.016-0.94-0.995-3.862-0.995h-3.372c-2.922 0-3.319-0.021-3.862 0.995-0.011 0.020-0.020 0.039-0.031 0.058zM13.654 5.747h7.346l-0.653 1.854h-1.589l1.144 5.994c-0.856-1.029-2.323-2.456-3.858-3.235 1.846-0.070 2.205-0.317 1.865-1.181h-11.855c-0.329 0.834-0.006 1.094 1.678 1.174-1.741 0.874-3.193 2.516-3.833 3.716l1.342-6.468h-1.589l-0.653-1.854h7.346l1.113-3.747h1.082l1.113 3.747z"></path>
</svg>
