<!-- Generated by IcoMoon.io -->
<svg version="1.1" xmlns="http://www.w3.org/2000/svg" width="24" height="24" viewBox="0 0 24 24">
<title>CalendarOutbound</title>
<path fill="#002b45" d="M17.5 2c0.552 0 1 0.448 1 1v2h0.5c1.105 0 2 0.895 2 2v15.5h-18v-15.5c0-1.105 0.895-2 2-2h0.5v-2c0-0.552 0.448-1 1-1s1 0.448 1 1v2h9v-2c0-0.552 0.448-1 1-1zM19.5 9h-15v12h15v-12zM12.502 11l4.998 4-4.998 4-1.002-1.215 2.542-2.036-7.342 0.001c-0.11 0-0.2-0.090-0.2-0.2v-1.1c0-0.11 0.090-0.2 0.2-0.2l7.34-0.001-2.54-2.034 1.002-1.215z"></path>
</svg>
