<!-- Generated by IcoMoon.io -->
<svg version="1.1" xmlns="http://www.w3.org/2000/svg" width="24" height="24" viewBox="0 0 24 24">
<title>Delete</title>
<path fill="#002b45" d="M14.8 2.5c0.11 0 0.2 0.090 0.2 0.2v2.3h4.8c0.11 0 0.2 0.090 0.2 0.2v1.6c0 0.11-0.090 0.2-0.2 0.2h-0.867l-0.921 13.813c-0.007 0.105-0.094 0.187-0.2 0.187h-11.626c-0.105 0-0.193-0.082-0.2-0.187l-0.921-13.813h-0.867c-0.11 0-0.2-0.090-0.2-0.2v-1.6c0-0.11 0.090-0.2 0.2-0.2h4.8v-2.3c0-0.11 0.090-0.2 0.2-0.2h5.6zM9 8h-1v11h1v-11zM12.5 8h-1v11h1v-11zM16 8h-1v11h1v-11zM13.5 4h-3v1h3v-1z"></path>
</svg>
