<!-- Generated by IcoMoon.io -->
<svg version="1.1" xmlns="http://www.w3.org/2000/svg" width="24" height="24" viewBox="0 0 24 24">
<title>Detach</title>
<path fill="#002b45" d="M6.427 9.256l1.061 1.061-2.77 2.771c-1.511 1.511-1.561 3.926-0.151 5.497l0.151 0.159c1.563 1.563 4.094 1.563 5.657 0v0l2.77-2.77 1.061 1.061-2.771 2.77c-2.090 2.090-5.436 2.148-7.596 0.174l-0.182-0.174c-2.15-2.15-2.15-5.629 0-7.778v0l2.77-2.771zM12.496 3.188c1.563-1.563 4.094-1.563 5.657 0s1.563 4.094 0 5.657v0l-3.241 3.239 1.061 1.061 2.533-2.532 1.061 1.061-2.533 2.533 4.865 4.865-1.414 1.414-16.971-16.971 1.414-1.414 4.327 4.327zM8.549 11.378l1.060 1.060-2.063 2.064c-0.359 0.359-0.387 0.929-0.083 1.32l0.083 0.094c0.389 0.389 1.025 0.389 1.414 0v0l2.063-2.064 1.061 1.061-2.063 2.064c-0.933 0.933-2.423 0.974-3.405 0.122l-0.131-0.122c-0.976-0.976-0.976-2.56 0-3.536v0l2.063-2.063zM17.093 4.248c-0.976-0.976-2.56-0.976-3.536 0v0l-3.241 3.239 1.061 1.061 2.533-2.533 1.061 1.061-2.533 2.533 1.414 1.414 3.24-3.24c0.933-0.933 0.974-2.423 0.122-3.405z"></path>
</svg>
