<!-- Generated by IcoMoon.io -->
<svg version="1.1" xmlns="http://www.w3.org/2000/svg" width="24" height="24" viewBox="0 0 24 24">
<title>Dislike</title>
<path fill="#002b45" d="M8.369 20.927c-0.077 0.079-0.204 0.081-0.283 0.004l-0.004-0.004-0.732-0.752c-0.533-0.547-0.697-1.356-0.42-2.068l1.295-3.324-4.163 0.131c-1.104 0.035-2.027-0.832-2.062-1.936-0.006-0.199 0.017-0.397 0.069-0.589l1.886-6.916c0.237-0.87 1.028-1.474 1.93-1.474h7.662c1.028 0 1.888 0.779 1.99 1.801l0.805 8.048c0.009 0.089-0.043 0.173-0.126 0.206l-1.863 0.729-5.985 6.144zM17.533 14c-0.1 0-0.184-0.074-0.198-0.173l-1.197-8.696c-0.015-0.109 0.061-0.21 0.171-0.225 0.011-0.001 0.021-0.002 0.032-0.002l3.843 0.092c0.1 0.002 0.183 0.078 0.194 0.178l0.956 8.604c0.012 0.11-0.067 0.209-0.177 0.221-0.007 0.001-0.015 0.001-0.022 0.001h-3.602zM18.335 7.988c0.552 0 1-0.448 1-1s-0.448-1-1-1c-0.552 0-1 0.448-1 1s0.448 1 1 1z"></path>
</svg>
