<svg xmlns="http://www.w3.org/2000/svg" width="32" height="32" viewBox="0 0 32 32" fill="none">
<mask id="path-1-inside-1_445_7741" fill="white">
<path fill-rule="evenodd" clip-rule="evenodd" d="M20.0813 14.5853C21.4477 15.9517 23.0926 16.6349 25.0159 16.6349C26.9393 16.6349 28.5842 15.9517 29.9505 14.5853C31.3169 13.219 32.0001 11.5741 32.0001 9.65076C32.0001 7.72738 31.3169 6.08251 29.9505 4.71614C28.5842 3.3498 26.9393 2.66663 25.0159 2.66663C23.0926 2.66663 21.4477 3.3498 20.0813 4.71614C18.715 6.08251 18.0318 7.72738 18.0318 9.65076C18.0318 11.5741 18.715 13.219 20.0813 14.5853ZM28.9368 9.65593L28.0327 8.75192L25.6771 11.1075V5.72478H24.3547V11.1075L21.9991 8.75192L21.0951 9.65593L25.0159 13.5767L28.9368 9.65593ZM3.40008 27.0763C3.88897 27.5652 4.48621 27.8097 5.19179 27.8097H23.8877C24.5933 27.8097 25.1905 27.5652 25.6794 27.0763C26.1683 26.5874 26.4127 25.9902 26.4127 25.2846L26.2784 18.0317H24.1832L24.3175 25.2846C24.3175 25.3921 24.2727 25.4906 24.1832 25.5801C24.0936 25.6697 23.9951 25.7145 23.8877 25.7145H5.19179C5.08433 25.7145 4.98582 25.6697 4.89626 25.5801C4.80672 25.4906 4.76195 25.3921 4.76195 25.2846V7.55582C4.76195 7.44836 4.80672 7.34985 4.89626 7.26029C4.98582 7.17075 5.08433 7.12598 5.19179 7.12598H17.0242L18.0318 5.03078H5.19179C4.48621 5.03078 3.88897 5.27522 3.40008 5.76411C2.91119 6.253 2.66675 6.85024 2.66675 7.55582V25.2846C2.66675 25.9902 2.91119 26.5874 3.40008 27.0763ZM10.6716 17.9782L7.20647 22.5716H21.9804L17.3871 16.4471L13.4653 21.5508L10.6716 17.9782Z"/>
</mask>
<path fill-rule="evenodd" clip-rule="evenodd" d="M20.0813 14.5853C21.4477 15.9517 23.0926 16.6349 25.0159 16.6349C26.9393 16.6349 28.5842 15.9517 29.9505 14.5853C31.3169 13.219 32.0001 11.5741 32.0001 9.65076C32.0001 7.72738 31.3169 6.08251 29.9505 4.71614C28.5842 3.3498 26.9393 2.66663 25.0159 2.66663C23.0926 2.66663 21.4477 3.3498 20.0813 4.71614C18.715 6.08251 18.0318 7.72738 18.0318 9.65076C18.0318 11.5741 18.715 13.219 20.0813 14.5853ZM28.9368 9.65593L28.0327 8.75192L25.6771 11.1075V5.72478H24.3547V11.1075L21.9991 8.75192L21.0951 9.65593L25.0159 13.5767L28.9368 9.65593ZM3.40008 27.0763C3.88897 27.5652 4.48621 27.8097 5.19179 27.8097H23.8877C24.5933 27.8097 25.1905 27.5652 25.6794 27.0763C26.1683 26.5874 26.4127 25.9902 26.4127 25.2846L26.2784 18.0317H24.1832L24.3175 25.2846C24.3175 25.3921 24.2727 25.4906 24.1832 25.5801C24.0936 25.6697 23.9951 25.7145 23.8877 25.7145H5.19179C5.08433 25.7145 4.98582 25.6697 4.89626 25.5801C4.80672 25.4906 4.76195 25.3921 4.76195 25.2846V7.55582C4.76195 7.44836 4.80672 7.34985 4.89626 7.26029C4.98582 7.17075 5.08433 7.12598 5.19179 7.12598H17.0242L18.0318 5.03078H5.19179C4.48621 5.03078 3.88897 5.27522 3.40008 5.76411C2.91119 6.253 2.66675 6.85024 2.66675 7.55582V25.2846C2.66675 25.9902 2.91119 26.5874 3.40008 27.0763ZM10.6716 17.9782L7.20647 22.5716H21.9804L17.3871 16.4471L13.4653 21.5508L10.6716 17.9782Z" fill="#002b45"/>
<path d="M20.0813 14.5853L19.3742 15.2924L20.0813 14.5853ZM29.9505 14.5853L29.2434 13.8782L29.2434 13.8782L29.9505 14.5853ZM29.9505 4.71614L30.6577 4.00904L30.6576 4.00903L29.9505 4.71614ZM20.0813 4.71614L19.3742 4.00903L19.3742 4.00904L20.0813 4.71614ZM28.0327 8.75192L28.7399 8.04481L28.0327 7.3377L27.3256 8.04481L28.0327 8.75192ZM28.9368 9.65593L29.6439 10.363L30.351 9.65593L29.6439 8.94882L28.9368 9.65593ZM25.6771 11.1075H24.6771V13.5217L26.3842 11.8146L25.6771 11.1075ZM25.6771 5.72478H26.6771V4.72478H25.6771V5.72478ZM24.3547 5.72478V4.72478H23.3547V5.72478H24.3547ZM24.3547 11.1075L23.6476 11.8146L25.3547 13.5217V11.1075H24.3547ZM21.9991 8.75192L22.7062 8.04481L21.9991 7.3377L21.292 8.04481L21.9991 8.75192ZM21.0951 9.65593L20.388 8.94882L19.6809 9.65593L20.388 10.363L21.0951 9.65593ZM25.0159 13.5767L24.3088 14.2838L25.0159 14.9909L25.723 14.2838L25.0159 13.5767ZM3.40008 27.0763L2.69297 27.7834L2.69298 27.7834L3.40008 27.0763ZM26.4127 25.2846H27.4127V25.2754L27.4125 25.2661L26.4127 25.2846ZM26.2784 18.0317L27.2782 18.0132L27.2601 17.0317H26.2784V18.0317ZM24.1832 18.0317V17.0317H23.1645L23.1834 18.0502L24.1832 18.0317ZM24.3175 25.2846H25.3175V25.2754L25.3173 25.2661L24.3175 25.2846ZM24.1832 25.5801L24.8902 26.2873L24.8904 26.2872L24.1832 25.5801ZM4.89626 25.5801L4.18906 26.2872L4.18924 26.2873L4.89626 25.5801ZM4.89626 7.26029L4.18924 6.55309L4.18906 6.55327L4.89626 7.26029ZM17.0242 7.12598V8.12598H17.6529L17.9254 7.5594L17.0242 7.12598ZM18.0318 5.03078L18.933 5.4642L19.6224 4.03078H18.0318V5.03078ZM3.40008 5.76411L4.10719 6.47122V6.47122L3.40008 5.76411ZM7.20647 22.5716L6.40815 21.9693L5.19944 23.5716H7.20647V22.5716ZM10.6716 17.9782L11.4594 17.3622L10.6574 16.3366L9.87329 17.376L10.6716 17.9782ZM21.9804 22.5716V23.5716H23.9804L22.7804 21.9716L21.9804 22.5716ZM17.3871 16.4471L18.1871 15.8471L17.3968 14.7933L16.5942 15.8378L17.3871 16.4471ZM13.4653 21.5508L12.6775 22.1668L13.4722 23.1831L14.2582 22.1601L13.4653 21.5508ZM25.0159 15.6349C23.3592 15.6349 21.9682 15.0581 20.7884 13.8782L19.3742 15.2924C20.9271 16.8454 22.8259 17.6349 25.0159 17.6349V15.6349ZM29.2434 13.8782C28.0636 15.0581 26.6727 15.6349 25.0159 15.6349V17.6349C27.2059 17.6349 29.1047 16.8454 30.6577 15.2924L29.2434 13.8782ZM31.0001 9.65076C31.0001 11.3075 30.4232 12.6984 29.2434 13.8782L30.6576 15.2924C32.2105 13.7395 33.0001 11.8407 33.0001 9.65076H31.0001ZM29.2434 5.42324C30.4232 6.60306 31.0001 7.99398 31.0001 9.65076H33.0001C33.0001 7.46079 32.2105 5.56196 30.6577 4.00904L29.2434 5.42324ZM25.0159 3.66663C26.6727 3.66663 28.0636 4.24346 29.2434 5.42325L30.6576 4.00903C29.1047 2.45613 27.2059 1.66663 25.0159 1.66663V3.66663ZM20.7884 5.42325C21.9682 4.24346 23.3592 3.66663 25.0159 3.66663V1.66663C22.826 1.66663 20.9271 2.45613 19.3742 4.00903L20.7884 5.42325ZM19.0318 9.65076C19.0318 7.99398 19.6086 6.60306 20.7884 5.42324L19.3742 4.00904C17.8213 5.56196 17.0318 7.46078 17.0318 9.65076H19.0318ZM20.7884 13.8782C19.6086 12.6984 19.0318 11.3075 19.0318 9.65076H17.0318C17.0318 11.8407 17.8213 13.7395 19.3742 15.2924L20.7884 13.8782ZM27.3256 9.45903L28.2297 10.363L29.6439 8.94882L28.7399 8.04481L27.3256 9.45903ZM26.3842 11.8146L28.7399 9.45902L27.3256 8.04481L24.97 10.4004L26.3842 11.8146ZM24.6771 5.72478V11.1075H26.6771V5.72478H24.6771ZM24.3547 6.72478H25.6771V4.72478H24.3547V6.72478ZM25.3547 11.1075V5.72478H23.3547V11.1075H25.3547ZM21.292 9.45902L23.6476 11.8146L25.0618 10.4004L22.7062 8.04481L21.292 9.45902ZM21.8022 10.363L22.7062 9.45902L21.292 8.04481L20.388 8.94882L21.8022 10.363ZM25.723 12.8696L21.8022 8.94882L20.388 10.363L24.3088 14.2838L25.723 12.8696ZM28.2297 8.94882L24.3088 12.8696L25.723 14.2838L29.6439 10.363L28.2297 8.94882ZM5.19179 26.8097C4.74532 26.8097 4.40427 26.6663 4.10719 26.3692L2.69298 27.7834C3.37367 28.4641 4.22709 28.8097 5.19179 28.8097V26.8097ZM23.8877 26.8097H5.19179V28.8097H23.8877V26.8097ZM24.9723 26.3692C24.6752 26.6663 24.3341 26.8097 23.8877 26.8097V28.8097C24.8524 28.8097 25.7058 28.4641 26.3865 27.7834L24.9723 26.3692ZM25.4127 25.2846C25.4127 25.7311 25.2693 26.0721 24.9723 26.3692L26.3865 27.7834C27.0672 27.1027 27.4127 26.2493 27.4127 25.2846H25.4127ZM25.2786 18.0502L25.4129 25.3031L27.4125 25.2661L27.2782 18.0132L25.2786 18.0502ZM24.1832 19.0317H26.2784V17.0317H24.1832V19.0317ZM25.3173 25.2661L25.183 18.0132L23.1834 18.0502L23.3177 25.3031L25.3173 25.2661ZM24.8904 26.2872C25.1314 26.0461 25.3175 25.7042 25.3175 25.2846H23.3175C23.3175 25.1946 23.3373 25.1051 23.3735 25.0253C23.4084 24.9486 23.4502 24.899 23.476 24.8731L24.8904 26.2872ZM23.8877 26.7145C24.3072 26.7145 24.6491 26.5283 24.8902 26.2873L23.4762 24.8729C23.502 24.8471 23.5517 24.8054 23.6284 24.7705C23.7082 24.7342 23.7977 24.7145 23.8877 24.7145V26.7145ZM5.19179 26.7145H23.8877V24.7145H5.19179V26.7145ZM4.18924 26.2873C4.43031 26.5284 4.77223 26.7145 5.19179 26.7145V24.7145C5.2818 24.7145 5.37128 24.7342 5.45103 24.7705C5.5278 24.8054 5.57743 24.8471 5.60327 24.8729L4.18924 26.2873ZM3.76195 25.2846C3.76195 25.7042 3.94805 26.0461 4.18906 26.2872L5.60345 24.8731C5.62929 24.899 5.67104 24.9486 5.70593 25.0254C5.74217 25.1051 5.76195 25.1946 5.76195 25.2846H3.76195ZM3.76195 7.55582V25.2846H5.76195V7.55582H3.76195ZM4.18906 6.55327C3.94805 6.79434 3.76195 7.13626 3.76195 7.55582H5.76195C5.76195 7.64583 5.74217 7.73532 5.70593 7.81507C5.67104 7.89183 5.62929 7.94146 5.60345 7.9673L4.18906 6.55327ZM5.19179 6.12598C4.77223 6.12598 4.43031 6.31208 4.18924 6.55309L5.60327 7.96749C5.57743 7.99332 5.5278 8.03507 5.45104 8.06996C5.37129 8.1062 5.2818 8.12598 5.19179 8.12598V6.12598ZM17.0242 6.12598H5.19179V8.12598H17.0242V6.12598ZM17.1306 4.59736L16.123 6.69256L17.9254 7.5594L18.933 5.4642L17.1306 4.59736ZM5.19179 6.03078H18.0318V4.03078H5.19179V6.03078ZM4.10719 6.47122C4.40427 6.17414 4.74532 6.03078 5.19179 6.03078V4.03078C4.22709 4.03078 3.37367 4.37631 2.69297 5.057L4.10719 6.47122ZM3.66675 7.55582C3.66675 7.10935 3.81011 6.7683 4.10719 6.47122L2.69297 5.057C2.01228 5.7377 1.66675 6.59113 1.66675 7.55582H3.66675ZM3.66675 25.2846V7.55582H1.66675V25.2846H3.66675ZM4.10719 26.3692C3.81011 26.0721 3.66675 25.7311 3.66675 25.2846H1.66675C1.66675 26.2493 2.01228 27.1027 2.69297 27.7834L4.10719 26.3692ZM8.00478 23.1738L11.4699 18.5805L9.87329 17.376L6.40815 21.9693L8.00478 23.1738ZM21.9804 21.5716H7.20647V23.5716H21.9804V21.5716ZM16.5871 17.0471L21.1804 23.1716L22.7804 21.9716L18.1871 15.8471L16.5871 17.0471ZM14.2582 22.1601L18.18 17.0564L16.5942 15.8378L12.6723 20.9415L14.2582 22.1601ZM9.88386 18.5942L12.6775 22.1668L14.253 20.9348L11.4594 17.3622L9.88386 18.5942Z" fill="#002b45" mask="url(#path-1-inside-1_445_7741)"/>
</svg>
