<!-- Generated by IcoMoon.io -->
<svg version="1.1" xmlns="http://www.w3.org/2000/svg" width="24" height="24" viewBox="0 0 24 24">
<title>Help</title>
<path fill="#002b45" d="M12.551 14.082c0.087 0 0.148-0.017 0.182-0.050s0.051-0.092 0.051-0.177v0-0.34c0-0.198 0.012-0.338 0.036-0.418s0.080-0.151 0.167-0.212c0.087-0.061 0.252-0.139 0.494-0.234l0.349-0.142c0.484-0.189 0.884-0.453 1.199-0.793s0.472-0.803 0.472-1.388v0-0.737c0-0.831-0.247-1.471-0.741-1.919s-1.22-0.673-2.179-0.673c-0.504 0-1.453 0.014-2.847 0.042-0.087 0-0.148 0.017-0.182 0.050s-0.051 0.092-0.051 0.177v0 1.431c0 0.085 0.017 0.144 0.051 0.177s0.094 0.050 0.182 0.050c0.174 0 0.315-0.005 0.421-0.014 0.949-0.019 1.709-0.028 2.281-0.028 0.339 0 0.584 0.071 0.734 0.212s0.225 0.378 0.225 0.708v0 0.326c0 0.217-0.034 0.39-0.102 0.517s-0.213 0.238-0.436 0.333v0l-0.77 0.312c-0.455 0.189-0.804 0.427-1.046 0.715s-0.363 0.729-0.363 1.324v0 0.524c0 0.085 0.017 0.144 0.051 0.177s0.094 0.050 0.182 0.050v0h1.642zM12.638 17c0.087 0 0.148-0.017 0.182-0.050s0.051-0.092 0.051-0.177v0-1.601c0-0.085-0.017-0.144-0.051-0.177s-0.094-0.050-0.182-0.050v0h-1.801c-0.087 0-0.148 0.017-0.182 0.050s-0.051 0.092-0.051 0.177v0 1.601c0 0.085 0.017 0.144 0.051 0.177s0.094 0.050 0.182 0.050v0h1.801zM12 2c5.523 0 10 4.477 10 10s-4.477 10-10 10c-5.523 0-10-4.477-10-10s4.477-10 10-10zM12 4c-4.418 0-8 3.582-8 8s3.582 8 8 8c4.418 0 8-3.582 8-8s-3.582-8-8-8z"></path>
</svg>
