<!-- Generated by IcoMoon.io -->
<svg version="1.1" xmlns="http://www.w3.org/2000/svg" width="24" height="24" viewBox="0 0 24 24">
<title>Hide</title>
<path fill="#002b45" d="M4.929 2.101l3.746 3.746c1.197-0.564 2.305-0.846 3.325-0.846 2.933 0 6.6 2.333 11 7-1.493 1.584-2.902 2.899-4.227 3.945l3.126 3.126-1.414 1.414-16.971-16.971 1.414-1.414zM5.227 8.055l2.118 2.118c-0.222 0.566-0.344 1.182-0.344 1.827 0 2.761 2.239 5 5 5 0.645 0 1.261-0.122 1.828-0.345l1.498 1.498c-1.197 0.564-2.305 0.846-3.325 0.846-2.933 0-6.6-2.333-11-7 1.493-1.584 2.902-2.899 4.227-3.945zM9.005 11.833l3.162 3.163c-0.055 0.003-0.111 0.005-0.167 0.005-1.657 0-3-1.343-3-3l0.005-0.167zM12 7c-0.645 0-1.261 0.122-1.828 0.345l1.66 1.66c0.055-0.003 0.111-0.005 0.167-0.005 1.657 0 3 1.343 3 3l-0.006 0.167 1.662 1.661c0.222-0.566 0.344-1.182 0.344-1.827 0-2.761-2.239-5-5-5z"></path>
</svg>
