<!-- Generated by IcoMoon.io -->
<svg version="1.1" xmlns="http://www.w3.org/2000/svg" width="24" height="24" viewBox="0 0 24 24">
<title>Information</title>
<path fill="#002b45" d="M12.974 10.75c0.103 0 0.175 0.014 0.216 0.041s0.060 0.077 0.060 0.148v5.871c0 0.071-0.020 0.12-0.060 0.148s-0.112 0.041-0.216 0.041h-1.948c-0.103 0-0.175-0.014-0.216-0.041s-0.060-0.077-0.060-0.148v-5.871c0-0.071 0.020-0.12 0.060-0.148s0.112-0.041 0.216-0.041h1.948zM13.013 7c0.089 0 0.15 0.022 0.185 0.065s0.052 0.12 0.052 0.231v1.907c0 0.111-0.017 0.188-0.052 0.231s-0.096 0.065-0.185 0.065h-2.027c-0.089 0-0.15-0.022-0.185-0.065s-0.052-0.12-0.052-0.231v-1.907c0-0.111 0.017-0.188 0.052-0.231s0.096-0.065 0.185-0.065h2.027zM12 2c5.523 0 10 4.477 10 10s-4.477 10-10 10c-5.523 0-10-4.477-10-10s4.477-10 10-10zM12 4c-4.418 0-8 3.582-8 8s3.582 8 8 8c4.418 0 8-3.582 8-8s-3.582-8-8-8z"></path>
</svg>
