<!-- Generated by IcoMoon.io -->
<svg version="1.1" xmlns="http://www.w3.org/2000/svg" width="24" height="24" viewBox="0 0 24 24">
<title>Like</title>
<path fill="#002b45" d="M14.966 4.060c0.077-0.079 0.204-0.081 0.283-0.004l0.004 0.004 0.732 0.752c0.533 0.547 0.697 1.356 0.42 2.068l-1.295 3.324 4.163-0.131c1.104-0.035 2.027 0.832 2.062 1.936 0.006 0.199-0.017 0.397-0.069 0.589l-1.886 6.916c-0.237 0.87-1.028 1.474-1.93 1.474h-7.662c-1.027 0-1.888-0.779-1.99-1.801l-0.805-8.048c-0.009-0.089 0.043-0.173 0.126-0.206l1.863-0.729 5.985-6.144zM5.802 10.988c0.1 0 0.184 0.074 0.198 0.173l1.197 8.696c0.015 0.109-0.061 0.21-0.171 0.225-0.011 0.001-0.021 0.002-0.032 0.002l-3.843-0.092c-0.1-0.002-0.183-0.078-0.194-0.178l-0.956-8.604c-0.012-0.11 0.067-0.209 0.177-0.221 0.007-0.001 0.015-0.001 0.022-0.001h3.602zM5 17c-0.552 0-1 0.448-1 1s0.448 1 1 1c0.552 0 1-0.448 1-1s-0.448-1-1-1z"></path>
</svg>
