<!-- Generated by IcoMoon.io -->
<svg version="1.1" xmlns="http://www.w3.org/2000/svg" width="24" height="24" viewBox="0 0 24 24">
<title>Link</title>
<path fill="#002b45" d="M7.050 11.293c0.781-0.781 2.047-0.781 2.828 0l-4.243 4.243 2.828 2.828 4.243-4.243c0.781 0.781 0.781 2.047 0 2.828l-2.828 2.828c-0.781 0.781-2.047 0.781-2.828 0l-2.828-2.828c-0.781-0.781-0.781-2.047 0-2.828l2.828-2.828zM14.121 4.222c0.781-0.781 2.047-0.781 2.828 0l2.828 2.828c0.781 0.781 0.781 2.047 0 2.828l-2.828 2.828c-0.781 0.781-2.047 0.781-2.828 0l4.243-4.243-2.828-2.828-4.243 4.243c-0.781-0.781-0.781-2.047 0-2.828l2.828-2.828zM14.828 7.757l1.414 1.414-7.071 7.071-1.414-1.414 7.071-7.071z"></path>
</svg>
