<!-- Generated by IcoMoon.io -->
<svg version="1.1" xmlns="http://www.w3.org/2000/svg" width="24" height="24" viewBox="0 0 24 24">
<title>LocationPin</title>
<path fill="#000" d="M12 2c3.866 0 7 3.134 7 7 0 1.488-0.464 2.867-1.256 4.001l0.006-0.001-5.581 8.736c-0.059 0.093-0.183 0.12-0.276 0.061-0.024-0.016-0.045-0.036-0.061-0.061l-5.581-8.736c-0.786-1.133-1.25-2.512-1.25-4 0-3.866 3.134-7 7-7z"></path>
<path fill="#8c8c8c" d="M15 9c0 1.657-1.343 3-3 3s-3-1.343-3-3c0-1.657 1.343-3 3-3s3 1.343 3 3z"></path>
</svg>
