<svg width="24" height="24" viewBox="0 0 24 24" fill="none" xmlns="http://www.w3.org/2000/svg">
<path d="M23.9454 12.1465C24.0182 12.0596 24.0182 11.9293 23.9454 11.8424L21.457 8.86494C21.4171 8.81736 21.3978 8.75471 21.4033 8.69168L21.7501 4.75031C21.7602 4.63516 21.6876 4.52995 21.5801 4.50433L17.8977 3.62593C17.8391 3.61194 17.7884 3.57325 17.7577 3.51892L15.8299 0.112769C15.7736 0.0133167 15.6558 -0.0269182 15.5547 0.0187336L12.0867 1.58259C12.0314 1.60754 11.9688 1.60754 11.9135 1.58259L8.44555 0.0187336C8.34431 -0.0269182 8.22653 0.0133167 8.17025 0.112769L6.24269 3.51862C6.21184 3.57312 6.16097 3.61188 6.10206 3.62576L2.42067 4.4932C2.31301 4.51857 2.24 4.62394 2.25015 4.73933L2.59689 8.68039C2.60243 8.74329 2.58314 8.8058 2.54355 8.85334L0.0542684 11.8424C-0.0181881 11.9295 -0.0180784 12.0593 0.0545318 12.1462L2.54329 15.124C2.58305 15.1715 2.60243 15.2342 2.5969 15.2972L2.25006 19.2501C2.23996 19.3653 2.31265 19.4705 2.42001 19.4961L6.10244 20.3745C6.16113 20.3885 6.21176 20.4272 6.24252 20.4815L8.17 23.8872C8.2264 23.9869 8.34448 24.027 8.4458 23.981L11.9133 22.4067C11.9687 22.3816 12.0315 22.3814 12.087 22.4064L15.5547 23.9702C15.6558 24.0158 15.7736 23.9756 15.8299 23.8762L17.7577 20.47C17.7884 20.4157 17.8391 20.377 17.8977 20.363L21.5801 19.4845C21.6876 19.459 21.7602 19.3537 21.7501 19.2386L21.4033 15.2973C21.3978 15.2342 21.4171 15.1715 21.457 15.1239L23.9454 12.1465ZM13.0976 17.5266C13.0976 17.654 12.9994 17.7571 12.8781 17.7571H11.1221C11.0008 17.7571 10.9026 17.654 10.9026 17.5266V15.6826C10.9026 15.5552 11.0008 15.4521 11.1221 15.4521H12.8781C12.9994 15.4521 13.0976 15.5552 13.0976 15.6826V17.5266ZM13.0976 12.9165C13.0976 13.0438 12.9994 13.147 12.8781 13.147H11.1221C11.0008 13.147 10.9026 13.0438 10.9026 12.9165V6.4623C10.9026 6.33499 11.0008 6.23179 11.1221 6.23179H12.8781C12.9994 6.23179 13.0976 6.33499 13.0976 6.4623V12.9165Z" fill="#002B45"/>
</svg>
