<!-- Generated by IcoMoon.io -->
<svg version="1.1" xmlns="http://www.w3.org/2000/svg" width="24" height="24" viewBox="0 0 24 24">
<title>Refresh</title>
<path fill="#002b45" d="M12 4c2.212 0 4.215 0.898 5.663 2.349l1.996-1.997c0.078-0.078 0.205-0.078 0.283 0 0.037 0.037 0.059 0.088 0.059 0.141v5.317c0 0.11-0.090 0.2-0.2 0.2h-5.317c-0.11 0-0.2-0.090-0.2-0.2 0-0.053 0.021-0.104 0.059-0.141l1.907-1.906c-1.086-1.089-2.589-1.763-4.249-1.763-3.314 0-6 2.686-6 6s2.686 6 6 6c2.612 0 4.834-1.669 5.658-3.999h2.090c-0.888 3.45-4.020 6-7.748 6-4.418 0-8-3.582-8-8s3.582-8 8-8z"></path>
</svg>
