<!-- Generated by IcoMoon.io -->
<svg version="1.1" xmlns="http://www.w3.org/2000/svg" width="24" height="24" viewBox="0 0 24 24">
<title>SearchHistory</title>
<path fill="#002b45" d="M9.414 3c3.542 0 6.414 2.871 6.414 6.414 0 1.415-0.458 2.723-1.234 3.784l6.407 6.408-1.395 1.395-6.408-6.407c-1.061 0.776-2.369 1.234-3.784 1.234-2.994 0-5.51-2.052-6.216-4.827h2.067c0.639 1.669 2.255 2.854 4.148 2.854 2.452 0 4.44-1.988 4.44-4.44s-1.988-4.44-4.44-4.44c-1.481 0-2.793 0.725-3.6 1.841l1.845 1.845c0.078 0.078 0.078 0.205 0 0.283-0.038 0.037-0.088 0.059-0.141 0.059h-5.317c-0.11 0-0.2-0.090-0.2-0.2v-5.317c0-0.11 0.090-0.2 0.2-0.2 0.053 0 0.104 0.021 0.141 0.059l2.064 2.065c1.175-1.467 2.982-2.406 5.008-2.406z"></path>
</svg>
