<!-- Generated by IcoMoon.io -->
<svg version="1.1" xmlns="http://www.w3.org/2000/svg" width="24" height="24" viewBox="0 0 24 24">
<title>Settings</title>
<path fill="#002b45" d="M18.457 4.283l-1.399 4.014c0.21 0.309 0.389 0.637 0.537 0.98l4.011 0.74-0.074 3.557-4.046 0.913c-0.081 0.173-0.17 0.344-0.267 0.513s-0.201 0.331-0.311 0.488l1.233 3.96-3.043 1.843-2.647-3.104c-0.37 0.043-0.744 0.052-1.117 0.025l-2.776 3.219-2.969-1.714 1.399-4.014c-0.21-0.309-0.389-0.638-0.537-0.98l-4.011-0.74 0.074-3.557 4.046-0.913c0.081-0.173 0.17-0.344 0.267-0.513s0.201-0.331 0.311-0.488l-1.233-3.96 3.043-1.843 2.646 3.104c0.371-0.043 0.745-0.052 1.117-0.025l2.776-3.219 2.969 1.714zM13.373 9.662c-1.23-0.71-2.831-0.239-3.577 1.053s-0.353 2.914 0.877 3.624c1.23 0.71 2.831 0.239 3.577-1.053s0.353-2.914-0.877-3.624z"></path>
</svg>
