<svg width="24" height="24" viewBox="0 0 24 24" fill="none" xmlns="http://www.w3.org/2000/svg">
<path fill-rule="evenodd" clip-rule="evenodd" d="M5 3H19V12.3197C19 15.3498 17.288 18.1199 14.5777 19.4751L12 20.7639L9.42229 19.4751C6.71202 18.1199 5 15.3498 5 12.3197V3ZM8.52786 21.2639L12 23L15.4721 21.2639C18.86 19.57 21 16.1074 21 12.3197V1H3V12.3197C3 16.1074 5.14002 19.57 8.52786 21.2639ZM10.8065 6.05064C10.8441 6.01748 10.9106 6 11.0081 6H12.9919C13.0887 6 13.1552 6.01748 13.1935 6.05064C13.2305 6.085 13.25 6.14468 13.25 6.23209L13.0396 11.7679C13.0396 11.8553 13.0215 11.9156 12.9832 11.9494C12.9462 11.9825 12.879 12 12.7816 12H11.2171C11.121 12 11.0531 11.9825 11.0161 11.9494C10.9785 11.9156 10.9597 11.8553 10.9597 11.7679L10.75 6.23209C10.75 6.14468 10.7681 6.085 10.8065 6.05064ZM13.1935 15.6897C13.1552 15.7306 13.0887 15.75 12.9919 15.75H11.0081C10.9113 15.75 10.8441 15.7306 10.8065 15.6897C10.7688 15.6487 10.75 15.5776 10.75 15.4734V13.5259C10.75 13.4224 10.7688 13.3506 10.8065 13.3096C10.8441 13.2708 10.9113 13.25 11.0081 13.25H12.9919C13.0887 13.25 13.1552 13.2708 13.1935 13.3096C13.2312 13.3506 13.25 13.4224 13.25 13.5259V15.4734C13.25 15.5776 13.2312 15.6487 13.1935 15.6897Z" fill="#000000"/>
</svg>
