<svg version="1.1" xmlns="http://www.w3.org/2000/svg" width="24" height="24" viewBox="0 0 24 24">
<title>Stack</title>
<path d="M4 8.00004V5.11089C4 5.04193 4.03552 4.97784 4.094 4.94129L11.894 0.0662891C11.9589 0.0257553 12.0411 0.0257551 12.106 0.0662889L19.906 4.94129C19.9645 4.97784 20 5.04193 20 5.11089V8.00004L12 14L4 8.00004Z" fill="currentColor"/>
<path d="M4 13V9.00004L12 15L20 9.00004V13L12 19L4 13Z" fill="currentColor"/>
<path d="M4.08 18.06C4.02964 18.0223 4 17.963 4 17.9V14L12 20L20 14V17.9C20 17.963 19.9704 18.0223 19.92 18.06L12.12 23.91C12.0489 23.9634 11.9511 23.9634 11.88 23.91L4.08 18.06Z" fill="currentColor"/>
</svg>
