<svg width="24" height="24" viewBox="0 0 24 24" xmlns="http://www.w3.org/2000/svg">
<path fill="#002b45" d="M11.0081 9.0613C10.9106 9.0613 10.8441 9.07878 10.8065 9.11194C10.7682 9.1463 10.75 9.20598 10.75 9.29339L10.9597 14.8292C10.9597 14.9166 10.9785 14.9769 11.0162 15.0107C11.0531 15.0438 11.121 15.0613 11.2171 15.0613H12.7816C12.8791 15.0613 12.9463 15.0438 12.9832 15.0107C13.0215 14.9769 13.0397 14.9166 13.0397 14.8292L13.25 9.29339C13.25 9.20598 13.2305 9.1463 13.1936 9.11194C13.1553 9.07878 13.0887 9.0613 12.992 9.0613H11.0081ZM12.992 18.8113C13.0887 18.8113 13.1553 18.7919 13.1936 18.751C13.2312 18.71 13.25 18.6389 13.25 18.5347V16.5872C13.25 16.4837 13.2312 16.4119 13.1936 16.3709C13.1553 16.3321 13.0887 16.3113 12.992 16.3113H11.0081C10.9113 16.3113 10.8441 16.3321 10.8065 16.3709C10.7688 16.4119 10.75 16.4837 10.75 16.5872V18.5347C10.75 18.6389 10.7688 18.71 10.8065 18.751C10.8441 18.7919 10.9113 18.8113 11.0081 18.8113H12.992ZM12.1029 2.02853C12.1311 2.04542 12.1546 2.06898 12.1715 2.09713L23.8183 21.5084C23.8751 21.6031 23.8444 21.726 23.7497 21.7828C23.7186 21.8014 23.683 21.8113 23.6468 21.8113H0.353259C0.242802 21.8113 0.153259 21.7218 0.153259 21.6113C0.153259 21.5751 0.163111 21.5395 0.181761 21.5084L11.8285 2.09713C11.8854 2.00242 12.0082 1.9717 12.1029 2.02853ZM12 5.6983L3.53202 19.8113H20.467L12 5.6983Z" />
</svg>
