<!-- Generated by IcoMoon.io -->
<svg version="1.1" xmlns="http://www.w3.org/2000/svg" width="24" height="24" viewBox="0 0 24 24">
<title>SupportContact</title>
<path fill="#002b45" d="M19 4c1.105 0 2 0.895 2 2v10c0 1.105-0.895 2-2 2h-6l-4 4v-4h-4c-1.105 0-2-0.895-2-2v-10c0-1.105 0.895-2 2-2h14zM12.625 13.5h-1.431c-0.069 0-0.117 0.016-0.144 0.048-0.018 0.021-0.030 0.054-0.036 0.098l-0.004 0.074v1.559c0 0.083 0.013 0.14 0.040 0.172 0.018 0.021 0.045 0.036 0.082 0.043l0.062 0.005h1.431c0.069 0 0.117-0.016 0.144-0.048 0.018-0.021 0.030-0.054 0.036-0.098l0.004-0.074v-1.559c0-0.083-0.013-0.14-0.040-0.172-0.018-0.021-0.045-0.036-0.082-0.043l-0.062-0.005zM12.51 6.5c-0.378 0-1.090 0.012-2.136 0.036-0.065 0-0.111 0.014-0.136 0.042-0.017 0.019-0.028 0.047-0.034 0.085l-0.004 0.065v1.212c0 0.072 0.013 0.122 0.038 0.15s0.071 0.042 0.136 0.042c0.131 0 0.236-0.004 0.316-0.012 0.712-0.016 1.282-0.024 1.711-0.024 0.254 0 0.438 0.060 0.55 0.18 0.094 0.1 0.149 0.256 0.164 0.467l0.005 0.133v0.276c0 0.184-0.025 0.33-0.076 0.438-0.041 0.086-0.119 0.164-0.234 0.232l-0.093 0.050-0.577 0.264c-0.341 0.16-0.603 0.362-0.785 0.606-0.159 0.213-0.248 0.527-0.268 0.939l-0.004 0.183v0.444c0 0.072 0.013 0.122 0.038 0.15 0.017 0.019 0.043 0.031 0.077 0.037l0.059 0.005h1.231c0.065 0 0.111-0.014 0.136-0.042 0.017-0.019 0.028-0.047 0.034-0.085l0.004-0.065v-0.288c0-0.168 0.009-0.286 0.027-0.354s0.060-0.128 0.125-0.18c0.065-0.052 0.189-0.118 0.37-0.198l0.261-0.12c0.363-0.16 0.663-0.384 0.899-0.672 0.207-0.252 0.323-0.584 0.349-0.995l0.006-0.181v-0.624c0-0.704-0.185-1.246-0.556-1.626s-0.915-0.57-1.634-0.57z"></path>
</svg>
