<!-- Generated by IcoMoon.io -->
<svg version="1.1" xmlns="http://www.w3.org/2000/svg" width="24" height="24" viewBox="0 0 24 24">
<title>SupportChat</title>
<path fill="#002b45" d="M19 4c1.105 0 2 0.895 2 2v10c0 1.105-0.895 2-2 2h-6l-4 4v-4h-4c-1.105 0-2-0.895-2-2v-10c0-1.105 0.895-2 2-2h14zM12.8 10h-1.6c-0.11 0-0.2 0.090-0.2 0.2v0 1.6c0 0.11 0.090 0.2 0.2 0.2v0h1.6c0.11 0 0.2-0.090 0.2-0.2v0-1.6c0-0.11-0.090-0.2-0.2-0.2v0zM15.8 10h-1.6c-0.11 0-0.2 0.090-0.2 0.2v0 1.6c0 0.11 0.090 0.2 0.2 0.2v0h1.6c0.11 0 0.2-0.090 0.2-0.2v0-1.6c0-0.11-0.090-0.2-0.2-0.2v0zM9.8 10h-1.6c-0.11 0-0.2 0.090-0.2 0.2v0 1.6c0 0.11 0.090 0.2 0.2 0.2v0h1.6c0.11 0 0.2-0.090 0.2-0.2v0-1.6c0-0.11-0.090-0.2-0.2-0.2v0z"></path>
</svg>
