<!-- Generated by IcoMoon.io -->
<svg version="1.1" xmlns="http://www.w3.org/2000/svg" width="24" height="24" viewBox="0 0 24 24">
<title>Unlink</title>
<path fill="#002b45" d="M11.908 14.736l1.066 1.065c-0.031 0.466-0.225 0.923-0.581 1.279l-2.828 2.828c-0.781 0.781-2.047 0.781-2.828 0l-2.828-2.828c-0.781-0.781-0.781-2.047 0-2.828l2.828-2.828c0.356-0.356 0.813-0.55 1.279-0.581l1.065 1.066-3.758 3.758 2.828 2.828 3.758-3.759zM3.515 3.515l1.414-1.414 5.65 5.65c0.096-0.207 0.229-0.4 0.4-0.57l2.828-2.828c0.781-0.781 2.047-0.781 2.828 0l2.828 2.828c0.781 0.781 0.781 2.047 0 2.828l-2.828 2.828c-0.17 0.17-0.364 0.304-0.57 0.4l5.835 5.834-1.414 1.414-16.971-16.971zM9.787 12.615l1.414 1.414-2.343 2.344-1.414-1.414 2.344-2.344zM15.221 5.766l-3.313 3.313 0.707 0.707 1.899-1.899 1.414 1.414-1.9 1.899 0.707 0.707 3.314-3.313-2.828-2.828z"></path>
</svg>
