<!-- Generated by IcoMoon.io -->
<svg version="1.1" xmlns="http://www.w3.org/2000/svg" width="24" height="24" viewBox="0 0 24 24">
<title>Unlocked</title>
<path fill="#002b45" d="M18 9c1.105 0 2 0.895 2 2v9c0 1.105-0.895 2-2 2h-12c-1.105 0-2-0.895-2-2v-9c0-1.105 0.895-2 2-2v-4c0-1.657 1.343-3 3-3v0h6c1.657 0 3 1.343 3 3v0h-2l-0.007-0.117c-0.058-0.497-0.48-0.883-0.993-0.883v0h-6c-0.552 0-1 0.448-1 1v0 4h10zM12 13c-0.828 0-1.5 0.672-1.5 1.5 0 0.555 0.301 1.040 0.75 1.299v0 2.201h1.5l0.001-2.202c0.448-0.26 0.749-0.744 0.749-1.299 0-0.828-0.672-1.5-1.5-1.5z"></path>
</svg>
