<!-- Generated by IcoMoon.io -->
<svg version="1.1" xmlns="http://www.w3.org/2000/svg" width="24" height="24" viewBox="0 0 24 24">
<title>Unpin</title>
<path fill="#002b45" d="M4.929 2.101l6.345 6.345 2.868-2.867c-0.781-0.781-0.781-2.047 0-2.828l7.071 7.071c-0.781 0.781-2.047 0.781-2.828 0l-2.868 2.867 6.383 6.383-1.414 1.414-16.971-16.971 1.414-1.414zM9.192 13.357l1.414 1.414-7.071 5.657 5.657-7.071zM7.2 10.027l6.736 6.736c-0.076 0.254-0.204 0.496-0.384 0.709l-0.117 0.127-7.071-7.071c0.242-0.242 0.53-0.409 0.836-0.501z"></path>
</svg>
