<svg xmlns="http://www.w3.org/2000/svg" width="32" height="32" viewBox="0 0 32 32" fill="none">
<path fill-rule="evenodd" clip-rule="evenodd" d="M12.5514 21.1028C14.4381 21.1028 16.1822 20.4917 17.5964 19.4568L26.1396 28L28.0001 26.1394L19.4569 17.5962C20.4918 16.182 21.1028 14.4381 21.1028 12.5514C21.1028 7.82859 17.2742 4 12.5514 4C7.82859 4 4 7.82859 4 12.5514C4 17.2742 7.82859 21.1028 12.5514 21.1028ZM12.5514 18.4716C9.28176 18.4716 6.6312 15.821 6.6312 12.5514C6.6312 9.28176 9.28176 6.6312 12.5514 6.6312C15.821 6.6312 18.4716 9.28176 18.4716 12.5514C18.4716 15.821 15.821 18.4716 12.5514 18.4716ZM16 14V11.3333H9.33333V14H16Z" fill="#002b45"/>
</svg>
