<!-- Generated by IcoMoon.io -->
<svg version="1.1" xmlns="http://www.w3.org/2000/svg" width="40" height="32" viewBox="0 0 40 32">
<title>UK</title>
<path fill="#fff" d="M0 0h40v32h-40z"></path>
<path fill="#be1e2d" d="M18 0h4v12h18v8h-18v12h-4v-12h-18v-8h18v-12zM0 1.436v-1.436l11.765 9.481h-1.796l-9.969-8.046zM28.235 9.481l11.765-9.481v1.436l-9.969 8.046h-1.796zM28.235 22.519h1.796l9.969 8.046v1.436l-11.765-9.481zM9.969 22.519h1.796l-11.765 9.481v-1.436l9.969-8.046z"></path>
<path fill="#002b45" d="M0 9.481v-5.926l7.059 5.926h-7.059zM3.529 0h12.941v9.481h-0.36l-12.581-9.481zM32.941 9.481l7.059-5.926v5.926h-7.059zM23.529 0h12.941l-12.581 9.481h-0.36v-9.481zM32.941 22.519h7.059v5.926l-7.059-5.926zM23.529 22.519h0.36l12.581 9.481h-12.941v-9.481zM0 22.519h7.059l-7.059 5.926v-5.926zM16.111 22.519h0.36v9.481h-12.941l12.581-9.481z"></path>
<path fill="#2d2926" opacity="0.15" d="M38 30h-36v-28h36v28zM40 0h-40v32h40v-32z"></path>
</svg>
