<!-- Generated by IcoMoon.io -->
<svg version="1.1" xmlns="http://www.w3.org/2000/svg" width="40" height="32" viewBox="0 0 40 32">
<title>Norway</title>
<path fill="#002b45" d="M0 0h40v32h-40z"></path>
<path fill="#fff" d="M0 16h12.8v16h-12.8v-16zM16 16h24v16h-24v-16zM0 0h12.8v12.8h-12.8v-12.8zM16 0h24v12.8h-24v-12.8z"></path>
<path fill="#be1e2d" d="M0 17.6h11.2v14.4h-11.2v-14.4zM17.6 17.6h22.4v14.4h-22.4v-14.4zM0 0h11.2v11.2h-11.2v-11.2zM17.6 0h22.4v11.2h-22.4v-11.2z"></path>
<path fill="#2d2926" opacity="0.15" d="M38 30h-36v-28h36v28zM40 0h-40v32h40v-32z"></path>
</svg>
