<!-- Generated by IcoMoon.io -->
<svg version="1.1" xmlns="http://www.w3.org/2000/svg" width="40" height="32" viewBox="0 0 40 32">
<title>USA</title>
<path fill="#be1e2d" d="M0 32h40v-32h-19.195v15.197h-20.805z"></path>
<path fill="#fff" d="M20.8 5.6v-2.4h19.2v2.4h-19.2zM20.8 10.4v-2.4h19.2v2.4h-19.2zM20.8 15.2v-2.4h19.2v2.4h-19.2zM0 20v-2.4h40v2.4h-40zM0 24.8v-2.4h40v2.4h-40zM0 29.6v-2.4h40v2.4h-40z"></path>
<path fill="#002b45" d="M0 15.2v-15.2h20.8v15.2h-20.8zM1.948 2.095l-0.56 0.095 0.413 0.41-0.089 0.587 0.499-0.285 0.506 0.268-0.104-0.583 0.4-0.423-0.562-0.076-0.259-0.529-0.244 0.536zM5.201 2.095l-0.56 0.095 0.413 0.41-0.089 0.587 0.499-0.285 0.506 0.268-0.104-0.583 0.4-0.423-0.562-0.076-0.259-0.529-0.244 0.536zM8.455 2.095l-0.56 0.095 0.412 0.41-0.088 0.587 0.497-0.285 0.508 0.268-0.106-0.583 0.402-0.423-0.562-0.076-0.259-0.529-0.244 0.536zM11.708 2.095l-0.56 0.095 0.412 0.41-0.088 0.587 0.499-0.285 0.506 0.268-0.106-0.583 0.402-0.423-0.562-0.076-0.259-0.529-0.244 0.536zM14.961 2.095l-0.562 0.095 0.415 0.41-0.089 0.587 0.499-0.285 0.506 0.268-0.104-0.583 0.4-0.423-0.562-0.076-0.259-0.529-0.244 0.536zM18.213 2.095l-0.56 0.095 0.413 0.41-0.089 0.587 0.499-0.285 0.506 0.268-0.104-0.583 0.402-0.423-0.564-0.076-0.259-0.529-0.244 0.536zM1.948 5.819l-0.56 0.095 0.413 0.41-0.089 0.587 0.499-0.285 0.506 0.27-0.104-0.585 0.4-0.421-0.562-0.078-0.259-0.529-0.244 0.536zM5.201 5.819l-0.56 0.095 0.413 0.41-0.089 0.587 0.499-0.285 0.506 0.27-0.104-0.585 0.4-0.421-0.562-0.078-0.259-0.529-0.244 0.536zM8.455 5.819l-0.56 0.095 0.412 0.41-0.088 0.587 0.497-0.285 0.508 0.27-0.106-0.585 0.402-0.421-0.562-0.078-0.259-0.529-0.244 0.536zM11.708 5.819l-0.56 0.095 0.412 0.41-0.088 0.587 0.499-0.285 0.506 0.27-0.106-0.585 0.402-0.421-0.562-0.078-0.259-0.529-0.244 0.536zM14.961 5.819l-0.562 0.095 0.415 0.41-0.089 0.587 0.499-0.285 0.506 0.27-0.104-0.585 0.4-0.421-0.562-0.078-0.259-0.529-0.244 0.536zM18.213 5.819l-0.56 0.095 0.413 0.41-0.089 0.587 0.499-0.285 0.506 0.27-0.104-0.585 0.402-0.421-0.564-0.078-0.259-0.529-0.244 0.536zM3.339 3.957l-0.56 0.095 0.413 0.41-0.089 0.587 0.499-0.285 0.506 0.27-0.104-0.585 0.4-0.421-0.562-0.078-0.259-0.529-0.244 0.536zM6.593 3.957l-0.56 0.095 0.412 0.41-0.089 0.587 0.499-0.285 0.508 0.27-0.106-0.585 0.402-0.421-0.562-0.078-0.259-0.529-0.244 0.536zM9.846 3.957l-0.56 0.095 0.412 0.41-0.088 0.587 0.499-0.285 0.506 0.27-0.106-0.585 0.402-0.421-0.562-0.078-0.259-0.529-0.244 0.536zM13.099 3.957l-0.56 0.095 0.412 0.41-0.088 0.587 0.499-0.285 0.506 0.27-0.104-0.585 0.4-0.421-0.562-0.078-0.259-0.529-0.244 0.536zM16.352 3.957l-0.56 0.095 0.413 0.41-0.089 0.587 0.499-0.285 0.506 0.27-0.104-0.585 0.402-0.421-0.564-0.078-0.259-0.529-0.244 0.536zM3.339 7.683l-0.56 0.093 0.413 0.41-0.089 0.588 0.499-0.287 0.506 0.27-0.104-0.583 0.4-0.423-0.562-0.078-0.259-0.529-0.244 0.538zM6.593 7.683l-0.56 0.093 0.412 0.41-0.089 0.588 0.499-0.287 0.508 0.27-0.106-0.583 0.402-0.423-0.562-0.078-0.259-0.529-0.244 0.538zM9.846 7.683l-0.56 0.093 0.412 0.41-0.088 0.588 0.499-0.287 0.506 0.27-0.106-0.583 0.402-0.423-0.562-0.078-0.259-0.529-0.244 0.538zM13.099 7.683l-0.56 0.093 0.412 0.41-0.088 0.588 0.499-0.287 0.506 0.27-0.104-0.583 0.4-0.423-0.562-0.078-0.259-0.529-0.244 0.538zM16.352 7.683l-0.56 0.093 0.413 0.41-0.089 0.588 0.499-0.287 0.506 0.27-0.104-0.583 0.402-0.423-0.564-0.078-0.259-0.529-0.244 0.538zM3.339 11.406l-0.56 0.093 0.413 0.41-0.089 0.588 0.499-0.287 0.506 0.27-0.104-0.583 0.4-0.423-0.562-0.078-0.259-0.527-0.244 0.536zM6.593 11.406l-0.56 0.093 0.412 0.41-0.089 0.588 0.499-0.287 0.508 0.27-0.106-0.583 0.402-0.423-0.562-0.078-0.259-0.527-0.244 0.536zM9.846 11.406l-0.56 0.093 0.412 0.41-0.088 0.588 0.499-0.287 0.506 0.27-0.106-0.583 0.402-0.423-0.562-0.078-0.259-0.527-0.244 0.536zM13.099 11.406l-0.56 0.093 0.412 0.41-0.088 0.588 0.499-0.287 0.506 0.27-0.104-0.583 0.4-0.423-0.562-0.078-0.259-0.527-0.244 0.536zM16.352 11.406l-0.56 0.093 0.413 0.41-0.089 0.588 0.499-0.287 0.506 0.27-0.104-0.583 0.402-0.423-0.564-0.078-0.259-0.527-0.244 0.536zM1.948 9.544l-0.56 0.093 0.413 0.41-0.089 0.588 0.499-0.287 0.506 0.27-0.104-0.583 0.4-0.423-0.562-0.078-0.259-0.527-0.244 0.536zM5.201 9.544l-0.56 0.093 0.413 0.41-0.089 0.588 0.499-0.287 0.506 0.27-0.104-0.583 0.4-0.423-0.562-0.078-0.259-0.527-0.244 0.536zM8.455 9.544l-0.56 0.093 0.412 0.41-0.088 0.588 0.497-0.287 0.508 0.27-0.106-0.583 0.402-0.423-0.562-0.078-0.259-0.527-0.244 0.536zM11.708 9.544l-0.56 0.093 0.412 0.41-0.088 0.588 0.499-0.287 0.506 0.27-0.106-0.583 0.402-0.423-0.562-0.078-0.259-0.527-0.244 0.536zM14.961 9.544l-0.562 0.093 0.415 0.41-0.089 0.588 0.499-0.287 0.506 0.27-0.104-0.583 0.4-0.423-0.562-0.078-0.259-0.527-0.244 0.536zM18.213 9.544l-0.56 0.093 0.413 0.41-0.089 0.588 0.499-0.287 0.506 0.27-0.104-0.583 0.402-0.423-0.564-0.078-0.259-0.527-0.244 0.536zM1.948 13.268l-0.56 0.093 0.413 0.41-0.089 0.588 0.499-0.285 0.506 0.268-0.104-0.583 0.4-0.423-0.562-0.076-0.259-0.529-0.244 0.536zM5.201 13.268l-0.56 0.093 0.413 0.41-0.089 0.588 0.499-0.285 0.506 0.268-0.104-0.583 0.4-0.423-0.562-0.076-0.259-0.529-0.244 0.536zM8.455 13.268l-0.56 0.093 0.412 0.41-0.088 0.588 0.497-0.285 0.508 0.268-0.106-0.583 0.402-0.423-0.562-0.076-0.259-0.529-0.244 0.536zM11.708 13.268l-0.56 0.093 0.412 0.41-0.088 0.588 0.499-0.285 0.506 0.268-0.106-0.583 0.402-0.423-0.562-0.076-0.259-0.529-0.244 0.536zM14.961 13.268l-0.562 0.093 0.415 0.41-0.089 0.588 0.499-0.285 0.506 0.268-0.104-0.583 0.4-0.423-0.562-0.076-0.259-0.529-0.244 0.536zM18.213 13.268l-0.56 0.093 0.413 0.41-0.089 0.588 0.499-0.285 0.506 0.268-0.104-0.583 0.402-0.423-0.564-0.076-0.259-0.529-0.244 0.536z"></path>
<path fill="#2d2926" opacity="0.15" d="M38 30h-36v-28h36v28zM40 0h-40v32h40v-32z"></path>
</svg>
