<svg width="25" height="20" viewBox="0 0 25 20" fill="none" xmlns="http://www.w3.org/2000/svg">
<rect width="25" height="20" fill="white"/>
<rect y="13" width="25" height="7" fill="#BE1E2D"/>
<rect width="25" height="8" fill="white"/>
<rect y="7" width="25" height="6" fill="#1B5786"/>
<g opacity="0.15">
<path fill-rule="evenodd" clip-rule="evenodd" d="M0 0H25V20H0V0ZM23.75 18.75V1.25H1.25V18.75H23.75Z" fill="#2D2926"/>
</g>
<path d="M8.3625 5C6.375 5 4.75 5.625 4.75 6.325V10.625C5.07487 12.5927 6.46729 14.2164 8.3625 14.8375C9.5375 14.8375 11.9875 12.625 11.9875 10.625V6.325C11.9875 5.625 10.3625 5 8.3625 5Z" fill="#BE1E2D"/>
<path d="M8.67499 11.25V9.03752H10.7125V8.41252H8.67499V7.65002H10.0875V7.02502H8.67499V5.77502H8.04999V7.02502H6.64999V7.65002H8.04999V8.41252H6.02499V9.03752H8.04999V11.25C8.15387 11.239 8.25862 11.239 8.36249 11.25C8.46625 11.237 8.57124 11.237 8.67499 11.25Z" fill="white"/>
<path d="M10.5 11.7875C10.2006 11.796 9.92081 11.9382 9.7375 12.175C9.56297 11.7066 9.16303 11.3584 8.675 11.25C8.57124 11.237 8.46625 11.237 8.3625 11.25C7.77325 11.2857 7.25061 11.6405 7 12.175C6.81944 11.9415 6.54494 11.7997 6.25 11.7875C5.88254 11.7961 5.55024 12.008 5.3875 12.3375C6.03851 13.4862 7.1021 14.3442 8.3625 14.7375C9.65513 14.3943 10.7438 13.5233 11.3625 12.3375C11.1998 12.008 10.8674 11.7961 10.5 11.7875Z" fill="#1B5786"/>
<path fill-rule="evenodd" clip-rule="evenodd" d="M4.3125 5.88748C4.3125 5.11248 6.125 4.47498 8.3625 4.47498C10.6 4.47498 12.4125 5.11248 12.4125 5.88748V10.7125C12.4125 12.9125 9.6125 15.4125 8.3625 15.4125C7.275 15.4125 4.3125 12.95 4.3125 10.7125V5.88748ZM11.3625 12.3375C11.6834 11.8166 11.8682 11.2234 11.9 10.6125V6.38748C11.9 5.69998 10.3125 5.13748 8.35 5.13748C6.3875 5.13748 4.8 5.69998 4.8 6.38748V10.6125C4.83213 11.2289 5.03085 11.8251 5.375 12.3375C6.02601 13.4862 7.0896 14.3442 8.35 14.7375C9.6473 14.3973 10.7411 13.526 11.3625 12.3375Z" fill="white"/>
</svg>
