<!-- Generated by IcoMoon.io -->
<svg version="1.1" xmlns="http://www.w3.org/2000/svg" width="40" height="32" viewBox="0 0 40 32">
<title>EU</title>
<path fill="#1b5786" d="M0 32h40v-32h-40z"></path>
<path fill="#fcd21d" d="M19.479 7.123l0.51-1.122 0.54 1.106 1.178 0.162-0.84 0.88 0.218 1.222-1.058-0.562-1.044 0.594 0.186-1.23-0.862-0.852 1.172-0.198zM19.479 23.826l0.51-1.122 0.54 1.106 1.178 0.162-0.84 0.88 0.218 1.22-1.058-0.562-1.044 0.594 0.186-1.228-0.862-0.854 1.172-0.196zM15.441 8.251l0.51-1.122 0.54 1.106 1.178 0.162-0.84 0.88 0.218 1.222-1.058-0.562-1.044 0.594 0.186-1.23-0.862-0.852 1.172-0.198zM23.822 22.701l0.55-1.104 0.5 1.126 1.17 0.204-0.87 0.848 0.172 1.228-1.036-0.598-1.064 0.554 0.228-1.22-0.828-0.886 1.178-0.152zM12.047 12.211l-0.872-0.874 1.226-0.116 0.566-1.046 0.528 1.094 1.22 0.228-0.898 0.792 0.188 1.186-1.084-0.604-1.102 0.506 0.228-1.166zM26.523 20.596l-0.902-0.84 1.22-0.162 0.526-1.064 0.57 1.074 1.226 0.182-0.868 0.826 0.23 1.176-1.104-0.564-1.084 0.546 0.186-1.174zM10.921 16.326l-0.848-0.894 1.228-0.086 0.592-1.030 0.5 1.108 1.214 0.258-0.92 0.768 0.16 1.19-1.070-0.632-1.114 0.478 0.258-1.16zM27.648 16.384l-0.918-0.822 1.216-0.186 0.506-1.074 0.59 1.062 1.23 0.158-0.852 0.842 0.254 1.172-1.116-0.54-1.074 0.566 0.164-1.178zM12.913 21.108l-1.066 0.618 0.202-1.216-0.864-0.814 1.192-0.228 0.534-1.122 0.534 1.072 1.194 0.124-0.862 0.892 0.204 1.196-1.068-0.522zM27.348 12.775l-1.080 0.594 0.228-1.21-0.846-0.834 1.198-0.202 0.556-1.11 0.512 1.084 1.19 0.148-0.882 0.874 0.18 1.2-1.056-0.544zM15.999 24.051l-1.002 0.716 0.084-1.228-0.938-0.728 1.166-0.344 0.422-1.166 0.636 1.016 1.2 0.008-0.774 0.97 0.32 1.172-1.114-0.416zM24.251 9.595l-1.068 0.618 0.204-1.216-0.864-0.816 1.194-0.228 0.534-1.12 0.534 1.072 1.192 0.126-0.862 0.89 0.204 1.198-1.068-0.524z"></path>
<path fill="#2d2926" opacity="0.15" d="M38 30h-36v-28h36v28zM40 0h-40v32h40v-32z"></path>
</svg>
