<svg width="25" height="20" viewBox="0 0 25 20" fill="none" xmlns="http://www.w3.org/2000/svg"><path fill="#fff" d="M0 0h25v20H0z"/><path fill-rule="evenodd" clip-rule="evenodd" d="M14.6 16.105c.235-.388.433-.796.59-1.22.275.12.543.258.8.41a6.625 6.625 0 0 1-1.4.81h.01zm-5.66-1.22c.158.424.356.832.59 1.22a6.203 6.203 0 0 1-1.42-.81c.264-.153.538-.29.82-.41h.01zm3.11 1.71c-.59 0-1.33-.8-1.88-2.19a7.418 7.418 0 0 1 1.88-.27 7.38 7.38 0 0 1 1.88.27c-.54 1.41-1.28 2.21-1.88 2.21v-.02zm3.54-3c.244-.959.386-1.941.42-2.93h2.6a6.659 6.659 0 0 1-1.63 3.72 8.327 8.327 0 0 0-1.39-.79zm-3.53-.77a8.735 8.735 0 0 0-2.28.31 12.68 12.68 0 0 1-.33-2.47h5.23a13.519 13.519 0 0 1-.33 2.47 8.806 8.806 0 0 0-2.3-.31h.01zm-3.95-2.16c.035.989.176 1.971.42 2.93a8.281 8.281 0 0 0-1.42.79 6.582 6.582 0 0 1-1.61-3.72h2.61zm6.6-1.35H9.44c.031-.76.128-1.516.29-2.26a8.585 8.585 0 0 0 4.65 0c.159.751.256 1.513.29 2.28l.04-.02zm1.34 0a14.809 14.809 0 0 0-.38-2.78c.507-.224.99-.499 1.44-.82a6.521 6.521 0 0 1 1.5 3.62l-2.56-.02zm-7.57-2.76c-.216.912-.34 1.843-.37 2.78H5.5a6.516 6.516 0 0 1 1.55-3.62c.447.327.926.609 1.43.84zm.4-1.31a6.336 6.336 0 0 1-.86-.46 6.488 6.488 0 0 1 1.5-.9 7.775 7.775 0 0 0-.64 1.36zm6.39-.02a8.557 8.557 0 0 0-.64-1.36 6.696 6.696 0 0 1 1.49.9 7.067 7.067 0 0 1-.89.48l.04-.02zm-1.24.47a6.99 6.99 0 0 1-1.98.36 6.995 6.995 0 0 1-1.94-.34c.55-1.47 1.32-2.34 1.93-2.34.61 0 1.4.87 1.95 2.34l.04-.02zm5.97 4.3A8 8 0 0 0 11.995 2a8 8 0 1 0 5.115 14.155l.09-.09a7.927 7.927 0 0 0 2.8-6.07z" fill="#49A2DF"/><path fill-rule="evenodd" clip-rule="evenodd" d="M0 0h25v20H0V0zm1.25 18.75h22.5V1.25H1.25v17.5z" fill="#2D2926" fill-opacity=".15"/></svg>