<!-- Generated by IcoMoon.io -->
<svg version="1.1" xmlns="http://www.w3.org/2000/svg" width="40" height="32" viewBox="0 0 40 32">
<title>Canada</title>
<path fill="#fff" d="M0 32h40v-32h-40z"></path>
<path fill="#be1e2d" d="M30.4 32v-32h9.6v32h-9.6zM0 32v-32h9.6v32h-9.6zM19.991 6.4l1.536 2.864c0.174 0.311 0.486 0.282 0.799 0.109l1.112-0.576-0.829 4.399c-0.174 0.804 0.385 0.804 0.661 0.456l1.94-2.172 0.315 1.103c0.036 0.145 0.196 0.297 0.436 0.261l2.453-0.516-0.644 2.343c-0.138 0.521-0.246 0.737 0.139 0.875l0.874 0.411-4.223 3.43c-0.167 0.13-0.252 0.363-0.192 0.575l0.37 1.213c-1.454-0.168-2.757-0.42-4.212-0.575-0.128-0.014-0.323 0.208-0.323 0.357l0.111 4.434h-0.707l0.193-4.444c0.001-0.149-0.214-0.361-0.343-0.347-1.455 0.155-2.758 0.407-4.212 0.575l0.37-1.213c0.059-0.211-0.025-0.445-0.192-0.575l-4.223-3.43 0.874-0.411c0.385-0.137 0.277-0.353 0.139-0.875l-0.644-2.343 2.453 0.516c0.24 0.036 0.399-0.116 0.436-0.261l0.315-1.103 1.94 2.172c0.276 0.348 0.835 0.348 0.661-0.456l-0.829-4.399 1.112 0.576c0.312 0.174 0.624 0.203 0.799-0.109l1.536-2.864z"></path>
<path fill="#2d2926" opacity="0.15" d="M38 30h-36v-28h36v28zM40 0h-40v32h40v-32z"></path>
</svg>
