<!-- Generated by IcoMoon.io -->
<svg version="1.1" xmlns="http://www.w3.org/2000/svg" width="40" height="32" viewBox="0 0 40 32">
<title>Korea</title>
<path fill="#fff" d="M0 32h40v-32h-40z"></path>
<path fill="#2d2926" opacity="0.15" d="M38 30h-36v-28h36v28zM40 0h-40v32h40v-32z"></path>
<path fill="#be1e2d" d="M24.837 9.532c4.030 2.687 5.12 8.132 2.433 12.163s-8.132 5.12-12.163 2.433c-4.030-2.687-5.12-8.133-2.433-12.163s8.132-5.12 12.163-2.433z"></path>
<path fill="#1b5786" d="M12.674 11.965c-1.344 2.015-0.799 4.738 1.216 6.081s4.738 0.799 6.081-1.216c1.343-2.015 4.066-2.56 6.081-1.216s2.56 4.066 1.216 6.081c-2.687 4.030-8.132 5.12-12.163 2.433s-5.12-8.133-2.433-12.163z"></path>
<path fill="#2d2926" d="M28.331 4.8l4.525 4.525-1.131 1.131-4.525-4.525 1.131-1.131zM26.731 6.4l4.525 4.525-1.131 1.131-4.525-4.525 1.131-1.131zM29.931 3.2l4.525 4.525-1.131 1.131-4.525-4.525 1.131-1.131zM28.331 28.057l-1.131-1.131 4.525-4.525 1.131 1.131-4.525 4.525zM26.731 26.457l-1.131-1.131 4.525-4.525 1.131 1.131-4.525 4.525zM29.931 29.657l-1.131-1.131 4.525-4.525 1.131 1.131-4.525 4.525zM10.925 4.8l1.131 1.131-4.525 4.525-1.131-1.131 4.525-4.525zM12.525 6.4l1.131 1.131-4.525 4.525-1.131-1.131 4.525-4.525zM9.325 3.2l1.131 1.131-4.525 4.525-1.131-1.131 4.525-4.525zM10.925 28.057l-4.525-4.525 1.131-1.131 4.525 4.525-1.131 1.131zM12.525 26.457l-4.525-4.525 1.131-1.131 4.525 4.525-1.131 1.131zM9.325 29.657l-4.525-4.525 1.131-1.131 4.525 4.525-1.131 1.131z"></path>
</svg>
