<!-- Generated by IcoMoon.io -->
<svg version="1.1" xmlns="http://www.w3.org/2000/svg" width="40" height="32" viewBox="0 0 40 32">
<title>Brazil</title>
<path fill="#68bd45" d="M0 32h40v-32h-40z"></path>
<path fill="#2d2926" opacity="0.15" d="M38 30h-36v-28h36v28zM40 0h-40v32h40v-32z"></path>
<path fill="#fcd21d" d="M3.078 16.684l16.922-12.348 16.69 12.348-16.69 12.542z"></path>
<path fill="#1b5786" d="M28.8 16.8c0 4.86-3.94 8.8-8.8 8.8s-8.8-3.94-8.8-8.8c0-4.86 3.94-8.8 8.8-8.8s8.8 3.94 8.8 8.8z"></path>
<path fill="#fff" d="M12.154 12.811c6.431 0.155 12.256 1.866 16.627 4.577-0.033 0.501-0.108 0.99-0.221 1.464-4.487-2.718-10.46-4.396-17.029-4.451 0.157-0.554 0.366-1.086 0.623-1.59z"></path>
</svg>
