<!-- Generated by IcoMoon.io -->
<svg version="1.1" xmlns="http://www.w3.org/2000/svg" width="40" height="32" viewBox="0 0 40 32">
<title>China</title>
<path fill="#be1e2d" d="M0 32h40v-32h-40z"></path>
<path fill="#fcd21d" d="M5.958 7.44l1.202-2.64 1.271 2.602 2.769 0.38-1.972 2.071 0.51 2.875-2.49-1.324-2.454 1.397 0.434-2.888-2.028-2.012 2.758-0.461zM12.304 4.255l0.481-1.055 0.509 1.040 1.106 0.152-0.788 0.829 0.205 1.149-0.998-0.531-0.979 0.56 0.171-1.156-0.811-0.804 1.104-0.185zM15.503 7.456l0.481-1.056 0.509 1.041 1.107 0.149-0.789 0.829 0.205 1.151-0.998-0.53-0.98 0.56 0.171-1.155-0.809-0.806 1.103-0.183zM12.304 13.856l0.481-1.056 0.509 1.041 1.106 0.151-0.788 0.827 0.205 1.151-0.998-0.53-0.979 0.56 0.171-1.155-0.811-0.804 1.104-0.185zM15.503 10.655l0.481-1.055 0.509 1.040 1.107 0.152-0.789 0.829 0.205 1.149-0.998-0.531-0.98 0.56 0.171-1.156-0.809-0.804 1.103-0.185z"></path>
<path fill="#2d2926" opacity="0.15" d="M38 30h-36v-28h36v28zM40 0h-40v32h40v-32z"></path>
</svg>
