<!-- Generated by IcoMoon.io -->
<svg version="1.1" xmlns="http://www.w3.org/2000/svg" width="40" height="32" viewBox="0 0 40 32">
<title>Turkey</title>
<path fill="#be1e2d" d="M0 32h40v-32h-40z"></path>
<path fill="#fff" d="M19.187 14.589l0.298-1.789 1.186 1.367 1.729-0.219-0.853 1.57 0.771 1.654-1.714-0.397-1.253 1.241-0.205-1.815-1.547-0.887z"></path>
<path fill="#fff" d="M17.816 9.76c-0.726-0.272-1.512-0.42-2.333-0.42-3.687 0-6.677 2.998-6.677 6.697s2.989 6.697 6.677 6.697c0.821 0 1.607-0.149 2.333-0.42-1.371 1.101-3.111 1.76-5.004 1.76-4.425 0-8.012-3.598-8.012-8.036s3.587-8.036 8.012-8.036c1.893 0 3.633 0.659 5.004 1.76z"></path>
<path fill="#2d2926" opacity="0.15" d="M38 30h-36v-28h36v28zM40 0h-40v32h40v-32z"></path>
</svg>
