<!-- Generated by IcoMoon.io -->
<svg version="1.1" xmlns="http://www.w3.org/2000/svg" width="30" height="32" viewBox="0 0 30 32">
<title>Invoice</title>
<path fill="#000" d="M26.742 8.513c0.002-0.227-0.085-0.447-0.242-0.611l-3.061-3.196v-2.946c0.009-0.96-0.759-1.746-1.719-1.76h-16.997c-0.961 0.011-1.732 0.799-1.723 1.76v24.96c-0.009 0.961 0.762 1.749 1.723 1.76h1.473v2.363c-0.009 0.483 0.374 0.883 0.857 0.894h18.835c0.483-0.011 0.867-0.411 0.857-0.894v-22.33h-0.004zM4.731 26.72v-24.989l16.985 0.029v1.403h-14.663c-0.478 0.011-0.86 0.403-0.857 0.882v22.695l-1.465-0.020zM7.927 30.002v-25.116h12.595v4.476h4.488v20.644l-17.083-0.004z"></path>
<path fill="#000" d="M18.926 19.508v-0.447h-4.923v0.447h2.232v5.928l-1.916-1.916-0.316 0.316 2.293 2.289c0.042 0.046 0.102 0.073 0.164 0.073s0.122-0.026 0.164-0.073l0.078-0.082 2.191-2.191-0.304-0.304-1.895 1.887v-5.928h2.232zM9.351 16.509c-0.017 0.006-0.036 0.006-0.053 0h-0.529c-0.017 0.006-0.036 0.006-0.053 0-0.007-0.017-0.007-0.036 0-0.053v-2.942c-0.006-0.017-0.006-0.036 0-0.053 0.017-0.006 0.036-0.006 0.053 0h0.525c0.017-0.006 0.036-0.006 0.053 0 0.006 0.017 0.006 0.036 0 0.053v2.937c0.009 0.018 0.010 0.038 0.004 0.057zM11.673 16.509c-0.022-0.016-0.041-0.036-0.057-0.057l-1.112-1.936c0.014 0.274 0.021 0.506 0.021 0.697v1.231c0.005 0.020-0.001 0.040-0.015 0.055s-0.035 0.020-0.055 0.015h-0.48c-0.017 0.006-0.036 0.006-0.053 0-0.007-0.017-0.007-0.036 0-0.053v-2.946c-0.006-0.017-0.006-0.036 0-0.053 0.017-0.006 0.036-0.006 0.053 0h0.595c0.019-0.007 0.039-0.007 0.057 0 0.017 0.016 0.032 0.034 0.045 0.053l1.112 1.928c-0.014-0.274-0.021-0.506-0.021-0.697v-1.231c-0.006-0.017-0.006-0.036 0-0.053 0.017-0.006 0.036-0.006 0.053 0h0.505c0.017-0.006 0.036-0.006 0.053 0 0.006 0.017 0.006 0.036 0 0.053v2.937c0.007 0.017 0.007 0.036 0 0.053-0.017 0.006-0.036 0.006-0.053 0h-0.591c-0.018 0.008-0.038 0.009-0.057 0.004zM14.733 13.456c0 0 0.025 0 0.049 0h0.554c0.045 0 0.070 0 0.070 0.049s0 0.049 0 0.119l-0.41 2.232c-0.025 0.141-0.065 0.278-0.119 0.41-0.040 0.094-0.111 0.17-0.201 0.217-0.129 0.056-0.27 0.082-0.41 0.074h-0.353c-0.141 0.008-0.281-0.017-0.41-0.074-0.090-0.047-0.161-0.124-0.201-0.217-0.054-0.132-0.094-0.27-0.119-0.41l-0.41-2.232c0-0.071 0-0.111 0-0.119 0-0.033 0.025-0.049 0.070-0.049h0.574c0.025 0 0.045 0 0.049 0 0.004 0.019 0.004 0.039 0 0.057l0.39 2.191c0.006 0.052 0.019 0.103 0.037 0.152 0.011 0.028 0.033 0.051 0.062 0.062 0.041 0.007 0.082 0.007 0.123 0h0.033c0.041 0.007 0.082 0.007 0.123 0 0.028-0.011 0.051-0.033 0.062-0.062 0.018-0.049 0.030-0.1 0.037-0.152l0.41-2.191c-0.007-0.018-0.009-0.038-0.008-0.057z"></path>
<path fill="#000" d="M15.898 13.625c0.176-0.154 0.406-0.232 0.64-0.217h0.747c0.232-0.014 0.461 0.064 0.636 0.217 0.157 0.159 0.239 0.376 0.226 0.599v1.518c0.013 0.223-0.069 0.44-0.226 0.599-0.175 0.153-0.404 0.231-0.636 0.217h-0.747c-0.232 0.014-0.461-0.064-0.636-0.217-0.157-0.159-0.239-0.376-0.226-0.599v-1.518c-0.014-0.222 0.066-0.44 0.222-0.599zM17.408 14.105c-0.061-0.054-0.141-0.081-0.222-0.074h-0.554c-0.081-0.007-0.161 0.020-0.222 0.074-0.053 0.068-0.078 0.153-0.070 0.238v1.288c-0.008 0.085 0.017 0.17 0.070 0.238 0.061 0.054 0.141 0.081 0.222 0.074h0.55c0.081 0.007 0.161-0.020 0.222-0.074 0.052-0.068 0.077-0.153 0.070-0.238v-1.272c0.012-0.091-0.013-0.183-0.070-0.254h0.004z"></path>
<path fill="#000" d="M19.271 16.509c-0.017 0.006-0.036 0.006-0.053 0h-0.525c-0.017 0.006-0.036 0.006-0.053 0-0.007-0.017-0.007-0.036 0-0.053v-2.942c-0.006-0.017-0.006-0.036 0-0.053 0.017-0.006 0.036-0.006 0.053 0h0.525c0.017-0.006 0.036-0.006 0.053 0 0.006 0.017 0.006 0.036 0 0.053v2.937c0.007 0.018 0.007 0.039 0 0.057zM21.601 16.537h-0.993c-0.232 0.014-0.461-0.064-0.636-0.217-0.157-0.159-0.239-0.376-0.226-0.599v-1.485c-0.013-0.223 0.069-0.44 0.226-0.599 0.175-0.153 0.404-0.231 0.636-0.217h1.132c0.017-0.006 0.036-0.006 0.053 0 0.006 0.017 0.006 0.036 0 0.053v0.48c0.006 0.017 0.006 0.036 0 0.053-0.017 0.006-0.036 0.006-0.053 0h-1.038c-0.081-0.007-0.161 0.020-0.222 0.074-0.053 0.068-0.078 0.153-0.070 0.238v1.264c-0.008 0.085 0.017 0.17 0.070 0.238 0.061 0.054 0.141 0.081 0.222 0.074 0.347 0 0.659 0 0.935 0h0.127c0.020-0.005 0.040 0.001 0.055 0.015s0.020 0.035 0.015 0.055v0.48c0.005 0.020-0.001 0.040-0.015 0.055s-0.035 0.020-0.055 0.015l-0.164 0.025zM24.333 15.918c0.006 0.017 0.006 0.036 0 0.053v0.48c0.005 0.020-0.001 0.040-0.015 0.055s-0.035 0.020-0.055 0.015h-1.374c-0.18 0.037-0.366-0.019-0.495-0.149s-0.186-0.316-0.149-0.495v-2.363c-0.006-0.017-0.006-0.036 0-0.053 0.017-0.006 0.036-0.006 0.053 0h1.916c0.017-0.006 0.036-0.006 0.053 0 0.006 0.017 0.006 0.036 0 0.053v0.48c0.005 0.020-0.001 0.040-0.015 0.055s-0.035 0.020-0.055 0.015h-1.288v0.583h1.231c0.020-0.005 0.040 0.001 0.055 0.015s0.020 0.035 0.015 0.055v0.464c0.006 0.017 0.006 0.036 0 0.053-0.017 0.006-0.036 0.006-0.053 0h-1.231v0.472c-0.003 0.044 0.008 0.087 0.033 0.123 0.029 0.028 0.070 0.042 0.111 0.037h1.231c0.018 0.012 0.030 0.032 0.033 0.053z"></path>
</svg>
