<!-- Generated by IcoMoon.io -->
<svg version="1.1" xmlns="http://www.w3.org/2000/svg" width="32" height="32" viewBox="0 0 32 32">
<title>Link</title>
<path fill="#000" d="M11.257 19.055v2.764h-8.255v-11.636h8.255v3.055h3.002v-3.2c0-0.733-0.3-1.436-0.835-1.954s-1.26-0.809-2.016-0.809h-8.555c-1.575 0-2.852 1.237-2.852 2.764v11.927c0 0.733 0.3 1.436 0.835 1.954s1.26 0.809 2.016 0.809h8.555c0.756 0 1.482-0.291 2.016-0.809s0.835-1.221 0.835-1.954v-2.909h-3.002zM20.562 19.053v2.764h8.255v-11.636h-8.105v3.055h-3.002v-3.2c0-1.526 1.277-2.764 2.852-2.764h8.555c1.575 0 2.852 1.237 2.852 2.764v11.927c0.001 0.759-0.32 1.485-0.888 2.007s-1.332 0.796-2.114 0.756h-8.555c-0.756 0-1.482-0.291-2.016-0.809s-0.835-1.221-0.835-1.954v-2.909h3.002z"></path>
<path fill="#000" d="M24.014 17.455h-16.36c-0.829 0-1.501-0.651-1.501-1.455s0.672-1.455 1.501-1.455h16.36c0.829 0 1.501 0.651 1.501 1.455s-0.672 1.455-1.501 1.455z"></path>
</svg>
