<!-- Generated by IcoMoon.io -->
<svg version="1.1" xmlns="http://www.w3.org/2000/svg" width="32" height="32" viewBox="0 0 32 32">
<title>PDF</title>
<path fill="#000" d="M10.651 15.026h-2.752c-0.041-0.004-0.082 0.007-0.114 0.032-0.025 0.033-0.036 0.073-0.032 0.114v6.085c-0.004 0.041 0.007 0.082 0.032 0.114 0.032 0.025 0.073 0.037 0.114 0.032h1.088c0.041 0.005 0.082-0.007 0.114-0.032 0.025-0.033 0.036-0.073 0.032-0.114v-1.797h1.518c0.494 0.028 0.979-0.141 1.349-0.471 0.337-0.332 0.516-0.792 0.494-1.265v-0.961c0.023-0.473-0.157-0.933-0.494-1.265-0.369-0.33-0.854-0.5-1.349-0.472zM11.109 17.531c0.016 0.175-0.035 0.35-0.142 0.489-0.125 0.111-0.29 0.165-0.457 0.151h-1.371v-1.856h1.371c0.167-0.015 0.332 0.040 0.457 0.151 0.107 0.14 0.157 0.314 0.142 0.489v0.576zM13.431 15.026c-0.041-0.004-0.082 0.007-0.114 0.032-0.025 0.033-0.036 0.073-0.032 0.114v6.085c-0.004 0.041 0.007 0.082 0.032 0.114 0.032 0.025 0.073 0.037 0.114 0.032h2.953c0.482 0.029 0.956-0.131 1.321-0.448 0.326-0.329 0.497-0.782 0.471-1.245v-2.992c0.026-0.463-0.145-0.915-0.471-1.245-0.365-0.317-0.839-0.477-1.321-0.448h-2.953zM16.8 16.955v2.523c0.016 0.175-0.035 0.35-0.142 0.49-0.125 0.111-0.291 0.165-0.457 0.151h-1.536v-3.805h1.527c0.167-0.014 0.332 0.040 0.457 0.151 0.11 0.138 0.164 0.313 0.151 0.489z"></path>
<path fill="#000" d="M19.314 21.408h1.088c0.041 0.005 0.082-0.007 0.114-0.032 0.025-0.033 0.036-0.073 0.032-0.114v-2.277h2.491c0.041 0.005 0.082-0.007 0.114-0.032 0.025-0.033 0.036-0.073 0.032-0.114v-0.997c0.004-0.041-0.007-0.082-0.032-0.114-0.033-0.025-0.074-0.036-0.114-0.032h-2.496v-1.381h2.688c0.041 0.005 0.082-0.007 0.114-0.032 0.025-0.033 0.036-0.073 0.032-0.114v-0.997c0.004-0.041-0.007-0.082-0.032-0.114-0.033-0.025-0.074-0.036-0.114-0.032h-3.918c-0.041-0.004-0.082 0.007-0.114 0.032-0.025 0.033-0.036 0.073-0.032 0.114v6.085c-0.004 0.041 0.007 0.082 0.032 0.114 0.032 0.027 0.073 0.040 0.114 0.037z"></path>
<path fill="#000" d="M10.651 15.026h-2.752c-0.041-0.004-0.082 0.007-0.114 0.032-0.025 0.033-0.036 0.073-0.032 0.114v6.085c-0.004 0.041 0.007 0.082 0.032 0.114 0.032 0.025 0.073 0.037 0.114 0.032h1.088c0.041 0.005 0.082-0.007 0.114-0.032 0.025-0.033 0.036-0.073 0.032-0.114v-1.797h1.518c0.494 0.028 0.979-0.141 1.349-0.471 0.337-0.332 0.516-0.792 0.494-1.265v-0.961c0.023-0.473-0.157-0.933-0.494-1.265-0.369-0.33-0.854-0.5-1.349-0.472zM11.109 17.531c0.016 0.175-0.035 0.35-0.142 0.489-0.125 0.111-0.29 0.165-0.457 0.151h-1.371v-1.856h1.371c0.167-0.015 0.332 0.040 0.457 0.151 0.107 0.14 0.157 0.314 0.142 0.489v0.576zM13.431 15.026c-0.041-0.004-0.082 0.007-0.114 0.032-0.025 0.033-0.036 0.073-0.032 0.114v6.085c-0.004 0.041 0.007 0.082 0.032 0.114 0.032 0.025 0.073 0.037 0.114 0.032h2.953c0.482 0.029 0.956-0.131 1.321-0.448 0.326-0.329 0.497-0.782 0.471-1.245v-2.992c0.026-0.463-0.145-0.915-0.471-1.245-0.365-0.317-0.839-0.477-1.321-0.448h-2.953zM16.8 16.955v2.523c0.016 0.175-0.035 0.35-0.142 0.49-0.125 0.111-0.291 0.165-0.457 0.151h-1.536v-3.805h1.527c0.167-0.014 0.332 0.040 0.457 0.151 0.11 0.138 0.164 0.313 0.151 0.489z"></path>
<path fill="#000" d="M19.314 21.408h1.088c0.041 0.005 0.082-0.007 0.114-0.032 0.025-0.033 0.036-0.073 0.032-0.114v-2.277h2.491c0.041 0.005 0.082-0.007 0.114-0.032 0.025-0.033 0.036-0.073 0.032-0.114v-0.997c0.004-0.041-0.007-0.082-0.032-0.114-0.033-0.025-0.074-0.036-0.114-0.032h-2.496v-1.381h2.688c0.041 0.005 0.082-0.007 0.114-0.032 0.025-0.033 0.036-0.073 0.032-0.114v-0.997c0.004-0.041-0.007-0.082-0.032-0.114-0.033-0.025-0.074-0.036-0.114-0.032h-3.918c-0.041-0.004-0.082 0.007-0.114 0.032-0.025 0.033-0.036 0.073-0.032 0.114v6.085c-0.004 0.041 0.007 0.082 0.032 0.114 0.032 0.027 0.073 0.040 0.114 0.037z"></path>
<path fill="#000" d="M18.216 0l8.413 8.414v23.586h-22.629v-32h14.216zM24.343 29.714v-19.728h-7.543v-7.701h-10.514v27.429h18.057z"></path>
</svg>
