<!-- Generated by IcoMoon.io -->
<svg version="1.1" xmlns="http://www.w3.org/2000/svg" width="32" height="32" viewBox="0 0 32 32">
<title>Unlink</title>
<path fill="#000" d="M21.983 26.435l1.67 2.226zM24.014 31.684l-0.6-0.3-1.799-2.399c-0.248-0.331-0.181-0.801 0.15-1.049s0.801-0.181 1.049 0.15l1.799 2.399c0.248 0.331 0.181 0.801-0.15 1.049l-0.45 0.15zM16 26.435v2.365zM15.769 31.684c-0.414 0-0.75-0.336-0.75-0.75v-2.549c0-0.414 0.336-0.75 0.75-0.75s0.75 0.336 0.75 0.75v2.549c0 0.414-0.336 0.75-0.75 0.75zM9.878 26.435l-1.67 2.226zM7.374 31.684h-0.45c-0.331-0.248-0.398-0.718-0.15-1.049l1.799-2.399c0.248-0.331 0.718-0.398 1.049-0.15s0.398 0.718 0.15 1.049l-1.799 2.249-0.6 0.3zM21.983 4.452l1.67-2.226zM22.215 3.898h-0.45c-0.159-0.119-0.264-0.297-0.292-0.494s0.023-0.397 0.142-0.556l1.799-2.549c0.161-0.214 0.423-0.326 0.689-0.294s0.494 0.203 0.6 0.45c0.105 0.246 0.071 0.53-0.090 0.744l-1.799 2.399-0.6 0.3zM16 4.452v-2.365zM15.769 4.048c-0.414 0-0.75-0.336-0.75-0.75v-2.549c0-0.414 0.336-0.75 0.75-0.75s0.75 0.336 0.75 0.75v2.549c0 0.414-0.336 0.75-0.75 0.75zM9.878 4.452l-1.67-2.226zM9.173 4.184l-0.6-0.3-1.799-2.549c-0.257-0.205-0.35-0.555-0.229-0.861s0.427-0.498 0.755-0.472c0.328 0.026 0.601 0.262 0.673 0.583l1.799 2.399c0.248 0.331 0.181 0.801-0.15 1.049l-0.45 0.15z"></path>
<path fill="#000" d="M11.257 19.055v2.764h-8.255v-11.636h8.255v3.055h3.002v-3.2c0-0.733-0.3-1.436-0.835-1.954s-1.26-0.809-2.016-0.809h-8.555c-1.575 0-2.852 1.237-2.852 2.764v11.927c0 0.733 0.3 1.436 0.835 1.954s1.26 0.809 2.016 0.809h8.555c0.756 0 1.482-0.291 2.016-0.809s0.835-1.221 0.835-1.954v-2.909h-3.002zM20.562 19.053v2.764h8.255v-11.636h-8.105v3.055h-3.002v-3.2c0-1.526 1.277-2.764 2.852-2.764h8.555c1.575 0 2.852 1.237 2.852 2.764v11.927c0.001 0.759-0.32 1.485-0.888 2.007s-1.332 0.796-2.114 0.756h-8.555c-0.756 0-1.482-0.291-2.016-0.809s-0.835-1.221-0.835-1.954v-2.909h3.002z"></path>
</svg>
