<svg width="32" height="32" viewBox="0 0 32 32" xmlns="http://www.w3.org/2000/svg">
<path fill="#000" d="M25.3906 8H6.92903C5.29835 8.00472 3.7358 8.65458 2.58271 9.80762C1.42962 10.9607 0.77969 12.5232 0.774902 14.1539C0.77969 15.7845 1.42958 17.347 2.58262 18.5C3.73566 19.653 5.29814 20.3029 6.92878 20.3077V24H8.15952V20.3077H24.1598V24H25.3906V20.3077C27.0213 20.3029 28.5838 19.653 29.7368 18.5C30.8898 17.347 31.5397 15.7845 31.5445 14.1539C31.5397 12.5232 30.8898 10.9607 29.7368 9.80771C28.5838 8.65468 27.0213 8.00479 25.3906 8V8ZM16.1598 17.8461C15.5011 17.84 14.8717 17.5725 14.4101 17.1025C13.9485 16.6325 13.6925 15.9984 13.6983 15.3396C13.6983 13.9553 16.1598 10.7688 16.1598 10.7688C16.1598 10.7688 18.6214 13.9549 18.6214 15.3396C18.6272 15.9984 18.3711 16.6325 17.9095 17.1025C17.4479 17.5726 16.8186 17.84 16.1598 17.8461Z"/>
</svg>
