<!-- Generated by IcoMoon.io -->
<svg version="1.1" xmlns="http://www.w3.org/2000/svg" width="32" height="32" viewBox="0 0 32 32">
<title>Cargo-Self-Drive</title>
<path fill="#000" d="M14.036 22.062h11.473c-0.572 0.625-0.924 1.454-0.924 2.366 0 0.441 0.085 0.862 0.234 1.251l-12.345-0v-1.417c0-2.244-1.773-4.062-4.016-4.062s-4.016 1.818-4.016 4.062v1.417h-2.875c-0.661 0-1.141-0.755-1.141-1.416v-6.814c0 0 7.929-1.527 8.835-1.741s1.138-0.716 1.21-1.193 0.11-0.865 0.11-1.309c0-0.445-0.579-0.467-0.579-0.467h-9.648c-0.027-1.339 0.056-4.699 2.895-5.099l9.559-1.248c0.661 0 1.227 0.484 1.227 1.145v14.526zM8.528 26.028c0.898 0 1.625-0.728 1.625-1.625s-0.728-1.625-1.625-1.625c-0.898 0-1.625 0.727-1.625 1.625s0.728 1.625 1.625 1.625zM8.528 21.281c1.724 0 3.122 1.398 3.122 3.122s-1.398 3.122-3.122 3.122c-1.724 0-3.122-1.398-3.122-3.122s1.398-3.122 3.122-3.122zM28.878 26.054c0.898 0 1.625-0.727 1.625-1.625s-0.727-1.625-1.625-1.625c-0.898 0-1.625 0.727-1.625 1.625s0.727 1.625 1.625 1.625zM28.878 21.306c1.724 0 3.122 1.398 3.122 3.122s-1.398 3.122-3.122 3.122c-1.724 0-3.122-1.397-3.122-3.122s1.397-3.122 3.122-3.122z"></path>
</svg>
