<!-- Generated by IcoMoon.io -->
<svg version="1.1" xmlns="http://www.w3.org/2000/svg" width="32" height="32" viewBox="0 0 32 32">
<title>Cargo-Mobile-Machine</title>
<path fill="#000" d="M29.516 24.057c0.886 0 1.604-0.718 1.604-1.604s-0.718-1.604-1.604-1.604c-0.886 0-1.604 0.718-1.604 1.604s0.718 1.604 1.604 1.604zM15.382 24.057c0.886 0 1.604-0.718 1.604-1.604s-0.718-1.604-1.604-1.604c-0.886 0-1.604 0.718-1.604 1.604s0.718 1.604 1.604 1.604zM29.668 20.112c1.276 0 2.31 1.035 2.31 2.31s-1.034 2.311-2.31 2.311h-14.406c-1.276 0-2.31-1.034-2.31-2.311s1.034-2.31 2.31-2.31h14.406zM19.658 12.003v5.701h4.766c0.133-0.099 0.259-0.206 0.374-0.325l0.22-1.836c0.030-0.391 0.285-0.745 0.627-0.973v-5.561h-2.994c-1.651 0-2.994 1.343-2.994 2.994zM15.882 18.34l0.853-1.923c0 0-3.807-4.528-4.219-5.042s-1.441-0.926-2.881-0.72l-6.771 0.941 3.118 6.52-0.514 4.116-1.132 0.72c0 0-1.749-2.573-1.852-2.778s-0.103-1.029 0.103-1.235l1.441-1.338c0 0-3.91-6.997-4.013-7.409s0.412-0.412 0.617-0.309c0.166 0.083 1.333 0.767 1.781 1.029l7.481-2.059c0 0 0.72-0.206 1.749-0.206s2.058 0.926 2.881 2.264l4.126 5.72v-4.629c0-2.207 1.796-4.003 4.003-4.003h3.293c0.392 0 0.71 0.319 0.71 0.71v5.598h1.451c0.679 0 1.235 0.556 1.235 1.235l0.051 2.83c0 0.301-0.090 0.528-0.248 0.686-0.151 0.178-0.376 0.292-0.627 0.292h-11.834c-0.453 0-0.823-0.371-0.823-0.823 0-0.064 0.008-0.127 0.021-0.187z"></path>
</svg>
