<!-- Generated by IcoMoon.io -->
<svg version="1.1" xmlns="http://www.w3.org/2000/svg" width="32" height="32" viewBox="0 0 32 32">
<title>Cargo-Reefer-Container</title>
<path fill="#000" d="M18.627 13.991c0.204 0.407 0.318 0.866 0.318 1.352s-0.115 0.945-0.318 1.352v1.195h0.318v-5.095h-0.318v1.195zM17.672 12.877c0.112 0.080 0.218 0.167 0.318 0.261v-0.341h-0.318v0.081zM17.672 17.81v0.081h0.318v-0.341c-0.1 0.094-0.206 0.181-0.318 0.261zM13.851 13.137c0.1-0.094 0.206-0.181 0.318-0.261v-0.081h-0.318v0.341zM13.851 17.549v0.341h0.318v-0.081c-0.112-0.080-0.218-0.167-0.318-0.261zM13.214 16.696c-0.204-0.407-0.318-0.866-0.318-1.352s0.115-0.945 0.318-1.352v-1.195h-0.318v5.095h0.318v-1.195zM30.408 12.796h-0.318v5.095h0.318v-5.095zM29.453 12.796h-0.318v5.095h0.318v-5.095zM28.497 12.796h-0.318v5.095h0.318v-5.095zM27.542 12.796h-0.318v5.095h0.318v-5.095zM26.587 12.796h-0.318v5.095h0.318v-5.095zM25.632 12.796h-0.318v5.095h0.318v-5.095zM24.677 12.796h-0.318v5.095h0.318v-5.095zM23.721 12.796h-0.318v5.095h0.318v-5.095zM22.766 12.796h-0.318v5.095h0.318v-5.095zM21.811 12.796h-0.318v5.095h0.318v-5.095zM20.856 12.796h-0.318v5.095h0.318v-5.095zM19.901 12.796h-0.318v5.095h0.318v-5.095zM12.259 12.796h-0.318v5.095h0.318v-5.095zM11.303 12.796h-0.318v5.095h0.318v-5.095zM10.348 12.796h-0.318v5.095h0.318v-5.095zM9.393 12.796h-0.318v5.095h0.318v-5.095zM8.438 12.796h-0.318v5.095h0.318v-5.095zM7.483 12.796h-0.318v5.095h0.318v-5.095zM6.527 12.796h-0.318v5.095h0.318v-5.095zM5.572 12.796h-0.318v5.095h0.318v-5.095zM4.617 12.796h-0.318v5.095h0.318v-5.095zM3.662 12.796h-0.318v5.095h0.318v-5.095zM2.706 12.796h-0.318v5.095h0.318v-5.095zM1.751 12.796h-0.318v5.095h0.318v-5.095zM10.456 20.793c0.366 0 0.663-0.297 0.663-0.663s-0.297-0.663-0.663-0.663-0.663 0.297-0.663 0.663c0 0.366 0.297 0.663 0.663 0.663zM10.456 18.856c0.703 0 1.274 0.57 1.274 1.274s-0.57 1.274-1.274 1.274-1.274-0.57-1.274-1.274c0-0.703 0.57-1.274 1.274-1.274zM13.499 20.793c0.366 0 0.663-0.297 0.663-0.663s-0.297-0.663-0.663-0.663-0.663 0.297-0.663 0.663c0 0.366 0.297 0.663 0.663 0.663zM13.499 18.856c0.703 0 1.274 0.57 1.274 1.274s-0.57 1.274-1.274 1.274-1.274-0.57-1.274-1.274c0-0.703 0.57-1.274 1.274-1.274zM7.414 20.793c0.366 0 0.663-0.297 0.663-0.663s-0.297-0.663-0.663-0.663-0.663 0.297-0.663 0.663c0 0.366 0.297 0.663 0.663 0.663zM7.414 18.856c0.703 0 1.274 0.57 1.274 1.274s-0.57 1.274-1.274 1.274-1.274-0.57-1.274-1.274c0-0.703 0.57-1.274 1.274-1.274zM31.688 12.159c0.088 0 0.159 0.072 0.159 0.159v6.050c0 0.088-0.072 0.159-0.159 0.159h-31.528c-0.088 0-0.159-0.072-0.159-0.159v-6.050c0-0.088 0.072-0.159 0.159-0.159h31.528z"></path>
<path fill="#8c8c8c" d="M17.702 15.117l0.101-0.175c0.063-0.109 0.026-0.249-0.084-0.312s-0.249-0.026-0.313 0.084l-0.233 0.404h-0.854l0.427-0.74h0.466c0.126 0 0.229-0.103 0.229-0.229s-0.102-0.229-0.229-0.229h-0.202l0.092-0.159c0.063-0.11 0.026-0.249-0.084-0.313s-0.249-0.026-0.312 0.084l-0.092 0.159-0.101-0.175c-0.063-0.109-0.203-0.147-0.313-0.084s-0.147 0.203-0.084 0.313l0.233 0.404-0.427 0.74-0.427-0.74 0.233-0.404c0.063-0.11 0.026-0.249-0.084-0.313s-0.249-0.026-0.312 0.084l-0.101 0.175-0.092-0.159c-0.063-0.109-0.203-0.147-0.312-0.084s-0.147 0.203-0.084 0.313l0.092 0.159h-0.202c-0.126 0-0.229 0.102-0.229 0.229s0.102 0.229 0.229 0.229h0.466l0.427 0.74h-0.854l-0.233-0.404c-0.063-0.109-0.203-0.147-0.313-0.084s-0.147 0.203-0.084 0.312l0.101 0.175h-0.183c-0.126 0-0.229 0.103-0.229 0.229s0.102 0.229 0.229 0.229h0.183l-0.101 0.175c-0.063 0.11-0.026 0.249 0.084 0.313 0.036 0.021 0.075 0.031 0.114 0.031 0.079 0 0.156-0.041 0.198-0.114l0.233-0.404h0.854l-0.427 0.74h-0.466c-0.126 0-0.229 0.102-0.229 0.229s0.102 0.229 0.229 0.229h0.202l-0.092 0.159c-0.063 0.109-0.026 0.249 0.084 0.312 0.036 0.021 0.075 0.031 0.114 0.031 0.079 0 0.156-0.041 0.198-0.114l0.092-0.159 0.101 0.175c0.042 0.073 0.119 0.114 0.198 0.114 0.039 0 0.078-0.010 0.114-0.031 0.109-0.063 0.147-0.203 0.084-0.312l-0.233-0.404 0.427-0.74 0.427 0.74-0.233 0.404c-0.063 0.109-0.026 0.249 0.084 0.312 0.036 0.021 0.075 0.031 0.114 0.031 0.079 0 0.156-0.041 0.198-0.114l0.101-0.175 0.092 0.159c0.042 0.073 0.119 0.114 0.198 0.114 0.039 0 0.078-0.010 0.114-0.031 0.11-0.063 0.147-0.203 0.084-0.312l-0.092-0.159h0.202c0.126 0 0.229-0.102 0.229-0.229s-0.102-0.229-0.229-0.229h-0.466l-0.427-0.74h0.854l0.233 0.404c0.043 0.073 0.119 0.114 0.198 0.114 0.039 0 0.078-0.010 0.114-0.031 0.109-0.063 0.147-0.203 0.084-0.313l-0.101-0.175h0.183c0.126 0 0.229-0.103 0.229-0.229s-0.102-0.229-0.229-0.229h-0.183z"></path>
</svg>
