<!-- Generated by IcoMoon.io -->
<svg version="1.1" xmlns="http://www.w3.org/2000/svg" width="32" height="32" viewBox="0 0 32 32">
<title>Cargo-ISO-container</title>
<path fill="#000" d="M30.408 12.796h-0.318v5.095h0.318v-5.095zM29.453 12.796h-0.318v5.095h0.318v-5.095zM28.497 12.796h-0.318v5.095h0.318v-5.095zM27.542 12.796h-0.318v5.095h0.318v-5.095zM26.587 12.796h-0.318v5.095h0.318v-5.095zM25.632 12.796h-0.318v5.095h0.318v-5.095zM24.677 12.796h-0.318v5.095h0.318v-5.095zM23.721 12.796h-0.318v5.095h0.318v-5.095zM22.766 12.796h-0.318v5.095h0.318v-5.095zM21.811 12.796h-0.318v5.095h0.318v-5.095zM20.856 12.796h-0.318v5.095h0.318v-5.095zM19.901 12.796h-0.318v5.095h0.318v-5.095zM18.945 12.796h-0.318v5.095h0.318v-5.095zM17.99 12.796h-0.318v5.095h0.318v-5.095zM17.035 12.796h-0.318v5.095h0.318v-5.095zM16.080 12.796h-0.318v5.095h0.318v-5.095zM15.124 12.796h-0.318v5.095h0.318v-5.095zM14.169 12.796h-0.318v5.095h0.318v-5.095zM13.214 12.796h-0.318v5.095h0.318v-5.095zM12.259 12.796h-0.318v5.095h0.318v-5.095zM11.303 12.796h-0.318v5.095h0.318v-5.095zM10.348 12.796h-0.318v5.095h0.318v-5.095zM9.393 12.796h-0.318v5.095h0.318v-5.095zM8.438 12.796h-0.318v5.095h0.318v-5.095zM7.483 12.796h-0.318v5.095h0.318v-5.095zM6.527 12.796h-0.318v5.095h0.318v-5.095zM5.572 12.796h-0.318v5.095h0.318v-5.095zM4.617 12.796h-0.318v5.095h0.318v-5.095zM3.662 12.796h-0.318v5.095h0.318v-5.095zM2.706 12.796h-0.318v5.095h0.318v-5.095zM1.751 12.796h-0.318v5.095h0.318v-5.095zM31.688 12.159c0.088 0 0.159 0.072 0.159 0.159v6.050c0 0.088-0.072 0.159-0.159 0.159h-31.528c-0.088 0-0.159-0.072-0.159-0.159v-6.050c0-0.088 0.072-0.159 0.159-0.159h31.528zM10.456 20.793c0.366 0 0.663-0.297 0.663-0.663s-0.297-0.663-0.663-0.663-0.663 0.297-0.663 0.663c0 0.366 0.297 0.663 0.663 0.663zM10.456 18.856c0.703 0 1.274 0.57 1.274 1.274s-0.57 1.274-1.274 1.274-1.274-0.57-1.274-1.274c0-0.703 0.57-1.274 1.274-1.274zM13.499 20.793c0.366 0 0.663-0.297 0.663-0.663s-0.297-0.663-0.663-0.663-0.663 0.297-0.663 0.663c0 0.366 0.297 0.663 0.663 0.663zM13.499 18.856c0.703 0 1.274 0.57 1.274 1.274s-0.57 1.274-1.274 1.274-1.274-0.57-1.274-1.274c0-0.703 0.57-1.274 1.274-1.274zM7.414 20.793c0.366 0 0.663-0.297 0.663-0.663s-0.297-0.663-0.663-0.663-0.663 0.297-0.663 0.663c0 0.366 0.297 0.663 0.663 0.663zM7.414 18.856c0.703 0 1.274 0.57 1.274 1.274s-0.57 1.274-1.274 1.274-1.274-0.57-1.274-1.274c0-0.703 0.57-1.274 1.274-1.274z"></path>
</svg>
