<!-- Generated by IcoMoon.io -->
<svg version="1.1" xmlns="http://www.w3.org/2000/svg" width="32" height="32" viewBox="0 0 32 32">
<title>Cargo-Reefer-Trailer</title>
<path fill="#000" d="M31.688 12.159c0.088 0 0.159 0.072 0.159 0.159v6.050c0 0.088-0.072 0.159-0.159 0.159h-31.528c-0.088 0-0.159-0.072-0.159-0.159v-6.050c0-0.088 0.072-0.159 0.159-0.159h31.528zM10.456 20.793c0.366 0 0.663-0.297 0.663-0.663s-0.297-0.663-0.663-0.663-0.663 0.297-0.663 0.663c0 0.366 0.297 0.663 0.663 0.663zM10.456 18.856c0.703 0 1.274 0.57 1.274 1.274s-0.57 1.274-1.274 1.274-1.274-0.57-1.274-1.274c0-0.703 0.57-1.274 1.274-1.274zM13.499 20.793c0.366 0 0.663-0.297 0.663-0.663s-0.297-0.663-0.663-0.663-0.663 0.297-0.663 0.663c0 0.366 0.297 0.663 0.663 0.663zM13.499 18.856c0.703 0 1.274 0.57 1.274 1.274s-0.57 1.274-1.274 1.274-1.274-0.57-1.274-1.274c0-0.703 0.57-1.274 1.274-1.274zM7.414 20.793c0.366 0 0.663-0.297 0.663-0.663s-0.297-0.663-0.663-0.663-0.663 0.297-0.663 0.663c0 0.366 0.297 0.663 0.663 0.663zM7.414 18.856c0.703 0 1.274 0.57 1.274 1.274s-0.57 1.274-1.274 1.274-1.274-0.57-1.274-1.274c0-0.703 0.57-1.274 1.274-1.274z"></path>
<path fill="#8c8c8c" d="M18.333 15.062h-0.225l0.124-0.215c0.078-0.134 0.032-0.306-0.103-0.384s-0.306-0.032-0.384 0.103l-0.286 0.496h-1.049l0.525-0.909h0.573c0.155 0 0.281-0.126 0.281-0.281s-0.126-0.281-0.281-0.281h-0.248l0.113-0.195c0.078-0.135 0.032-0.306-0.103-0.384s-0.306-0.032-0.384 0.103l-0.113 0.195-0.124-0.215c-0.078-0.134-0.249-0.181-0.384-0.103s-0.18 0.249-0.103 0.384l0.286 0.496-0.525 0.909-0.525-0.909 0.286-0.496c0.078-0.135 0.032-0.306-0.103-0.384s-0.306-0.032-0.384 0.103l-0.124 0.215-0.113-0.195c-0.078-0.134-0.249-0.181-0.384-0.103s-0.18 0.249-0.103 0.384l0.113 0.195h-0.248c-0.155 0-0.281 0.126-0.281 0.281s0.126 0.281 0.281 0.281h0.573l0.525 0.909h-1.049l-0.286-0.496c-0.078-0.134-0.249-0.181-0.384-0.103s-0.18 0.249-0.103 0.384l0.124 0.215h-0.225c-0.155 0-0.281 0.126-0.281 0.281s0.126 0.281 0.281 0.281h0.225l-0.124 0.215c-0.078 0.135-0.032 0.306 0.103 0.384 0.044 0.025 0.092 0.038 0.14 0.038 0.097 0 0.192-0.050 0.244-0.14l0.286-0.496h1.049l-0.525 0.909h-0.573c-0.155 0-0.281 0.126-0.281 0.281s0.126 0.281 0.281 0.281h0.248l-0.113 0.195c-0.078 0.134-0.032 0.306 0.103 0.384 0.044 0.025 0.092 0.038 0.14 0.038 0.097 0 0.192-0.050 0.243-0.14l0.113-0.195 0.124 0.215c0.052 0.090 0.146 0.14 0.243 0.14 0.048 0 0.096-0.012 0.14-0.038 0.134-0.078 0.18-0.249 0.103-0.384l-0.286-0.496 0.525-0.909 0.525 0.909-0.286 0.496c-0.077 0.134-0.032 0.306 0.103 0.384 0.044 0.025 0.093 0.038 0.14 0.038 0.097 0 0.191-0.050 0.244-0.14l0.124-0.215 0.113 0.195c0.052 0.090 0.146 0.14 0.244 0.14 0.047 0 0.096-0.012 0.14-0.038 0.135-0.078 0.181-0.249 0.103-0.384l-0.113-0.195h0.248c0.155 0 0.281-0.126 0.281-0.281s-0.126-0.281-0.281-0.281h-0.573l-0.525-0.909h1.049l0.286 0.496c0.052 0.090 0.147 0.14 0.244 0.14 0.048 0 0.096-0.012 0.14-0.038 0.134-0.078 0.18-0.249 0.103-0.384l-0.124-0.215h0.225c0.155 0 0.281-0.126 0.281-0.281s-0.126-0.281-0.281-0.281z"></path>
</svg>
