<!-- Generated by IcoMoon.io -->
<svg version="1.1" xmlns="http://www.w3.org/2000/svg" width="32" height="32" viewBox="0 0 32 32">
<title>Cargo-Automotive</title>
<path fill="#000" d="M6.687 24.461c0.734 0 1.329-0.595 1.329-1.329v-0c-0-0.734-0.595-1.329-1.33-1.329s-1.329 0.595-1.329 1.33c0 0.734 0.595 1.329 1.33 1.329zM6.687 20.579h0c1.41 0 2.553 1.143 2.553 2.554s-1.143 2.553-2.553 2.553-2.553-1.143-2.553-2.553c0-1.41 1.143-2.554 2.553-2.554zM23.33 24.482h0c0.734-0 1.329-0.595 1.329-1.329s-0.595-1.329-1.329-1.329-1.329 0.595-1.329 1.329c0 0.734 0.595 1.329 1.329 1.329zM23.33 20.6c1.41 0 2.553 1.143 2.553 2.553v0c-0 1.41-1.143 2.553-2.554 2.553s-2.553-1.143-2.553-2.554c0-1.41 1.144-2.553 2.554-2.553zM11.192 21.218h9.384c-0.737 0.798-0.956 1.945-0.564 2.958h-10.097v-1.16c0-0.025 0-0.049 0-0.073-0.020-1.814-1.508-3.268-3.321-3.248s-3.268 1.507-3.248 3.321v1.161h-2.349c-0.541 0-0.933-0.618-0.933-1.158v-5.574c0 0 6.484-1.249 7.226-1.425s0.931-0.585 0.99-0.975c0.058-0.354 0.088-0.712 0.090-1.071 0-0.363-0.475-0.382-0.475-0.382h-7.89c-0.022-1.095 0.045-3.843 2.368-4.17l7.818-1.021c0.004 0 0.007-0 0.011-0 0.533-0.015 0.977 0.404 0.992 0.937v11.881zM29.399 24.482c0.734 0 1.329-0.595 1.329-1.329s-0.595-1.329-1.329-1.329-1.329 0.595-1.329 1.329c0 0.734 0.595 1.329 1.329 1.329zM29.399 20.6c1.41 0 2.553 1.143 2.553 2.553v0c0 1.41-1.143 2.553-2.553 2.553s-2.553-1.143-2.553-2.554c0-1.41 1.143-2.553 2.554-2.553zM25.928 17.649c0.717-0.169 1.434 0.275 1.604 0.991s-0.275 1.434-0.991 1.604c-0.717 0.169-1.434-0.275-1.604-0.991s0.275-1.435 0.991-1.604zM17.724 17.701c0.736 0 1.333 0.597 1.333 1.333s-0.597 1.333-1.333 1.333c-0.736 0-1.333-0.597-1.333-1.333s0.597-1.333 1.333-1.333zM26.289 15.839c0.017 0 0.033 0.002 0.050 0.003-1.501-1.038-2.998-2.035-5.512-2.035-0.343 0-0.68 0.013-1.012 0.036 0.007 0.079 0.12 1.464 0.162 1.672 0.042 0.214-0.011 0.296 0.505 0.303 1.549 0.021 4.302 0.021 5.808 0.021zM15.612 15.839h3.729c0 0-0.007-1.914-0.005-1.925 0.005-0.032-0.019-0.032-0.062-0.023-1.952 0.195-4.275 1.949-3.661 1.949zM26.469 15.849c3.092 0.191 5.189 3.071 4.289 3.306-0.68 0.178-2.785 0.126-2.785 0.126h-0.026v-0.274c0.001-0.036 0.001-0.072 0-0.108-0.030-0.969-0.839-1.73-1.808-1.7s-1.73 0.839-1.7 1.808v0.111l-4.9 0.071v-0.118c0.001-0.036 0.001-0.072 0-0.108-0.030-0.969-0.839-1.73-1.808-1.7s-1.73 0.839-1.7 1.808v0.019c-0.32-0.010-1.528-0.041-1.965-0.041-1.771 0-1.053-2.449-0.459-2.974 0.143-0.127 0.714-0.269 0.983-0.418 1.722-1.473 3.459-2.432 5.515-2.432 3.080 0 4.988 1.124 6.364 2.623zM16.986 10.683c0.717 0.169 1.16 0.887 0.991 1.604s-0.887 1.16-1.604 0.991c-0.716-0.169-1.16-0.887-0.991-1.604s0.887-1.16 1.604-0.991zM25.191 10.735c0.736 0 1.333 0.597 1.333 1.333s-0.597 1.333-1.333 1.333c-0.736 0-1.333-0.597-1.333-1.333s0.597-1.333 1.333-1.333zM16.626 8.873c1.506 0 4.259 0 5.808-0.021 0.516-0.007 0.463-0.089 0.505-0.303 0.041-0.208 0.155-1.593 0.162-1.672-0.331-0.023-0.669-0.036-1.012-0.036-2.514 0-4.011 0.997-5.512 2.035 0.017-0.001 0.033-0.003 0.050-0.003zM27.302 8.873c0.614 0-1.709-1.753-3.661-1.949-0.043-0.009-0.067-0.009-0.062 0.023 0.002 0.012-0.005 1.925-0.005 1.925h3.729zM16.445 8.883c1.376-1.499 3.284-2.623 6.364-2.623 2.056 0 3.793 0.959 5.515 2.432 0.268 0.15 0.839 0.291 0.983 0.418 0.594 0.525 1.312 2.974-0.459 2.974-0.437 0-1.645 0.032-1.965 0.041v-0.019c0.030-0.969-0.731-1.778-1.7-1.808s-1.778 0.731-1.808 1.7c-0.001 0.036-0.001 0.072 0 0.108v0.118l-4.9-0.071v-0.111c0.030-0.969-0.731-1.778-1.7-1.808s-1.778 0.731-1.808 1.7c-0.001 0.036-0.001 0.072 0 0.108v0.274h-0.026c0 0-2.106 0.052-2.785-0.126-0.9-0.236 1.196-3.115 4.289-3.306z"></path>
</svg>
