<!-- Generated by IcoMoon.io -->
<svg version="1.1" xmlns="http://www.w3.org/2000/svg" width="32" height="32" viewBox="0 0 32 32">
<title>Cargo-Hazardous-Trailer</title>
<path fill="#000" d="M31.688 12.159c0.088 0 0.159 0.072 0.159 0.159v6.050c0 0.088-0.072 0.159-0.159 0.159h-31.528c-0.088 0-0.159-0.072-0.159-0.159v-6.050c0-0.088 0.072-0.159 0.159-0.159h31.528zM10.456 20.793c0.366 0 0.663-0.297 0.663-0.663s-0.297-0.663-0.663-0.663-0.663 0.297-0.663 0.663c0 0.366 0.297 0.663 0.663 0.663zM10.456 18.856c0.703 0 1.274 0.57 1.274 1.274s-0.57 1.274-1.274 1.274-1.274-0.57-1.274-1.274c0-0.703 0.57-1.274 1.274-1.274zM13.499 20.793c0.366 0 0.663-0.297 0.663-0.663s-0.297-0.663-0.663-0.663-0.663 0.297-0.663 0.663c0 0.366 0.297 0.663 0.663 0.663zM13.499 18.856c0.703 0 1.274 0.57 1.274 1.274s-0.57 1.274-1.274 1.274-1.274-0.57-1.274-1.274c0-0.703 0.57-1.274 1.274-1.274zM7.414 20.793c0.366 0 0.663-0.297 0.663-0.663s-0.297-0.663-0.663-0.663-0.663 0.297-0.663 0.663c0 0.366 0.297 0.663 0.663 0.663zM7.414 18.856c0.703 0 1.274 0.57 1.274 1.274s-0.57 1.274-1.274 1.274-1.274-0.57-1.274-1.274c0-0.703 0.57-1.274 1.274-1.274z"></path>
<path fill="#8c8c8c" d="M16.256 15.851c0 0.024-0.004 0.040-0.014 0.050s-0.026 0.014-0.050 0.014h-0.386c-0.024 0-0.040-0.005-0.050-0.014s-0.014-0.026-0.014-0.050l-0.052-1.521c0-0.024 0.005-0.041 0.014-0.050s0.026-0.014 0.050-0.014h0.489c0.024 0 0.040 0.005 0.050 0.014s0.014 0.026 0.014 0.050l-0.052 1.521zM16.308 16.832c0 0.024-0.005 0.040-0.014 0.050s-0.026 0.014-0.050 0.014h-0.489c-0.024 0-0.040-0.004-0.050-0.014s-0.014-0.026-0.014-0.050v-0.449c0-0.024 0.005-0.041 0.014-0.050s0.026-0.014 0.050-0.014h0.489c0.024 0 0.040 0.005 0.050 0.014s0.014 0.026 0.014 0.050v0.449zM18.48 17.26l-0.044-0.075-2.293-3.976c-0.028-0.050-0.082-0.083-0.143-0.083-0.063 0-0.116 0.034-0.144 0.085l-0.027 0.047-2.307 4c-0.014 0.024-0.022 0.051-0.022 0.080 0 0.089 0.073 0.162 0.164 0.162h4.673c0.090 0 0.163-0.073 0.163-0.162 0-0.028-0.007-0.055-0.020-0.078z"></path>
</svg>
