<!-- Generated by IcoMoon.io -->
<svg version="1.1" xmlns="http://www.w3.org/2000/svg" width="32" height="32" viewBox="0 0 32 32">
<title>Cargo-Trailer</title>
<path fill="#000" d="M31.688 12.159c0.088 0 0.159 0.072 0.159 0.159v6.050c0 0.088-0.072 0.159-0.159 0.159h-31.528c-0.088 0-0.159-0.072-0.159-0.159v-6.050c0-0.088 0.072-0.159 0.159-0.159h31.528zM10.456 20.793c0.366 0 0.663-0.297 0.663-0.663s-0.297-0.663-0.663-0.663-0.663 0.297-0.663 0.663c0 0.366 0.297 0.663 0.663 0.663zM10.456 18.856c0.703 0 1.274 0.57 1.274 1.274s-0.57 1.274-1.274 1.274-1.274-0.57-1.274-1.274c0-0.703 0.57-1.274 1.274-1.274zM13.499 20.793c0.366 0 0.663-0.297 0.663-0.663s-0.297-0.663-0.663-0.663-0.663 0.297-0.663 0.663c0 0.366 0.297 0.663 0.663 0.663zM13.499 18.856c0.703 0 1.274 0.57 1.274 1.274s-0.57 1.274-1.274 1.274-1.274-0.57-1.274-1.274c0-0.703 0.57-1.274 1.274-1.274zM7.414 20.793c0.366 0 0.663-0.297 0.663-0.663s-0.297-0.663-0.663-0.663-0.663 0.297-0.663 0.663c0 0.366 0.297 0.663 0.663 0.663zM7.414 18.856c0.703 0 1.274 0.57 1.274 1.274s-0.57 1.274-1.274 1.274-1.274-0.57-1.274-1.274c0-0.703 0.57-1.274 1.274-1.274z"></path>
</svg>
