<!-- Generated by IcoMoon.io -->
<svg version="1.1" xmlns="http://www.w3.org/2000/svg" width="32" height="32" viewBox="0 0 32 32">
<title>Cargo-Industrial</title>
<path fill="#000" d="M7.931 21.206c0.484 0 0.877-0.393 0.877-0.877s-0.393-0.877-0.877-0.877c-0.484 0-0.877 0.392-0.877 0.877s0.393 0.877 0.877 0.877zM7.931 18.645c0.93 0 1.684 0.754 1.684 1.684s-0.754 1.684-1.684 1.684c-0.93 0-1.684-0.754-1.684-1.684s0.754-1.684 1.684-1.684zM11.956 21.206c0.484 0 0.877-0.393 0.877-0.877s-0.392-0.877-0.877-0.877c-0.484 0-0.877 0.392-0.877 0.877s0.392 0.877 0.877 0.877zM11.956 18.645c0.93 0 1.684 0.754 1.684 1.684s-0.754 1.684-1.684 1.684c-0.93 0-1.684-0.754-1.684-1.684s0.754-1.684 1.684-1.684zM3.909 21.206c0.484 0 0.877-0.393 0.877-0.877s-0.393-0.877-0.877-0.877c-0.484 0-0.877 0.392-0.877 0.877s0.392 0.877 0.877 0.877zM3.909 18.645c0.93 0 1.684 0.754 1.684 1.684s-0.754 1.684-1.684 1.684c-0.93 0-1.684-0.754-1.684-1.684s0.754-1.684 1.684-1.684zM5.383 14.563c0.42 0 0.76-0.34 0.76-0.76s-0.34-0.76-0.76-0.76c-0.42 0-0.76 0.34-0.76 0.76s0.34 0.76 0.76 0.76zM5.383 12.343c0.807 0 1.46 0.654 1.46 1.46s-0.654 1.46-1.46 1.46c-0.806 0-1.46-0.654-1.46-1.46s0.654-1.46 1.46-1.46zM13.383 14.563c0.42 0 0.76-0.34 0.76-0.76s-0.34-0.76-0.76-0.76c-0.42 0-0.76 0.34-0.76 0.76s0.34 0.76 0.76 0.76zM13.383 12.343c0.807 0 1.46 0.654 1.46 1.46s-0.654 1.46-1.46 1.46c-0.806 0-1.46-0.654-1.46-1.46s0.654-1.46 1.46-1.46zM21.383 14.563c0.42 0 0.76-0.34 0.76-0.76s-0.34-0.76-0.76-0.76c-0.42 0-0.76 0.34-0.76 0.76s0.34 0.76 0.76 0.76zM21.383 12.343c0.807 0 1.46 0.654 1.46 1.46s-0.654 1.46-1.46 1.46c-0.806 0-1.46-0.654-1.46-1.46s0.654-1.46 1.46-1.46zM5.39 11.719c-1.145 0-2.077 0.932-2.077 2.077s0.932 2.077 2.077 2.077 2.077-0.932 2.077-2.077c0-1.145-0.932-2.077-2.077-2.077zM13.39 11.719c-1.145 0-2.077 0.932-2.077 2.077s0.932 2.077 2.077 2.077 2.077-0.932 2.077-2.077c0-1.145-0.932-2.077-2.077-2.077zM21.39 11.719c-1.145 0-2.077 0.932-2.077 2.077s0.932 2.077 2.077 2.077 2.077-0.932 2.077-2.077c0-1.145-0.932-2.077-2.077-2.077zM22.13 21.789v-3.789h-21.919v-0.421h4.913l0.016-0.42c-1.752-0.129-3.125-1.606-3.125-3.362 0-1.861 1.514-3.375 3.375-3.375s3.375 1.514 3.375 3.375c0 1.756-1.372 3.233-3.125 3.362l0.016 0.42h7.468l0.016-0.42c-1.752-0.129-3.125-1.606-3.125-3.362 0-1.861 1.514-3.375 3.375-3.375s3.375 1.514 3.375 3.375c0 1.756-1.372 3.233-3.125 3.362l0.016 0.42h7.468l0.016-0.42c-1.752-0.129-3.125-1.606-3.125-3.362 0-1.861 1.514-3.375 3.375-3.375s3.375 1.514 3.375 3.375c0 1.756-1.372 3.233-3.125 3.362l0.016 0.42h3.88l2.020-2.526h4.031v0.421h-3.711l-1.949 2.526h-3.376v3.789h-0.421z"></path>
<path fill="#000" d="M5.39 15.663c-1.031 0-1.867-0.836-1.867-1.867s0.836-1.867 1.867-1.867c1.031 0 1.867 0.836 1.867 1.867s-0.836 1.867-1.867 1.867zM13.39 15.663c-1.031 0-1.867-0.836-1.867-1.867s0.836-1.867 1.867-1.867c1.031 0 1.867 0.836 1.867 1.867s-0.836 1.867-1.867 1.867zM21.39 15.663c-1.031 0-1.867-0.836-1.867-1.867s0.836-1.867 1.867-1.867c1.031 0 1.867 0.836 1.867 1.867s-0.836 1.867-1.867 1.867zM21.39 10.211c-1.98 0-3.586 1.605-3.586 3.585 0 1.891 1.464 3.436 3.32 3.572h-7.468c1.856-0.137 3.32-1.682 3.32-3.572 0-1.98-1.605-3.585-3.586-3.585s-3.586 1.605-3.586 3.585c0 1.891 1.464 3.436 3.32 3.572h-7.468c1.856-0.137 3.32-1.682 3.32-3.572 0-1.98-1.605-3.585-3.586-3.585s-3.586 1.605-3.586 3.585c0 1.891 1.464 3.436 3.32 3.572h-5.124v0.632c0 0.116 0.095 0.211 0.211 0.211h21.709v3.789h0.842v-3.789h3.269l1.949-2.526h3.608c0.116 0 0.211-0.095 0.211-0.211v-0.632h-4.343l-2.020 2.526h-3.779c1.856-0.137 3.32-1.682 3.32-3.572 0-1.98-1.605-3.585-3.586-3.585zM5.39 16.084c1.261 0 2.288-1.026 2.288-2.288s-1.026-2.288-2.288-2.288c-1.261 0-2.288 1.026-2.288 2.288s1.026 2.288 2.288 2.288zM5.39 10.632c1.745 0 3.165 1.42 3.165 3.164 0 1.647-1.287 3.032-2.93 3.152l0.031 0.841h-0.532l0.031-0.841c-1.643-0.121-2.93-1.505-2.93-3.152 0-1.745 1.42-3.164 3.165-3.164zM13.39 16.084c1.261 0 2.288-1.026 2.288-2.288s-1.026-2.288-2.288-2.288c-1.261 0-2.288 1.026-2.288 2.288s1.026 2.288 2.288 2.288zM13.39 10.632c1.745 0 3.165 1.42 3.165 3.164 0 1.647-1.287 3.032-2.93 3.152l0.031 0.841h-0.532l0.031-0.841c-1.643-0.121-2.93-1.505-2.93-3.152 0-1.745 1.42-3.164 3.165-3.164zM21.39 16.084c1.261 0 2.288-1.026 2.288-2.288s-1.026-2.288-2.288-2.288c-1.261 0-2.288 1.026-2.288 2.288s1.026 2.288 2.288 2.288zM21.39 10.632c1.745 0 3.165 1.42 3.165 3.164 0 1.647-1.287 3.032-2.93 3.152l0.031 0.841h3.981l0.126-0.158 1.894-2.368h0.115l-1.948 2.526h-4.7l0.031-0.841c-1.643-0.121-2.93-1.505-2.93-3.152 0-1.745 1.42-3.164 3.165-3.164z"></path>
</svg>
