<!-- Generated by IcoMoon.io -->
<svg version="1.1" xmlns="http://www.w3.org/2000/svg" width="32" height="32" viewBox="0 0 32 32">
<title>Dimensions</title>
<path fill="#000" d="M30.933 16c0.589 0 1.067 0.493 1.067 1.102v9.918h-32v-9.918c0-0.609 0.478-1.102 1.067-1.102s1.067 0.493 1.067 1.102v7.714h4.267v-3.306c0-0.609 0.478-1.102 1.067-1.102s1.067 0.493 1.067 1.102v3.306h6.4v-7.714c0-0.609 0.478-1.102 1.067-1.102s1.067 0.493 1.067 1.102v7.714h6.4v-3.306c0-0.609 0.478-1.102 1.067-1.102s1.067 0.493 1.067 1.102v3.306h4.267v-7.714c0-0.609 0.478-1.102 1.067-1.102zM0.319 7.41c-0.097 0-0.145-0.033-0.145-0.1 0-0.040 0.015-0.085 0.044-0.135s0.047-0.082 0.053-0.095l0.513-0.92c0.039-0.060 0.071-0.102 0.097-0.125s0.068-0.035 0.126-0.035h1.906c0.058 0 0.098 0.012 0.121 0.035s0.034 0.065 0.034 0.125v5.41h1.374c0.058 0 0.098 0.012 0.121 0.035s0.034 0.065 0.034 0.125v1.090c0 0.060-0.011 0.102-0.034 0.125s-0.063 0.035-0.121 0.035h-4.285c-0.058 0-0.098-0.012-0.121-0.035s-0.034-0.065-0.034-0.125v-1.090c0-0.060 0.011-0.102 0.034-0.125s0.063-0.035 0.121-0.035h1.451v-4.16h-1.287zM16.718 7.41c-0.271 0-0.709 0.007-1.316 0.020l-1.122 0.010c-0.058 0-0.098-0.012-0.121-0.035s-0.034-0.065-0.034-0.125v-1.090c0-0.060 0.011-0.102 0.034-0.125s0.063-0.035 0.121-0.035h0.319c0.677-0.020 1.435-0.030 2.273-0.030 0.6 0 1.074 0.172 1.422 0.515s0.522 0.805 0.522 1.385v0.47c0 0.76-0.371 1.273-1.112 1.54l-1.703 0.61c-0.226 0.080-0.372 0.16-0.44 0.24s-0.102 0.213-0.102 0.4v0.49h3.066c0.058 0 0.098 0.012 0.121 0.035s0.034 0.065 0.034 0.125v1.090c0 0.060-0.011 0.102-0.034 0.125s-0.063 0.035-0.121 0.035h-4.372c-0.058 0-0.098-0.012-0.121-0.035s-0.034-0.065-0.034-0.125v-1.9c0-0.42 0.106-0.753 0.319-1s0.477-0.427 0.793-0.54l1.886-0.68c0.148-0.053 0.245-0.128 0.29-0.225s0.068-0.222 0.068-0.375v-0.12c0-0.233-0.050-0.4-0.15-0.5s-0.263-0.15-0.488-0.15zM28.208 9.1c0-0.040 0.016-0.077 0.048-0.11l1.683-1.58h-2.622c-0.058 0-0.098-0.012-0.121-0.035s-0.034-0.065-0.034-0.125v-1.090c0-0.060 0.011-0.102 0.034-0.125s0.063-0.035 0.121-0.035h4.276c0.058 0 0.098 0.012 0.121 0.035s0.034 0.065 0.034 0.125v1.010c0 0.047-0.005 0.083-0.015 0.11s-0.031 0.057-0.063 0.090l-1.49 1.46c0.574 0 1.021 0.132 1.34 0.395s0.479 0.728 0.479 1.395v0.51c0 0.58-0.174 1.042-0.522 1.385s-0.822 0.515-1.422 0.515c-0.4 0-0.967-0.007-1.703-0.020l-1.112-0.010c-0.052 0-0.090-0.012-0.116-0.035s-0.039-0.065-0.039-0.125v-1.090c0-0.060 0.011-0.102 0.034-0.125s0.063-0.035 0.121-0.035c0.161 0 0.29 0.003 0.387 0.010 0.942 0.013 1.699 0.020 2.273 0.020 0.226 0 0.389-0.055 0.488-0.165s0.15-0.288 0.15-0.535v-0.080c0-0.247-0.050-0.425-0.15-0.535s-0.263-0.165-0.488-0.165h-1.054c-0.052 0-0.089-0.010-0.111-0.030s-0.053-0.063-0.092-0.13l-0.387-0.74c-0.032-0.067-0.048-0.113-0.048-0.14z"></path>
</svg>
