<!-- Generated by IcoMoon.io -->
<svg version="1.1" xmlns="http://www.w3.org/2000/svg" width="32" height="32" viewBox="0 0 32 32">
<title>Hazardous</title>
<path fill="#000" d="M17.64 19.448c0 0.154-0.028 0.258-0.088 0.32-0.060 0.056-0.164 0.088-0.318 0.088h-2.468c-0.152 0-0.258-0.032-0.318-0.088-0.058-0.062-0.090-0.166-0.090-0.32l-0.33-9.734c0-0.154 0.030-0.26 0.090-0.318 0.060-0.060 0.164-0.090 0.318-0.090h3.128c0.154 0 0.258 0.030 0.32 0.090 0.058 0.058 0.088 0.164 0.088 0.318l-0.332 9.734zM17.972 25.726c0 0.152-0.030 0.258-0.088 0.318-0.062 0.060-0.166 0.088-0.32 0.088h-3.128c-0.154 0-0.258-0.028-0.318-0.088s-0.090-0.166-0.090-0.318v-2.874c0-0.154 0.030-0.26 0.090-0.32 0.060-0.058 0.164-0.088 0.318-0.088h3.128c0.154 0 0.258 0.030 0.32 0.088 0.058 0.060 0.088 0.166 0.088 0.32v2.874zM31.87 28.462l-0.282-0.482-14.676-25.448c-0.18-0.318-0.522-0.532-0.914-0.532-0.4 0-0.744 0.22-0.922 0.544l-0.174 0.302-14.764 25.602c-0.088 0.152-0.138 0.328-0.138 0.514 0 0.572 0.47 1.038 1.048 1.038h29.906c0.578 0 1.046-0.466 1.046-1.038 0-0.18-0.046-0.352-0.13-0.5z"></path>
</svg>
