<svg xmlns="http://www.w3.org/2000/svg" width="32" height="32" viewBox="0 0 32 32">
  <path fill="#000" fill-rule="evenodd" d="M26.5378997,24.0602489 C27.8796061,24.0602489 28.9695695,25.0923379 28.9695695,26.3628029 C28.9695695,27.6332678 27.8796061,28.6653569 26.5378997,28.6653569 C25.1989598,28.6653569 24.1089963,27.6332678 24.1089963,26.3628029 C24.1089963,25.0923379 25.1989598,24.0602489 26.5378997,24.0602489 Z M26.4521412,23.1381794 C25.0689388,23.1381794 23.8987496,23.9973805 23.4976209,25.1787819 L23.4754897,25.1787819 C23.2569437,24.767518 22.8087861,24.4793713 22.2970012,24.4793713 L10.7029988,24.4793713 C10.1856811,24.4793713 9.74028992,24.767518 9.52451035,25.1787819 L9.4996127,25.1787819 C9.09848401,23.9973805 7.92829479,23.1381794 6.5450924,23.1381794 C5.54918668,23.1381794 4.66393715,23.5834971 4.09682417,24.2776686 C4.0553281,24.1571709 4.03319686,24.0288147 4.03319686,23.8978389 L4.03319686,18.7609692 C4.2296116,19.3608382 4.82438862,19.8009168 5.52152263,19.8009168 L8.9795286,19.8009168 C9.83434768,19.8009168 10.5342481,19.1355599 10.5342481,18.3287492 C10.5342481,17.5193189 9.83158128,16.8565815 8.9795286,16.8565815 L4.24067722,16.8565815 C4.15768507,16.8565815 4.08299214,16.8906352 4.03319686,16.9456451 L4.03319686,5.7707924 C4.01106562,5.63719712 4,5.50360183 4,5.37000655 C4,2.40995416 9.58537125,0.00785854617 16.479252,0 L16.520748,0 C23.4146287,0.0104780616 29,2.41257367 29,5.37000655 C29,5.50622135 28.986168,5.63981663 28.9668031,5.7707924 L28.9668031,16.9456451 C28.9142415,16.8906352 28.8423149,16.8565815 28.7593228,16.8565815 L24.0204714,16.8565815 C23.1628859,16.8565815 22.4629855,17.5193189 22.4629855,18.3287492 C22.4629855,19.1355599 23.1628859,19.8009168 24.0204714,19.8009168 L27.4784774,19.8009168 C28.1756114,19.8009168 28.7703884,19.3608382 28.9668031,18.7609692 L28.9668031,23.8978389 C28.9668031,24.0288147 28.9446719,24.1571709 28.9031758,24.2776686 C28.3360629,23.5861166 27.4508133,23.1381794 26.4549076,23.1381794 L26.4521412,23.1381794 Z M6.07756999,13.2285527 L16.0366272,13.2285527 L16.0366272,5.76293386 L6.07756999,5.76293386 L6.07756999,13.2285527 Z M16.9661392,13.2285527 L16.9661392,5.76293386 L26.9251964,5.76293386 L26.9251964,13.2285527 L16.9661392,13.2285527 Z M6.4869979,24.0602489 C7.83147062,24.0602489 8.9186677,25.0923379 8.9186677,26.3628029 C8.9186677,27.6332678 7.83147062,28.6653569 6.4869979,28.6653569 C5.14805798,28.6653569 4.0580945,27.6332678 4.0580945,26.3628029 C4.0580945,25.0923379 5.14805798,24.0602489 6.4869979,24.0602489 Z M21.3121611,32 L21.3121611,27.1669941 L22.8917782,27.1669941 L22.8917782,32 L21.3121611,32 Z M10.1331194,32 L10.1331194,27.1669941 L11.7127365,27.1669941 L11.7127365,32 L10.1331194,32 Z"/>
</svg>
