<!-- Generated by IcoMoon.io -->
<svg version="1.1" xmlns="http://www.w3.org/2000/svg" width="32" height="32" viewBox="0 0 32 32">
<title>Reefer</title>
<path fill="#000" d="M32 16l-0.8-1.4h-3.6l1.6-2.8-0.8-1.4h-1.6l-2.6 4h-5.6l2.8-4.8h4.8l0.8-1.4-0.8-1.4h-3.2l2-3.2-1-1.4h-1.8l-1.8 3.2-1.6-3h-1.6l-0.8 1.4 2.4 4.2-2.8 5-2.8-5 2.6-4.2-1-1.4h-1.6l-1.6 2.8-1.8-3.2h-1.8l-0.8 1.4 1.8 3.2h-3.4l-0.8 1.6 0.8 1.4h5l2.8 5h-5.6l-2.4-4.2h-1.6l-1 1.4 1.6 2.8h-3.6l-0.8 1.4 0.8 1.4h3.6l-1.6 2.8 0.8 1.4h1.6l2.6-4.2h5.6l-2.8 5h-5l-0.8 1.4 0.8 1.6h3.2l-1.8 3.2 0.8 1.4h1.6l1.8-3.2 1.6 2.8h1.6l0.8-1.4-2-4.4 2.8-4.8 2.8 4.8-2.6 4.2 0.8 1.4h1.6l1.6-2.8 1.8 3h2l0.8-1.4-1.8-3.2h3.2l0.8-1.6-0.8-1.4h-4.8l-3-4.6h5.8l2.4 4.2h1.6l0.8-1.4-1.6-2.8h3.6z"></path>
</svg>
