<!-- Generated by IcoMoon.io -->
<svg version="1.1" xmlns="http://www.w3.org/2000/svg" width="32" height="32" viewBox="0 0 32 32">
<title>Ship-1</title>
<path fill="#8c8c8c" d="M0 16.455v-1.491h3.495v1.491h-3.495zM13.053 16.455v-1.491h3.496v1.491h-3.496zM17.061 16.455v-1.491h3.496v1.491h-3.496zM21.069 16.455v-1.491h3.496v1.491h-3.496z"></path>
<path fill="#000" d="M0.977 20.152c-0.574-0.901-0.908-1.969-0.908-3.1l31.011-0.030-1.776 3.099c-0.088-0.003-0.177-0.005-0.265-0.005-2.717 0-2.726 1.631-5.468 1.631s-5.46-1.628-8.19-1.628l-0.011-0.004c-2.73 0-5.448 1.63-8.19 1.63s-2.745-1.63-5.462-1.63c-0.248 0-0.496 0.013-0.742 0.037zM10.643 11.852l1.852 4.631h-8.335v-4.631h0.693l0.606-1.852h1.625l1.032 1.852h2.527zM29.38 14.632l2.411 1-0.494 0.851h-6.132l1.755-2.964h1.68l0.606 0.955c0 0.096 0.079 0.158 0.174 0.158z"></path>
</svg>
