<!-- Generated by IcoMoon.io -->
<svg version="1.1" xmlns="http://www.w3.org/2000/svg" width="32" height="32" viewBox="0 0 32 32">
<title>Ship-2</title>
<path fill="#000" d="M0.936 21.984c-0.592-0.929-0.936-2.061-0.936-3.227l31.973 0-1.831 3.195c-0.091-0.003-0.182-0.005-0.273-0.005-2.801 0-2.811 1.681-5.637 1.681s-5.629-1.678-8.444-1.678l-0.011-0.004c-2.814 0-5.618 1.681-8.444 1.681s-2.83-1.681-5.631-1.681c-0.256 0-0.512 0.014-0.765 0.038zM8.61 11.91l0.038 6.291h-8.648v-6.291h0.768l0.625-1.91h1.675l1.064 1.91h4.477z"></path>
<path fill="#8c8c8c" d="M13.299 18.171v-1.793h3.604v1.793h-3.604zM17.432 18.171v-1.793h3.604v1.793h-3.604zM9.162 18.171v-1.793h3.604v1.793h-3.604zM21.564 18.171v-1.793h3.604v1.793h-3.604zM25.706 18.171v-1.793h3.604v1.793h-3.604zM13.299 15.931v-1.793h3.604v1.793h-3.604zM9.162 15.931v-1.793h3.604v1.793h-3.604z"></path>
</svg>
