<!-- Generated by IcoMoon.io -->
<svg version="1.1" xmlns="http://www.w3.org/2000/svg" width="32" height="32" viewBox="0 0 32 32">
<title>Tracking-Complex-Booking</title>
<path fill="#000" d="M23.76 20.025h-6.046c0.241-0.621 0.107-1.326-0.345-1.815h5.764v-7.293c0.004-0.158 0.072-0.308 0.187-0.416s0.269-0.166 0.428-0.16l4.8 0.627c1.423 0.202 1.453 1.886 1.453 2.56h-4.817c0 0-0.291 0.013-0.291 0.236 0.001 0.22 0.019 0.44 0.055 0.657 0.035 0.308 0.274 0.554 0.581 0.598 0.459 0.109 4.438 0.876 4.438 0.876v3.419c0 0.333-0.24 0.712-0.573 0.712h-1.444v-0.712c0-0.721-0.384-1.386-1.008-1.747s-1.393-0.36-2.017 0c-0.624 0.36-1.008 1.026-1.008 1.747v0.712h-0.156zM25.903 17.819h0.004c0.865 0 1.566 0.701 1.566 1.566s-0.7 1.566-1.565 1.566-1.566-0.699-1.568-1.564c-0.002-0.864 0.698-1.567 1.562-1.569zM25.907 20.202c0.451 0 0.817-0.366 0.817-0.817s-0.366-0.817-0.817-0.817c-0.451 0-0.817 0.366-0.817 0.817s0.366 0.817 0.817 0.817zM22.046 17.427h-19.238c-0.098 0-0.177-0.079-0.177-0.177v-7.503c0-0.098 0.079-0.177 0.177-0.177h19.238c0.098 0 0.177 0.079 0.177 0.177v7.503c0 0.047-0.019 0.092-0.052 0.125s-0.078 0.052-0.125 0.052zM8.215 17.832h0.008c0.865 0 1.566 0.701 1.566 1.566 0 0.864-0.7 1.565-1.564 1.566s-1.566-0.697-1.569-1.561c-0.003-0.864 0.694-1.567 1.558-1.572zM8.223 20.215c0.451 0 0.817-0.366 0.817-0.817s-0.366-0.817-0.817-0.817c-0.451 0-0.817 0.366-0.817 0.817s0.366 0.817 0.817 0.817zM11.958 17.832c0.865 0 1.566 0.701 1.566 1.566s-0.701 1.566-1.566 1.566c-0.865 0-1.566-0.701-1.566-1.566s0.701-1.566 1.566-1.566zM11.958 20.215c0.451 0 0.817-0.366 0.817-0.817s-0.366-0.817-0.817-0.817c-0.451 0-0.817 0.366-0.817 0.817s0.366 0.817 0.817 0.817zM4.472 17.832c0.865 0 1.566 0.701 1.566 1.566s-0.701 1.566-1.566 1.566c-0.865 0-1.566-0.701-1.566-1.566s0.701-1.566 1.566-1.566zM4.472 20.215c0.451 0 0.817-0.366 0.817-0.817s-0.366-0.817-0.817-0.817c-0.451 0-0.817 0.366-0.817 0.817s0.366 0.817 0.817 0.817zM15.684 17.832c-0.865 0-1.566 0.701-1.566 1.566s0.701 1.566 1.566 1.566c0.865 0 1.566-0.701 1.566-1.566s-0.701-1.566-1.566-1.566zM15.684 20.215c-0.451 0-0.817-0.366-0.817-0.817s0.366-0.817 0.817-0.817c0.451 0 0.817 0.366 0.817 0.817s-0.366 0.817-0.817 0.817z"></path>
<path fill="#8c8c8c" d="M13.225 2.884l2.884-2.884 2.952 2.88-0.455 0.463-2.236-2.181v7.133h-0.648v-6.994l-2.038 2.038-0.459-0.455zM6.451 5.314v-4.076l4.122-0.051 0.008 0.648-3.124 0.038 5.044 5.044-0.459 0.459-4.943-4.943v2.88h-0.648zM25.975 5.314h-0.648v-2.88l-4.943 4.943-0.459-0.459 5.044-5.044-3.124-0.038 0.008-0.648 4.122 0.051v4.076zM13.225 28.994l0.459-0.459 2.038 2.038v-6.994h0.648v7.133l2.236-2.181 0.455 0.463-2.952 2.88-2.884-2.88zM6.451 26.56h0.648v2.88l4.943-4.943 0.459 0.459-5.044 5.044 3.124 0.038-0.008 0.648-4.122-0.051v-4.076zM25.975 26.56v4.076l-4.122 0.051-0.008-0.648 3.124-0.038-5.044-5.044 0.459-0.459 4.943 4.943v-2.88h0.648z"></path>
</svg>
