<!-- Generated by IcoMoon.io -->
<svg version="1.1" xmlns="http://www.w3.org/2000/svg" width="32" height="32" viewBox="0 0 32 32">
<title>Tracking-Unit-Booked</title>
<path fill="#8c8c8c" d="M24.964 23.356h-6.568c0.263-0.673 0.121-1.436-0.368-1.968h6.255v-7.899c0.005-0.171 0.078-0.333 0.203-0.45s0.292-0.179 0.463-0.172l5.203 0.677c1.545 0.217 1.575 2.038 1.575 2.774h-5.247c0 0-0.316 0.011-0.316 0.254 0.001 0.239 0.021 0.478 0.059 0.714 0.040 0.344 0.314 0.613 0.659 0.648 0.493 0.118 4.805 0.949 4.805 0.949v3.705c0 0.357-0.254 0.769-0.622 0.769h-1.564v-0.773c0.033-0.802-0.376-1.557-1.065-1.967s-1.548-0.411-2.237 0c-0.689 0.411-1.098 1.166-1.065 1.967v0.773h-0.169zM27.278 20.964c0.939 0 1.7 0.761 1.7 1.7s-0.761 1.7-1.7 1.7c-0.939 0-1.7-0.761-1.7-1.7s0.761-1.7 1.7-1.7zM16.211 20.979c0.939 0 1.7 0.761 1.7 1.7s-0.761 1.7-1.7 1.7c-0.939 0-1.7-0.761-1.7-1.7s0.761-1.7 1.7-1.7zM2.778 20.979c0.939 0 1.7 0.761 1.7 1.7s-0.761 1.7-1.7 1.7c-0.939 0-1.7-0.761-1.7-1.7s0.761-1.7 1.7-1.7zM6.656 20.979c0.939 0 1.7 0.761 1.7 1.7s-0.761 1.7-1.7 1.7c-0.939 0-1.7-0.761-1.7-1.7s0.761-1.7 1.7-1.7zM27.278 23.54v0.007c0.235 0 0.461-0.094 0.627-0.261s0.258-0.394 0.256-0.629c0-0.488-0.395-0.883-0.883-0.883s-0.883 0.395-0.883 0.883c0 0.488 0.395 0.883 0.883 0.883zM16.211 23.555v0.007c0.235 0 0.461-0.094 0.627-0.261s0.258-0.394 0.256-0.629c0-0.357-0.215-0.679-0.545-0.816s-0.71-0.061-0.962 0.191c-0.253 0.253-0.328 0.632-0.191 0.962s0.459 0.545 0.816 0.545zM2.778 23.555v0.007c0.235 0 0.461-0.094 0.627-0.261s0.258-0.394 0.256-0.629c0-0.357-0.215-0.679-0.545-0.816s-0.71-0.061-0.962 0.191c-0.253 0.253-0.328 0.632-0.191 0.962s0.459 0.545 0.816 0.545zM6.656 23.555v0.007c0.235 0 0.461-0.094 0.627-0.261s0.258-0.394 0.256-0.629c0-0.357-0.215-0.679-0.545-0.816s-0.71-0.061-0.962 0.191c-0.253 0.253-0.328 0.632-0.191 0.962s0.459 0.545 0.816 0.545z"></path>
<path fill="#000" d="M1 12.189h21.433c0.552 0 1 0.448 1 1v6.492c0 0.552-0.448 1-1 1h-21.433c-0.552 0-1-0.448-1-1v-6.492c0-0.552 0.448-1 1-1zM15.464 14.291l-0.724-0.711-4.362 4.284-1.768-1.739-0.726 0.714 1.768 1.737 0.726 0.711 5.086-4.995z"></path>
</svg>
