<!-- Generated by IcoMoon.io -->
<svg version="1.1" xmlns="http://www.w3.org/2000/svg" width="32" height="32" viewBox="0 0 32 32">
<title>Tracking-Truck-Missed-Ship</title>
<path fill="#8c8c8c" d="M18.687 18.796l-1.816 1.816-0.707-0.707 1.816-1.816-1.816-1.816 0.707-0.707 1.816 1.816 1.816-1.816 0.707 0.707-1.816 1.816 1.816 1.816-0.707 0.707-1.816-1.816z"></path>
<path fill="#000" d="M9.376 21.716h-5.345c0.066-0.171 0.104-0.356 0.104-0.55 0-0.4-0.157-0.765-0.411-1.040h5.096v-6.386c0-0.29 0.251-0.503 0.545-0.503l4.245 0.549c1.261 0.176 1.298 1.653 1.286 2.242h-4.285c0 0-0.257 0.010-0.257 0.206s0.017 0.366 0.049 0.575c0.032 0.21 0.135 0.43 0.537 0.524s3.924 0.765 3.924 0.765v2.996c0 0.291-0.213 0.623-0.507 0.623h-1.276v-0.623c0-0.987-0.788-1.786-1.784-1.786s-1.783 0.799-1.783 1.786v0.623h-0.138zM-4.471 21.875c0.405-0.002 0.731-0.328 0.728-0.728s-0.332-0.723-0.736-0.721c-0.404 0.002-0.73 0.328-0.728 0.728s0.332 0.723 0.736 0.721zM-4.482 19.759c0.776-0.004 1.41 0.616 1.413 1.384s-0.622 1.395-1.398 1.399c-0.777 0.004-1.41-0.616-1.414-1.384s0.622-1.395 1.399-1.399zM2.282 21.875c0.405-0.002 0.731-0.328 0.728-0.728s-0.332-0.723-0.736-0.721c-0.404 0.002-0.73 0.328-0.728 0.728s0.332 0.723 0.736 0.721zM2.271 19.759c0.776-0.004 1.41 0.616 1.413 1.384s-0.622 1.395-1.398 1.399c-0.777 0.004-1.41-0.616-1.414-1.384s0.622-1.395 1.399-1.399zM-7.829 21.893c0.405-0.002 0.731-0.328 0.728-0.728s-0.332-0.723-0.736-0.721c-0.404 0.002-0.73 0.328-0.728 0.728s0.332 0.723 0.736 0.721zM-7.84 19.777c0.776-0.004 1.41 0.616 1.413 1.384s-0.622 1.395-1.398 1.399c-0.777 0.004-1.41-0.616-1.414-1.384s0.622-1.395 1.399-1.399zM11.266 21.87c0.398 0 0.722-0.32 0.722-0.715s-0.323-0.714-0.722-0.714-0.722 0.32-0.722 0.714c0 0.395 0.323 0.715 0.722 0.715zM11.266 19.783c0.766 0 1.387 0.614 1.387 1.372s-0.621 1.373-1.387 1.373-1.387-0.614-1.387-1.373c0-0.758 0.621-1.372 1.387-1.372zM7.87 12.467c0.097 0 0.176 0.078 0.176 0.174v6.611c0 0.096-0.079 0.175-0.176 0.175l-17.224-0c-0.097 0-0.176-0.078-0.176-0.174v-0.524h16.88v-5.57h-16.88v-0.518c0-0.095 0.079-0.174 0.176-0.174h17.224zM-8.342 16.291h-1.996l1.236 1.243-0.706 0.678-2.353-2.366 2.359-2.316 0.698 0.685-1.127 1.106h1.888v-1.622h15.098v4.429h-15.098v-1.837zM27.294 15.497c1.598 0.191 4.151 1.818 4.151 3.076l-1.031 3.319c-0.476 0.152-0.621 0.668-1.242 0.668-0.684 0-1.427-0.629-2.109-0.703l0.231-6.361zM22.457 18.573c0-1.258 2.553-2.886 4.151-3.076l0.231 6.361c-0.682 0.074-1.424 0.703-2.109 0.703-0.62 0-0.766-0.516-1.241-0.668l-1.031-3.319zM23.792 14.411h6.274c-0.006-0.012-0.011-0.025-0.017-0.037-0.305-0.648-0.528-0.634-2.171-0.634h-1.897c-1.643 0-1.866-0.013-2.171 0.634-0.006 0.012-0.011 0.025-0.017 0.037zM27.869 12.683h4.131l-0.367 1.183h-0.893l0.643 3.823c-0.481-0.656-1.306-1.566-2.169-2.063 1.038-0.045 1.239-0.203 1.048-0.754h-6.666c-0.185 0.532-0.003 0.698 0.943 0.749-0.979 0.558-1.795 1.604-2.155 2.37l0.755-4.125h-0.893l-0.367-1.183h4.131l0.626-2.39h0.608l0.626 2.39z"></path>
</svg>
