<!-- Generated by IcoMoon.io -->
<svg version="1.1" xmlns="http://www.w3.org/2000/svg" width="32" height="32" viewBox="0 0 32 32">
<title>Tracking-Pin-Railway</title>
<path fill="#8c8c8c" d="M13.811 21.504v-2.396h0.742v2.396h-0.742zM19.059 21.504v-2.396h0.742v2.396h-0.742zM12.1 17.569c0.63 0 1.141 0.511 1.141 1.141s-0.511 1.141-1.141 1.141c-0.63 0-1.141-0.511-1.141-1.141s0.511-1.141 1.141-1.141zM17.018 12.199h4.675v-3.701h-4.675v3.701zM11.907 12.199h4.675v-3.701h-4.675v3.701zM21.471 17.112c-0.649 0-1.198 0.425-1.386 1.011h-0.012c-0.101-0.204-0.311-0.346-0.553-0.346h-5.442c-0.242 0-0.452 0.142-0.553 0.346h-0.012c-0.188-0.586-0.737-1.011-1.386-1.011-0.468 0-0.884 0.221-1.15 0.565-0.019-0.060-0.029-0.123-0.029-0.189v-2.547c0.092 0.298 0.371 0.516 0.698 0.516h1.623c0.402 0 0.73-0.329 0.73-0.73s-0.329-0.73-0.73-0.73h-2.224c-0.039 0-0.074 0.018-0.097 0.045v-5.54c-0.011-0.066-0.016-0.132-0.016-0.198 0-1.468 2.621-2.658 5.858-2.662v-0h0.019v0c3.237 0.005 5.858 1.195 5.858 2.662 0 0.067-0.006 0.133-0.016 0.198v5.54c-0.024-0.027-0.058-0.045-0.097-0.045h-2.224c-0.402 0-0.731 0.329-0.731 0.73s0.329 0.73 0.731 0.73h1.623c0.327 0 0.606-0.218 0.698-0.516v2.547c0 0.066-0.010 0.129-0.029 0.189-0.266-0.343-0.682-0.565-1.15-0.565zM21.512 17.569c0.63 0 1.141 0.511 1.141 1.141s-0.511 1.141-1.141 1.141c-0.63 0-1.141-0.511-1.141-1.141s0.511-1.141 1.141-1.141z"></path>
<path fill="#000" d="M6.074 12.889c0-5.963 4.852-10.815 10.815-10.815s10.815 4.851 10.815 10.815c0 2.312-1.438 5.798-3.886 9.497-0.427-0.263-1.012-0.546-1.567-0.546-1.038 0-1.143 1.024-2.19 1.024s-2.086-1.023-3.129-1.023l-0.021-0.002c-1.043 0-2.099 1.024-3.147 1.024s-1.084-1.024-2.122-1.024c-0.567 0-1.156 0.295-1.576 0.563-2.546-3.771-3.992-7.194-3.992-9.514zM16.889 0c-7.107 0-12.889 5.782-12.889 12.889 0 4.318 3.74 9.903 5.348 12.103 0.524 0.718 5.188 7.008 7.541 7.008 3.293 0 12.889-12.284 12.889-19.111 0-7.107-5.782-12.889-12.889-12.889z"></path>
</svg>
