<!-- Generated by IcoMoon.io -->
<svg version="1.1" xmlns="http://www.w3.org/2000/svg" width="32" height="32" viewBox="0 0 32 32">
<title>Tracking-Gate-in</title>
<path fill="#000" d="M10.51 18.493c0.925 0 1.676 0.75 1.676 1.676s-0.75 1.676-1.676 1.676c-0.925 0-1.676-0.75-1.676-1.676s0.75-1.676 1.676-1.676zM14.332 18.493c0.925 0 1.676 0.75 1.676 1.676s-0.75 1.676-1.676 1.676c-0.925 0-1.676-0.75-1.676-1.676s0.75-1.676 1.676-1.676zM3.878 13.029l2.522 2.487-2.516 2.541-0.756-0.729 1.322-1.334h-2.164v-1.040h2.050l-1.206-1.187 0.748-0.738zM0 9.829h0.914v11.886h-0.914v-11.886zM23.771 18.651h0.914v3.2h-0.914v-3.2zM10.51 21.032v0.007c0.232 0 0.455-0.093 0.618-0.258s0.254-0.388 0.252-0.62c0-0.352-0.212-0.669-0.537-0.804s-0.7-0.060-0.949 0.189c-0.249 0.249-0.323 0.623-0.189 0.949s0.452 0.537 0.804 0.537zM14.332 21.032v0.007c0.232 0 0.455-0.093 0.618-0.258s0.254-0.388 0.252-0.62c0-0.352-0.212-0.669-0.537-0.804s-0.7-0.060-0.949 0.189c-0.249 0.249-0.323 0.623-0.189 0.949s0.452 0.537 0.804 0.537z"></path>
<path fill="#8c8c8c" d="M8.771 9.829h21.099c0.552 0 1 0.448 1 1v6.37c0 0.552-0.448 1-1 1h-21.099c-0.552 0-1-0.448-1-1v-6.37c0-0.552 0.448-1 1-1z"></path>
</svg>
