<!-- Generated by IcoMoon.io -->
<svg version="1.1" xmlns="http://www.w3.org/2000/svg" width="32" height="32" viewBox="0 0 32 32">
<title>Tracking-Pin-Truck</title>
<path fill="#8c8c8c" d="M17.817 12.867l0.024-0.252c0.027-0.391 0.35-0.696 0.742-0.7h1.135c0.392 0.004 0.716 0.308 0.742 0.7l0.046 0.252h1.064c0.276 0.001 0.523 0.17 0.623 0.427h-0.009c-0.073-0.367-0.239-1.152-0.559-2.372-0.286-1.058-0.832-1.254-1.472-1.28h-0.427c-0.192 0-0.388 0-0.585 0h-4.467c-0.201 0-0.397 0-0.589 0h-0.427c-0.644 0-1.19 0.201-1.472 1.28-0.32 1.22-0.486 2.005-0.559 2.372 0.1-0.257 0.347-0.426 0.623-0.427h5.565zM19.155 11.915c-0.471 0-0.853-0.382-0.853-0.853s0.382-0.853 0.853-0.853c0.471 0 0.853 0.382 0.853 0.853s-0.382 0.853-0.853 0.853zM23.413 9.884h0.158c0.413 0.002 0.747 0.338 0.747 0.751v1.412c0 0.413-0.334 0.749-0.747 0.751h-0.090c-0.413-0.002-0.747-0.338-0.747-0.751v-0.96h-0.738l0.226 2.47v-0.030 4.907c0 0.368-0.297 0.668-0.666 0.67h0.725c0.156 0 0.282 0.126 0.282 0.282v1.045c0 0.156-0.126 0.282-0.282 0.282h-0.363v0.555c0 0.165-0.066 0.323-0.184 0.439s-0.278 0.179-0.443 0.175h-1.766c-0.338-0.002-0.61-0.277-0.61-0.614l-0.026-0.555h-3.972l-0.026 0.555c0 0.338-0.272 0.612-0.61 0.614h-1.749c-0.167 0.005-0.329-0.059-0.449-0.177s-0.185-0.279-0.183-0.446v-0.555h-0.363c-0.156 0-0.282-0.126-0.282-0.282v-1.041c0-0.156 0.126-0.282 0.282-0.282h0.708c-0.368-0.002-0.666-0.302-0.666-0.67v-4.885l0.226-2.47h-0.742v1.003c0 0.413-0.334 0.749-0.747 0.751h-0.090c-0.413-0.002-0.747-0.338-0.747-0.751v-1.399c0-0.413 0.334-0.749 0.747-0.751h0.23c0.097 0.014 0.189 0.048 0.273 0.098l1.161 0.427 0.192-2.133 0.137-2.261c0-0.368 0.297-0.668 0.666-0.67 0 0 2.074-0.179 4.028-0.179s4.028 0.179 4.028 0.179c0.352 0.002 0.643 0.276 0.666 0.627l0.137 2.261 0.192 2.133 1.161-0.427c0.084-0.050 0.176-0.084 0.273-0.098h0.043zM13.852 18.243v-0.132c0-0.328-0.265-0.595-0.593-0.597h-0.695c-0.328 0.002-0.593 0.269-0.593 0.597v0.132c0 0.328 0.265 0.595 0.593 0.597h0.695c0.328-0.002 0.593-0.269 0.593-0.597zM19.398 18.507c0.009-0.338 0.026-0.67 0.051-0.994h-5.094c0.034 0.327 0.051 0.659 0.051 0.994h4.992zM19.526 16.711h0.013c0.038-0.341 0.090-0.674 0.145-0.994h-5.547c0.055 0.32 0.107 0.653 0.145 0.994h5.244zM16.928 14.915h2.91c0.085-0.35 0.175-0.683 0.277-0.994h-6.409c0.102 0.311 0.196 0.644 0.277 0.994h2.944zM21.847 18.243l-0.013-0.132c0-0.328-0.265-0.595-0.593-0.597h-0.695c-0.328 0.002-0.593 0.269-0.593 0.597v0.132c0 0.328 0.265 0.595 0.593 0.597h0.708c0.328-0.002 0.593-0.269 0.593-0.597z"></path>
<path fill="#000" d="M6.074 12.889c0-5.963 4.852-10.815 10.815-10.815s10.815 4.851 10.815 10.815c0 2.312-1.438 5.798-3.886 9.497-0.427-0.263-1.012-0.546-1.567-0.546-1.038 0-1.143 1.024-2.19 1.024s-2.086-1.023-3.129-1.023l-0.021-0.002c-1.043 0-2.099 1.024-3.147 1.024s-1.084-1.024-2.122-1.024c-0.567 0-1.156 0.295-1.576 0.563-2.546-3.771-3.992-7.194-3.992-9.514zM16.889 0c-7.107 0-12.889 5.782-12.889 12.889 0 4.318 3.74 9.903 5.348 12.103 0.524 0.718 5.188 7.008 7.541 7.008 3.293 0 12.889-12.284 12.889-19.111 0-7.107-5.782-12.889-12.889-12.889z"></path>
</svg>
