<!-- Generated by IcoMoon.io -->
<svg version="1.1" xmlns="http://www.w3.org/2000/svg" width="32" height="32" viewBox="0 0 32 32">
<title>Tracking-Full</title>
<path fill="#8c8c8c" d="M29.714 8v13.485h-27.428v-13.485h-2.286v15.772h32v-15.772z"></path>
<path fill="#000" d="M20.589 10.491l-3.712 7.055c-0.134 0.255-0.376 0.436-0.658 0.492-0.063 0.012-0.126 0.019-0.188 0.019-0.22 0-0.436-0.076-0.608-0.219l-3.951-3.261c-0.408-0.336-0.465-0.938-0.129-1.346s0.939-0.465 1.346-0.129l3.044 2.512 3.163-6.013c0.245-0.468 0.825-0.648 1.292-0.401s0.647 0.825 0.401 1.291zM3.886 19.886h24.229v-11.886h-24.229v11.886z"></path>
</svg>
