<!-- Generated by IcoMoon.io -->
<svg version="1.1" xmlns="http://www.w3.org/2000/svg" width="33" height="32" viewBox="0 0 33 32">
<title>Tracking-Loaded-on-Vessel</title>
<path fill="#000" d="M1.47 20.132c-0.588-0.919-0.9-1.986-0.901-3.077l30.786-0.041-1.762 3.077h-0.263c-2.698 0-2.698 1.618-5.427 1.618s-5.427-1.615-8.138-1.615c-2.717 0-5.418 1.618-8.138 1.618s-2.726-1.618-5.421-1.618c-0.244 0-0.491 0.013-0.736 0.038zM0.5 14.984h3.471v1.48h-3.471v-1.48zM13.455 14.984h3.471v1.48h-3.471v-1.48zM21.411 14.984h3.471v1.48h-3.471v-1.48zM11.063 11.894l1.84 4.598h-8.275v-4.598h0.689l0.601-1.837h1.612l1.027 1.837h2.507zM29.661 14.655l2.394 1.002-0.491 0.845h-6.085l1.74-2.942h1.668l0.601 0.939c0.001 0.044 0.020 0.086 0.052 0.115s0.076 0.044 0.12 0.041zM21.757 12.107l-2.487 2.522-2.541-2.516 0.729-0.756 1.334 1.322v-2.164h1.040v2.050l1.187-1.206 0.738 0.748z"></path>
<path fill="#8c8c8c" d="M17.433 14.984h3.471v1.48h-3.471v-1.48z"></path>
</svg>
