<!-- Generated by IcoMoon.io -->
<svg version="1.1" xmlns="http://www.w3.org/2000/svg" width="32" height="32" viewBox="0 0 32 32">
<title>Tracking-Unloaded-from-Vessel</title>
<path fill="#000" d="M27.034 19.9h0.731v2.541h-0.731v-2.541zM11.136 15.074l2.015 2.031-2.011 2.075-0.604-0.595 1.057-1.089h-1.729v-0.849h1.638l-0.963-0.969 0.598-0.602zM4.569 16.567c1.333 0.171 3.461 1.633 3.468 2.76l-0.86 2.987c-0.397 0.133-0.518 0.597-1.035 0.597-0.571 0-1.191-0.566-1.758-0.631l0.185-5.714zM0.731 19.327c0-1.129 2.129-2.591 3.468-2.76l0.185 5.714c-0.569 0.066-1.188 0.631-1.759 0.631-0.517 0-0.638-0.462-1.035-0.597l-0.859-2.987zM5.185 14.173h3.583l-0.319 1.033h-0.768l0.553 3.329c-0.417-0.573-1.133-1.366-1.88-1.799 0.908-0.039 1.073-0.178 0.908-0.658h-5.776c-0.159 0.458-0.004 0.609 0.818 0.652-0.803 0.502-1.45 1.221-1.866 2.076l0.649-3.6h-0.768l-0.319-1.033h3.577l0.543-2.085h0.526l0.538 2.085zM16.364 19.94c0.721 0 1.305 0.56 1.305 1.251s-0.584 1.251-1.305 1.251c-0.721 0-1.305-0.56-1.305-1.251s0.584-1.251 1.305-1.251zM19.341 19.94c0.721 0 1.305 0.56 1.305 1.251s-0.584 1.251-1.305 1.251c-0.721 0-1.305-0.56-1.305-1.251s0.584-1.251 1.305-1.251zM1.461 15.82h5.845l-0.017-0.042c-0.285-0.719-0.493-0.705-2.023-0.705h-1.765c-1.532 0-1.738-0.015-2.023 0.705l-0.017 0.042zM16.364 21.835v0.005c0.181 0 0.354-0.069 0.481-0.192s0.198-0.29 0.197-0.463c0-0.263-0.165-0.5-0.419-0.6s-0.545-0.045-0.739 0.141c-0.194 0.186-0.252 0.465-0.147 0.708s0.352 0.401 0.626 0.401zM19.341 21.835v0.005c0.181 0 0.354-0.069 0.481-0.192s0.198-0.29 0.197-0.463c0-0.263-0.165-0.5-0.419-0.6s-0.545-0.045-0.739 0.141c-0.194 0.186-0.252 0.465-0.147 0.708s0.352 0.401 0.626 0.401z"></path>
<path fill="#8c8c8c" d="M15.118 13.029h15.882c0.552 0 1 0.448 1 1v4.588c0 0.552-0.448 1-1 1h-15.882c-0.552 0-1-0.448-1-1v-4.588c0-0.552 0.448-1 1-1z"></path>
</svg>
