<!-- Generated by IcoMoon.io -->
<svg version="1.1" xmlns="http://www.w3.org/2000/svg" width="32" height="32" viewBox="0 0 32 32">
<title>Tracking-Preliminary-Booked</title>
<path fill="#000" d="M25.179 22.966h-6.624c0.266-0.678 0.122-1.449-0.371-1.985h6.309v-7.968c0.005-0.173 0.079-0.336 0.205-0.454s0.294-0.18 0.467-0.173l5.247 0.683c1.559 0.219 1.588 2.056 1.588 2.798h-5.292c0 0-0.319 0.011-0.319 0.256 0.001 0.241 0.021 0.482 0.059 0.72 0.040 0.347 0.317 0.619 0.664 0.653 0.497 0.119 4.847 0.957 4.847 0.957v3.737c0 0.36-0.256 0.776-0.627 0.776h-1.577v-0.779c0.033-0.808-0.379-1.57-1.074-1.984s-1.561-0.414-2.256 0c-0.695 0.414-1.107 1.176-1.074 1.984v0.779h-0.171zM27.513 20.554c0.947 0 1.715 0.768 1.715 1.715s-0.768 1.715-1.715 1.715c-0.947 0-1.715-0.768-1.715-1.715s0.768-1.715 1.715-1.715zM27.513 23.152v0.007c0.238 0 0.465-0.095 0.632-0.263s0.26-0.397 0.258-0.635c0-0.492-0.399-0.891-0.891-0.891s-0.891 0.399-0.891 0.891c0 0.492 0.399 0.891 0.891 0.891zM1 11.703h21.635c0.552 0 1 0.448 1 1v6.565c0 0.552-0.448 1-1 1h-21.635c-0.552 0-1-0.448-1-1v-6.565c0-0.552 0.448-1 1-1zM16.351 20.569c0.947 0 1.715 0.768 1.715 1.715s-0.768 1.715-1.715 1.715c-0.947 0-1.714-0.768-1.714-1.715s0.768-1.715 1.714-1.715zM16.351 23.167v0.007c0.238 0 0.465-0.095 0.632-0.263s0.26-0.397 0.258-0.635c0-0.36-0.217-0.685-0.55-0.823s-0.716-0.062-0.971 0.193c-0.255 0.255-0.331 0.638-0.193 0.971s0.463 0.55 0.823 0.55zM2.802 20.569c0.947 0 1.714 0.768 1.714 1.715s-0.768 1.715-1.715 1.715c-0.947 0-1.714-0.768-1.714-1.715s0.768-1.715 1.714-1.715zM2.802 23.167v0.007c0.237 0 0.465-0.095 0.632-0.263s0.26-0.397 0.258-0.635c0-0.36-0.217-0.685-0.55-0.823s-0.716-0.062-0.971 0.193c-0.255 0.255-0.331 0.638-0.193 0.971s0.463 0.55 0.823 0.55zM6.713 20.569c0.947 0 1.715 0.768 1.715 1.715s-0.768 1.715-1.715 1.715c-0.947 0-1.715-0.768-1.715-1.715s0.768-1.715 1.715-1.715zM6.713 23.167v0.007c0.237 0 0.465-0.095 0.632-0.263s0.26-0.397 0.258-0.635c0-0.36-0.217-0.685-0.55-0.823s-0.716-0.062-0.971 0.193c-0.255 0.255-0.331 0.638-0.193 0.971s0.463 0.55 0.823 0.55zM22.687 12.639h-21.751v6.783h21.751v-6.783z"></path>
<path fill="#8c8c8c" d="M15.648 13.83l-0.732-0.719-4.414 4.335-1.789-1.76-0.735 0.722 1.789 1.758 0.735 0.719 0.732-0.719z"></path>
</svg>
