<!-- Generated by IcoMoon.io -->
<svg version="1.1" xmlns="http://www.w3.org/2000/svg" width="32" height="32" viewBox="0 0 32 32">
<title>Tracking-Ship-Cancelled</title>
<path fill="#8c8c8c" d="M20.312 8l-9.15 15.848h1.084l9.151-15.848z"></path>
<path fill="#000" d="M10.47 11.369l1.822 4.555h-8.199v-4.555h0.682l0.596-1.822h1.598l1.016 1.822h2.486zM15.534 14.43l-0.847 1.466h-1.847v-1.466h2.694zM17.903 15.896l0.847-1.466h1.473v1.466h-2.319zM17.573 16.467l13.002-0.012-1.747 3.048c-0.087-0.003-0.174-0.005-0.261-0.005-2.672 0-2.681 1.605-5.378 1.605-2.473 0-4.926-1.343-7.387-1.567l1.771-3.068zM14.356 16.47l-2.002 3.468c-1.76 0.474-3.52 1.162-5.29 1.162-2.697 0-2.7-1.603-5.373-1.603-0.244 0-0.488 0.012-0.73 0.036-0.565-0.886-0.893-1.937-0.893-3.050l14.287-0.014zM0 15.896v-1.467h3.439v1.467h-3.439zM20.726 15.896v-1.466h3.439v1.466h-3.439zM24.407 13.001h6.195v3h-6.195v-3z"></path>
</svg>
