<!-- Generated by IcoMoon.io -->
<svg version="1.1" xmlns="http://www.w3.org/2000/svg" width="32" height="32" viewBox="0 0 32 32">
<title>Tracking-Full-Load</title>
<path fill="#8c8c8c" d="M28.498 19.72c0.707 0 1.28 0.573 1.28 1.28s-0.573 1.28-1.28 1.28c-0.707 0-1.28-0.573-1.28-1.28s0.573-1.28 1.28-1.28zM28.498 21.666c0.177 0 0.346-0.070 0.472-0.194s0.195-0.294 0.195-0.471c0-0.367-0.298-0.665-0.665-0.666s-0.666 0.297-0.666 0.665c-0.001 0.367 0.297 0.666 0.664 0.667zM27.702 16.946c0.022 0.195 0.131 0.402 0.502 0.49s3.622 0.714 3.622 0.714v2.792c0 0.27-0.197 0.581-0.467 0.581h-1.187v-0.581c0-0.909-0.737-1.646-1.646-1.646s-1.646 0.737-1.646 1.646v0.582h-0.126c-0.272 0-0.514-0.31-0.514-0.581v-6.858c0-0.005 0-0.016 0-0.016 0.006-0.127 0.063-0.247 0.157-0.333s0.219-0.13 0.347-0.123l3.92 0.512c1.165 0.171 1.198 1.542 1.187 2.091h-3.955c0 0-0.238 0.010-0.238 0.192 0.001 0.18 0.016 0.36 0.045 0.538zM22.424 19.73c0.707 0 1.28 0.573 1.28 1.28s-0.573 1.28-1.28 1.28c-0.707 0-1.28-0.573-1.28-1.28s0.573-1.28 1.28-1.28zM22.424 21.675c0.368 0 0.666-0.298 0.666-0.666s-0.298-0.666-0.666-0.666c-0.368 0-0.666 0.298-0.666 0.666s0.298 0.666 0.666 0.666zM19.36 19.73c0.707 0 1.28 0.573 1.28 1.28s-0.573 1.28-1.28 1.28c-0.707 0-1.28-0.573-1.28-1.28s0.573-1.28 1.28-1.28zM19.36 21.675c0.368 0 0.666-0.298 0.666-0.666s-0.298-0.666-0.666-0.666c-0.368 0-0.666 0.298-0.666 0.666s0.298 0.666 0.666 0.666zM6.176 19.73c0.707 0 1.28 0.573 1.28 1.28s-0.573 1.28-1.28 1.28c-0.707 0-1.28-0.573-1.28-1.28s0.573-1.28 1.28-1.28zM6.176 21.675c0.177 0 0.346-0.070 0.471-0.195s0.195-0.294 0.195-0.471c0-0.368-0.298-0.666-0.666-0.666s-0.666 0.298-0.666 0.666c0 0.368 0.298 0.666 0.666 0.666zM9.235 19.73c0.707 0 1.28 0.573 1.28 1.28s-0.573 1.28-1.28 1.28c-0.707 0-1.28-0.573-1.28-1.28s0.573-1.28 1.28-1.28zM9.235 21.675c0.368 0 0.666-0.298 0.666-0.666s-0.298-0.666-0.666-0.666c-0.368 0-0.666 0.298-0.666 0.666s0.298 0.666 0.666 0.666zM3.12 19.73c0.707 0 1.28 0.573 1.28 1.28s-0.573 1.28-1.28 1.28c-0.707 0-1.28-0.573-1.28-1.28s0.573-1.28 1.28-1.28zM3.12 21.675c0.368 0 0.666-0.298 0.666-0.666s-0.298-0.666-0.666-0.666c-0.368 0-0.666 0.298-0.666 0.666s0.298 0.666 0.666 0.666zM25.6 19.080v-5.76h-25.28v5.76h25.28zM25.76 13c0.088 0 0.16 0.072 0.16 0.16v6.080c0 0.088-0.072 0.16-0.16 0.16h-25.6c-0.088 0-0.16-0.072-0.16-0.16v-6.080c0-0.088 0.072-0.16 0.16-0.16h25.6z"></path>
<path fill="#000" d="M0.64 13.643h3.84v2.4h-3.84v-2.4zM0.64 16.376h3.84v2.4h-3.84v-2.4zM4.8 13.643h3.84v2.4h-3.84v-2.4zM4.8 16.376h3.84v2.4h-3.84v-2.4zM8.96 13.643h3.84v2.4h-3.84v-2.4zM8.96 16.376h3.84v2.4h-3.84v-2.4zM13.12 13.643h3.84v2.4h-3.84v-2.4zM13.12 16.376h3.84v2.4h-3.84v-2.4zM17.28 13.643h3.84v2.4h-3.84v-2.4zM17.28 16.376h3.84v2.4h-3.84v-2.4zM21.44 13.643h3.84v2.4h-3.84v-2.4zM21.44 16.376h3.84v2.4h-3.84v-2.4z"></path>
</svg>
