<!-- Generated by IcoMoon.io -->
<svg version="1.1" xmlns="http://www.w3.org/2000/svg" width="32" height="32" viewBox="0 0 32 32">
<title>Tracking-Pin-Ship</title>
<path fill="#000" d="M6.074 12.889c0-5.963 4.852-10.815 10.815-10.815s10.815 4.851 10.815 10.815c0 2.312-1.438 5.798-3.886 9.497-0.427-0.263-1.012-0.546-1.567-0.546-1.038 0-1.143 1.024-2.19 1.024s-2.086-1.023-3.129-1.023l-0.021-0.002c-1.043 0-2.099 1.024-3.147 1.024s-1.084-1.024-2.122-1.024c-0.567 0-1.156 0.295-1.576 0.563-2.546-3.771-3.992-7.194-3.992-9.514zM16.889-0c-7.107 0-12.889 5.782-12.889 12.889 0 4.318 3.74 9.903 5.348 12.103 0.524 0.718 5.188 7.008 7.541 7.008 3.293 0 12.889-12.284 12.889-19.111 0-7.107-5.782-12.889-12.889-12.889z"></path>
<path fill="#8c8c8c" d="M17.486 11.565c2.31 0.275 5.998 2.627 5.998 4.445l-1.49 4.796c-0.687 0.22-0.898 0.965-1.794 0.965-0.989 0-2.062-0.909-3.047-1.015l0.333-9.191zM10.498 16.010c0-1.818 3.689-4.17 5.998-4.445l0.333 9.191c-0.985 0.107-2.058 1.016-3.047 1.016-0.896 0-1.106-0.745-1.794-0.966l-1.49-4.796zM12.427 9.996h9.066c-0.008-0.018-0.016-0.036-0.025-0.053-0.441-0.936-0.764-0.917-3.138-0.917h-2.741c-2.374 0-2.696-0.019-3.138 0.917-0.008 0.018-0.016 0.036-0.025 0.053zM18.318 7.499h5.969l-0.53 1.709h-1.291l0.93 5.524c-0.695-0.948-1.887-2.263-3.134-2.981 1.5-0.064 1.791-0.293 1.515-1.089h-9.632c-0.267 0.768-0.005 1.008 1.363 1.082-1.415 0.806-2.594 2.318-3.115 3.425l1.091-5.961h-1.291l-0.53-1.709h5.969l0.904-3.454h0.879l0.905 3.454z"></path>
</svg>
