<!-- Generated by IcoMoon.io -->
<svg version="1.1" xmlns="http://www.w3.org/2000/svg" width="32" height="32" viewBox="0 0 32 32">
<title>Tracking-Logistics</title>
<path fill="#000" d="M24.45 22.351h-7.033c0.087-0.228 0.137-0.473 0.137-0.73 0-0.533-0.206-1.018-0.54-1.383h6.705v-8.489c0-0.386 0.331-0.669 0.717-0.669l5.587 0.73c1.659 0.234 1.708 2.197 1.692 2.98h-5.638c0 0-0.339 0.013-0.339 0.273s0.023 0.487 0.065 0.766c0.042 0.279 0.178 0.571 0.707 0.697s5.163 1.018 5.163 1.018v3.982c0 0.386-0.28 0.828-0.667 0.828h-1.68v-0.828c0-1.311-1.037-2.374-2.347-2.374s-2.347 1.063-2.347 2.374v0.828h-0.181zM26.937 22.555c0.524 0 0.95-0.425 0.95-0.95s-0.425-0.95-0.95-0.95c-0.525 0-0.95 0.425-0.95 0.95s0.425 0.95 0.95 0.95zM26.937 19.78c1.007 0 1.824 0.817 1.824 1.825s-0.817 1.824-1.824 1.824c-1.007 0-1.824-0.817-1.824-1.824s0.817-1.825 1.824-1.825zM15.044 22.57c0.524 0 0.95-0.425 0.95-0.949s-0.425-0.95-0.95-0.95-0.95 0.425-0.95 0.95c0 0.524 0.425 0.949 0.95 0.949zM15.044 19.795c1.007 0 1.824 0.817 1.824 1.825s-0.817 1.824-1.824 1.824c-1.007 0-1.824-0.817-1.824-1.824s0.817-1.825 1.824-1.825zM2.984 22.57c0.525 0 0.95-0.425 0.95-0.949s-0.425-0.95-0.95-0.95c-0.524 0-0.949 0.425-0.949 0.95s0.425 0.949 0.949 0.949zM2.984 19.795c1.007 0 1.824 0.817 1.824 1.825s-0.817 1.824-1.824 1.824c-1.007 0-1.824-0.817-1.824-1.824s0.817-1.825 1.824-1.825zM7.153 22.57c0.524 0 0.95-0.425 0.95-0.949s-0.425-0.95-0.95-0.95c-0.525 0-0.95 0.425-0.95 0.95s0.425 0.949 0.95 0.949zM7.153 19.795c1.007 0 1.824 0.817 1.824 1.825s-0.817 1.824-1.824 1.824c-1.007 0-1.824-0.817-1.824-1.824s0.817-1.825 1.824-1.825z"></path>
<path fill="#8c8c8c" d="M22.454 19.474h-22.102c-0.193 0-0.352-0.158-0.352-0.352v-8.419c0-0.193 0.159-0.352 0.352-0.352h22.102c0.193 0 0.352 0.158 0.352 0.352v8.419c0 0.193-0.158 0.352-0.352 0.352z"></path>
</svg>
