<!-- Generated by IcoMoon.io -->
<svg version="1.1" xmlns="http://www.w3.org/2000/svg" width="32" height="32" viewBox="0 0 32 32">
<title>Tracking-Delivery-Delayed</title>
<path fill="#8c8c8c" d="M29.085 13.711l-2.103-1.87v-2.365h0.499v2.099l1.916 1.702-0.312 0.433zM27.332 7.414c2.187 0 3.966 1.977 3.966 4.406 0 1.967-1.166 3.636-2.77 4.201v-0.825c1.212-0.532 2.072-1.843 2.072-3.376 0-2.002-1.465-3.63-3.267-3.63s-3.267 1.628-3.267 3.63c0 0.103 0.006 0.205 0.014 0.305h-0.698c-0.006-0.101-0.014-0.202-0.014-0.305 0-2.43 1.779-4.406 3.966-4.406z"></path>
<path fill="#000" d="M21.985 21.164h-5.296c0.065-0.17 0.103-0.353 0.103-0.545 0-0.397-0.155-0.758-0.407-1.031h5.049v-6.328c0-0.288 0.249-0.499 0.54-0.499l4.206 0.544c1.249 0.175 1.286 1.638 1.274 2.221h-4.245c0 0-0.255 0.010-0.255 0.204s0.017 0.362 0.049 0.57c0.032 0.208 0.133 0.426 0.532 0.52s3.888 0.758 3.888 0.758v2.969c0 0.288-0.211 0.617-0.502 0.617h-1.265v-0.617c0-0.977-0.78-1.77-1.768-1.77s-1.767 0.792-1.767 1.77v0.617h-0.136zM8.265 21.322c0.401-0.002 0.724-0.325 0.721-0.721s-0.329-0.716-0.729-0.714c-0.4 0.002-0.723 0.325-0.721 0.721s0.329 0.716 0.729 0.714zM8.254 19.225c0.769-0.004 1.397 0.61 1.4 1.371s-0.616 1.382-1.385 1.386c-0.77 0.004-1.397-0.61-1.401-1.371s0.616-1.382 1.386-1.386zM14.956 21.322c0.401-0.002 0.724-0.325 0.721-0.721s-0.329-0.716-0.729-0.714c-0.4 0.002-0.723 0.325-0.721 0.721s0.329 0.716 0.729 0.714zM14.945 19.225c0.769-0.004 1.397 0.61 1.4 1.371s-0.616 1.382-1.385 1.386c-0.77 0.004-1.397-0.61-1.401-1.371s0.616-1.382 1.386-1.386zM4.939 21.339c0.401-0.002 0.724-0.325 0.721-0.721s-0.329-0.716-0.729-0.714c-0.4 0.002-0.723 0.325-0.721 0.721s0.329 0.716 0.729 0.714zM4.927 19.242c0.769-0.004 1.397 0.61 1.4 1.371s-0.616 1.382-1.385 1.386c-0.77 0.004-1.397-0.61-1.401-1.371s0.616-1.382 1.386-1.386zM23.858 21.316c0.395 0 0.715-0.317 0.715-0.708s-0.32-0.708-0.715-0.708-0.715 0.317-0.715 0.708c0 0.391 0.32 0.708 0.715 0.708zM23.858 19.248c0.759 0 1.374 0.609 1.374 1.36s-0.615 1.36-1.374 1.36-1.374-0.609-1.374-1.36c0-0.751 0.615-1.36 1.374-1.36zM20.493 12c0.096 0 0.174 0.078 0.174 0.172v6.55c0 0.095-0.078 0.173-0.174 0.173l-17.066-0c-0.096 0-0.174-0.078-0.174-0.172v-0.519h16.725v-5.518h-16.725v-0.513c0-0.095 0.078-0.172 0.174-0.172h17.066zM3.784 15.788h-1.978l1.225 1.232-0.699 0.672-2.332-2.344 2.338-2.295 0.692 0.679-1.117 1.096h1.871v-1.607h14.959v4.388h-14.959v-1.82z"></path>
</svg>
