<!-- Generated by IcoMoon.io -->
<svg version="1.1" xmlns="http://www.w3.org/2000/svg" width="32" height="32" viewBox="0 0 32 32">
<title>Tracking-Logistics-Time</title>
<path fill="#8c8c8c" d="M27.116 17.112l-4.215-3.373v-4.269h1v3.788l3.84 3.072-0.625 0.782zM23.603 5.75c3.921 0.002 7.256 2.862 7.854 6.737s-1.719 7.608-5.457 8.792v-1.489c3.074-1.209 4.767-4.517 3.949-7.717s-3.889-5.291-7.166-4.877c-3.277 0.413-5.733 3.202-5.73 6.505 0 0.185 0.013 0.368 0.028 0.55h-1.4c-0.012-0.182-0.028-0.364-0.028-0.55 0.005-4.389 3.561-7.945 7.95-7.95z"></path>
<path fill="#000" d="M20.808 23.036c0.778 0 1.41 0.631 1.41 1.41s-0.631 1.41-1.41 1.41c-0.778 0-1.41-0.631-1.41-1.41s0.631-1.41 1.41-1.41zM20.808 25.179c0.405 0 0.733-0.328 0.733-0.733s-0.328-0.733-0.733-0.733c-0.405 0-0.733 0.328-0.733 0.733s0.328 0.733 0.733 0.733zM20.143 19.18c0 0-0.262 0.010-0.26 0.21 0.001 0.198 0.018 0.396 0.050 0.591 0.033 0.285 0.261 0.509 0.546 0.538 0.409 0.097 3.989 0.786 3.989 0.786v3.076c0 0.299-0.215 0.639-0.515 0.639h-1.3v-0.64c0-1.001-0.812-1.813-1.813-1.813s-1.813 0.812-1.813 1.813v0.64h-5.573c0.216-0.559 0.095-1.192-0.312-1.633h5.181v-6.556c0.004-0.142 0.065-0.277 0.169-0.374s0.243-0.149 0.385-0.143l4.316 0.564c1.282 0.178 1.32 1.695 1.307 2.3h-4.357zM11.622 23.050c0.778 0 1.409 0.631 1.409 1.41s-0.631 1.41-1.409 1.41c-0.778 0-1.409-0.631-1.409-1.41s0.631-1.41 1.409-1.41zM11.622 25.193v-0.003c0.404 0 0.732-0.327 0.733-0.731 0-0.297-0.179-0.564-0.453-0.678s-0.59-0.051-0.799 0.159c-0.21 0.21-0.273 0.525-0.159 0.799s0.381 0.453 0.678 0.453zM2.305 23.050c0.778 0 1.409 0.631 1.409 1.41s-0.631 1.41-1.409 1.41c-0.778 0-1.409-0.631-1.409-1.41s0.631-1.41 1.409-1.41zM2.305 25.193v-0.003c0.404 0 0.732-0.327 0.733-0.731 0-0.405-0.328-0.733-0.734-0.733s-0.734 0.328-0.734 0.733c0 0.405 0.328 0.733 0.734 0.733zM5.526 23.050c0.778 0 1.41 0.631 1.41 1.41s-0.631 1.41-1.409 1.41c-0.778 0-1.409-0.631-1.409-1.41s0.631-1.41 1.409-1.41zM5.526 25.193v-0.003c0.404 0 0.732-0.327 0.734-0.731 0-0.405-0.328-0.733-0.734-0.733s-0.734 0.328-0.734 0.733c0 0.405 0.328 0.733 0.734 0.733zM0.543 15.752h16.532c0.3 0 0.543 0.243 0.543 0.543v5.961c0 0.3-0.243 0.543-0.543 0.543h-16.532c-0.3 0-0.543-0.243-0.543-0.543v-5.961c0-0.3 0.243-0.543 0.543-0.543z"></path>
</svg>
