<!-- Generated by IcoMoon.io -->
<svg version="1.1" xmlns="http://www.w3.org/2000/svg" width="32" height="32" viewBox="0 0 32 32">
<title>Tracking-Gate-Out</title>
<path fill="#000" d="M26.957 19.84h-4.898c0.196-0.481 0.090-1.027-0.274-1.407h4.665v-5.646c0.004-0.122 0.058-0.238 0.151-0.322s0.218-0.128 0.345-0.123l3.88 0.484c1.152 0.155 1.174 1.457 1.174 1.983h-3.913c0 0-0.236 0.008-0.236 0.181 0.001 0.171 0.015 0.341 0.044 0.51 0.030 0.246 0.234 0.438 0.491 0.463 0.368 0.084 3.584 0.678 3.584 0.678v2.648c0 0.255-0.189 0.55-0.464 0.55h-1.166v-0.552c0.025-0.573-0.28-1.113-0.794-1.406s-1.154-0.293-1.668 0c-0.514 0.293-0.819 0.833-0.794 1.406v0.552h-0.126zM28.683 18.131c0.7 0 1.268 0.544 1.268 1.215s-0.568 1.215-1.268 1.215c-0.7 0-1.268-0.544-1.268-1.215s0.568-1.215 1.268-1.215zM20.429 18.142c0.7 0 1.268 0.544 1.268 1.215s-0.568 1.215-1.268 1.215c-0.7 0-1.268-0.544-1.268-1.215s0.568-1.215 1.268-1.215zM10.411 18.142c0.7 0 1.268 0.544 1.268 1.215s-0.568 1.215-1.268 1.215c-0.7 0-1.268-0.544-1.268-1.215s0.568-1.215 1.268-1.215zM13.303 18.142c0.7 0 1.268 0.544 1.268 1.215s-0.568 1.215-1.268 1.215c-0.7 0-1.268-0.544-1.268-1.215s0.568-1.215 1.268-1.215zM3.878 13.257l2.522 2.487-2.516 2.541-0.756-0.729 1.322-1.334h-2.164v-1.040h2.050l-1.206-1.187 0.748-0.738zM0 10.057h0.914v11.886h-0.914v-11.886zM28.683 19.972v0.005c0.176 0 0.344-0.067 0.468-0.187s0.192-0.281 0.191-0.45c0-0.349-0.295-0.631-0.659-0.631s-0.659 0.283-0.659 0.631c0 0.349 0.295 0.631 0.659 0.631zM20.429 19.982v0.005c0.176 0 0.344-0.067 0.468-0.187s0.192-0.281 0.191-0.45c0-0.255-0.16-0.485-0.407-0.583s-0.529-0.044-0.718 0.137c-0.188 0.18-0.245 0.452-0.143 0.688s0.342 0.39 0.608 0.39zM10.411 19.982v0.005c0.176 0 0.344-0.067 0.468-0.187s0.192-0.281 0.191-0.45c0-0.255-0.16-0.485-0.407-0.583s-0.529-0.044-0.718 0.137c-0.188 0.18-0.245 0.452-0.143 0.688s0.342 0.39 0.608 0.39zM13.303 19.982v0.005c0.176 0 0.344-0.067 0.468-0.187s0.192-0.281 0.191-0.45c0-0.255-0.16-0.485-0.407-0.583s-0.529-0.044-0.718 0.137c-0.188 0.18-0.245 0.452-0.143 0.688s0.342 0.39 0.608 0.39z"></path>
<path fill="#8c8c8c" d="M9.512 11.429h15.371c0.552 0 1 0.448 1 1v4.4c0 0.552-0.448 1-1 1h-15.371c-0.552 0-1-0.448-1-1v-4.4c0-0.552 0.448-1 1-1z"></path>
</svg>
