<!-- Generated by IcoMoon.io -->
<svg version="1.1" xmlns="http://www.w3.org/2000/svg" width="32" height="32" viewBox="0 0 32 32">
<title>Tracking-Collection</title>
<path fill="#8c8c8c" d="M25.699 21.189h-6.095c0.075-0.197 0.118-0.41 0.118-0.634 0-0.461-0.179-0.882-0.468-1.198h5.811v-7.357c0-0.334 0.286-0.58 0.621-0.58l4.842 0.632c1.438 0.203 1.48 1.905 1.466 2.582h-4.886c0 0-0.293 0.012-0.293 0.237s0.020 0.421 0.056 0.663c0.036 0.242 0.154 0.495 0.613 0.604s4.475 0.882 4.475 0.882v3.452c0 0.335-0.243 0.717-0.578 0.717h-1.455v-0.718c0-1.137-0.898-2.058-2.035-2.058-1.135 0-2.034 0.921-2.034 2.058v0.718h-0.157zM9.907 21.372c0.461-0.002 0.833-0.378 0.83-0.839s-0.378-0.833-0.839-0.83c-0.461 0.003-0.833 0.378-0.83 0.839s0.378 0.833 0.839 0.83zM9.894 18.934c0.885-0.005 1.607 0.709 1.612 1.595s-0.709 1.607-1.595 1.612c-0.886 0.005-1.607-0.709-1.612-1.595s0.709-1.607 1.595-1.612zM17.608 21.372c0.461-0.002 0.833-0.378 0.83-0.839s-0.378-0.833-0.839-0.83c-0.461 0.003-0.833 0.378-0.83 0.839s0.378 0.833 0.839 0.83zM17.595 18.934c0.885-0.005 1.607 0.709 1.612 1.595s-0.709 1.607-1.595 1.612c-0.886 0.005-1.607-0.709-1.612-1.595s0.709-1.607 1.595-1.612zM6.078 21.392c0.461-0.002 0.833-0.378 0.83-0.839s-0.378-0.833-0.839-0.83c-0.461 0.003-0.833 0.378-0.83 0.839s0.378 0.833 0.839 0.83zM6.065 18.954c0.885-0.005 1.607 0.709 1.612 1.595s-0.709 1.607-1.595 1.612c-0.886 0.005-1.607-0.709-1.612-1.595s0.709-1.607 1.595-1.612zM27.854 21.366c0.454 0 0.823-0.369 0.823-0.823s-0.369-0.823-0.823-0.823-0.823 0.369-0.823 0.823c0 0.455 0.369 0.823 0.823 0.823zM27.854 18.961c0.873 0 1.581 0.708 1.581 1.581s-0.708 1.581-1.581 1.581-1.581-0.708-1.581-1.581c0-0.873 0.708-1.581 1.581-1.581zM23.98 10.533c0.11 0 0.201 0.090 0.201 0.2v7.617c0 0.11-0.090 0.201-0.201 0.201l-19.643-0.001c-0.11 0-0.201-0.090-0.201-0.201v-0.603h19.251v-6.417h-19.251v-0.597c0-0.11 0.090-0.2 0.201-0.2h19.643z"></path>
<path fill="#000" d="M17.218 14.945v2.117h-17.218v-5.102h17.218v1.869h2.154l-1.285-1.275 0.796-0.789 2.691 2.668-2.684 2.726-0.805-0.781 1.41-1.433h-2.276z"></path>
</svg>
