<!-- Generated by IcoMoon.io -->
<svg version="1.1" xmlns="http://www.w3.org/2000/svg" width="32" height="32" viewBox="0 0 32 32">
<title>Truck-L-121m-19m</title>
<path fill="#000" d="M5.623 19.431c0.662 0 1.198 0.537 1.198 1.198s-0.537 1.198-1.198 1.198c-0.662 0-1.198-0.537-1.198-1.198s0.537-1.198 1.198-1.198zM5.623 21.266v0.001c0.167 0 0.326-0.066 0.444-0.184s0.184-0.278 0.183-0.445v-0.005c-0.001-0.255-0.155-0.484-0.391-0.581s-0.507-0.042-0.686 0.139c-0.18 0.181-0.232 0.452-0.134 0.687s0.329 0.388 0.584 0.387zM8.51 19.431c0.662 0 1.198 0.537 1.198 1.198s-0.537 1.198-1.198 1.198c-0.662 0-1.198-0.537-1.198-1.198s0.537-1.198 1.198-1.198zM8.51 21.266v0.001c0.167 0 0.326-0.066 0.444-0.184s0.184-0.278 0.183-0.445v-0.005c-0.001-0.255-0.155-0.484-0.391-0.581s-0.507-0.042-0.686 0.139c-0.18 0.181-0.232 0.452-0.134 0.687s0.329 0.388 0.584 0.387zM2.742 19.431c0.662 0 1.198 0.537 1.198 1.198s-0.537 1.198-1.198 1.198c-0.662 0-1.198-0.537-1.198-1.198s0.537-1.198 1.198-1.198zM2.742 21.266l0.007 0.001c0.167 0 0.326-0.066 0.444-0.184s0.184-0.278 0.183-0.445c0.001-0.348-0.279-0.631-0.627-0.633s-0.631 0.278-0.633 0.626c-0.002 0.348 0.278 0.631 0.625 0.634zM28.735 19.423c0.662 0 1.198 0.537 1.198 1.198s-0.537 1.198-1.198 1.198c-0.662 0-1.198-0.537-1.198-1.198s0.537-1.198 1.198-1.198zM28.735 21.259v-0.001c0.166 0 0.326-0.066 0.444-0.184s0.184-0.277 0.184-0.444v-0.004c-0.001-0.255-0.155-0.484-0.391-0.581s-0.507-0.042-0.686 0.139c-0.18 0.181-0.232 0.452-0.134 0.687s0.329 0.388 0.584 0.387zM20.863 19.431c0.662 0 1.198 0.537 1.198 1.198s-0.537 1.198-1.198 1.198c-0.662 0-1.198-0.537-1.198-1.198s0.537-1.198 1.198-1.198zM20.863 21.266v0.001c0.167 0 0.326-0.066 0.444-0.184s0.184-0.278 0.183-0.445v-0.005c-0.001-0.255-0.155-0.484-0.391-0.581s-0.507-0.042-0.686 0.139c-0.18 0.181-0.232 0.452-0.134 0.687s0.329 0.388 0.584 0.387zM28.164 16.117c0 0-0.225 0.010-0.217 0.181-0 0.17 0.014 0.34 0.043 0.508 0.028 0.244 0.223 0.435 0.467 0.459 0.348 0.084 3.417 0.675 3.417 0.675v2.635c0 0.256-0.188 0.549-0.443 0.549h-1.112v-0.58c-0.009-0.86-0.713-1.55-1.573-1.541s-1.55 0.713-1.541 1.573v0.549h-4.774c0.185-0.479 0.081-1.022-0.268-1.399h4.434v-5.619c-0-0.001-0-0.002 0-0.003 0.006-0.122 0.059-0.236 0.149-0.318s0.209-0.124 0.331-0.118l3.697 0.479c1.097 0.153 1.119 1.454 1.119 1.971h-3.73zM25.86 13.082c0.073 0 0.13 0.068 0.13 0.151v5.749c0 0.083-0.058 0.151-0.13 0.151h-25.716c-0.072 0-0.13-0.068-0.13-0.151v-5.749c0-0.083 0.058-0.151 0.13-0.151h25.716z"></path>
</svg>
