<!-- Generated by IcoMoon.io -->
<svg version="1.1" xmlns="http://www.w3.org/2000/svg" width="32" height="32" viewBox="0 0 32 32">
<title>Truck-Front</title>
<path fill="#8c8c8c" d="M20.637 12.487c0.896 0 1.623-0.726 1.623-1.623s-0.726-1.623-1.623-1.623c-0.896 0-1.623 0.726-1.623 1.623s0.727 1.623 1.623 1.623zM23.431 15.94l-0.278-1.534-0.001-0.004c-0.017-0.26-0.104-0.501-0.243-0.705-0.258-0.382-0.695-0.634-1.188-0.634h-2.189c-0.758 0-1.383 0.595-1.431 1.341l-0.174 1.779z"></path>
<path fill="#000" d="M26.459 15.557c-0.183-0.486-0.653-0.835-1.201-0.835h-17.923c-0.548 0-1.019 0.348-1.201 0.835 0.141-0.706 0.464-2.202 1.078-4.54 0.543-2.063 1.597-2.436 2.832-2.484h0.811c0.37 0.008 0.75 0.019 1.13 0h8.623c0.381 0.019 0.76 0.008 1.13 0h0.811c1.235 0.048 2.289 0.421 2.832 2.484 0.615 2.337 0.937 3.834 1.078 4.54zM25.796 25.028c0 0.627-0.513 1.14-1.14 1.14h-1.34c-0.627 0-1.14-0.513-1.14-1.14v-0.254c0-0.627 0.513-1.14 1.14-1.14h1.34c0.627 0 1.14 0.513 1.14 1.14v0.254zM16.316 18.659h-5.674c-0.158-0.668-0.336-1.303-0.531-1.901h12.372c-0.195 0.598-0.373 1.233-0.531 1.901h-5.636zM21.349 22.099h-10.106c-0.078-0.653-0.172-1.288-0.282-1.901h10.67c-0.11 0.613-0.204 1.248-0.282 1.901zM21.105 25.538h-9.618c-0.016-0.645-0.048-1.279-0.095-1.901h9.808c-0.047 0.621-0.079 1.256-0.095 1.901zM10.417 25.028c0 0.627-0.513 1.14-1.14 1.14h-1.34c-0.627 0-1.14-0.513-1.14-1.14v-0.254c0-0.627 0.513-1.14 1.14-1.14h1.34c0.627 0 1.14 0.513 1.14 1.14v0.254zM28.977 9.033c-0.048 0-0.096 0.003-0.143 0.007l0.006-0.020-0.080 0.029c-0.189 0.029-0.366 0.095-0.524 0.19l-2.237 0.813-0.374-4.053-0.266-4.328c0-0.706-0.577-1.283-1.283-1.283 0 0-3.994-0.339-7.761-0.341h-0.037c-3.767 0.002-7.761 0.341-7.761 0.341-0.706 0-1.283 0.577-1.283 1.283l-0.26 4.33-0.38 4.051-2.237-0.813c-0.158-0.095-0.335-0.161-0.524-0.19l-0.080-0.029 0.006 0.020c-0.047-0.005-0.095-0.007-0.143-0.007h-0.175c-0.792 0-1.44 0.648-1.44 1.44v2.676c0 0.792 0.648 1.44 1.44 1.44h0.175c0.792 0 1.44-0.648 1.44-1.44v-1.84h1.422l-0.436 4.724c0 0 0.003-0.019 0.010-0.056-0 0.009-0.001 0.018-0.001 0.027v9.382c0 0.706 0.577 1.283 1.283 1.283h-1.373c-0.299 0-0.543 0.244-0.543 0.543v1.991c0 0.299 0.244 0.543 0.543 0.543h0.701v1.064c0 0.647 0.529 1.177 1.177 1.177h3.405c0.647 0 1.177-0.53 1.177-1.177l0.049-1.064h7.653l0.049 1.064c0 0.647 0.529 1.177 1.177 1.177h3.405c0.647 0 1.177-0.53 1.177-1.177v-1.064h0.701c0.299 0 0.543-0.244 0.543-0.543v-1.991c0-0.299-0.244-0.543-0.543-0.543h-1.373c0.706 0 1.283-0.577 1.283-1.283v-9.382c0-0.009-0-0.018-0.001-0.027 0.007 0.037 0.010 0.056 0.010 0.056l-0.436-4.724h1.422v1.84c0 0.792 0.648 1.44 1.44 1.44h0.175c0.792 0 1.44-0.648 1.44-1.44v-2.676c0-0.792-0.648-1.44-1.44-1.44h-0.175z"></path>
</svg>
