<!-- Generated by IcoMoon.io -->
<svg version="1.1" xmlns="http://www.w3.org/2000/svg" width="32" height="32" viewBox="0 0 32 32">
<title>Truck-M-81-12m</title>
<path fill="#000" d="M7.703 21.097c0.449 0.015 0.836-0.315 0.893-0.76s-0.234-0.862-0.673-0.961c-0.438-0.099-0.88 0.152-1.020 0.579s0.068 0.89 0.48 1.070c0.102 0.042 0.21 0.064 0.32 0.065v0.007zM7.719 18.605c0.91-0.002 1.648 0.735 1.65 1.644s-0.735 1.648-1.644 1.65c-0.91 0.002-1.648-0.735-1.65-1.644v-0.005c0-0.908 0.736-1.644 1.644-1.644zM16.949 18.59c0.91-0.002 1.648 0.735 1.65 1.644s-0.735 1.648-1.644 1.65c-0.91 0.002-1.648-0.735-1.65-1.644v-0.005c0.001-0.904 0.732-1.639 1.636-1.644h0.008zM27.677 18.59c0.902 0.005 1.631 0.738 1.628 1.641s-0.734 1.633-1.637 1.633c-0.902 0-1.634-0.73-1.637-1.633s0.726-1.636 1.628-1.641h0.016zM25.438 20.931h-6.45c0.26-0.661 0.12-1.412-0.361-1.934h6.145v-7.61c0.005-0.165 0.077-0.322 0.198-0.435s0.282-0.173 0.447-0.166l5.031 0.654c1.493 0.208 1.523 1.968 1.523 2.67h-5.061c0 0-0.305 0-0.305 0.246-0.006 0.229 0.006 0.459 0.037 0.686 0.043 0.332 0.311 0.589 0.645 0.617 0.478 0.115 4.646 0.918 4.646 0.918v3.578c0 0.344-0.246 0.742-0.601 0.742h-1.503v-0.739c0.042-1.167-0.857-2.16-2.023-2.219-0.597-0.031-1.18 0.193-1.603 0.616s-0.647 1.006-0.616 1.603v0.773h-0.149zM4.016 18.582c0.91-0.002 1.648 0.735 1.65 1.644s-0.735 1.648-1.644 1.65c-0.91 0.002-1.648-0.735-1.65-1.644v-0.005c0-0.908 0.736-1.644 1.644-1.644zM16.962 21.101c0.476-0.002 0.86-0.389 0.859-0.865s-0.387-0.861-0.863-0.861c-0.476 0-0.862 0.385-0.863 0.861s0.383 0.863 0.859 0.865h0.008zM0.195 10.106h23.55c0.046-0.001 0.091 0.016 0.124 0.048s0.053 0.076 0.054 0.122v7.874c-0.001 0.046-0.020 0.090-0.054 0.122s-0.078 0.049-0.124 0.048h-23.567c-0.046 0.001-0.091-0.016-0.124-0.048s-0.053-0.076-0.054-0.122v-7.875c0.001-0.046 0.020-0.090 0.054-0.122s0.078-0.049 0.124-0.048h0.017v0.001zM27.661 21.084c0.474 0.003 0.861-0.379 0.864-0.853s-0.379-0.861-0.853-0.864c-0.474-0.003-0.861 0.379-0.864 0.853v0.014c-0.002 0.466 0.37 0.848 0.836 0.858l0.017-0.008zM4 21.075c0.449 0.015 0.836-0.315 0.893-0.76s-0.234-0.862-0.673-0.961c-0.438-0.099-0.88 0.152-1.020 0.579s0.068 0.89 0.48 1.070c0.102 0.042 0.21 0.064 0.32 0.064v0.008z"></path>
</svg>
