<!-- Generated by IcoMoon.io -->
<svg version="1.1" xmlns="http://www.w3.org/2000/svg" width="32" height="32" viewBox="0 0 32 32">
<title>Truck-S-8m</title>
<path fill="#000" d="M2.034 21.862c0.516 0.017 0.961-0.362 1.026-0.875s-0.269-0.991-0.773-1.105c-0.504-0.114-1.012 0.174-1.173 0.665s0.078 1.024 0.551 1.231c0.117 0.048 0.242 0.073 0.368 0.074v0.009zM2.051 18.996c1.046-0.002 1.896 0.845 1.897 1.891s-0.845 1.896-1.891 1.897c-1.046 0.002-1.896-0.845-1.897-1.891v-0.006c0-1.044 0.847-1.891 1.891-1.891zM0.217 9.222h22.485c0.094 0 0.17 0.087 0.17 0.195v9.055c0 0.107-0.078 0.195-0.17 0.195h-22.503c-0.094 0-0.17-0.087-0.17-0.195v-9.056c0-0.107 0.078-0.195 0.17-0.195h0.016l0.001 0.001zM27.016 21.847c0.545 0.003 0.99-0.436 0.994-0.981s-0.436-0.99-0.981-0.994c-0.545-0.003-0.99 0.436-0.994 0.981v0.016c-0.002 0.536 0.426 0.975 0.962 0.987l0.019-0.009zM27.035 18.978c1.038 0.005 1.875 0.849 1.873 1.887s-0.845 1.877-1.882 1.877c-1.038 0-1.88-0.84-1.882-1.877s0.835-1.882 1.873-1.887h0.019zM24.459 21.671h-20.043c0.299-0.76 0.138-1.624-0.416-2.224h19.692v-8.751c0.006-0.19 0.088-0.37 0.227-0.5 0.138-0.13 0.323-0.199 0.513-0.19l5.785 0.752c1.717 0.24 1.751 2.263 1.751 3.070h-5.819c0 0-0.351 0-0.351 0.283-0.007 0.264 0.007 0.528 0.043 0.789 0.049 0.382 0.358 0.677 0.741 0.709 0.55 0.132 5.343 1.056 5.343 1.056v4.114c0 0.396-0.283 0.853-0.692 0.853h-1.728v-0.85c0.048-1.342-0.985-2.484-2.327-2.551-0.687-0.036-1.357 0.222-1.843 0.708s-0.744 1.156-0.708 1.843v0.889h-0.169z"></path>
</svg>
