<!-- Generated by IcoMoon.io -->
<svg version="1.1" xmlns="http://www.w3.org/2000/svg" width="32" height="32" viewBox="0 0 32 32">
<title>Warehouse-Reefer</title>
<path fill="#000" d="M2.792 22.631h5.278v2.578h-6.199l0.921-2.578zM8.445 25.209v-2.578h7.137v2.578h-7.137zM15.963 25.209v-2.578h7.137v2.578h-7.137zM23.476 22.631h5.299l0.921 2.578h-6.22v-2.578zM8.445 22.25v-2.579h7.137v2.579h-7.137zM15.963 22.25v-2.579h7.137v2.579h-7.137zM23.476 19.672h4.243l0.921 2.579h-5.164v-2.579zM23.476 16.722h3.19l0.921 2.579h-4.11v-2.579zM15.768 6l15.772 3.376v15.838h-1.404l-3.201-8.873h-22.33l-3.2 8.873h-1.405v-15.838l15.768-3.376z"></path>
<path fill="#8c8c8c" d="M19.477 10.803h-0.346l0.191-0.331c0.119-0.207 0.049-0.471-0.159-0.59s-0.47-0.049-0.59 0.158l-0.441 0.763h-1.613l0.806-1.398h0.881c0.238 0 0.432-0.193 0.432-0.432s-0.193-0.432-0.432-0.432h-0.382l0.174-0.3c0.119-0.207 0.048-0.471-0.159-0.59s-0.471-0.048-0.59 0.158l-0.173 0.3-0.191-0.33c-0.12-0.207-0.384-0.278-0.59-0.159s-0.278 0.384-0.159 0.59l0.441 0.763-0.807 1.397-0.807-1.397 0.441-0.763c0.119-0.207 0.048-0.471-0.158-0.59s-0.471-0.048-0.59 0.159l-0.191 0.33-0.173-0.3c-0.119-0.206-0.384-0.278-0.59-0.158s-0.277 0.384-0.158 0.59l0.173 0.3h-0.382c-0.238 0-0.432 0.194-0.432 0.432s0.193 0.432 0.432 0.432h0.881l0.807 1.398h-1.614l-0.441-0.763c-0.119-0.206-0.384-0.278-0.59-0.158s-0.277 0.384-0.158 0.59l0.191 0.331h-0.346c-0.239 0-0.432 0.193-0.432 0.432s0.193 0.432 0.432 0.432h0.346l-0.191 0.331c-0.12 0.207-0.049 0.471 0.158 0.59 0.068 0.039 0.143 0.058 0.216 0.058 0.149 0 0.294-0.077 0.375-0.216l0.441-0.763h1.614l-0.807 1.397h-0.881c-0.238 0-0.432 0.194-0.432 0.432s0.193 0.432 0.432 0.432h0.382l-0.173 0.3c-0.119 0.207-0.048 0.471 0.158 0.59 0.068 0.039 0.142 0.058 0.216 0.058 0.149 0 0.294-0.077 0.375-0.216l0.173-0.301 0.191 0.331c0.080 0.139 0.225 0.216 0.375 0.216 0.073 0 0.147-0.019 0.216-0.058 0.206-0.119 0.277-0.384 0.158-0.59l-0.441-0.763 0.807-1.397 0.807 1.397-0.441 0.763c-0.119 0.207-0.049 0.471 0.159 0.59 0.068 0.039 0.142 0.058 0.215 0.058 0.149 0 0.294-0.077 0.375-0.216l0.191-0.331 0.173 0.3c0.080 0.139 0.225 0.216 0.375 0.216 0.073 0 0.147-0.019 0.216-0.058 0.207-0.12 0.277-0.384 0.159-0.59l-0.174-0.3h0.382c0.238 0 0.432-0.193 0.432-0.432s-0.193-0.432-0.432-0.432h-0.881l-0.806-1.397h1.614l0.44 0.763c0.080 0.139 0.225 0.216 0.374 0.216 0.074 0 0.148-0.019 0.216-0.058 0.207-0.12 0.278-0.384 0.159-0.59l-0.191-0.331h0.346c0.239 0 0.432-0.193 0.432-0.432s-0.193-0.432-0.432-0.432z"></path>
</svg>
