<!-- Generated by IcoMoon.io -->
<svg version="1.1" xmlns="http://www.w3.org/2000/svg" width="32" height="32" viewBox="0 0 32 32">
<title>Warehouse-High-Value</title>
<path fill="#000" d="M2.792 22.631h5.278v2.578h-6.199l0.921-2.578zM8.445 25.209v-2.578h7.137v2.578h-7.137zM15.963 25.209v-2.578h7.137v2.578h-7.137zM23.476 22.631h5.299l0.921 2.578h-6.22v-2.578zM8.445 22.25v-2.579h7.137v2.579h-7.137zM15.963 22.25v-2.579h7.137v2.579h-7.137zM23.476 19.672h4.243l0.921 2.579h-5.164v-2.579zM23.476 16.722h3.19l0.921 2.579h-4.11v-2.579zM15.768 6l15.772 3.376v15.838h-1.404l-3.201-8.873h-22.33l-3.2 8.873h-1.405v-15.838l15.768-3.376z"></path>
<path fill="#8c8c8c" d="M17.346 10.827h-3.15v-0.505c0-0.869 0.706-1.575 1.575-1.575s1.575 0.706 1.575 1.575v0.505zM16.086 12.945v0.678c0 0.174-0.141 0.315-0.315 0.315s-0.315-0.141-0.315-0.315v-0.678c-0.187-0.109-0.315-0.31-0.315-0.543 0-0.348 0.282-0.63 0.63-0.63s0.63 0.282 0.63 0.63c0 0.233-0.128 0.434-0.315 0.543zM17.975 10.827v-0.505c0-1.216-0.989-2.205-2.205-2.205s-2.205 0.989-2.205 2.205v0.505c-0.173 0-0.315 0.142-0.315 0.315v3.15c0 0.173 0.142 0.315 0.315 0.315h4.41c0.173 0 0.315-0.142 0.315-0.315v-3.15c0-0.173-0.142-0.315-0.315-0.315z"></path>
</svg>
