<!-- Generated by IcoMoon.io -->
<svg version="1.1" xmlns="http://www.w3.org/2000/svg" width="32" height="32" viewBox="0 0 32 32">
<title>Warehouse</title>
<path fill="#8c8c8c" d="M1 25.487v-2.578h7.135v2.578h-7.135zM8.515 25.487v-2.578h7.135v2.578h-7.135zM16.030 25.487v-2.578h7.135v2.578h-7.135zM23.546 25.487v-2.578h7.135v2.578h-7.135zM8.515 22.53v-2.578h7.135v2.578h-7.135zM16.030 22.53v-2.578h7.135v2.578h-7.135zM23.546 22.53v-2.578h7.135v2.578h-7.135zM23.546 19.578v-2.578h7.135v2.578h-7.135z"></path>
<path fill="#000" d="M16 6l-16 3.424v16.070h1.424l3.25-13.512h22.651l3.251 13.512h1.424v-16.070z"></path>
</svg>
