<!-- Generated by IcoMoon.io -->
<svg version="1.1" xmlns="http://www.w3.org/2000/svg" width="32" height="32" viewBox="0 0 32 32">
<title>Weight-KG</title>
<path fill="#000" d="M28.9 25.040c0.54 3.72-1.060 6.4-6.38 6.4h-13.86c-5.34 0-7.46-2.68-6.4-6.4l2.68-10.66c0.311-1.691 1.255-3.2 2.64-4.22v-2.16c0-4.418 3.582-8 8-8s8 3.582 8 8v2.14c1.397 1.021 2.349 2.538 2.66 4.24l2.66 10.66zM9.72 8l0.020 0.86c1.167-0.542 2.434-0.835 3.72-0.86h4.26c1.286 0.025 2.553 0.318 3.72 0.86v-0.86c0-3.236-2.624-5.86-5.86-5.86s-5.86 2.624-5.86 5.86zM16.24 24.26c-0.022-0.094-0.063-0.183-0.12-0.26l-3.46-5.14 3.16-4.62c0.064-0.081 0.106-0.178 0.12-0.28 0-0.16-0.060-0.16-0.22-0.16h-2c-0.065-0.020-0.135-0.020-0.2 0l-0.16 0.2-2.56 3.9h-0.92v-3.9c0.016-0.067-0.005-0.138-0.053-0.187s-0.119-0.069-0.187-0.053h-1.82c-0.067-0.016-0.138 0.005-0.187 0.053s-0.069 0.119-0.053 0.187v10.16c-0.016 0.067 0.005 0.138 0.053 0.187s0.119 0.069 0.187 0.053h1.82c0.067 0.016 0.138-0.005 0.187-0.053s0.069-0.119 0.053-0.187v-4.16h0.9l2.68 4.22 0.16 0.2c0.065 0.020 0.135 0.020 0.2 0h2.2c0.22 0 0.22-0.060 0.22-0.16zM17.64 23.060c-0.001 0.347 0.128 0.682 0.36 0.94-0.35 0.045-0.674 0.207-0.92 0.46-0.223 0.299-0.336 0.667-0.32 1.040v0.22c-0.031 0.579 0.154 1.15 0.52 1.6 0.508 0.453 1.183 0.67 1.86 0.6h2.48c0.664 0.042 1.32-0.165 1.84-0.58 0.459-0.457 0.693-1.094 0.64-1.74v-0.42c0.033-0.471-0.101-0.939-0.38-1.32-0.379-0.348-0.852-0.577-1.36-0.66l-2.18-0.5c-0.168-0.019-0.324-0.097-0.44-0.22-0.079-0.147-0.114-0.314-0.1-0.48v-0.22h1.4c0.628 0.049 1.25-0.144 1.74-0.54 0.413-0.465 0.615-1.080 0.56-1.7v-0.32c0.024-0.139 0.024-0.281 0-0.42l-0.36-0.94h0.62c0.064 0.027 0.136 0.027 0.2 0 0.023-0.065 0.023-0.135 0-0.2v-1.12c0.020-0.065 0.020-0.135 0-0.2-0.064-0.027-0.136-0.027-0.2 0h-4.42c-0.632-0.055-1.259 0.147-1.74 0.56-0.413 0.481-0.615 1.108-0.56 1.74v0.94c-0.025 0.474 0.064 0.948 0.26 1.38 0.184 0.333 0.494 0.578 0.86 0.68l-0.36 0.52c-0.033 0.138-0.033 0.282 0 0.42v0.48zM19.020 26.12c-0.076-0.126-0.11-0.273-0.1-0.42v-0.26c-0.037-0.314 0.065-0.628 0.28-0.86l2 0.46 0.54 0.16c0.093 0.031 0.171 0.095 0.22 0.18 0.022 0.099 0.022 0.201 0 0.3 0.017 0.169-0.042 0.338-0.16 0.46-0.151 0.107-0.336 0.157-0.52 0.14h-1.7c-0.2 0.019-0.4-0.038-0.56-0.16zM19.020 20.12l0.040-0.12c-0.131-0.178-0.188-0.4-0.16-0.62v-0.62c-0.023-0.213 0.034-0.427 0.16-0.6 0.173-0.126 0.387-0.183 0.6-0.16h1c0.208-0 0.408 0.078 0.56 0.22 0.116 0.177 0.165 0.39 0.14 0.6v0.76c0.028 0.204-0.022 0.411-0.14 0.58-0.18 0.107-0.392 0.15-0.6 0.12h-1c-0.213 0.023-0.427-0.034-0.6-0.16z"></path>
</svg>
