<svg xmlns="http://www.w3.org/2000/svg" viewBox="0 0 32 32">
    <title>Arrivals-Ferry</title>
    <path fill="#000" fill-rule="evenodd" d="M16.5 14.16c2.9.35 7.55 3.3 7.55 5.6l-1.88 6.03c-.86.28-1.13 1.21-2.26 1.21-1.24 0-2.6-1.14-3.83-1.27l.42-11.57zm-8.8 5.6c0-2.3 4.65-5.25 7.55-5.6l.42 11.57c-1.24.13-2.59 1.27-3.83 1.27-1.13 0-1.4-.93-2.26-1.21L7.7 19.75zm2.7-7.44h11.16l-.03-.07c-.54-1.15-.94-1.13-3.86-1.13H14.3c-2.93 0-3.32-.02-3.87 1.13l-.03.07zm7.25-3.07H25l-.65 2.1h-1.6l1.15 6.8a14.13 14.13 0 00-3.85-3.67c1.84-.08 2.2-.36 1.86-1.34H10.05c-.32.94 0 1.24 1.68 1.33-1.74.99-3.19 2.85-3.83 4.21l1.34-7.33H7.65L7 9.25h7.35L15.45 5h1.1l1.1 4.25z"/>
</svg>
