<!-- Generated by IcoMoon.io -->
<svg version="1.1" xmlns="http://www.w3.org/2000/svg" width="32" height="32" viewBox="0 0 32 32">
<title>Baggage-Restrictions</title>
<path fill="#000" d="M8.749 12.217v-2.69h7.45v2.69h-7.45zM20.997 12.217h-1.545v-3.233c0-1.494-1.216-2.71-2.711-2.71h-8.534c-1.495 0-2.711 1.216-2.711 2.71v3.233h-4.413c-0.595 0-1.083 0.488-1.083 1.083v11.987c0 0.595 0.488 1.083 1.083 1.083h22.685c0.597 0 1.085-0.488 1.085-1.083v-9.241c-1.775-0.658-3.186-2.062-3.856-3.83z"></path>
<path fill="#8c8c8c" d="M29.608 8.225l-2.235 4.249c-0.081 0.153-0.226 0.262-0.397 0.296-0.038 0.008-0.075 0.011-0.113 0.011-0.133 0-0.263-0.046-0.367-0.131l-2.379-1.963c-0.246-0.203-0.28-0.566-0.078-0.811 0.202-0.245 0.566-0.28 0.811-0.078l1.833 1.513 1.905-3.622c0.147-0.281 0.496-0.391 0.777-0.242 0.282 0.149 0.391 0.497 0.242 0.778zM27.1 5c-2.706 0-4.899 2.194-4.899 4.899 0 2.706 2.193 4.901 4.899 4.901s4.899-2.194 4.899-4.901c0-2.705-2.193-4.899-4.899-4.899z"></path>
</svg>
