<svg width="24px" height="18px" viewBox="0 0 24 18" version="1.1" xmlns="http://www.w3.org/2000/svg">
<title>Basket</title>
<g id="Wireframes---experience" stroke="none" stroke-width="1" fill="none" fill-rule="evenodd">
<g id="SS_47" transform="translate(-243.000000, -16.000000)" fill="#68B2E3">
<g id="Navigation-/-Mobile-Close-Copy">
<g id="Toolbar" transform="translate(195.000000, 0.000000)">
<g id="Basket" transform="translate(48.000000, 16.000000)">
<g id="Group">
<path d="M22.08,8.51351351 L19.32,17.5743243 C19.26,17.8175676 19.02,18 18.78,18 L5.22,18 C4.92,18 4.68,17.7567568 4.62,17.5135135 L1.86,8.51351351 L0.6,8.51351351 C0.24,8.51351351 0,8.20945946 0,7.84459459 L0,4.92567568 C0,4.56081081 0.3,4.31756757 0.6,4.31756757 L6.18,4.31756757 L8.46,0.304054054 C8.88,-0.364864865 9.9,0.243243243 9.48,0.912162162 L7.56,4.31756757 L16.44,4.31756757 L14.46,0.912162162 C14.04,0.243243243 15.12,-0.364864865 15.48,0.304054054 L17.82,4.31756757 L23.4,4.31756757 C23.7,4.31756757 24,4.62162162 24,4.92567568 L24,7.90540541 C24,8.20945946 23.7,8.51351351 23.34,8.51351351 L22.08,8.51351351 Z M3.12,8.51351351 L5.64,16.7837838 L18.3,16.7837838 L20.82,8.51351351 L3.12,8.51351351 Z M22.8,5.53378378 L1.2,5.53378378 L1.2,7.2972973 L22.8,7.2972973 L22.8,5.53378378 Z" id="Shape" fill-rule="nonzero"></path>
<path d="M11.4,11.0067568 C11.4,10.1554054 12.6,10.1554054 12.6,11.0067568 L12.6,14.2905405 C12.6,15.0810811 11.4,15.0810811 11.4,14.2905405 L11.4,11.0067568 Z" id="Path" fill-rule="nonzero"></path>
<path d="M7.08,11.1283784 C6.96,10.3378378 8.16,10.0945946 8.28,10.8851351 L8.82,14.1689189 C9,14.9594595 7.8,15.1418919 7.68,14.3513514 L7.08,11.1283784 Z" id="Path" fill-rule="nonzero"></path>
<path d="M15.72,10.8851351 C15.84,10.0945946 16.98,10.3378378 16.86,11.1283784 L16.32,14.3513514 C16.2,15.1418919 15,14.9594595 15.12,14.1689189 L15.72,10.8851351 Z" id="Path" fill-rule="nonzero"></path>
</g>
</g>
</g>
</g>
</g>
</g>
</svg>
