<!-- Generated by IcoMoon.io -->
<svg version="1.1" xmlns="http://www.w3.org/2000/svg" width="32" height="32" viewBox="0 0 32 32">
<title>Bed-Single-Double</title>
<path fill="#000" d="M9.521 15.236c0.193 0 0.351 0.172 0.351 0.382v2.565c0 0.21-0.158 0.382-0.351 0.382h-0.456c0.011 0.039 0.019 0.079 0.019 0.122v0.178c0 0.228-0.17 0.413-0.38 0.413h-0.163c-0.21 0-0.38-0.185-0.38-0.413v-0.178c0-0.043 0.008-0.083 0.019-0.122h-6.385c0.011 0.039 0.019 0.079 0.019 0.122v0.178c0 0.228-0.17 0.413-0.38 0.413h-0.163c-0.21 0-0.38-0.185-0.38-0.413v-0.178c0-0.043 0.008-0.083 0.019-0.122h-0.559c-0.193 0-0.351-0.172-0.351-0.382v-2.565c0-0.21 0.158-0.382 0.351-0.382h0.528v-0.001l8.641 0.001zM1.331 14.642c0 0.003 0 0.006 0 0.010h-0.452v-0.32c0-1.048 0.788-1.906 1.751-1.906h4.724c0.963 0 1.751 0.858 1.751 1.906v0.32h-0.448c0-0.003 0.001-0.006 0.001-0.010 0-0.407-0.306-0.741-0.681-0.741h-2.32c-0.322 0-0.593 0.246-0.663 0.574-0.070-0.328-0.341-0.574-0.663-0.574h-2.32c-0.375 0-0.681 0.333-0.681 0.741zM23.71 15.58c0.16 0 0.29 0.13 0.29 0.29v2.5c0 0.16-0.13 0.29-0.29 0.29h-0.25v0.36c0 0.15-0.12 0.27-0.27 0.27h-0.39c-0.15 0-0.27-0.12-0.27-0.27v-0.36h-4.44v0.36c0 0.15-0.12 0.27-0.27 0.27h-0.39c-0.15 0-0.27-0.12-0.27-0.27v-0.36h-0.25c-0.16 0-0.29-0.13-0.29-0.29v-2.5c0-0.16 0.13-0.29 0.29-0.29h6.8zM17.895 14.97v0.060h-0.43v-0.39c0-0.91 0.74-1.64 1.64-1.64h2.41c0.9 0 1.64 0.73 1.64 1.64v0.39h-0.43v-0.060c0-0.36-0.29-0.65-0.65-0.65h-3.53c-0.36 0-0.65 0.29-0.65 0.65zM31.571 15.58c0.16 0 0.29 0.13 0.29 0.29v2.5c0 0.16-0.13 0.29-0.29 0.29h-0.25v0.36c0 0.15-0.12 0.27-0.27 0.27h-0.39c-0.15 0-0.27-0.12-0.27-0.27v-0.36h-4.44v0.36c0 0.15-0.12 0.27-0.27 0.27h-0.39c-0.15 0-0.27-0.12-0.27-0.27v-0.36h-0.25c-0.16 0-0.29-0.13-0.29-0.29v-2.5c0-0.16 0.13-0.29 0.29-0.29h6.8zM25.756 14.97v0.060h-0.43v-0.39c0-0.91 0.74-1.64 1.64-1.64h2.41c0.9 0 1.64 0.73 1.64 1.64v0.39h-0.43v-0.060c0-0.36-0.29-0.65-0.65-0.65h-3.53c-0.36 0-0.65 0.29-0.65 0.65z"></path>
<path fill="#8c8c8c" d="M16.99 8.34h0.712l-7.118 15.32h-0.712z"></path>
</svg>
