<!-- Generated by IcoMoon.io -->
<svg version="1.1" xmlns="http://www.w3.org/2000/svg" width="32" height="32" viewBox="0 0 32 32">
<title>Bed</title>
<path fill="#000" d="M30.861 14.531c0.626 0 1.139 0.522 1.139 1.161v7.787c0 0.639-0.513 1.161-1.139 1.161h-1.477c0.036 0.118 0.061 0.24 0.061 0.37v0.539c0 0.692-0.551 1.254-1.23 1.254h-0.529c-0.679 0-1.23-0.562-1.23-1.254v-0.539c0-0.13 0.025-0.252 0.061-0.37h-20.695c0.036 0.118 0.061 0.24 0.061 0.37v0.539c0 0.692-0.551 1.254-1.23 1.254h-0.529c-0.68 0-1.23-0.562-1.23-1.254v-0.539c0-0.13 0.025-0.252 0.061-0.37h-1.814c-0.627 0-1.139-0.522-1.139-1.161v-7.787c0-0.639 0.513-1.161 1.139-1.161h1.712v-0.003l28.010 0.003zM4.316 12.728c0 0.010 0.001 0.020 0.001 0.029h-1.466v-0.972c0-3.182 2.555-5.786 5.677-5.786h15.312c3.123 0 5.677 2.604 5.677 5.786v0.972h-1.452c0-0.009 0.002-0.019 0.002-0.029 0-1.237-0.993-2.249-2.207-2.249h-7.521c-1.043 0-1.921 0.748-2.148 1.743-0.227-0.995-1.105-1.743-2.148-1.743h-7.521c-1.214 0-2.207 1.012-2.207 2.249z"></path>
</svg>
