<!-- Generated by IcoMoon.io -->
<svg version="1.1" xmlns="http://www.w3.org/2000/svg" width="32" height="32" viewBox="0 0 32 32">
<title>Bicycle</title>
<path fill="#000" d="M25.487 24.477c-2.759 0-5.003-2.237-5.003-4.987 0-1.728 0.887-3.254 2.232-4.149l2.087 4.467c0.128 0.274 0.4 0.435 0.685 0.435 0.107 0 0.215-0.023 0.317-0.071 0.378-0.175 0.542-0.623 0.366-1l-2.088-4.468c0.446-0.13 0.916-0.201 1.403-0.201 2.759 0 5.003 2.237 5.003 4.986s-2.244 4.987-5.003 4.987zM16.060 18.14l-3.326-7.118h7.15l-3.824 7.118zM6.513 24.571c-2.758 0-5.003-2.237-5.003-4.987s2.245-4.987 5.003-4.987c0.592 0 1.161 0.104 1.688 0.293l-2.26 4.247c-0.124 0.232-0.118 0.512 0.018 0.738s0.378 0.365 0.641 0.367l4.865 0.049c-0.346 2.416-2.434 4.28-4.952 4.28zM11.451 18.785l-3.595-0.035 1.673-3.142c1.003 0.759 1.712 1.886 1.922 3.177zM11.49 11.924l3.221 6.893-1.733-0.016c-0.228-1.873-1.256-3.501-2.735-4.534l1.248-2.343zM25.487 12.998c-0.715 0-1.402 0.117-2.047 0.33l-3.891-8.328h-2.37c-0.417 0-0.754 0.337-0.754 0.753s0.338 0.753 0.754 0.753h1.407l1.407 3.011h-7.962l-1.407-3.011h1.458c0.417 0 0.755-0.337 0.755-0.753s-0.338-0.753-0.755-0.753h-3.965c-0.417 0-0.755 0.337-0.755 0.753s0.338 0.753 0.755 0.753h0.84l1.733 3.708-1.776 3.338c-0.743-0.296-1.553-0.459-2.401-0.459-3.592 0-6.513 2.912-6.513 6.492s2.922 6.492 6.513 6.492c3.347 0 6.111-2.529 6.471-5.771l3.157 0.031c0.278 0 0.534-0.153 0.666-0.398l4.308-8.022 0.956 2.047c-1.858 1.145-3.098 3.193-3.098 5.525 0 3.58 2.922 6.492 6.513 6.492s6.513-2.912 6.513-6.492c0-3.58-2.922-6.492-6.513-6.492z"></path>
</svg>
