<!-- Generated by IcoMoon.io -->
<svg version="1.1" xmlns="http://www.w3.org/2000/svg" width="32" height="32" viewBox="0 0 32 32">
<title>Bus</title>
<path fill="#000" d="M6.994 21.916c0.694 0 1.256-0.562 1.256-1.256s-0.562-1.256-1.256-1.256c-0.694 0-1.256 0.562-1.256 1.256s0.562 1.256 1.256 1.256zM4.582 20.661c0-1.332 1.080-2.413 2.413-2.413s2.412 1.080 2.412 2.413c0 1.332-1.080 2.413-2.412 2.413s-2.412-1.080-2.412-2.413zM23.43 18.248c1.332 0 2.413 1.080 2.413 2.413s-1.080 2.413-2.413 2.413c-1.332 0-2.413-1.080-2.413-2.413s1.080-2.413 2.413-2.413zM23.43 21.916c0.694 0 1.256-0.562 1.256-1.256s-0.562-1.256-1.256-1.256c-0.694 0-1.256 0.562-1.256 1.256s0.562 1.256 1.256 1.256zM25.029 14.31c0.361 0.086 6.619 2.005 6.619 2.005 0.187 0.041 0.328 0.209 0.328 0.408v3.362c0 0.23-0.188 0.418-0.418 0.418l-5.063-0.062c-0.109-1.601-1.441-2.865-3.070-2.865-1.643 0-2.984 1.287-3.073 2.907h-10.056l-0.249-0.185c-0.176-1.532-1.477-2.722-3.057-2.722-1.7 0-3.078 1.378-3.078 3.078 0 0.122 0.008 0.243 0.022 0.361l-0.256 0.203-3.68-0.374c0.114-0.19 0-12.844 0-12.844 18.729 0 28.808 0 30.236 0 2.142 0 1.726 1.616 1.741 2.242h-7.698c0 0-0.587 0.023-0.587 0.473s0.039 1.903 0.112 2.386c0.073 0.483 0.308 0.991 1.226 1.208zM21.984 14.221v-3.832c0-0.065-0.077-0.118-0.171-0.118h-19.919c-0.094 0-0.171 0.053-0.171 0.118v3.832c0 0.065 0.077 0.118 0.171 0.118h19.919c0.094 0 0.171-0.053 0.171-0.118z"></path>
</svg>
