<!-- Generated by IcoMoon.io -->
<svg version="1.1" xmlns="http://www.w3.org/2000/svg" width="32" height="32" viewBox="0 0 32 32">
<title>Calendar</title>
<path fill="#000" d="M26.98 4.65h-3.48v-0.9c0-0.414-0.336-0.75-0.75-0.75s-0.75 0.336-0.75 0.75v0.9h-12v-0.9c0-0.414-0.336-0.75-0.75-0.75s-0.75 0.336-0.75 0.75v0.9h-3.48c-0.274 0.004-0.536 0.117-0.728 0.314s-0.296 0.462-0.292 0.736v21.765c-0.004 0.273 0.102 0.536 0.293 0.731s0.453 0.304 0.727 0.304h21.96c0.273 0 0.535-0.11 0.727-0.304s0.297-0.458 0.293-0.731v-21.765c0.004-0.274-0.101-0.539-0.293-0.736s-0.453-0.31-0.727-0.314zM26.5 27h-21v-20.85h3v0.57c0 0.414 0.336 0.75 0.75 0.75s0.75-0.336 0.75-0.75v-0.57h12v0.57c0 0.414 0.336 0.75 0.75 0.75s0.75-0.336 0.75-0.75v-0.57h3v20.85zM8 14c-0.552 0-1 0.448-1 1v1.18c0 0.552 0.448 1 1 1h1.195c0.552 0 1-0.448 1-1v-1.18c0-0.552-0.448-1-1-1h-1.195zM8 9c-0.552 0-1 0.448-1 1v1.18c0 0.552 0.448 1 1 1h1.195c0.552 0 1-0.448 1-1v-1.18c0-0.552-0.448-1-1-1h-1.195zM13 14c-0.552 0-1 0.448-1 1v1.18c0 0.552 0.448 1 1 1h1.195c0.552 0 1-0.448 1-1v-1.18c0-0.552-0.448-1-1-1h-1.195zM13 9c-0.552 0-1 0.448-1 1v1.18c0 0.552 0.448 1 1 1h1.195c0.552 0 1-0.448 1-1v-1.18c0-0.552-0.448-1-1-1h-1.195zM18 14c-0.552 0-1 0.448-1 1v1.18c0 0.552 0.448 1 1 1h1.195c0.552 0 1-0.448 1-1v-1.18c0-0.552-0.448-1-1-1h-1.195zM18 9c-0.552 0-1 0.448-1 1v1.18c0 0.552 0.448 1 1 1h1.195c0.552 0 1-0.448 1-1v-1.18c0-0.552-0.448-1-1-1h-1.195zM23 14c-0.552 0-1 0.448-1 1v1.18c0 0.552 0.448 1 1 1h1.195c0.552 0 1-0.448 1-1v-1.18c0-0.552-0.448-1-1-1h-1.195zM23 9c-0.552 0-1 0.448-1 1v1.18c0 0.552 0.448 1 1 1h1.195c0.552 0 1-0.448 1-1v-1.18c0-0.552-0.448-1-1-1h-1.195z"></path>
</svg>
