<!-- Generated by IcoMoon.io -->
<svg version="1.1" xmlns="http://www.w3.org/2000/svg" width="32" height="32" viewBox="0 0 32 32">
<title>Car-Bike</title>
<path fill="#8c8c8c" d="M9.843 19.702c-1.066 0-1.932-0.867-1.932-1.932 0-0.67 0.343-1.261 0.862-1.607l0.806 1.731c0.049 0.106 0.155 0.169 0.265 0.169 0.041 0 0.083-0.009 0.123-0.027 0.146-0.068 0.209-0.241 0.141-0.388l-0.806-1.731c0.172-0.051 0.354-0.078 0.542-0.078 1.066 0 1.932 0.867 1.932 1.932s-0.867 1.932-1.932 1.932zM6.203 17.247l-1.285-2.758h2.761l-1.477 2.758zM2.515 19.738c-1.065 0-1.932-0.867-1.932-1.932s0.867-1.932 1.932-1.932c0.229 0 0.448 0.040 0.652 0.114l-0.873 1.645c-0.048 0.090-0.045 0.198 0.007 0.286s0.146 0.141 0.248 0.142l1.879 0.019c-0.134 0.936-0.94 1.658-1.913 1.658zM4.423 17.497l-1.388-0.014 0.646-1.217c0.387 0.294 0.661 0.731 0.742 1.231zM4.438 14.838l1.244 2.671-0.669-0.006c-0.088-0.726-0.485-1.357-1.056-1.757l0.482-0.908zM9.843 15.254c-0.276 0-0.542 0.045-0.79 0.128l-1.503-3.227h-0.915c-0.161 0-0.291 0.13-0.291 0.292s0.13 0.292 0.291 0.292h0.543l0.543 1.167h-3.075l-0.543-1.167h0.563c0.161 0 0.292-0.131 0.292-0.292s-0.13-0.292-0.292-0.292h-1.531c-0.161 0-0.292 0.13-0.292 0.292s0.131 0.292 0.292 0.292h0.325l0.669 1.437-0.686 1.293c-0.287-0.115-0.6-0.178-0.927-0.178-1.387 0-2.515 1.128-2.515 2.515s1.128 2.515 2.515 2.515c1.293 0 2.36-0.98 2.499-2.236l1.219 0.012c0.107 0 0.206-0.059 0.257-0.154l1.664-3.108 0.369 0.793c-0.717 0.444-1.197 1.237-1.197 2.141 0 1.387 1.128 2.515 2.515 2.515s2.515-1.128 2.515-2.515c0-1.387-1.128-2.515-2.515-2.515z"></path>
<path fill="#000" d="M27.318 19.501c0.492 0 0.891-0.399 0.891-0.891s-0.399-0.891-0.891-0.891-0.891 0.399-0.891 0.891c0 0.492 0.399 0.891 0.891 0.891zM27.318 16.899c0.945 0 1.712 0.766 1.712 1.711s-0.767 1.712-1.712 1.712-1.712-0.766-1.712-1.712c0-0.945 0.767-1.711 1.712-1.711zM16.541 19.501c0.492 0 0.891-0.399 0.891-0.891s-0.399-0.891-0.891-0.891-0.891 0.399-0.891 0.891c0 0.492 0.399 0.891 0.891 0.891zM16.541 16.899c0.945 0 1.712 0.766 1.712 1.711s-0.767 1.712-1.712 1.712-1.712-0.766-1.712-1.712c0-0.945 0.767-1.711 1.712-1.711zM27.42 14.654c0.021 0.001 0.042 0.003 0.063 0.004-1.927-1.333-3.849-2.613-7.077-2.613-0.439 0-0.872 0.016-1.298 0.046 0.008 0.101 0.156 1.879 0.208 2.146 0.054 0.275-0.015 0.38 0.648 0.389 1.988 0.027 5.523 0.027 7.456 0.027zM15.388 14.654h3.113c0 0-0.009-2.457-0.007-2.472 0.007-0.041-0.024-0.041-0.079-0.030-2.506 0.251-3.815 2.502-3.027 2.502zM31.836 18.826l-2.197 0.026c0.008-0.080 0.013-0.161 0.013-0.242 0-1.29-1.045-2.335-2.335-2.335s-2.334 1.045-2.334 2.335c0 0.086 0.005 0.171 0.014 0.255l-6.134-0.012c0.008-0.080 0.013-0.161 0.013-0.242 0-1.29-1.045-2.335-2.335-2.335s-2.335 1.045-2.335 2.335c0 0.084 0.005 0.167 0.014 0.249h-1.332c0.134-0.338 0.21-0.705 0.21-1.090 0-1.029-0.528-1.937-1.327-2.469 0.206-0.384 0.431-0.7 0.629-0.88 2.211-1.89 4.44-3.122 7.080-3.122 3.953 0 6.403 1.443 8.17 3.368 3.288-0.027 4.185 2.64 4.185 4.159z"></path>
</svg>
