<!-- Generated by IcoMoon.io -->
<svg version="1.1" xmlns="http://www.w3.org/2000/svg" width="32" height="32" viewBox="0 0 32 32">
<title>Car-Onboard</title>
<path fill="#000" d="M23.603 15.228v-0.598c0-0.174-0.135-0.314-0.303-0.314h-0.322c-0.167 0-0.302 0.141-0.302 0.314v0.598c0 0.129 0.074 0.239 0.18 0.287 0.037 0.017 0.078 0.027 0.122 0.027h0.322c0.044 0 0.085-0.010 0.122-0.027l0.001-0.001c0.105-0.049 0.179-0.159 0.179-0.287zM21.079 15.228v-0.598c0-0.174-0.135-0.314-0.302-0.314h-0.322c-0.167 0-0.302 0.141-0.302 0.314v0.598c0 0.129 0.074 0.239 0.18 0.287 0.037 0.017 0.078 0.027 0.122 0.027h0.322c0.043 0 0.084-0.010 0.122-0.027l0.002-0.001c0.105-0.049 0.179-0.159 0.179-0.287zM18.555 15.228v-0.598c0-0.174-0.135-0.314-0.302-0.314h-0.322c-0.167 0-0.302 0.141-0.302 0.314v0.598c0 0.129 0.074 0.239 0.18 0.287 0.037 0.017 0.078 0.027 0.122 0.027h0.322c0.043 0 0.084-0.010 0.122-0.027l0.001-0.001c0.105-0.049 0.179-0.159 0.179-0.287zM16.031 15.228v-0.598c0-0.174-0.135-0.314-0.302-0.314h-0.322c-0.167 0-0.302 0.141-0.302 0.314v0.598c0 0.129 0.074 0.239 0.18 0.287 0.037 0.017 0.078 0.027 0.122 0.027h0.322c0.044 0 0.084-0.010 0.122-0.027l0.001-0.001c0.105-0.049 0.179-0.159 0.179-0.287zM27.658 15.686l0.247 0.416h-13.143c-0.169-0.026-0.34-0.047-0.515-0.057-1.015-1.105-2.299-2.021-4.070-2.491h4.388l1.853-3.308h1.515l0.863 3.308h7.599l0.451 0.762h-1.987c0 0-0.16 0.006-0.16 0.129s0.011 0.23 0.031 0.363c0.020 0.132 0.084 0.271 0.335 0.33 0.214 0.050 2.051 0.435 2.594 0.549zM16.106 16.578l15.744-0.012-1.527 2.664c-0.076-0.003-0.152-0.004-0.228-0.004-2.336 0-2.344 1.402-4.701 1.402-2.107 0-5.393-1.116-7.489-1.353-0.027-0.631-0.66-2.301-1.799-2.698z"></path>
<path fill="#8c8c8c" d="M4.515 20.434c0.414 0 0.749-0.335 0.749-0.749s-0.335-0.749-0.749-0.749c-0.414 0-0.749 0.335-0.749 0.749s0.335 0.749 0.749 0.749zM4.515 18.247c0.795 0 1.439 0.644 1.439 1.439s-0.644 1.439-1.439 1.439-1.439-0.644-1.439-1.439c0-0.795 0.644-1.439 1.439-1.439zM13.612 20.478c0.412 0 0.745-0.334 0.745-0.745s-0.334-0.745-0.745-0.745c-0.412 0-0.745 0.334-0.745 0.745s0.334 0.745 0.745 0.745zM13.612 18.3c0.791 0 1.432 0.641 1.432 1.432s-0.641 1.432-1.432 1.432c-0.791 0-1.432-0.641-1.432-1.432s0.641-1.432 1.432-1.432zM13.698 16.422c0.018 0 0.035 0.002 0.053 0.003-1.613-1.115-3.22-2.186-5.921-2.186-0.367 0-0.73 0.013-1.086 0.039 0.007 0.085 0.13 1.572 0.174 1.796 0.045 0.23-0.013 0.318 0.542 0.326 1.663 0.023 4.621 0.023 6.238 0.023zM3.631 16.422h2.605c0 0-0.008-2.055-0.005-2.068 0.005-0.034-0.020-0.034-0.066-0.025-2.097 0.21-3.192 2.093-2.533 2.093zM13.891 16.433c2.751-0.023 3.501 2.209 3.501 3.48l-1.838 0.022c0.007-0.067 0.011-0.134 0.011-0.203 0-1.079-0.874-1.953-1.953-1.953s-1.953 0.875-1.953 1.953c0 0.072 0.004 0.143 0.012 0.213l-5.132-0.010c0.007-0.067 0.011-0.134 0.011-0.203 0-1.079-0.875-1.953-1.953-1.953s-1.953 0.875-1.953 1.953c0 0.071 0.004 0.14 0.011 0.209h-1.585c-1.902 0-0.691-3.031 0.062-3.713 1.85-1.582 3.715-2.612 5.924-2.612 3.307 0 5.357 1.207 6.835 2.817z"></path>
</svg>
