<!-- Generated by IcoMoon.io -->
<svg version="1.1" xmlns="http://www.w3.org/2000/svg" width="32" height="32" viewBox="0 0 32 32">
<title>Car-Trailer</title>
<path fill="#000" d="M39.58 20c1.384 0.005 2.505 1.126 2.51 2.51 0 1.015-0.612 1.93-1.549 2.319s-2.018 0.174-2.735-0.544c-0.718-0.718-0.933-1.797-0.544-2.735s1.304-1.549 2.319-1.549zM39.58 23.82c0.724 0 1.31-0.587 1.31-1.31s-0.587-1.31-1.31-1.31c-0.724 0-1.31 0.587-1.31 1.31s0.587 1.31 1.31 1.31zM23.78 20c1.386 0 2.51 1.124 2.51 2.51 0 1.015-0.612 1.93-1.549 2.319s-2.018 0.174-2.735-0.544c-0.718-0.718-0.933-1.797-0.544-2.735s1.304-1.549 2.319-1.549zM23.78 23.82c0.724 0 1.31-0.587 1.31-1.31s-0.587-1.31-1.31-1.31c-0.724 0-1.31 0.587-1.31 1.31s0.587 1.31 1.31 1.31zM-2 20c1.386 0 2.51 1.124 2.51 2.51 0 1.015-0.612 1.93-1.549 2.319s-2.018 0.174-2.735-0.544c-0.718-0.718-0.933-1.797-0.544-2.735s1.304-1.549 2.319-1.549zM-2 23.82v-0.020c0.716 0 1.299-0.574 1.31-1.29 0-0.724-0.587-1.31-1.31-1.31s-1.31 0.587-1.31 1.31c0 0.724 0.587 1.31 1.31 1.31zM40.070 16.71c4.82-0.040 6.14 3.87 6.21 6.14h-3.22c0-0.13 0-0.25 0-0.37-0.098-1.82-1.603-3.245-3.425-3.245s-3.327 1.425-3.425 3.245c0 0.13 0 0.25 0 0.37h-9c0-0.12 0-0.24 0-0.36-0.098-1.82-1.603-3.245-3.425-3.245s-3.327 1.425-3.425 3.245c0 0.12 0 0.25 0 0.37h-2.78c-3.33 0-1.21-5.31 0.11-6.51 3.24-2.77 6.51-4.58 10.38-4.58 5.82 0 9.41 2.12 12 4.94zM22.070 16.71h4.56c0 0 0-3.57 0-3.62s-0.040-0.050-0.12-0.050c-3.68 0.37-5.59 3.67-4.44 3.67zM39.71 16.71l0.1 0.050c-2.83-1.96-5.65-3.84-10.38-3.84-0.65 0-1.28 0.070-1.9 0.070 0.010 0.15 0.22 2.75 0.3 3.15s-0.050 0.57 0.95 0.57c2.93 0 8.1 0 10.93 0zM15.41 22.89l-14.020 0.040c0-0.13 0-0.26 0-0.39-0.1-1.885-1.658-3.362-3.545-3.362s-3.445 1.477-3.545 3.362c0 0.13 0 0.26 0 0.39h-7.37c-0.513 0.003-1.005-0.2-1.368-0.562s-0.565-0.855-0.562-1.368v-12c0.022-1.641 1.359-2.96 3-2.96h13.93c5.5 0 6.46 4.25 9 10l2 4.42c0.087 0.166 0.111 0.357 0.070 0.54h1.82c-0.001 0.423 0.073 0.843 0.22 1.24 0.089 0.234 0.214 0.454 0.37 0.65zM-2.83 13.38v-4c0-0.552-0.448-1-1-1h-8c-0.552 0-1 0.448-1 1v4c0 0.552 0.448 1 1 1h8c0.552 0 1-0.448 1-1zM0.010 14.38h4c0.552 0 1-0.448 1-1v-4c0-0.552-0.448-1-1-1h-4c-0.552 0-1 0.448-1 1v4c0 0.552 0.448 1 1 1z"></path>
</svg>
