<svg version="1.1" xmlns="http://www.w3.org/2000/svg" width="32" height="32" viewBox="0 0 32 32">
<title>Car-5</title>
<path fill="#000" d="M14.106 14.736c3.070 0.039 8.091 0 11.076 0 0.033 0.001 0.065 0.004 0.097 0.005-2.976-1.881-6.047-3.953-12.393-3.688 0.013 0.143 0.070 2.837 0.15 3.214 0.083 0.388 0.046 0.456 1.070 0.469zM1.604 14.736h4.807c0 0-0.004-3.702-0-3.723 0.010-0.058-4.224-0.016-4.31 0-0.753 0.457-1.228 3.723-0.497 3.723zM7.124 14.736h4.986c0.121-0.384-0.069-3.702-0.066-3.723 0.010-0.058-4.835-0.016-4.921 0-0.15 1.048 0 3.555 0 3.723zM32 20.624l-3.391 0.037c0.012-0.113 0.019-0.227 0.019-0.342 0-1.82-1.614-3.295-3.604-3.295s-3.605 1.475-3.605 3.295c0 0.121 0.008 0.241 0.022 0.36l-9.472-0.017c0.013-0.113 0.020-0.227 0.020-0.342 0-1.82-1.614-3.295-3.605-3.295s-3.605 1.475-3.605 3.295c0 0.119 0.008 0.236 0.021 0.352h-2.925c-2.787-0.010-1.981-9.469 0-10.239 1.644-0.639 9.199-0.432 11.047-0.432 6.104 0 9.887 2.036 12.615 4.753 5.076-0.039 6.461 3.726 6.461 5.871zM25.348 17.893c1.465 0 2.652 1.143 2.652 2.554s-1.187 2.554-2.652 2.554c-1.464 0-2.652-1.143-2.652-2.554s1.187-2.554 2.652-2.554zM8.652 17.893c1.464 0 2.652 1.143 2.652 2.554s-1.187 2.554-2.652 2.554c-1.464 0-2.652-1.143-2.652-2.554s1.187-2.554 2.652-2.554zM25.348 21.776c0.762 0 1.38-0.595 1.38-1.329s-0.618-1.329-1.38-1.329c-0.762 0-1.38 0.595-1.38 1.329s0.618 1.329 1.38 1.329zM8.652 21.776c0.762 0 1.38-0.595 1.38-1.329s-0.618-1.329-1.38-1.329c-0.762 0-1.38 0.595-1.38 1.329s0.618 1.329 1.38 1.329zM2.645 5.715h14.065c1.817 0 3.29 1.473 3.29 3.29h-17.355c-0.909 0-1.645-0.736-1.645-1.645s0.736-1.645 1.645-1.645z"></path>
</svg>
