<!-- Generated by IcoMoon.io -->
<svg version="1.1" xmlns="http://www.w3.org/2000/svg" width="32" height="32" viewBox="0 0 32 32">
<title>Car-Family</title>
<path fill="#8c8c8c" d="M2.187 9.047c0.682 0 1.235 0.553 1.235 1.235s-0.553 1.235-1.235 1.235c-0.682 0-1.235-0.553-1.235-1.235s0.553-1.235 1.235-1.235zM9.212 9.047c0.682 0 1.235 0.553 1.235 1.235s-0.553 1.235-1.235 1.235-1.235-0.553-1.235-1.235c0-0.682 0.553-1.235 1.235-1.235zM10.576 12.928l1.532 5.76c0 0.117-0.095 0.211-0.211 0.211h-1.344l-0.422 3.026c-0.053 0.107-0.107 0.16-0.214 0.16h-0.22l-0.146 0.001c-0.033 0-0.068-0.006-0.085-0.019s-0.033-0.035-0.051-0.068l-0.135-0.238-0.135 0.238c-0.018 0.032-0.035 0.055-0.051 0.068s-0.041 0.019-0.073 0.019l-0.205-0.001h-0.18c-0.107 0-0.214-0.053-0.214-0.16l-0.12-0.862-0.441-4.125-0.785 0.66-0.365 1.372-0.409 2.968c-0.031 0.063-0.063 0.094-0.125 0.094h-0.129l-0.086 0c-0.019 0-0.040-0.004-0.050-0.011s-0.020-0.021-0.030-0.040l-0.079-0.14-0.079 0.14c-0.011 0.019-0.021 0.032-0.030 0.040s-0.024 0.011-0.043 0.011l-0.12-0h-0.106c-0.063 0-0.125-0.031-0.125-0.094l-0.431-3.058-0.485-1.806c-0.018 0.013-0.035 0.028-0.055 0.038l-0.481 0.214h-0.053l-0.642 4.599c-0.053 0.107-0.107 0.16-0.214 0.16h-0.22l-0.146 0.001c-0.033 0-0.068-0.006-0.085-0.019s-0.033-0.035-0.051-0.068l-0.135-0.238-0.135 0.238c-0.018 0.032-0.035 0.055-0.051 0.068s-0.041 0.019-0.073 0.019l-0.206-0.001h-0.18c-0.107 0-0.214-0.053-0.214-0.16l-0.642-4.599h-0.053l-0.481-0.214c-0.173-0.069-0.281-0.242-0.267-0.428l0.107-3.369c0.056-0.755 0.686-1.339 1.444-1.337h1.39c0.757-0.002 1.388 0.582 1.444 1.337l0.177 2.792h2.643l0.84-3.127c0.16-0.574 0.672-0.98 1.268-1.004 0.587 0 1.104 0.388 1.268 0.951zM5.799 14.249c0.438 0 0.793 0.355 0.793 0.793s-0.355 0.793-0.793 0.793c-0.438 0-0.793-0.355-0.793-0.793s0.355-0.793 0.793-0.793z"></path>
<path fill="#000" d="M26.226 21.078c0.623 0 1.128-0.505 1.128-1.128s-0.505-1.128-1.128-1.128c-0.623 0-1.128 0.505-1.128 1.128s0.505 1.128 1.128 1.128zM26.226 17.784c1.196 0 2.166 0.97 2.166 2.166s-0.97 2.166-2.166 2.166c-1.196 0-2.166-0.97-2.166-2.166s0.97-2.166 2.166-2.166zM26.355 15.001c0.027 0.001 0.053 0.003 0.080 0.004-2.44-1.687-4.872-3.308-8.958-3.308-0.556 0-1.104 0.020-1.642 0.058 0.011 0.128 0.197 2.379 0.263 2.717 0.068 0.348-0.019 0.481 0.82 0.493 2.517 0.035 6.991 0.035 9.438 0.035zM31.945 20.282l-2.78 0.034c0.010-0.101 0.016-0.203 0.016-0.307 0-1.632-1.323-2.955-2.955-2.955s-2.955 1.323-2.955 2.955c0 0.109 0.007 0.216 0.018 0.322l-7.765-0.015c0.010-0.101 0.016-0.203 0.016-0.307 0-1.632-1.323-2.955-2.955-2.955-0.111 0-0.22 0.007-0.328 0.019l-0.551-2.072h3.36c0 0-0.011-3.11-0.008-3.129 0.008-0.052-0.030-0.052-0.101-0.038-1.69 0.169-2.944 1.056-3.601 1.849l-0.239-0.899-0.003-0.013c-0.058-0.198-0.147-0.381-0.262-0.545 1.706-0.931 3.491-1.473 5.456-1.473 5.004 0 8.105 1.826 10.342 4.263 4.162-0.035 5.297 3.342 5.297 5.265zM12.462 17.761c1.202 0 2.177 0.975 2.177 2.177s-0.975 2.176-2.177 2.176c-0.678 0-1.283-0.31-1.683-0.796l0.26-1.86h0.4c-0.069 0.146-0.11 0.307-0.11 0.479 0 0.626 0.507 1.133 1.133 1.133s1.133-0.507 1.133-1.133c0-0.56-0.408-1.023-0.942-1.114 0.008-0.044 0.014-0.089 0.014-0.135v-0.073l-0.227-0.853c0.007-0 0.015-0.001 0.022-0.001z"></path>
</svg>
