<svg version="1.1" xmlns="http://www.w3.org/2000/svg" width="32" height="32" viewBox="0 0 32 32">
<title>Car-1</title>
<path fill="#000" d="M23.703 17.64c1.459 0.003 2.64 1.186 2.64 2.645 0 1.070-0.645 2.035-1.634 2.444s-2.127 0.182-2.883-0.575c-0.756-0.757-0.981-1.896-0.57-2.884s1.377-1.631 2.447-1.629zM23.703 21.66c0.765 0 1.385-0.62 1.385-1.385s-0.62-1.385-1.385-1.385c-0.765 0-1.385 0.62-1.385 1.385s0.62 1.385 1.385 1.385zM9.382 17.64c1.459 0.003 2.64 1.186 2.64 2.645 0 1.070-0.645 2.035-1.634 2.444s-2.127 0.182-2.883-0.575c-0.756-0.757-0.981-1.896-0.57-2.884s1.377-1.631 2.447-1.629zM9.382 21.66c0.765 0 1.385-0.62 1.385-1.385s-0.62-1.385-1.385-1.385c-0.765 0-1.385 0.62-1.385 1.385s0.62 1.385 1.385 1.385zM24.497 14.197c5.077-0.042 6.18 4.075 6.217 6.42l-3.388 0.042c0-0.125 0-0.249 0-0.374 0.047-1.318-0.629-2.556-1.763-3.229s-2.545-0.673-3.679 0c-1.134 0.673-1.81 1.911-1.763 3.229-0.007 0.131-0.007 0.262 0 0.392h-7.135c0.007-0.131 0.007-0.262 0-0.392 0-1.991-1.614-3.605-3.605-3.605s-3.605 1.614-3.605 3.605c0.001 0.128 0.008 0.256 0.023 0.383h-2.926c-3.508 0-1.269-5.589 0.115-6.849 3.415-2.917 6.854-4.818 10.934-4.818 6.097 0 7.846 2.225 10.574 5.197zM7.6 14.197h4.795c0 0-0.009-3.771 0-3.817s-0.037-0.046-0.125-0.046c-3.868 0.388-5.885 3.863-4.671 3.863zM13.6 14.197l-0.009-0.018c0 0 7.597-0.005 9.96 0.023-2.308-2.566-4.689-3.988-8.769-3.988l-1.431 0.028c-0.005 0.355-0.102 3.955 0.249 3.955z"></path>
</svg>
