<!-- Generated by IcoMoon.io -->
<svg version="1.1" xmlns="http://www.w3.org/2000/svg" width="32" height="32" viewBox="0 0 32 32">
<title>Caravan</title>
<path fill="#000" d="M31.17 18.96h-2.17c0.041-0.183 0.017-0.374-0.070-0.54l-2-4.42c-2.54-5.75-3.5-10-9-10h-13.93c-1.641-0-2.978 1.319-3 2.96v12c-0.003 0.513 0.2 1.005 0.562 1.368s0.855 0.565 1.368 0.562h7.37c0-0.13 0-0.26 0-0.39 0.1-1.885 1.658-3.362 3.545-3.362s3.445 1.477 3.545 3.362c0 0.13 0 0.26 0 0.39l13.78 0v-1.93zM13.17 11.38c0 0.552-0.448 1-1 1h-8c-0.552 0-1-0.448-1-1v-4c0-0.552 0.448-1 1-1h8c0.552 0 1 0.448 1 1v4zM21.010 11.38c0 0.552-0.448 1-1 1h-4.010c-0.552 0-1-0.448-1-1v-4c0-0.552 0.448-1 1-1h4c0.552 0 1 0.448 1 1l0.010 4zM13.8 17.96c0.666-0.005 1.306 0.256 1.777 0.726s0.736 1.109 0.733 1.774c0 1.379-1.117 2.498-2.497 2.5s-2.5-1.114-2.503-2.493c-0.004-1.379 1.111-2.501 2.49-2.507zM13.8 21.76c0.347 0.003 0.68-0.133 0.926-0.377s0.384-0.576 0.384-0.923c-0-0.717-0.58-1.298-1.297-1.3s-1.3 0.577-1.303 1.293c-0.004 0.717 0.573 1.301 1.29 1.307z"></path>
</svg>
