<!-- Generated by IcoMoon.io -->
<svg version="1.1" xmlns="http://www.w3.org/2000/svg" width="32" height="32" viewBox="0 0 32 32">
<title>City</title>
<path fill="#000" d="M29.918 13.837v-2.781c0-0.423-0.34-0.769-0.755-0.769h-1.333c-0.415 0-0.755 0.346-0.755 0.769v2.781c0 0.423 0.34 0.769 0.755 0.769h1.333c0.415 0 0.755-0.346 0.755-0.769zM29.918 20.112v-2.751c0-0.423-0.34-0.769-0.755-0.769h-1.333c-0.415 0-0.755 0.346-0.755 0.769v2.751c0 0.423 0.34 0.769 0.755 0.769h1.333c0.415 0 0.755-0.346 0.755-0.769zM29.918 26.418v-2.781c0-0.423-0.34-0.769-0.755-0.769h-1.333c-0.415 0-0.755 0.346-0.755 0.769v2.781c0 0.423 0.34 0.769 0.755 0.769h1.333c0.415 0 0.755-0.346 0.755-0.769zM24.804 13.837v-2.781c0-0.423-0.34-0.769-0.755-0.769h-1.333c-0.415 0-0.755 0.346-0.755 0.769v2.781c0 0.423 0.34 0.769 0.755 0.769h1.333c0.415 0 0.755-0.346 0.755-0.769zM24.804 20.112v-2.751c0-0.423-0.34-0.769-0.755-0.769h-1.333c-0.415 0-0.755 0.346-0.755 0.769v2.751c0 0.423 0.34 0.769 0.755 0.769h1.333c0.415 0 0.755-0.346 0.755-0.769zM24.804 26.418v-2.781c0-0.423-0.34-0.769-0.755-0.769h-1.333c-0.415 0-0.755 0.346-0.755 0.769v2.781c0 0.423 0.34 0.769 0.755 0.769h1.333c0.415 0 0.755-0.346 0.755-0.769zM19.69 13.837v-2.781c0-0.423-0.34-0.769-0.755-0.769h-1.333c-0.415 0-0.755 0.346-0.755 0.769v2.781c0 0.423 0.34 0.769 0.755 0.769h1.333c0.415 0 0.755-0.346 0.755-0.769zM19.69 20.112v-2.751c0-0.423-0.34-0.769-0.755-0.769h-1.333c-0.415 0-0.755 0.346-0.755 0.769v2.751c0 0.423 0.34 0.769 0.755 0.769h1.333c0.415 0 0.755-0.346 0.755-0.769zM16.443 32c0.083-0.081 0.139-0.225 0.139-0.408v-0.116h0.407c0.564 0 1.022-0.467 1.022-1.042v-3.251h0.924c0.415 0 0.755-0.346 0.755-0.769v-2.781c0-0.423-0.34-0.769-0.755-0.769h-1.333c-0.415 0-0.755 0.346-0.755 0.769v1.022h-0.224v-1.142c0-1.242-0.616-2.341-1.553-2.995v-11.977c0-0.423 0.34-0.769 0.755-0.769h15.499c0.415 0 0.755 0.346 0.755 0.769v23.459h-15.636zM6.666 6.541c1.436 0.85 2.404 2.439 2.404 4.261 0 2.717-2.15 4.919-4.803 4.919-1.778 0-3.33-0.991-4.16-2.462 0.706 0.418 1.525 0.658 2.399 0.658 2.652 0 4.803-2.202 4.803-4.919 0-0.895-0.235-1.734-0.643-2.457z"></path>
<path fill="#8c8c8c" d="M16.683 25.188c0.339 0 0.616 0.29 0.616 0.644v4.322c0 0.355-0.277 0.644-0.616 0.644h-0.798c0.020 0.065 0.033 0.133 0.033 0.206v0.299c0 0.384-0.298 0.696-0.665 0.696h-0.286c-0.367 0-0.665-0.312-0.665-0.696v-0.299c0-0.072 0.013-0.14 0.033-0.206h-11.188c0.020 0.065 0.033 0.133 0.033 0.206v0.299c0 0.384-0.298 0.696-0.665 0.696h-0.286c-0.367 0-0.665-0.312-0.665-0.696v-0.299c0-0.072 0.013-0.14 0.033-0.206h-0.98c-0.339 0-0.616-0.29-0.616-0.644v-4.322c0-0.355 0.277-0.644 0.616-0.644h0.926v-0.002l15.142 0.002zM2.333 24.187c0 0.005 0.001 0.011 0.001 0.016h-0.792v-0.539c0-1.766 1.381-3.212 3.069-3.212h8.278c1.688 0 3.069 1.445 3.069 3.212v0.539h-0.785c0-0.005 0.001-0.011 0.001-0.016 0-0.687-0.537-1.248-1.193-1.248h-4.066c-0.564 0-1.038 0.415-1.161 0.968-0.123-0.552-0.597-0.968-1.161-0.968h-4.066c-0.656 0-1.193 0.562-1.193 1.248z"></path>
</svg>
