<!-- Generated by IcoMoon.io -->
<svg version="1.1" xmlns="http://www.w3.org/2000/svg" width="32" height="32" viewBox="0 0 32 32">
<title>Conference-Onboard</title>
<path fill="#8c8c8c" d="M17.010 13.776l0.2 3.147c-0.001 0.17-0.098 0.324-0.25 0.4l-0.45 0.2h-0.050l-0.6 4.296c-0.050 0.1-0.1 0.15-0.2 0.15h-0.205l-0.137 0.001c-0.030 0-0.064-0.006-0.079-0.018s-0.031-0.033-0.048-0.063l-0.126-0.223-0.126 0.223c-0.017 0.030-0.033 0.051-0.048 0.063s-0.038 0.018-0.068 0.018l-0.192-0.001h-0.168c-0.1 0-0.2-0.050-0.2-0.15l-0.599-4.296-0.496-2.963-2.39-0.685c-0.38-0.099-0.599-0.256-0.605-0.583l-0.003-0.078c-0.006-0.327 0.256-0.599 0.583-0.605l4.909-0.080c0.708-0.002 1.296 0.543 1.349 1.249zM14.962 12.028c-0.717 0-1.299-0.582-1.299-1.299s0.581-1.299 1.299-1.299 1.299 0.581 1.299 1.299c0 0.717-0.581 1.299-1.299 1.299zM12.904 11.706l-0.81 0.015v-1.052h-11.285v6.806h11.285v-2.347l0.81 0.232v2.925h-5.957l2.626 3.643h-0.998l-1.717-2.382v2.382h-0.81v-2.458l-1.888 2.458h-1.021l2.799-3.643h-5.937v-8.425h6.022v-0.86h0.86v0.86h6.022v1.846z"></path>
<path fill="#000" d="M19.749 15.18c0-0.222 0.182-0.404 0.404-0.404h0.435c0.222 0 0.404 0.182 0.404 0.404v0.809c0 0.222-0.182 0.404-0.404 0.404h-0.435c-0.222 0-0.404-0.182-0.404-0.404v-0.809zM22.918 15.18v0.809c0 0.222 0.182 0.404 0.404 0.404h0.435c0.222 0 0.404-0.182 0.404-0.404v-0.809c0-0.222-0.182-0.404-0.404-0.404h-0.435c-0.222 0-0.404 0.182-0.404 0.404zM17.178 17.899l14.692-0.013-2.008 3.514h-0.301c-3.092 0-4.159 1.212-7.292 1.212-2.001 0-3.73-0.953-5.572-1.273l0.48-3.441zM17.774 13.741c-0.047-0.631-0.419-1.167-0.945-1.454l1.609-2.872h1.995l1.137 4.358h6.069l0.594 1.003h-2.618c0 0-0.211 0.008-0.211 0.17s0.014 0.303 0.040 0.477c0.026 0.174 0.111 0.356 0.441 0.435 0.281 0.067 2.701 0.574 3.417 0.723l0.325 0.548h-11.678c0.016-0.066 0.026-0.134 0.026-0.205v-0.016l-0.201-3.163-0-0.005z"></path>
</svg>
