<!-- Generated by IcoMoon.io -->
<svg version="1.1" xmlns="http://www.w3.org/2000/svg" width="32" height="32" viewBox="0 0 32 32">
<title>Crossing-Duration</title>
<path fill="#000" d="M14.341 15.915v0.883c0 0.19 0.109 0.352 0.264 0.424 0.055 0.025 0.115 0.040 0.179 0.040h0.498c0.064 0 0.124-0.015 0.179-0.040l0.002-0.001c0.155-0.072 0.262-0.234 0.262-0.423v-0.883c0-0.172-0.093-0.316-0.226-0.397-0.065-0.039-0.137-0.068-0.217-0.068h-0.498c-0.245 0-0.443 0.208-0.443 0.464zM18.069 15.915v0.883c0 0.19 0.109 0.352 0.264 0.424 0.055 0.025 0.115 0.040 0.179 0.040h0.473c0.064 0 0.124-0.015 0.179-0.040l0.002-0.001c0.155-0.072 0.263-0.234 0.263-0.423v-0.883c0-0.257-0.198-0.464-0.444-0.464h-0.473c-0.245 0-0.443 0.208-0.443 0.464zM21.772 15.915v0.883c0 0.19 0.109 0.352 0.264 0.424 0.055 0.025 0.115 0.040 0.179 0.040h0.473c0.064 0 0.124-0.015 0.179-0.040l0.002-0.001c0.155-0.072 0.263-0.234 0.263-0.423v-0.883c0-0.257-0.198-0.464-0.444-0.464h-0.473c-0.245 0-0.443 0.208-0.443 0.464zM13.407 18.089c0.032-0.264 0.053-0.532 0.053-0.804 0-1.064-0.256-2.067-0.701-2.958h1.503l2.718-4.885h2.222l1.266 4.885h6.759l0.661 1.124h-2.915c0 0-0.235 0.009-0.235 0.191s0.016 0.34 0.045 0.535c0.029 0.195 0.123 0.399 0.491 0.487 0.313 0.075 3.008 0.643 3.805 0.81l0.362 0.615h-16.035zM13.101 18.747l18.806-0.015-2.248 3.778h-0.337c-3.462 0-4.655 1.303-8.162 1.303s-6.462-1.912-9.717-1.912c-0.074 0-0.143 0.002-0.215 0.003 0.915-0.842 1.578-1.932 1.872-3.157z"></path>
<path fill="#8c8c8c" d="M6.525 11.45c-3.039 0-5.512 2.473-5.512 5.512s2.473 5.512 5.512 5.512 5.512-2.473 5.512-5.512c0-3.039-2.473-5.512-5.512-5.512zM6.881 16.227v-3.977c0-0.245-0.199-0.445-0.445-0.445s-0.445 0.199-0.445 0.445v4.623c0 0.223 0.164 0.408 0.378 0.44 0.13 0.067 0.29 0.068 0.426-0.010l2.926-1.689c0.213-0.123 0.285-0.395 0.163-0.607s-0.395-0.285-0.607-0.163l-2.396 1.384zM6.436 10.561c3.481 0 6.312 2.832 6.312 6.312s-2.832 6.312-6.312 6.312-6.312-2.832-6.312-6.312c0-3.481 2.832-6.312 6.312-6.312z"></path>
</svg>
