<!-- Generated by IcoMoon.io -->
<svg version="1.1" xmlns="http://www.w3.org/2000/svg" width="32" height="32" viewBox="0 0 32 32">
<title>Dancing-Entertainment</title>
<path fill="#000" d="M24.2 13.243c1.32 0 2.389-1.069 2.389-2.388 0-1.321-1.069-2.39-2.389-2.39s-2.389 1.069-2.389 2.39c0 1.319 1.069 2.388 2.389 2.388zM13.871 13.243c1.32 0 2.389-1.069 2.389-2.388 0-1.321-1.069-2.39-2.389-2.39s-2.389 1.069-2.389 2.39c0 1.319 1.069 2.388 2.389 2.388z"></path>
<path fill="#000" d="M29.574 14.186l-5.276-0.098c-0.009 0-0.018-0.001-0.027-0.001h-2.348c-0.739 0-0.879 0.126-1.116 0.363l-2.375 2.421-1.119-1.167c-0.859-0.86-1.321-1.533-2.323-1.533-1.018 0.041-1.892 0.733-2.164 1.716l-2.615 9.757c-0.091 0.272 0.090 0.362 0.36 0.362h2.57l-1.986 4.4c0 0.064 0.007 0.112 0.021 0.144s0.061 0.071 0.109 0.099l0.22 0.12 0.327 0.182c0.159 0.089 0.284 0.053 0.452-0.061l2.34-2.897 0.546 3.314c0.032 0.056 0.060 0.095 0.089 0.116 0.027 0.021 0.088 0.033 0.144 0.033l0.25-0.002h0.374c0.183 0 0.275-0.091 0.366-0.274l0.72-5.174h2.292c0.199 0 0.361-0.162 0.361-0.362l-1.422-5.357 0.007-0.259 1.522-0.008 0.721 3.255 1.102 7.903c0.030 0.182 0.184 0.276 0.368 0.276l0.663 0.002c0.302 0 0.417-0.323 0.446-0.559 0.011-0.084 0.871-6.804 0.966-7.551l4.129 4.481c0.056 0.058 0.203 0.034 0.274-0.025l0.196-0.155 0.296-0.231c0.144-0.112 0.203-0.253 0.12-0.44l-2.049-4.718c0.004-0.028 0.012-0.056 0.012-0.084l-0.337-5.308 2.753-0.789c0.566-0.148 0.894-0.382 0.903-0.871l0.004-0.116c0.009-0.488-0.383-0.894-0.87-0.903z"></path>
<path fill="#000" d="M9.395 8.622c-0.068-0.156-0.25-0.228-0.407-0.16l-4.316 1.878c-0.002 0.001-0.003 0.002-0.004 0.003-0.114 0.045-0.194 0.156-0.194 0.286v5.756c-0.259-0.118-0.578-0.19-0.927-0.19-0.854 0-1.547 0.415-1.547 0.927s0.692 0.928 1.547 0.928c0.853 0 1.546-0.416 1.546-0.928v-6.29l3.71-1.615v5.313c-0.26-0.118-0.579-0.19-0.928-0.19-0.854 0-1.546 0.415-1.546 0.927s0.692 0.928 1.546 0.928c0.853 0 1.546-0.416 1.546-0.928v-6.492c0-0.005-0.003-0.010-0.003-0.015 0.002-0.046-0.004-0.092-0.023-0.137z"></path>
<path fill="#000" d="M23.687 1.003c-0.042-0.095-0.153-0.14-0.249-0.098l-2.637 1.148c-0.001 0.001-0.002 0.002-0.002 0.002-0.070 0.028-0.119 0.095-0.119 0.174v3.517c-0.158-0.071-0.354-0.116-0.567-0.116-0.522 0-0.945 0.253-0.945 0.566s0.423 0.567 0.945 0.567c0.522 0 0.945-0.254 0.945-0.567v-3.844l2.267-0.987v3.246c-0.158-0.072-0.353-0.116-0.566-0.116-0.522 0-0.945 0.254-0.945 0.567s0.423 0.567 0.945 0.567c0.522 0 0.944-0.254 0.944-0.567v-3.968c0-0.003-0.002-0.005-0.002-0.009 0.002-0.028-0.002-0.056-0.013-0.084z"></path>
</svg>
