<!-- Generated by IcoMoon.io -->
<svg version="1.1" xmlns="http://www.w3.org/2000/svg" width="32" height="32" viewBox="0 0 32 32">
<title>Disability-2</title>
<path fill="#000" d="M22.394 16.638c0.057-0.005 0.116-0.007 0.174-0.007 1.175 0 2.13 0.971 2.13 2.164v12.825h-1.379v-12.825c0-0.421-0.337-0.763-0.751-0.763s-0.751 0.342-0.751 0.763h-1.379c0-0.657 0.29-1.247 0.747-1.644-0.408-0.007-0.778-0.166-1.057-0.424l-0.326-0.33-2.092-2.123-2.496 16.971c-0.034 0.25-0.102 0.374-0.353 0.374l-0.957 0.002c-0.076 0-0.239 0-0.302-0.099-0.024-0.041-0.399-0.696-0.399-0.696s-0.412 0.674-0.438 0.716c-0.032 0.046-0.119 0.080-0.197 0.080h-0.855c-0.251 0-0.468-0.16-0.509-0.413l-1.505-10.753-1.254-0.5c-0.382-0.189-0.626-0.575-0.628-1l0.502-7.878c0.132-1.766 1.612-3.13 3.39-3.125 0 0 2.672 0 3.205 0 0.743 0 1.223 0.192 1.525 0.492l5.918 6.012c0.239 0.242 0.369 0.3 0.441 0.921 0.054 0.463-0.13 0.949-0.401 1.26zM13.219 6.375c-1.635 0-2.958-1.323-2.958-2.958 0-1.633 1.323-2.958 2.958-2.958 1.633 0 2.958 1.325 2.958 2.958 0 1.635-1.325 2.958-2.958 2.958z"></path>
</svg>
