<!-- Generated by IcoMoon.io -->
<svg version="1.1" xmlns="http://www.w3.org/2000/svg" width="32" height="32" viewBox="0 0 32 32">
<title>Disability-1</title>
<path fill="#000" d="M25.523 19.448l2.278 4.828c0.056 0.119-0.004 0.231-0.116 0.3l-1.337 0.83c-0.143 0.089-0.245 0.075-0.33-0.024l-4.369-5.222-8.008 0.278c-0.895 0-1.902-0.423-2.209-1.826l-0.635-2.966-1.063-4.568c-0.384-1.502 0.502-2.907 1.962-3.353l0.596-0.164c1.457-0.453 3.356 0.232 3.598 1.639l0.303 1.508c2.609 0.024 5.632 0.033 5.632 0.033 0.708 0.010 1.278 0.58 1.268 1.267l-0.006 0.164c-0.011 0.686-0.543 1.233-1.306 1.229l-5.039 0.043 0.58 2.89 6.303 0.111c0.489 0 0.557 0.185 0.67 0.436l1.228 2.564zM12.865 5.951c-1.478 0.456-3.058-0.337-3.528-1.771s0.348-2.965 1.826-3.421c1.478-0.456 3.058 0.337 3.528 1.771s-0.348 2.965-1.826 3.421zM14.723 29.192c3.432 0 6.405-1.94 7.815-4.749l1.443 1.722c-1.893 3.042-5.334 5.081-9.258 5.081-5.958 0-10.805-4.7-10.805-10.477 0-3.279 1.562-6.21 4.002-8.132l0.528 2.317c-1.492 1.513-2.411 3.561-2.411 5.815 0 4.644 3.897 8.423 8.686 8.423z"></path>
</svg>
