<!-- Generated by IcoMoon.io -->
<svg version="1.1" xmlns="http://www.w3.org/2000/svg" width="32" height="32" viewBox="0 0 32 32">
<title>Duration-Time</title>
<path fill="#000" d="M15.629 30.629c-8.079 0-14.629-6.549-14.629-14.629s6.549-14.629 14.629-14.629c8.079 0 14.629 6.549 14.629 14.629 0 3.88-1.541 7.601-4.285 10.344s-6.464 4.285-10.344 4.285zM15.629 3.2c-7.049 0.001-12.771 5.701-12.799 12.75s5.65 12.794 12.699 12.85c7.049 0.056 12.816-5.598 12.9-12.647 0.041-3.421-1.29-6.716-3.695-9.15s-5.684-3.803-9.105-3.803zM24.314 23.010l-9.448-6.552v-9.448h1.524v8.686l8.686 6.095-0.762 1.219z"></path>
</svg>
