<!-- Generated by IcoMoon.io -->
<svg version="1.1" xmlns="http://www.w3.org/2000/svg" width="32" height="32" viewBox="0 0 32 32">
<title>En-Suite-Bathroom</title>
<path fill="#000" d="M3.674 13.595c-1.116 0.038-2.11 0.424-2.755 1.253s-0.919 1.999-0.919 3.53c0 1.459 0.021 4.233 0.043 6.667 0.006 0.658 0.012 6.043 0.017 6.619h1.252c-0.006-0.579-0.011-5.967-0.017-6.63-0.022-2.433-0.043-5.21-0.043-6.656 0-1.374 0.262-2.245 0.653-2.748s0.932-0.741 1.812-0.771c0.75-0.025 1.62 0.444 2.285 0.975 0.141 0.112 0.271 0.224 0.389 0.331l0.857-0.923c-0.143-0.13-0.3-0.266-0.471-0.402-0.756-0.603-1.79-1.247-2.987-1.248-0.039-0-0.077 0.001-0.116 0.002z"></path>
<path fill="#000" d="M6.39 15.501c-0.517 0.557-0.7 1.322-0.609 2.063s0.441 1.481 1.011 2.099c0.107 0.116 0.257 0.182 0.414 0.182s0.307-0.065 0.414-0.181l2.959-3.188c0.107-0.116 0.162-0.271 0.152-0.429s-0.085-0.305-0.206-0.406c-0.647-0.535-1.399-0.841-2.136-0.886s-1.481 0.188-1.998 0.745v0z"></path>
<path fill="#000" d="M9.183 23.184c-0.004 0.005-0.004 0.013 0 0.018 0.046 0.049 0.061 0.166 0.081 0.287s0.047 0.247 0.131 0.317c0.131 0.118 0.333 0.108 0.453-0.024s0.107-0.334-0.024-0.453c-0.078-0.076-0.206-0.089-0.329-0.097s-0.24-0.010-0.294-0.050c-0.005-0.004-0.014-0.003-0.018 0.002zM10.006 22.27c-0.004 0.005-0.004 0.013 0 0.018 0.046 0.049 0.061 0.166 0.081 0.287s0.047 0.247 0.131 0.317c0.131 0.118 0.333 0.108 0.453-0.024s0.107-0.334-0.024-0.453c-0.078-0.076-0.206-0.089-0.329-0.097s-0.24-0.010-0.294-0.050c-0.005-0.004-0.014-0.003-0.018 0.002zM10.829 21.356c-0.004 0.005-0.004 0.013 0 0.018 0.046 0.049 0.061 0.166 0.081 0.287s0.047 0.247 0.131 0.317c0.131 0.118 0.333 0.108 0.453-0.024s0.107-0.334-0.024-0.453c-0.078-0.076-0.206-0.089-0.329-0.097s-0.24-0.010-0.294-0.050c-0.005-0.004-0.014-0.003-0.018 0.002zM11.652 20.442c-0.004 0.005-0.004 0.013 0 0.018 0.046 0.049 0.061 0.166 0.081 0.287s0.047 0.247 0.131 0.317c0.131 0.118 0.333 0.108 0.453-0.024s0.107-0.334-0.024-0.453c-0.078-0.076-0.206-0.089-0.329-0.097s-0.24-0.010-0.294-0.050c-0.005-0.004-0.014-0.003-0.018 0.002zM12.476 19.528c-0.004 0.005-0.004 0.013 0 0.018 0.046 0.049 0.061 0.166 0.081 0.287s0.047 0.247 0.131 0.317c0.131 0.118 0.333 0.108 0.453-0.024s0.107-0.334-0.024-0.453c-0.078-0.076-0.206-0.089-0.329-0.097s-0.24-0.010-0.294-0.050c-0.005-0.004-0.014-0.003-0.018 0.002zM13.299 18.613c-0.004 0.005-0.004 0.013 0 0.018 0.046 0.049 0.061 0.166 0.081 0.287s0.047 0.247 0.131 0.317c0.131 0.118 0.333 0.108 0.453-0.024s0.107-0.334-0.024-0.453c-0.078-0.076-0.206-0.089-0.329-0.097s-0.24-0.010-0.294-0.050c-0.005-0.004-0.014-0.003-0.018 0.002zM14.122 17.699c-0.004 0.005-0.004 0.013 0 0.018 0.046 0.049 0.061 0.166 0.081 0.287s0.047 0.247 0.131 0.317c0.131 0.118 0.333 0.108 0.453-0.024s0.107-0.334-0.024-0.453c-0.078-0.076-0.206-0.089-0.329-0.097s-0.24-0.010-0.294-0.050c-0.005-0.004-0.014-0.003-0.018 0.002z"></path>
<path fill="#000" d="M8.533 21.76c-0.004 0.005-0.004 0.013 0 0.018 0.046 0.049 0.061 0.166 0.081 0.287s0.047 0.247 0.131 0.317c0.131 0.118 0.333 0.108 0.453-0.024s0.107-0.334-0.024-0.453c-0.078-0.076-0.206-0.089-0.329-0.097s-0.24-0.010-0.294-0.050c-0.005-0.004-0.014-0.003-0.018 0.002zM9.356 20.846c-0.004 0.005-0.004 0.013 0 0.018 0.046 0.049 0.061 0.166 0.081 0.287s0.047 0.247 0.131 0.317c0.131 0.118 0.333 0.108 0.453-0.024s0.107-0.334-0.024-0.453c-0.078-0.076-0.206-0.089-0.329-0.097s-0.24-0.010-0.294-0.050c-0.005-0.004-0.014-0.003-0.018 0.002zM10.179 19.932c-0.004 0.005-0.004 0.013 0 0.018 0.046 0.049 0.061 0.166 0.081 0.287s0.047 0.247 0.131 0.317c0.131 0.118 0.333 0.108 0.453-0.024s0.107-0.334-0.024-0.453c-0.078-0.076-0.206-0.089-0.329-0.097s-0.24-0.010-0.294-0.050c-0.005-0.004-0.014-0.003-0.018 0.002zM11.002 19.018c-0.004 0.005-0.004 0.013 0 0.018 0.046 0.049 0.061 0.166 0.081 0.287s0.047 0.247 0.131 0.317c0.131 0.118 0.333 0.108 0.453-0.024s0.107-0.334-0.024-0.453c-0.078-0.076-0.206-0.089-0.329-0.097s-0.24-0.010-0.294-0.050c-0.005-0.004-0.014-0.003-0.018 0.002zM11.825 18.104c-0.004 0.005-0.004 0.013 0 0.018 0.046 0.049 0.061 0.166 0.081 0.287s0.047 0.247 0.131 0.317c0.131 0.118 0.333 0.108 0.453-0.024s0.107-0.334-0.024-0.453c-0.078-0.076-0.206-0.089-0.329-0.097s-0.24-0.010-0.294-0.050c-0.005-0.004-0.014-0.003-0.018 0.002zM12.648 17.189c-0.004 0.005-0.004 0.013 0 0.018 0.046 0.049 0.061 0.166 0.081 0.287s0.047 0.247 0.131 0.317c0.131 0.118 0.333 0.108 0.453-0.024s0.107-0.334-0.024-0.453c-0.078-0.076-0.206-0.089-0.329-0.097s-0.24-0.010-0.294-0.050c-0.005-0.004-0.014-0.003-0.018 0.002z"></path>
<path fill="#000" d="M7.882 20.337c-0.004 0.005-0.004 0.013 0 0.018 0.046 0.049 0.061 0.166 0.081 0.287s0.047 0.247 0.131 0.317c0.131 0.118 0.333 0.108 0.453-0.024s0.107-0.334-0.024-0.453c-0.078-0.076-0.206-0.089-0.329-0.097s-0.24-0.010-0.294-0.050c-0.005-0.004-0.014-0.003-0.018 0.002zM8.705 19.423c-0.004 0.005-0.004 0.013 0 0.018 0.046 0.049 0.061 0.166 0.081 0.287s0.047 0.247 0.131 0.317c0.131 0.118 0.333 0.108 0.453-0.024s0.107-0.334-0.024-0.453c-0.078-0.076-0.206-0.089-0.329-0.097s-0.24-0.010-0.294-0.050c-0.005-0.004-0.014-0.003-0.018 0.002zM9.529 18.509c-0.004 0.005-0.004 0.013 0 0.018 0.046 0.049 0.061 0.166 0.081 0.287s0.047 0.247 0.131 0.317c0.131 0.118 0.333 0.108 0.453-0.024s0.107-0.334-0.024-0.453c-0.078-0.076-0.206-0.089-0.329-0.097s-0.24-0.010-0.294-0.050c-0.005-0.004-0.014-0.003-0.018 0.002zM10.352 17.595c-0.004 0.005-0.004 0.013 0 0.018 0.046 0.049 0.061 0.166 0.081 0.287s0.047 0.247 0.131 0.317c0.131 0.118 0.333 0.108 0.453-0.024s0.107-0.334-0.024-0.453c-0.078-0.076-0.206-0.089-0.329-0.097s-0.24-0.010-0.294-0.050c-0.005-0.004-0.014-0.003-0.018 0.002zM11.175 16.681c-0.004 0.005-0.004 0.013 0 0.018 0.046 0.049 0.061 0.166 0.081 0.287s0.047 0.247 0.131 0.317c0.131 0.118 0.333 0.108 0.453-0.024s0.107-0.334-0.024-0.453c-0.078-0.076-0.206-0.089-0.329-0.097s-0.24-0.010-0.294-0.050c-0.005-0.004-0.014-0.003-0.018 0.002z"></path>
<path fill="#000" d="M22.459 36.179c-5.145 0-9.316-4.171-9.316-9.316 0-5.462 18.633-5.462 18.633 0 0 5.145-4.171 9.316-9.316 9.316zM22.459 35.369c4.698 0 8.506-3.808 8.506-8.506 0-4.382-17.013-4.382-17.013 0 0 4.698 3.808 8.506 8.506 8.506z"></path>
<path fill="#000" d="M15.168 9.804h1v11.747h-1v-11.747z"></path>
<path fill="#000" stroke="#000" stroke-linejoin="miter" stroke-linecap="butt" stroke-miterlimit="4" stroke-width="1" d="M21.339 22.861h2.241v1.025h-2.241v-1.025z"></path>
<path fill="#000" d="M21.649 23.982h1.62v1h-1.62v-1z"></path>
<path fill="#000" d="M28.941 9.805v0.81h-13.773v-0.81z"></path>
<path fill="#000" d="M28.941 21.147v0.81h-13.772v-0.81z"></path>
<path fill="#000" d="M28.535 9.804h0.81v12.152h-0.81z"></path>
<path fill="none" stroke="#000" stroke-linejoin="miter" stroke-linecap="square" stroke-miterlimit="4" stroke-width="1" d="M16.991 11.627l5.905 5.905"></path>
<path fill="none" stroke="#000" stroke-linejoin="miter" stroke-linecap="butt" stroke-miterlimit="4" stroke-width="1" d="M15.168 26.007c2.349 0.81 4.78 1.215 7.291 1.215s5.077-0.405 7.696-1.215"></path>
</svg>
