<!-- Generated by IcoMoon.io -->
<svg version="1.1" xmlns="http://www.w3.org/2000/svg" width="32" height="32" viewBox="0 0 32 32">
<title>Family-Onboard</title>
<path fill="#000" d="M11.014 14.733v0.741c0 0.159 0.092 0.295 0.223 0.356 0.046 0.021 0.097 0.034 0.151 0.034h0.399c0.054 0 0.105-0.012 0.151-0.034l0.002-0.001c0.13-0.061 0.222-0.196 0.222-0.355v-0.741c0-0.215-0.167-0.389-0.374-0.389h-0.399c-0.207 0-0.374 0.174-0.374 0.389zM14.139 14.733v0.741c0 0.159 0.092 0.295 0.223 0.356 0.046 0.021 0.097 0.034 0.151 0.034h0.399c0.054 0 0.105-0.012 0.151-0.034l0.002-0.001c0.13-0.061 0.222-0.196 0.222-0.355v-0.741c0-0.215-0.167-0.389-0.374-0.389h-0.399c-0.206 0-0.374 0.174-0.374 0.389zM17.264 14.733v0.741c0 0.159 0.092 0.295 0.223 0.356 0.046 0.021 0.097 0.034 0.151 0.034h0.399c0.054 0 0.105-0.012 0.151-0.034l0.002-0.001c0.13-0.061 0.221-0.196 0.221-0.355v-0.741c0-0.215-0.167-0.389-0.374-0.389h-0.399c-0.206 0-0.374 0.174-0.374 0.389zM20.389 14.733v0.741c0 0.159 0.092 0.295 0.223 0.356 0.046 0.021 0.097 0.034 0.151 0.034h0.399c0.054 0 0.105-0.012 0.151-0.034l0.002-0.001c0.13-0.061 0.221-0.196 0.221-0.355v-0.741c0-0.215-0.167-0.389-0.374-0.389h-0.399c-0.206 0-0.374 0.174-0.374 0.389zM9.358 15.188c-0.097-0.332-0.294-0.615-0.549-0.827 0.286-0.244 0.493-0.579 0.576-0.96h0.961l2.294-4.096h1.875l1.069 4.096h9.409l0.558 0.943h-2.46c0 0-0.198 0.008-0.198 0.16s0.013 0.285 0.038 0.448c0.024 0.163 0.104 0.335 0.414 0.409 0.264 0.062 2.539 0.539 3.211 0.68l0.305 0.515h-17.14l-0.364-1.368zM9.879 17.145l21.867-0.015-1.891 3.299c-0.094-0.003-0.188-0.005-0.282-0.005-2.892 0-2.902 1.736-5.82 1.736s-5.813-1.733-8.719-1.733l-0.012-0.004c-2.191 0-3.771 0.984-5.882 1.47l0.142-1.015h0.554c0.442 0 0.801-0.359 0.801-0.801v-0.082l-0.758-2.85z"></path>
<path fill="#8c8c8c" d="M1.826 14.078c-0.568 0-1.028-0.46-1.028-1.028s0.461-1.028 1.028-1.028c0.567 0 1.028 0.46 1.028 1.028s-0.461 1.028-1.028 1.028zM7.672 14.078c-0.567 0-1.028-0.46-1.028-1.028s0.46-1.028 1.028-1.028c0.568 0 1.028 0.46 1.028 1.028s-0.46 1.028-1.028 1.028zM4.832 17.671c-0.364 0-0.66-0.296-0.66-0.66s0.296-0.66 0.66-0.66c0.364 0 0.659 0.296 0.659 0.66s-0.295 0.66-0.659 0.66zM8.807 15.252l1.275 4.794c0 0.098-0.079 0.176-0.176 0.176h-1.118l-0.351 2.518c-0.044 0.089-0.089 0.134-0.178 0.134h-0.183l-0.122 0.001c-0.027 0-0.057-0.006-0.070-0.016s-0.028-0.029-0.043-0.056l-0.112-0.198-0.113 0.198c-0.015 0.027-0.029 0.046-0.043 0.056s-0.034 0.016-0.061 0.016l-0.171-0.001h-0.15c-0.089 0-0.178-0.044-0.178-0.134l-0.1-0.717-0.367-3.433-0.653 0.549-0.304 1.142-0.34 2.47c-0.026 0.052-0.052 0.078-0.105 0.078h-0.107l-0.071 0c-0.016 0-0.034-0.003-0.041-0.009s-0.016-0.017-0.025-0.033l-0.066-0.116-0.066 0.116c-0.009 0.016-0.017 0.026-0.025 0.033s-0.020 0.009-0.036 0.009l-0.1-0h-0.088c-0.052 0-0.104-0.026-0.104-0.078l-0.359-2.544-0.404-1.503c-0.016 0.011-0.029 0.023-0.046 0.032l-0.401 0.178h-0.045l-0.534 3.827c-0.045 0.089-0.089 0.134-0.178 0.134h-0.183l-0.122 0.001c-0.027 0-0.057-0.006-0.071-0.016s-0.028-0.029-0.043-0.056l-0.112-0.198-0.113 0.198c-0.015 0.027-0.029 0.046-0.043 0.056s-0.034 0.016-0.061 0.016l-0.171-0.001h-0.15c-0.089 0-0.178-0.044-0.178-0.134l-0.534-3.827h-0.045l-0.4-0.178c-0.144-0.058-0.234-0.202-0.223-0.356l0.089-2.803c0.047-0.629 0.571-1.114 1.202-1.113h1.157c0.63-0.002 1.155 0.484 1.201 1.113l0.148 2.323h2.199l0.699-2.603c0.133-0.478 0.56-0.816 1.055-0.836 0.489 0 0.919 0.322 1.056 0.791z"></path>
</svg>
