<!-- Generated by IcoMoon.io -->
<svg version="1.1" xmlns="http://www.w3.org/2000/svg" width="32" height="32" viewBox="0 0 32 32">
<title>Family-Package</title>
<path fill="#8c8c8c" d="M2.366 13.843c-0.736 0-1.333-0.596-1.333-1.332s0.597-1.333 1.333-1.333c0.736 0 1.333 0.597 1.333 1.333s-0.597 1.332-1.333 1.332zM10.047 13.98c-0.736 0-1.333-0.596-1.333-1.332s0.597-1.333 1.333-1.333c0.736 0 1.333 0.597 1.333 1.333s-0.597 1.332-1.333 1.332zM6.262 18.637c-0.472 0-0.855-0.383-0.855-0.855s0.383-0.856 0.855-0.856c0.472 0 0.855 0.384 0.855 0.856s-0.383 0.855-0.855 0.855zM11.415 15.502l1.653 6.213c0 0.126-0.102 0.228-0.228 0.228h-1.45l-0.456 3.264c-0.058 0.115-0.115 0.173-0.23 0.173h-0.237l-0.158 0c-0.035 0-0.073-0.006-0.091-0.020s-0.036-0.038-0.055-0.073l-0.146-0.257-0.146 0.257c-0.019 0.035-0.038 0.059-0.055 0.073s-0.044 0.020-0.079 0.020l-0.222-0h-0.194c-0.115 0-0.231-0.058-0.231-0.173l-0.129-0.93-0.476-4.449-0.846 0.711-0.394 1.481-0.441 3.201c-0.034 0.068-0.067 0.101-0.135 0.101h-0.139l-0.093 0c-0.020 0-0.043-0.004-0.053-0.012-0.010-0.008-0.021-0.022-0.033-0.043l-0.085-0.151-0.086 0.151c-0.011 0.021-0.022 0.034-0.032 0.043-0.010 0.007-0.026 0.012-0.046 0.012l-0.13-0h-0.114c-0.067 0-0.135-0.033-0.135-0.101l-0.465-3.298-0.523-1.948c-0.020 0.013-0.037 0.030-0.059 0.041l-0.519 0.23h-0.058l-0.692 4.96c-0.058 0.115-0.115 0.173-0.231 0.173h-0.237l-0.158 0c-0.035 0-0.074-0.006-0.092-0.020s-0.035-0.038-0.055-0.073l-0.146-0.257-0.146 0.257c-0.020 0.035-0.038 0.059-0.056 0.073s-0.044 0.020-0.079 0.020l-0.222-0h-0.194c-0.116 0-0.231-0.058-0.231-0.173l-0.692-4.96h-0.058l-0.519-0.23c-0.186-0.075-0.303-0.261-0.288-0.462l0.116-3.634c0.061-0.815 0.74-1.444 1.557-1.442h1.5c0.817-0.002 1.497 0.627 1.558 1.442l0.191 3.011h2.851l0.905-3.373c0.173-0.62 0.726-1.057 1.368-1.083 0.634 0 1.191 0.418 1.368 1.026zM21.021 11.587v1.457c0 0.222 0.182 0.403 0.403 0.403h0.712c0.222 0 0.403-0.181 0.403-0.403v-1.457c0-0.222-0.181-0.403-0.403-0.403h-0.712c-0.222 0-0.403 0.181-0.403 0.403zM21.021 8.475v1.457c0 0.222 0.182 0.403 0.403 0.403h0.712c0.222 0 0.403-0.182 0.403-0.403v-1.457c0-0.222-0.181-0.404-0.403-0.404h-0.712c-0.222 0-0.403 0.182-0.403 0.404zM23.751 11.587v1.457c0 0.222 0.182 0.403 0.403 0.403h0.712c0.222 0 0.403-0.181 0.403-0.403v-1.457c0-0.222-0.182-0.403-0.403-0.403h-0.712c-0.222 0-0.403 0.181-0.403 0.403zM23.751 8.475v1.457c0 0.222 0.182 0.403 0.403 0.403h0.712c0.222 0 0.403-0.182 0.403-0.403v-1.457c0-0.222-0.182-0.404-0.403-0.404h-0.712c-0.222 0-0.403 0.182-0.403 0.404zM26.482 11.587v1.457c0 0.222 0.181 0.403 0.403 0.403h0.711c0.222 0 0.403-0.181 0.403-0.403v-1.457c0-0.222-0.181-0.403-0.403-0.403h-0.711c-0.222 0-0.403 0.181-0.403 0.403zM26.482 8.475v1.457c0 0.222 0.181 0.403 0.403 0.403h0.711c0.222 0 0.403-0.182 0.403-0.403v-1.457c0-0.222-0.181-0.404-0.403-0.404h-0.711c-0.222 0-0.403 0.182-0.403 0.404zM28.648 16.435l-1.175-2.050h-7.435v-6.982c0-0.222 0.181-0.403 0.403-0.403h8.275c0.222 0 0.403 0.181 0.403 0.403l-0.038 9.032h-0.433z"></path>
<path fill="#000" d="M13.529 20.115l18.459-0.016-2.366 4.14h-0.355c-3.644 0-4.899 1.428-8.59 1.428-3.095 0-5.635-1.934-8.651-1.579l0.196-1.325h0.898c0.475 0 0.862-0.386 0.862-0.862v-0.083l-0.453-1.703zM22.905 17.864v-0.953c0-0.261-0.214-0.475-0.476-0.475h-0.512c-0.262 0-0.476 0.214-0.476 0.475v0.953c0 0.262 0.214 0.476 0.476 0.476h0.512c0.262 0 0.476-0.214 0.476-0.476zM19.172 17.864v-0.953c0-0.261-0.215-0.475-0.476-0.475h-0.513c-0.262 0-0.476 0.214-0.476 0.475v0.953c0 0.262 0.214 0.476 0.476 0.476h0.513c0.261 0 0.476-0.214 0.476-0.476zM15.439 17.864v-0.953c0-0.261-0.214-0.475-0.476-0.475h-0.513c-0.262 0-0.476 0.214-0.476 0.475v0.953c0 0.262 0.214 0.476 0.476 0.476h0.513c0.261 0 0.476-0.214 0.476-0.476zM28.962 18.562l0.383 0.646h-15.976l-0.922-3.466c-0.051-0.175-0.13-0.337-0.223-0.489h1.062l2.876-5.134h2.351l1.34 5.134h7.151l0.7 1.183h-3.084c0 0-0.249 0.009-0.249 0.2s0.017 0.357 0.047 0.562c0.031 0.205 0.13 0.42 0.52 0.512 0.331 0.079 3.183 0.676 4.026 0.852z"></path>
</svg>
