<!-- Generated by IcoMoon.io -->
<svg version="1.1" xmlns="http://www.w3.org/2000/svg" width="32" height="32" viewBox="0 0 32 32">
<title>Family</title>
<path fill="#8c8c8c" d="M20.321 26.247c-0.023 0.005-0.047 0.007-0.072 0.007h-2.287l-0.719 5.162c-0.091 0.183-0.182 0.274-0.364 0.274h-0.374l-0.249 0.001c-0.056 0-0.117-0.011-0.145-0.033s-0.057-0.060-0.087-0.116l-0.23-0.406-0.23 0.406c-0.031 0.055-0.060 0.094-0.087 0.116s-0.069 0.033-0.124 0.033l-0.35-0.001h-0.307c-0.182 0-0.364-0.091-0.364-0.274l-0.719-5.162h-2.177c-0.27 0-0.45-0.090-0.36-0.361l2.609-9.735c0.272-0.98 1.145-1.672 2.159-1.713 0.999 0 1.878 0.661 2.158 1.623l2.346 8.837 2.344-8.747c0.272-0.98 1.145-1.672 2.159-1.713 0.999 0 1.879 0.661 2.158 1.623l2.609 9.826c0 0.199-0.161 0.361-0.36 0.361h-2.287l-0.719 5.162c-0.091 0.183-0.182 0.274-0.364 0.274h-0.374l-0.249 0.001c-0.055 0-0.116-0.011-0.144-0.033s-0.057-0.060-0.088-0.116l-0.23-0.406-0.23 0.406c-0.031 0.055-0.060 0.094-0.087 0.116s-0.069 0.033-0.124 0.033l-0.35-0.001h-0.307c-0.182 0-0.364-0.091-0.364-0.274l-0.719-5.162h-2.177c-0.043 0-0.083-0.002-0.121-0.007zM6.726 9.365c1.1 0 1.992 0.892 1.992 1.992s-0.892 1.992-1.992 1.992c-1.1 0-1.992-0.892-1.992-1.992s0.892-1.992 1.992-1.992zM15.742 9.237c1.1 0 1.992 0.892 1.992 1.992s-0.892 1.992-1.992 1.992c-1.1 0-1.991-0.892-1.991-1.992s0.891-1.992 1.991-1.992zM24.809 9.237c1.1 0 1.992 0.892 1.992 1.992s-0.892 1.992-1.992 1.992c-1.1 0-1.992-0.892-1.992-1.992s0.892-1.992 1.992-1.992zM6.473 31.793l-0.349-0.001h-0.307c-0.181 0-0.363-0.091-0.363-0.273l-1.090-7.811h-0.091l-0.818-0.363c-0.293-0.118-0.477-0.412-0.454-0.727l0.182-5.722c0.095-1.283 1.166-2.274 2.453-2.271h2.361c1.287-0.003 2.357 0.988 2.453 2.271l0.363 5.722c-0.002 0.309-0.178 0.59-0.454 0.727l-0.817 0.363h-0.091l-1.090 7.811c-0.091 0.182-0.182 0.273-0.364 0.273h-0.373l-0.249 0.001c-0.055 0-0.116-0.011-0.143-0.033s-0.057-0.059-0.087-0.115l-0.23-0.405-0.23 0.405c-0.030 0.055-0.060 0.093-0.087 0.115s-0.068 0.033-0.124 0.033z"></path>
<path fill="#000" d="M10.745 0.533c1.3 0 2.353 1.053 2.353 2.352s-1.053 2.352-2.353 2.352c-1.299 0-2.352-1.053-2.352-2.352s1.053-2.352 2.352-2.352zM20.172 0.533c1.299 0 2.352 1.053 2.352 2.352s-1.053 2.352-2.352 2.352c-1.3 0-2.353-1.053-2.353-2.352s1.053-2.352 2.353-2.352zM18.615 11.2c0-1.391-0.99-2.554-2.302-2.82 0.234-1.24 1.312-2.166 2.602-2.163h2.555c1.301-0.003 2.386 0.938 2.607 2.193-1.258 0.305-2.199 1.436-2.199 2.789 0 1.107 0.635 2.059 1.552 2.54-0.845 0.42-1.501 1.176-1.767 2.132l-1.311 4.894-1.32-4.972c-0.282-0.971-0.979-1.726-1.851-2.118 0.853-0.499 1.434-1.417 1.434-2.476zM8.544 13.606c0.655-0.531 1.077-1.341 1.077-2.249 0-1.521-1.18-2.769-2.673-2.884 0.196-1.287 1.296-2.259 2.619-2.255h2.555c1.335-0.003 2.446 0.988 2.625 2.294-1.092 0.407-1.876 1.454-1.876 2.688 0 1.107 0.635 2.059 1.552 2.54-0.845 0.42-1.501 1.176-1.767 2.132l-0.972 3.628-0.17-2.671c-0.123-1.654-1.384-2.975-2.97-3.223z"></path>
</svg>
