<!-- Generated by IcoMoon.io -->
<svg version="1.1" xmlns="http://www.w3.org/2000/svg" width="32" height="32" viewBox="0 0 32 32">
<title>Family-City</title>
<path fill="#8c8c8c" d="M3.009 16.929c-0.936 0-1.694-0.775-1.694-1.732s0.759-1.732 1.694-1.732c0.936 0 1.694 0.775 1.694 1.732s-0.759 1.732-1.694 1.732zM12.775 17.107c-0.936 0-1.694-0.775-1.694-1.732s0.759-1.732 1.694-1.732c0.936 0 1.694 0.776 1.694 1.732s-0.758 1.732-1.694 1.732zM7.963 23.16c-0.6 0-1.087-0.498-1.087-1.111s0.487-1.111 1.087-1.111c0.6 0 1.087 0.498 1.087 1.111s-0.487 1.111-1.087 1.111zM14.515 19.086l2.102 8.077c0 0.164-0.13 0.297-0.29 0.297h-1.843l-0.579 4.243c-0.031 0.153-0.147 0.225-0.294 0.225l-0.502 0.001c-0.045 0-0.103 0-0.142-0.064-0.021-0.034-0.23-0.392-0.23-0.392s-0.213 0.364-0.228 0.389c-0.026 0.042-0.084 0.067-0.129 0.067l-0.529-0.001c-0.147 0-0.274-0.074-0.293-0.225l-0.165-1.209-0.605-5.784-1.076 0.925-0.501 1.925-0.56 4.161c-0.014 0.089-0.086 0.132-0.172 0.132l-0.295 0c-0.026 0-0.061-0.002-0.079-0.031-0.009-0.014-0.139-0.236-0.139-0.236s-0.128 0.218-0.138 0.232c-0.023 0.033-0.045 0.035-0.071 0.035l-0.31-0c-0.086 0-0.161-0.044-0.172-0.132l-0.591-4.287-0.665-2.532c-0.025 0.018-0.048 0.039-0.075 0.053l-0.734 0.3-0.88 6.448c-0.023 0.147-0.118 0.225-0.293 0.225l-0.502 0.001c-0.045 0-0.094-0.009-0.116-0.026s-0.046-0.049-0.071-0.095l-0.186-0.334c0 0-0.206 0.347-0.221 0.371-0.049 0.077-0.091 0.084-0.135 0.084l-0.529-0.001c-0.147 0-0.269-0.075-0.293-0.225l-0.88-6.448-0.734-0.3c-0.237-0.097-0.385-0.34-0.367-0.6l0.147-4.724c0.077-1.059 0.941-1.878 1.98-1.875h1.907c1.039-0.003 1.903 0.815 1.98 1.875l0.243 3.914h3.626l1.152-4.385c0.22-0.806 0.922-1.374 1.739-1.408 0.805 0 1.514 0.544 1.74 1.334z"></path>
<path fill="#000" d="M29.926 13.93v-2.756c0-0.419-0.337-0.762-0.748-0.762h-1.321c-0.411 0-0.748 0.343-0.748 0.762v2.756c0 0.419 0.337 0.762 0.748 0.762h1.321c0.411 0 0.748-0.343 0.748-0.762zM29.926 20.148v-2.725c0-0.419-0.337-0.762-0.748-0.762h-1.321c-0.411 0-0.748 0.343-0.748 0.762v2.725c0 0.419 0.337 0.762 0.748 0.762h1.321c0.411 0 0.748-0.343 0.748-0.762zM29.926 26.397v-2.756c0-0.419-0.337-0.762-0.748-0.762h-1.321c-0.411 0-0.748 0.343-0.748 0.762v2.756c0 0.419 0.337 0.762 0.748 0.762h1.321c0.411 0 0.748-0.343 0.748-0.762zM24.859 13.93v-2.756c0-0.419-0.336-0.762-0.748-0.762h-1.321c-0.411 0-0.748 0.343-0.748 0.762v2.756c0 0.419 0.337 0.762 0.748 0.762h1.321c0.412 0 0.748-0.343 0.748-0.762zM24.859 20.148v-2.725c0-0.419-0.336-0.762-0.748-0.762h-1.321c-0.411 0-0.748 0.343-0.748 0.762v2.725c0 0.419 0.337 0.762 0.748 0.762h1.321c0.412 0 0.748-0.343 0.748-0.762zM24.859 26.397v-2.756c0-0.419-0.336-0.762-0.748-0.762h-1.321c-0.411 0-0.748 0.343-0.748 0.762v2.756c0 0.419 0.337 0.762 0.748 0.762h1.321c0.412 0 0.748-0.343 0.748-0.762zM19.793 13.93v-2.756c0-0.419-0.336-0.762-0.748-0.762h-1.321c-0.412 0-0.748 0.343-0.748 0.762v2.756c0 0.419 0.336 0.762 0.748 0.762h1.321c0.412 0 0.748-0.343 0.748-0.762zM19.793 20.148v-2.725c0-0.419-0.336-0.762-0.748-0.762h-1.321c-0.412 0-0.748 0.343-0.748 0.762v2.725c0 0.419 0.336 0.762 0.748 0.762h1.321c0.411 0 0.748-0.343 0.748-0.762zM31.255 7.921c0.412 0 0.748 0.343 0.748 0.762v23.245l-16.852-0.059v-3.265l0.041-0.301h1.083c0.636 0 1.153-0.527 1.153-1.174v-0.033c0.091 0.040 0.191 0.063 0.296 0.063h1.321c0.412 0 0.748-0.343 0.748-0.762v-2.756c0-0.419-0.336-0.762-0.748-0.762h-1.321c-0.412 0-0.748 0.343-0.748 0.762v1.641l-1.675-6.412c-0.040-0.139-0.091-0.272-0.15-0.4v-9.787c0-0.419 0.336-0.762 0.748-0.762h15.356zM9.982 7.371c-0.167-0.207-0.363-0.389-0.58-0.541l1.168-1.19c0.153-0.156 0.402-0.156 0.556 0s0.153 0.41 0 0.566l-1.143 1.165zM5.601 7.371l-1.143-1.165c-0.153-0.156-0.153-0.41 0-0.566s0.402-0.156 0.556 0l1.168 1.19c-0.216 0.153-0.412 0.335-0.58 0.541zM7.792 6.316c-0.134 0-0.264 0.013-0.393 0.031v-1.714c0-0.221 0.176-0.4 0.393-0.4s0.393 0.179 0.393 0.4v1.714c-0.129-0.018-0.259-0.031-0.393-0.031zM4.954 9.209c0 0.077 0.005 0.153 0.011 0.229h-1.495c-0.217 0-0.393-0.179-0.393-0.4s0.176-0.4 0.393-0.4h1.54c-0.036 0.185-0.056 0.376-0.056 0.572zM10.126 10.85l0.999 1.018c0.153 0.156 0.153 0.41 0 0.566-0.077 0.078-0.177 0.117-0.278 0.117s-0.201-0.039-0.278-0.117l-0.975-0.994c0.203-0.171 0.381-0.37 0.531-0.591zM12.114 8.637c0.217 0 0.393 0.179 0.393 0.4s-0.176 0.4-0.393 0.4h-1.495c0.006-0.076 0.011-0.152 0.011-0.229 0-0.196-0.020-0.387-0.056-0.572h1.54zM5.458 10.85c0.15 0.221 0.328 0.42 0.531 0.591l-0.976 0.994c-0.077 0.078-0.177 0.117-0.278 0.117s-0.201-0.039-0.278-0.117c-0.153-0.156-0.153-0.41 0-0.566l1-1.018zM7.792 12.101c0.134 0 0.264-0.013 0.393-0.031v1.371c0 0.221-0.176 0.4-0.393 0.4s-0.393-0.179-0.393-0.4v-1.371c0.129 0.018 0.259 0.031 0.393 0.031zM9.627 9.204c0 1.030-0.82 1.866-1.831 1.866s-1.831-0.835-1.831-1.866c0-1.031 0.82-1.866 1.831-1.866s1.831 0.835 1.831 1.866z"></path>
</svg>
