<!-- Generated by IcoMoon.io -->
<svg version="1.1" xmlns="http://www.w3.org/2000/svg" width="32" height="32" viewBox="0 0 32 32">
<title>Food</title>
<path fill="#000" d="M5.477 4.683c0.434 0 0.786 0.373 0.786 0.832v4.335c0 1.47-0.996 2.697-2.311 2.965v12.241c0 0.46-0.352 0.832-0.786 0.832s-0.786-0.373-0.786-0.832v-12.241c-1.315-0.268-2.311-1.496-2.311-2.965v-4.335c0-0.46 0.352-0.832 0.786-0.832s0.786 0.373 0.786 0.832v4.335c0 0.543 0.303 1.011 0.74 1.228v-5.606c0-0.46 0.352-0.832 0.786-0.832s0.786 0.373 0.786 0.832v5.606c0.436-0.217 0.739-0.685 0.739-1.228v-4.335c0-0.46 0.352-0.832 0.786-0.832zM31.089 5.373c0.006 0.041 0.010 0.082 0.010 0.124v19.561c0 0.459-0.35 0.831-0.783 0.831s-0.783-0.372-0.783-0.831v-8.438h-0.615c-0.662 0-1.265-0.553-1.203-1.277l1.817-10.213c0.137-0.873 1.558-0.831 1.558 0.235v0.008z"></path>
<path fill="#8c8c8c" d="M16.651 6.176c-4.757 0-8.627 4.030-8.627 8.982s3.87 8.982 8.627 8.982 8.628-4.030 8.628-8.982c0-4.953-3.87-8.982-8.627-8.982zM6.429 15.158c0-5.868 4.586-10.642 10.222-10.642s10.222 4.774 10.222 10.642c0 5.868-4.586 10.642-10.222 10.642s-10.222-4.774-10.222-10.642z"></path>
</svg>
