<!-- Generated by IcoMoon.io -->
<svg version="1.1" xmlns="http://www.w3.org/2000/svg" width="32" height="32" viewBox="0 0 32 32">
<title>Group</title>
<path fill="#000" d="M6.462 17.071c-1.989 0-3.601-1.613-3.601-3.601s1.612-3.601 3.601-3.601c1.989 0 3.601 1.612 3.601 3.601s-1.612 3.601-3.601 3.601zM12.843 21.655l0.002 0.011 0.043 0.443c-1.771 1.137-3.875 1.402-6.135 1.402-2.529 0-4.864-0.428-6.753-1.824l0.002-0.025c0.123-1.897 1.712-3.41 3.639-3.41l0.943 0.002c0.232 0 0.406 0.045 0.522 0.135s0.239 0.252 0.368 0.484l0.968 1.703 0.968-1.703c0.13-0.232 0.251-0.393 0.368-0.484s0.29-0.135 0.523-0.135l0.191-0.002h0.713c1.253 0 2.364 0.641 3.021 1.611 0.351 0.519 0.573 1.132 0.617 1.792zM15.801 15.202c-1.989 0-3.601-1.612-3.601-3.601s1.612-3.601 3.601-3.601c1.989 0 3.601 1.612 3.601 3.601s-1.612 3.601-3.601 3.601zM25.141 16.759c-1.989 0-3.601-1.612-3.601-3.601s1.613-3.601 3.601-3.601 3.601 1.612 3.601 3.601c0 1.989-1.613 3.601-3.601 3.601zM31.522 21.343l0.003 0.011 0.042 0.444c-1.77 1.137-3.875 1.401-6.135 1.401-2.529 0-4.864-0.428-6.752-1.824l0.002-0.025c0.123-1.897 1.713-3.41 3.639-3.41l0.943 0.002c0.232 0 0.407 0.045 0.523 0.135s0.239 0.252 0.368 0.484l0.968 1.703 0.968-1.703c0.13-0.232 0.251-0.393 0.368-0.484s0.29-0.135 0.523-0.135l0.191-0.002h0.713c1.254 0 2.364 0.641 3.021 1.611 0.351 0.519 0.573 1.132 0.617 1.792zM17.749 21.286l-0.029 0.3c-0.532 0.040-1.075 0.057-1.629 0.057-0.797 0-1.574-0.043-2.325-0.145-0.067-0.77-0.332-1.515-0.767-2.159-0.628-0.927-1.56-1.581-2.61-1.863 0.662-0.671 1.578-1.092 2.59-1.092l0.943 0.002c0.232 0 0.407 0.045 0.523 0.136 0.116 0.090 0.239 0.252 0.367 0.484l0.968 1.703 0.968-1.703c0.129-0.232 0.251-0.394 0.367-0.484 0.116-0.091 0.291-0.136 0.523-0.136l0.191-0.002h0.714c0.888 0 1.702 0.326 2.336 0.86-1.72 0.573-3.002 2.137-3.131 4.031l-0.001 0.012z"></path>
</svg>
