<!-- Generated by IcoMoon.io -->
<svg version="1.1" xmlns="http://www.w3.org/2000/svg" width="32" height="32" viewBox="0 0 32 32">
<title>Minibus</title>
<path fill="#000" d="M7.763 21.498c0.673 0 1.218-0.545 1.218-1.218s-0.545-1.218-1.218-1.218c-0.673 0-1.218 0.545-1.218 1.218s0.545 1.218 1.218 1.218zM7.763 17.94c1.292 0 2.34 1.048 2.34 2.34s-1.048 2.34-2.34 2.34c-1.292 0-2.34-1.048-2.34-2.34s1.048-2.34 2.34-2.34zM24.938 17.94c1.292 0 2.34 1.048 2.34 2.34s-1.048 2.34-2.34 2.34c-1.292 0-2.34-1.048-2.34-2.34s1.048-2.34 2.34-2.34zM24.938 21.498c0.673 0 1.218-0.545 1.218-1.218s-0.545-1.218-1.218-1.218c-0.673 0-1.218 0.545-1.218 1.218s0.545 1.218 1.218 1.218zM30.681 15.037c0.182 0.040 0.319 0.203 0.319 0.396v4.289c0 0.223-0.182 0.405-0.405 0.405l-2.661-0.061c-0.106-1.552-1.398-2.779-2.977-2.779-1.593 0-2.894 1.248-2.98 2.819h-10.988l-0.242-0.179c-0.171-1.486-1.433-2.64-2.965-2.64-1.649 0-2.985 1.337-2.985 2.985 0 0.119 0.008 0.235 0.021 0.35l-0.248 0.197-3.569-0.363c0.111-0.184 0-12.457 0-12.457h18.759c2.077 0 5.29 1.718 6.108 2.174h-4.282c0 0-0.57 0.022-0.57 0.459s0.038 0.818 0.109 1.287c0.070 0.469 0.298 0.961 1.189 1.172 0.35 0.083 8.369 1.945 8.369 1.945zM18.534 14.034v-3.717c0-0.063-0.052-0.115-0.115-0.115h-14.793c-0.063 0-0.115 0.052-0.115 0.115v3.717c0 0.063 0.052 0.115 0.115 0.115h14.793c0.063 0 0.115-0.052 0.115-0.115z"></path>
</svg>
