<!-- Generated by IcoMoon.io -->
<svg version="1.1" xmlns="http://www.w3.org/2000/svg" width="32" height="32" viewBox="0 0 32 32">
<title>Motorcycle-Side-Car</title>
<path fill="#000" d="M17.702 20.987c1.28-1.153 2.041-2.597 2.041-4.163 0-2.401-1.786-4.512-4.488-5.732l2.047-2.043c0.028-0.026 0.065-0.042 0.106-0.042h4.649l-0.917-1.928h-2.748c-0.085 0-0.154-0.069-0.154-0.154v-0.771c0-0.085 0.069-0.153 0.154-0.153h3.439c0.061 0 0.114 0.035 0.139 0.087 0 0 2.528 5.293 3.903 8.091 0.414-0.115 0.849-0.177 1.299-0.177 2.667 0 4.83 2.162 4.83 4.83s-2.163 4.83-4.83 4.83c-2.668 0-4.83-2.162-4.83-4.83 0-1.782 0.965-3.339 2.403-4.176l-1.148-2.412-4.757 8.666c-0.027 0.047-0.076 0.078-0.134 0.078h-1.003zM1.964 12.186c0-0.24 0-0.371 0-0.39v-1.476c0-0.085 0.068-0.153 0.153-0.153l7.429-0.001c0.031 0 0.059 0.009 0.083 0.024l2.203 1.403c0.024 0.015 0.053 0.025 0.084 0.025l1.064-0c-2.88 3.205-6.824 3.528-10.995 0.553-0.007 0.005-0.014 0.010-0.020 0.015zM27.17 21.345c1.389 0 2.514-1.126 2.514-2.514s-1.126-2.514-2.514-2.514c-1.389 0-2.514 1.126-2.514 2.514s1.126 2.514 2.514 2.514z"></path>
<path fill="#000" d="M3.853 21.935c-2.336-1.142-3.853-2.986-3.853-5.066 0-1.502 0.791-2.881 2.111-3.961 1.328 1.154 3.173 1.869 5.214 1.869 2.855 0 5.329-1.4 6.537-3.444 2.96 1.058 4.973 3.141 4.973 5.536s-2.013 4.479-4.974 5.537c0-0.028 0.001-0.056 0.001-0.084 0-2.768-2.244-5.011-5.011-5.011-2.638 0-4.799 2.038-4.997 4.624zM8.889 18.444c1.963 0 3.555 1.592 3.555 3.556s-1.592 3.556-3.555 3.556c-1.964 0-3.556-1.592-3.556-3.556s1.592-3.556 3.556-3.556zM8.942 23.889c0.982 0 1.837-0.796 1.837-1.778s-0.796-1.778-1.778-1.778c-0.982 0-1.778 0.796-1.778 1.778s0.737 1.778 1.719 1.778z"></path>
</svg>
