<!-- Generated by IcoMoon.io -->
<svg version="1.1" xmlns="http://www.w3.org/2000/svg" width="32" height="32" viewBox="0 0 32 32">
<title>Motorcycle</title>
<path fill="#000" d="M5.026 23.248c1.47 0 2.75-1.192 2.75-2.662s-1.192-2.662-2.662-2.662c-1.47 0-2.662 1.192-2.662 2.662s1.104 2.662 2.574 2.662zM5.114 15.472c2.824 0 5.114 2.29 5.114 5.114s-2.29 5.114-5.114 5.114c-2.825 0-5.114-2.289-5.114-5.114s2.29-5.114 5.114-5.114zM26.886 15.472c2.824 0 5.114 2.29 5.114 5.114s-2.29 5.114-5.114 5.114c-2.825 0-5.114-2.289-5.114-5.114 0-1.887 1.022-3.535 2.544-4.422l-1.215-2.554-5.037 9.176c-0.028 0.049-0.081 0.083-0.142 0.083h-5.098c-0.072 0-0.134-0.047-0.155-0.113l-1.966-5.899c-0.010-0.031-0.029-0.058-0.054-0.078l-4.042-3.441c-0.029-0.024-0.065-0.039-0.106-0.039l-6.142 0.001c-0.090 0-0.162-0.073-0.162-0.163v-1.562c0-0.090 0.072-0.162 0.162-0.162l7.866-0.001c0.033 0 0.062 0.010 0.088 0.026l2.333 1.485c0.026 0.016 0.056 0.027 0.089 0.027l2.909-0.001c0.049 0 0.092-0.021 0.122-0.055l2.671-2.666c0.029-0.028 0.069-0.045 0.112-0.045h4.922l-0.971-2.041h-2.91c-0.090 0-0.163-0.073-0.163-0.163v-0.816c0-0.090 0.073-0.162 0.163-0.162h3.641c0.065 0 0.12 0.037 0.147 0.092 0 0 2.677 5.604 4.133 8.567 0.438-0.122 0.899-0.188 1.376-0.188zM26.886 23.248c1.47 0 2.662-1.192 2.662-2.662s-1.192-2.662-2.662-2.662c-1.47 0-2.662 1.192-2.662 2.662s1.192 2.662 2.662 2.662z"></path>
</svg>
