<!-- Generated by IcoMoon.io -->
<svg version="1.1" xmlns="http://www.w3.org/2000/svg" width="32" height="32" viewBox="0 0 32 32">
<title>Motor-Home</title>
<path fill="#000" d="M7.763 21.21c0.673 0 1.218-0.545 1.218-1.218s-0.545-1.218-1.218-1.218c-0.673 0-1.218 0.545-1.218 1.218s0.545 1.218 1.218 1.218zM7.763 17.652c1.292 0 2.34 1.048 2.34 2.34s-1.048 2.34-2.34 2.34c-1.292 0-2.34-1.048-2.34-2.34s1.048-2.34 2.34-2.34zM24.938 17.652c1.292 0 2.34 1.048 2.34 2.34s-1.048 2.34-2.34 2.34c-1.292 0-2.34-1.048-2.34-2.34s1.048-2.34 2.34-2.34zM24.938 21.21c0.673 0 1.218-0.545 1.218-1.218s-0.545-1.218-1.218-1.218-1.218 0.545-1.218 1.218c0 0.673 0.545 1.218 1.218 1.218zM30.681 14.749c0.182 0.040 0.319 0.203 0.319 0.396v4.289c0 0.223-0.182 0.405-0.405 0.405l-2.661-0.061c-0.106-1.552-1.398-2.779-2.977-2.779-1.593 0-2.894 1.248-2.98 2.819l-11.244 0.006c0-1.48-1.418-2.825-2.95-2.825-1.649 0-2.985 1.337-2.985 2.985 0 0.119 0.008 0.235 0.021 0.351l-3.817-0.166v-13.169h25.428c0.326 0 0.612 0.174 0.769 0.435l0.104 0.195 0.578 0.942c0.076 0.131 0.119 0.284 0.119 0.446 0 0.495-0.402 0.897-0.897 0.897h-5.689c-0.168 0.043-0.397 0.154-0.397 0.431 0 0.437 0.038 0.818 0.109 1.287s0.298 0.961 1.189 1.172c0.35 0.083 8.369 1.945 8.369 1.945zM18.534 18.435v-8.296c0-0.123-0.101-0.224-0.224-0.224h-3.498c-0.123 0-0.224 0.101-0.224 0.224v8.296c0 0.123 0.101 0.224 0.224 0.224h3.498c0.123 0 0.224-0.101 0.224-0.224zM12.435 13.746v-3.717c0-0.063-0.052-0.115-0.115-0.115h-8.694c-0.063 0-0.115 0.052-0.115 0.115v3.717c0 0.063 0.052 0.115 0.115 0.115h8.694c0.063 0 0.115-0.052 0.115-0.115z"></path>
</svg>
