<!-- Generated by IcoMoon.io -->
<svg version="1.1" xmlns="http://www.w3.org/2000/svg" width="32" height="32" viewBox="0 0 32 32">
<title>Night-Onboard</title>
<path fill="#8c8c8c" d="M14.933 17.373c0.286 0 0.519 0.245 0.519 0.545v3.653c0 0.3-0.234 0.545-0.519 0.545h-0.674c0.017 0.055 0.028 0.113 0.028 0.174v0.253c0 0.325-0.251 0.588-0.561 0.588h-0.241c-0.31 0-0.561-0.264-0.561-0.588v-0.253c0-0.061 0.011-0.118 0.028-0.174h-9.44c0.017 0.055 0.028 0.113 0.028 0.174v0.253c0 0.325-0.251 0.588-0.561 0.588h-0.241c-0.31 0-0.561-0.264-0.561-0.588v-0.253c0-0.061 0.011-0.118 0.028-0.174h-0.827c-0.286 0-0.52-0.245-0.52-0.545v-3.653c0-0.3 0.234-0.545 0.52-0.545h0.781v-0.001l12.777 0.001zM2.824 16.527c0 0.005 0.001 0.009 0.001 0.014h-0.669v-0.456c0-1.493 1.165-2.714 2.59-2.714h6.985c1.424 0 2.59 1.221 2.59 2.714v0.456h-0.662c0-0.004 0.001-0.009 0.001-0.014 0-0.58-0.453-1.055-1.007-1.055h-3.431c-0.476 0-0.876 0.351-0.98 0.818-0.104-0.467-0.504-0.818-0.98-0.818h-3.431c-0.554 0-1.007 0.475-1.007 1.055z"></path>
<path fill="#000" d="M16.575 15.865c0-0.217 0.173-0.395 0.385-0.395h0.415c0.212 0 0.385 0.178 0.385 0.395v0.79c0 0.217-0.173 0.395-0.385 0.395h-0.415c-0.212 0-0.385-0.178-0.385-0.395v-0.79zM19.595 15.865v0.79c0 0.217 0.173 0.395 0.385 0.395h0.415c0.212 0 0.385-0.178 0.385-0.395v-0.79c0-0.217-0.173-0.395-0.385-0.395h-0.415c-0.212 0-0.385 0.178-0.385 0.395zM22.614 15.865v0.79c0 0.217 0.173 0.395 0.385 0.395h0.415c0.212 0 0.385-0.178 0.385-0.395v-0.79c0-0.217-0.173-0.395-0.385-0.395h-0.415c-0.212 0-0.385 0.178-0.385 0.395zM15.076 16.688l-0.003-0.889c0-0.468-0.103-0.912-0.286-1.309h1.232l2.326-4.259h1.901l1.083 4.259h5.783l0.566 0.98h-2.494c0 0-0.201 0.008-0.201 0.166s0.014 0.297 0.038 0.467c0.025 0.17 0.106 0.348 0.421 0.425 0.268 0.065 2.574 0.561 3.256 0.707l0.309 0.536-12.788 0.010v-0.167c0-0.51-0.405-0.926-0.902-0.926h-0.241zM16.219 18.522l14.925-0.012-1.913 3.435h-0.287c-2.947 0-3.963 1.185-6.948 1.185-2.055 0-3.959-1.047-5.951-1.259 0.119-0.199 0.175-0.39 0.175-0.638v-2.711zM6.642 6.242c0.948 0.562 1.586 1.612 1.586 2.815 0 1.795-1.418 3.25-3.168 3.25-1.173 0-2.196-0.655-2.744-1.627 0.466 0.276 1.006 0.435 1.582 0.435 1.75 0 3.168-1.455 3.168-3.25 0-0.592-0.155-1.145-0.424-1.623z"></path>
</svg>
