<!-- Generated by IcoMoon.io -->
<svg version="1.1" xmlns="http://www.w3.org/2000/svg" width="32" height="32" viewBox="0 0 32 32">
<title>Nights-Onboard</title>
<path fill="#8c8c8c" d="M14.915 16.194c0.291 0 0.528 0.251 0.528 0.559v3.749c0 0.308-0.238 0.559-0.528 0.559h-0.685c0.017 0.057 0.028 0.116 0.028 0.178v0.26c0 0.333-0.256 0.604-0.571 0.604h-0.245c-0.315 0-0.571-0.27-0.571-0.604v-0.26c0-0.063 0.011-0.122 0.028-0.178h-9.602c0.017 0.057 0.028 0.116 0.028 0.178v0.26c0 0.333-0.256 0.604-0.571 0.604h-0.245c-0.315 0-0.571-0.27-0.571-0.604v-0.26c0-0.063 0.012-0.122 0.028-0.178h-0.841c-0.291 0-0.529-0.251-0.529-0.559v-3.749c0-0.308 0.238-0.559 0.529-0.559h0.794v-0.001l12.996 0.001zM2.598 15.326c0 0.005 0.001 0.009 0.001 0.014h-0.68v-0.468c0-1.532 1.185-2.786 2.634-2.786h7.105c1.449 0 2.634 1.254 2.634 2.786v0.468h-0.674c0-0.005 0.001-0.009 0.001-0.014 0-0.595-0.461-1.083-1.024-1.083h-3.49c-0.484 0-0.891 0.36-0.997 0.839-0.105-0.479-0.513-0.839-0.997-0.839h-3.49c-0.563 0-1.024 0.487-1.024 1.083zM9.125 7.083c-0.054-0.085-0.080-0.14-0.080-0.165 0-0.032 0.022-0.048 0.065-0.048h0.704c0.027 0 0.046 0.005 0.058 0.016s0.028 0.034 0.048 0.069l0.382 0.733 0.397-0.733c0.020-0.035 0.037-0.058 0.050-0.069s0.034-0.016 0.060-0.016h0.674c0.044 0 0.065 0.016 0.065 0.048 0 0.018-0.013 0.045-0.038 0.082s-0.043 0.065-0.053 0.082l-0.694 1.153 0.749 1.227c0.054 0.085 0.080 0.14 0.080 0.165 0 0.032-0.022 0.048-0.065 0.048h-0.709c-0.027 0-0.047-0.005-0.060-0.016s-0.030-0.034-0.050-0.069l-0.412-0.754-0.422 0.754c-0.020 0.035-0.036 0.058-0.048 0.069s-0.033 0.016-0.063 0.016h-0.654c-0.044 0-0.065-0.016-0.065-0.048 0-0.025 0.027-0.080 0.080-0.165l0.719-1.185-0.719-1.195zM13.423 6.674c-0.141 0-0.369 0.004-0.684 0.011l-0.583 0.005c-0.030 0-0.051-0.006-0.063-0.019s-0.018-0.035-0.018-0.066v-0.579c0-0.032 0.006-0.054 0.018-0.066s0.033-0.019 0.063-0.019h0.166c0.352-0.011 0.746-0.016 1.181-0.016 0.312 0 0.558 0.091 0.739 0.274s0.271 0.428 0.271 0.736v0.25c0 0.404-0.193 0.677-0.578 0.818l-0.885 0.324c-0.117 0.043-0.194 0.085-0.229 0.128s-0.053 0.113-0.053 0.213v0.26h1.594c0.030 0 0.051 0.006 0.063 0.019s0.018 0.035 0.018 0.066v0.579c0 0.032-0.006 0.054-0.018 0.066s-0.033 0.019-0.063 0.019h-2.272c-0.030 0-0.051-0.006-0.063-0.019s-0.018-0.035-0.018-0.066v-1.010c0-0.223 0.055-0.4 0.166-0.531s0.248-0.227 0.412-0.287l0.98-0.361c0.077-0.028 0.127-0.068 0.151-0.12s0.035-0.118 0.035-0.199v-0.064c0-0.124-0.026-0.213-0.078-0.266s-0.137-0.080-0.254-0.080z"></path>
<path fill="#000" d="M16.585 14.647c0-0.223 0.176-0.405 0.392-0.405h0.422c0.215 0 0.392 0.183 0.392 0.405v0.811c0 0.223-0.176 0.405-0.392 0.405h-0.422c-0.215 0-0.392-0.183-0.392-0.405v-0.811zM19.657 14.647v0.811c0 0.223 0.176 0.405 0.392 0.405h0.422c0.215 0 0.392-0.183 0.392-0.405v-0.811c0-0.223-0.176-0.405-0.392-0.405h-0.422c-0.215 0-0.392 0.183-0.392 0.405zM22.728 14.647v0.811c0 0.223 0.176 0.405 0.392 0.405h0.422c0.215 0 0.391-0.183 0.391-0.405v-0.811c0-0.223-0.176-0.405-0.391-0.405h-0.422c-0.215 0-0.392 0.183-0.392 0.405zM15.060 15.492l-0.003-0.913c0-0.48-0.105-0.936-0.291-1.344h1.253l2.366-4.372h1.934l1.102 4.372h5.883l0.576 1.006h-2.537c0 0-0.205 0.008-0.205 0.171s0.014 0.304 0.039 0.479c0.025 0.174 0.107 0.358 0.428 0.436 0.272 0.067 2.618 0.576 3.312 0.726l0.315 0.55-13.007 0.010v-0.171c0-0.524-0.412-0.95-0.918-0.95h-0.245zM16.223 17.373l15.181-0.012-1.946 3.525h-0.292c-2.997 0-4.031 1.216-7.067 1.216-2.091 0-4.027-1.075-6.054-1.292 0.121-0.204 0.178-0.401 0.178-0.655v-2.783zM6.481 4.769c0.964 0.577 1.613 1.654 1.613 2.889 0 1.842-1.443 3.335-3.223 3.335-1.193 0-2.234-0.672-2.791-1.669 0.474 0.284 1.023 0.446 1.61 0.446 1.78 0 3.222-1.493 3.222-3.335 0-0.607-0.158-1.176-0.431-1.666z"></path>
</svg>
