<!-- Generated by IcoMoon.io -->
<svg version="1.1" xmlns="http://www.w3.org/2000/svg" width="32" height="32" viewBox="0 0 32 32">
<title>No-Baggage-Restrictions</title>
<path fill="#000" d="M22.035 21.387h2.888v-1.043h-2.888v1.043zM26.782 21.387c0.26 0.685 0.808 1.229 1.495 1.484v3.583c0 0.231-0.19 0.419-0.42 0.419h-8.792c-0.232 0-0.42-0.189-0.42-0.419v-4.647c0-0.232 0.189-0.42 0.42-0.42h1.71v-1.252c0-0.579 0.471-1.050 1.050-1.050h3.308c0.578 0 1.050 0.471 1.050 1.050v1.252h0.598zM11.658 16.51h2.888v-2.679h-2.888v2.679zM16.405 16.51c0.259 0.685 0.807 1.229 1.494 1.484v8.492c0 0.232-0.189 0.42-0.42 0.42h-8.792c-0.231 0-0.42-0.189-0.42-0.42v-9.557c0-0.231 0.19-0.419 0.42-0.419h1.71v-2.89c0-0.579 0.471-1.050 1.050-1.050h3.308c0.579 0 1.050 0.471 1.050 1.050v2.89h0.599zM12.344 6.751c0.671 0.387 0.903 1.252 0.515 1.923 0 0-2.161 3.107-5.208 8.366-0.002-0.318-0.004-0.642-0.006-0.973v-1.028c0.003-0.948 0.013-1.838 0.029-2.666 1.74-3.201 2.662-5.156 2.662-5.156 0.387-0.67 1.252-0.902 1.923-0.515l0.085 0.050zM6.736 17.185v-3.519c0-0.076-0.063-0.139-0.139-0.139h-0.966c-0.077 0-0.139 0.063-0.139 0.139v3.519c0 0.076 0.062 0.139 0.139 0.139h0.966c0.076 0 0.139-0.063 0.139-0.139zM7.555 5.408c0 0-0.328 3.896-0.328 10.148 0 6.253 0.328 10.148 0.328 10.148 0 0.775-0.633 1.408-1.408 1.408h-0.098c-0.775 0-1.408-0.633-1.408-1.408 0 0 0.328-3.928 0.328-10.148 0-1.502-0.019-2.869-0.049-4.081 0.178-0.348 0.278-0.74 0.278-1.158 0-0.474-0.13-0.918-0.355-1.299-0.093-2.303-0.202-3.612-0.202-3.612 0-0.774 0.633-1.408 1.408-1.408h0.098c0.775 0 1.408 0.634 1.408 1.408z"></path>
<path fill="#8c8c8c" d="M30.12 19.84c0.057-0.109 0.015-0.244-0.094-0.301s-0.244-0.015-0.301 0.094l-0.738 1.404-0.711-0.587c-0.096-0.078-0.236-0.064-0.314 0.031s-0.065 0.235 0.030 0.314l0.922 0.76c0.041 0.034 0.090 0.052 0.142 0.052 0.014 0 0.029-0.002 0.044-0.004 0.065-0.013 0.121-0.056 0.153-0.116l0.866-1.646zM29.148 18.59c1.049 0 1.899 0.851 1.899 1.899 0 1.049-0.85 1.899-1.899 1.899-1.048 0-1.899-0.85-1.899-1.899 0-1.048 0.851-1.899 1.899-1.899zM19.743 14.963c0.057-0.109 0.015-0.244-0.094-0.301s-0.244-0.015-0.301 0.094l-0.738 1.404-0.711-0.586c-0.096-0.079-0.236-0.065-0.314 0.030s-0.065 0.235 0.030 0.314l0.922 0.76c0.040 0.034 0.090 0.052 0.142 0.052 0.014 0 0.029-0.002 0.044-0.004 0.065-0.013 0.121-0.056 0.153-0.116l0.866-1.646zM18.771 13.712c1.049 0 1.899 0.851 1.899 1.899 0 1.049-0.85 1.899-1.899 1.899-1.048 0-1.899-0.85-1.899-1.899 0-1.048 0.851-1.899 1.899-1.899zM3.636 9.626c0.057-0.109 0.015-0.244-0.094-0.301s-0.244-0.015-0.301 0.094l-0.738 1.404-0.711-0.586c-0.096-0.079-0.236-0.065-0.314 0.030s-0.065 0.235 0.030 0.314l0.922 0.76c0.041 0.034 0.090 0.052 0.142 0.052 0.014 0 0.029-0.002 0.044-0.004 0.065-0.013 0.121-0.056 0.153-0.116l0.866-1.646zM2.664 8.376c1.049 0 1.899 0.851 1.899 1.899 0 1.049-0.85 1.9-1.899 1.9-1.048 0-1.899-0.851-1.899-1.9 0-1.048 0.851-1.899 1.899-1.899z"></path>
<path fill="#000" d="M4.535 17.897c-2.574 4.344-4.348 6.898-4.348 6.898-0.387 0.671-0.154 1.536 0.515 1.923l0.085 0.049c0.671 0.387 1.536 0.156 1.923-0.515 0 0 0.573-1.216 1.676-3.315 0.060-1.291 0.12-3 0.148-5.039z"></path>
</svg>
