<svg xmlns="http://www.w3.org/2000/svg" viewBox="0 0 32 32">
    <title>No passengers</title>
    <path fill="#000" fill-rule="evenodd" d="M20.36 14.56l.27 4.17a1 1 0 01-.45.83l-.1.06-1.01.45h-.11l-1.34 9.6c-.1.19-.2.3-.36.32h-.09l-.76.01c-.07 0-.15-.01-.18-.04a.34.34 0 01-.07-.08l-.04-.06-.28-.5-.28.5a.46.46 0 01-.1.14.2.2 0 01-.1.04H14.5c-.2 0-.4-.09-.44-.26l-.01-.08-1.08-7.7 7.4-7.4zm3.44-8.53l1.42 1.42-17.8 17.8L6 23.82l17.8-17.8zm-6.63 2.89a3 3 0 011.39.33l-7.46 7.46.16-5a3.01 3.01 0 012.84-2.79h3.07zM15.61 2a2.9 2.9 0 110 5.8 2.9 2.9 0 010-5.8z"/>
</svg>
