<!-- Generated by IcoMoon.io -->
<svg version="1.1" xmlns="http://www.w3.org/2000/svg" width="32" height="32" viewBox="0 0 32 32">
<title>Passengers</title>
<path fill="#000" d="M13.104 19.28c-0.033 0.060-0.067 0.102-0.1 0.125s-0.080 0.035-0.141 0.035h-1.325c-0.1 0-0.151-0.033-0.151-0.1 0-0.047 0.040-0.137 0.12-0.271l1.968-3.132-1.918-3.122c-0.080-0.134-0.12-0.224-0.12-0.271 0-0.067 0.050-0.1 0.151-0.1h1.456c0.060 0 0.107 0.012 0.141 0.035s0.067 0.065 0.1 0.126l1.205 2.128 1.235-2.128c0.033-0.060 0.067-0.102 0.1-0.126s0.080-0.035 0.141-0.035h1.345c0.1 0 0.151 0.033 0.151 0.1 0 0.047-0.040 0.137-0.12 0.271l-1.867 3.012 2.028 3.243c0.080 0.134 0.12 0.224 0.12 0.271 0 0.067-0.050 0.1-0.151 0.1h-1.476c-0.060 0-0.107-0.012-0.141-0.035s-0.067-0.065-0.1-0.125l-1.315-2.209-1.335 2.209zM25.577 15.491c0-0.060 0.025-0.115 0.075-0.166l2.62-2.379h-4.081c-0.090 0-0.153-0.018-0.188-0.053s-0.053-0.098-0.053-0.188v-1.641c0-0.090 0.018-0.153 0.053-0.188s0.098-0.053 0.188-0.053h6.656c0.090 0 0.153 0.018 0.188 0.053s0.053 0.098 0.053 0.188v1.521c0 0.070-0.008 0.126-0.023 0.166s-0.048 0.085-0.098 0.136l-2.319 2.199c0.893 0 1.589 0.198 2.086 0.595s0.745 1.097 0.745 2.101v0.768c0 0.873-0.271 1.569-0.813 2.086s-1.28 0.776-2.214 0.776c-0.622 0-1.506-0.010-2.65-0.030l-1.732-0.015c-0.080 0-0.141-0.018-0.181-0.053s-0.060-0.098-0.060-0.188v-1.641c0-0.090 0.018-0.153 0.053-0.188s0.098-0.053 0.188-0.053c0.251 0 0.452 0.005 0.602 0.015 1.466 0.020 2.645 0.030 3.539 0.030 0.351 0 0.605-0.083 0.76-0.248s0.233-0.434 0.233-0.806v-0.12c0-0.371-0.078-0.64-0.233-0.806s-0.409-0.248-0.76-0.248h-1.641c-0.080 0-0.138-0.015-0.173-0.045s-0.083-0.095-0.143-0.196l-0.602-1.114c-0.050-0.1-0.075-0.171-0.075-0.211zM3.178 24.354l-0.502-0.001c-0.139 0-0.278-0.070-0.278-0.209l-0.834-5.979h-0.070l-0.626-0.278c-0.224-0.090-0.365-0.315-0.348-0.556l0.139-4.38c0.073-0.982 0.892-1.741 1.877-1.738h1.808c0.985-0.002 1.804 0.756 1.877 1.738l0.278 4.38c-0.002 0.236-0.136 0.451-0.348 0.556l-0.625 0.278h-0.070l-0.834 5.979c-0.070 0.139-0.139 0.209-0.278 0.209h-0.286l-0.19 0.001c-0.042 0-0.089-0.008-0.11-0.025s-0.044-0.046-0.067-0.088l-0.176-0.309-0.176 0.309c-0.024 0.043-0.046 0.072-0.067 0.088s-0.053 0.025-0.095 0.025zM3.372 6.902c0.998 0 1.808 0.809 1.808 1.807s-0.809 1.808-1.808 1.808c-0.998 0-1.808-0.809-1.808-1.808s0.809-1.808 1.808-1.808z"></path>
</svg>
