<!-- Generated by IcoMoon.io -->
<svg version="1.1" xmlns="http://www.w3.org/2000/svg" width="32" height="32" viewBox="0 0 32 32">
<title>Passengers1</title>
<path fill="#000" d="M13.171 19.28c-0.033 0.060-0.067 0.102-0.1 0.125s-0.080 0.035-0.141 0.035h-1.325c-0.1 0-0.151-0.033-0.151-0.1 0-0.047 0.040-0.137 0.12-0.271l1.968-3.132-1.918-3.122c-0.080-0.134-0.12-0.224-0.12-0.271 0-0.067 0.050-0.1 0.151-0.1h1.456c0.060 0 0.107 0.012 0.141 0.035s0.067 0.065 0.1 0.126l1.205 2.128 1.235-2.128c0.033-0.060 0.067-0.102 0.1-0.126s0.080-0.035 0.141-0.035h1.345c0.1 0 0.151 0.033 0.151 0.1 0 0.047-0.040 0.137-0.12 0.271l-1.867 3.012 2.028 3.243c0.080 0.134 0.12 0.224 0.12 0.271 0 0.067-0.050 0.1-0.151 0.1h-1.476c-0.060 0-0.107-0.012-0.141-0.035s-0.067-0.065-0.1-0.125l-1.315-2.209-1.335 2.209zM23.672 17.087c0-0.1 0.030-0.196 0.090-0.286l3.93-5.737c0.060-0.090 0.113-0.153 0.158-0.188s0.113-0.053 0.203-0.053h2.018c0.151 0 0.226 0.050 0.226 0.151 0 0.060-0.070 0.196-0.211 0.407l-3.915 5.572h2.967v-2.033c0-0.090 0.018-0.153 0.053-0.188s0.098-0.053 0.188-0.053h1.792c0.090 0 0.153 0.018 0.188 0.053s0.053 0.098 0.053 0.188v6.174c0 0.090-0.018 0.153-0.053 0.188s-0.098 0.053-0.188 0.053h-1.792c-0.090 0-0.153-0.018-0.188-0.053s-0.053-0.098-0.053-0.188v-2.003h-5.225c-0.090 0-0.153-0.018-0.188-0.053s-0.053-0.098-0.053-0.188v-1.762zM3.246 24.354l-0.502-0.001c-0.139 0-0.278-0.070-0.278-0.209l-0.834-5.979h-0.070l-0.626-0.278c-0.224-0.090-0.365-0.315-0.348-0.556l0.139-4.38c0.073-0.982 0.892-1.741 1.877-1.738h1.808c0.985-0.002 1.804 0.756 1.877 1.738l0.278 4.38c-0.002 0.236-0.136 0.451-0.348 0.556l-0.625 0.278h-0.070l-0.834 5.979c-0.070 0.139-0.139 0.209-0.278 0.209h-0.286l-0.19 0.001c-0.042 0-0.089-0.008-0.11-0.025s-0.044-0.046-0.067-0.088l-0.176-0.309-0.176 0.309c-0.024 0.043-0.046 0.072-0.067 0.088s-0.053 0.025-0.095 0.025zM3.439 6.902c0.998 0 1.807 0.809 1.807 1.808s-0.809 1.807-1.808 1.807c-0.998 0-1.808-0.809-1.808-1.808s0.809-1.808 1.808-1.808z"></path>
</svg>
