<!-- Generated by IcoMoon.io -->
<svg version="1.1" xmlns="http://www.w3.org/2000/svg" width="32" height="32" viewBox="0 0 32 32">
<title>Private-Van</title>
<path fill="#000" d="M7.579 21.484c0.681 0 1.233-0.552 1.233-1.233s-0.552-1.233-1.233-1.233-1.233 0.552-1.233 1.233c0 0.681 0.552 1.233 1.233 1.233zM7.579 17.882c1.308 0 2.369 1.061 2.369 2.369s-1.060 2.368-2.369 2.368c-1.308 0-2.368-1.060-2.368-2.368s1.060-2.369 2.368-2.369zM24.948 17.882c1.308 0 2.368 1.061 2.368 2.369s-1.061 2.368-2.368 2.368c-1.308 0-2.368-1.060-2.368-2.368s1.060-2.369 2.368-2.369zM24.948 21.484c0.681 0 1.233-0.552 1.233-1.233s-0.552-1.233-1.233-1.233-1.233 0.552-1.233 1.233c0 0.681 0.552 1.233 1.233 1.233zM30.682 15.037c0.182 0.040 0.318 0.203 0.318 0.396v4.289c0 0.223-0.182 0.405-0.405 0.405l-2.662-0.060c-0.106-1.553-1.398-2.779-2.977-2.779-1.593 0-2.895 1.248-2.981 2.819h-10.987l-0.242-0.179c-0.171-1.486-1.433-2.641-2.965-2.641-1.649 0-2.985 1.336-2.985 2.985 0 0.119 0.008 0.236 0.021 0.351l-0.248 0.196-3.569-0.363c0.111-0.184 0-12.457 0-12.457h18.759c2.077 0 5.291 1.718 6.107 2.175h-4.283c0 0-0.569 0.022-0.569 0.458s0.038 0.818 0.108 1.287c0.071 0.469 0.298 0.961 1.189 1.172 0.351 0.083 8.369 1.945 8.369 1.945z"></path>
</svg>
