<!-- Generated by IcoMoon.io -->
<svg version="1.1" xmlns="http://www.w3.org/2000/svg" width="32" height="32" viewBox="0 0 32 32">
<title>Promo-Dollar</title>
<path fill="#000" d="M31.733 15.019c0.361 0.624 0.361 1.38-0.033 1.971l-1.641 2.858v3.153c0 0.723-0.361 1.38-0.985 1.741l-2.724 1.577-1.641 2.825c-0.361 0.591-1.017 0.985-1.739 0.985h-3.249l-2.789 1.609c-0.295 0.164-0.656 0.263-0.985 0.263s-0.689-0.099-0.985-0.263l-2.789-1.609h-3.183c-0.722 0-1.378-0.361-1.739-0.985l-1.608-2.759-2.822-1.642c-0.591-0.361-0.985-1.018-0.985-1.741v-3.285l-1.575-2.726c-0.164-0.296-0.263-0.657-0.263-0.985s0.098-0.69 0.263-0.985l1.575-2.726v-3.285c0-0.723 0.361-1.38 0.985-1.741l2.822-1.642 1.608-2.759c0.361-0.591 1.017-0.985 1.739-0.985h3.183l2.789-1.609c0.623-0.361 1.378-0.361 2.002 0l2.789 1.609h3.249c0.722 0 1.378 0.361 1.739 0.985l1.641 2.825 2.724 1.577c0.591 0.361 0.985 1.018 0.985 1.741v3.153l1.641 2.858zM13.035 21.077l2.020 0.043v1.038c0 0.085 0.017 0.145 0.050 0.178s0.092 0.050 0.178 0.050h1.337c0.085 0 0.145-0.017 0.178-0.050s0.050-0.092 0.050-0.178v-1.038c0.853-0.019 1.51-0.237 1.97-0.654s0.69-1.024 0.69-1.82v-0.64c0-0.806-0.175-1.375-0.526-1.707s-0.83-0.559-1.436-0.683l-2.204-0.441c-0.256-0.047-0.424-0.123-0.505-0.228s-0.121-0.289-0.121-0.555v-0.057c0-0.228 0.031-0.391 0.092-0.491s0.152-0.161 0.27-0.185c0.119-0.024 0.311-0.036 0.576-0.036 0.626 0 1.636 0.014 3.029 0.043 0.085 0 0.145-0.017 0.178-0.050s0.050-0.092 0.050-0.178v-1.55c0-0.085-0.017-0.145-0.050-0.178s-0.092-0.050-0.178-0.050l-1.835-0.028v-1.067c0-0.085-0.017-0.145-0.050-0.178s-0.092-0.050-0.178-0.050h-1.337c-0.085 0-0.145 0.017-0.178 0.050s-0.050 0.092-0.050 0.178v1.067c-0.806 0.047-1.422 0.268-1.849 0.661s-0.64 0.969-0.64 1.728v0.626c0 0.806 0.175 1.375 0.526 1.707s0.83 0.555 1.436 0.668l2.19 0.427c0.247 0.047 0.412 0.13 0.498 0.249s0.128 0.311 0.128 0.576v0.085c0 0.237-0.031 0.408-0.092 0.512s-0.152 0.171-0.27 0.199c-0.119 0.028-0.306 0.043-0.562 0.043-0.664 0-1.792-0.014-3.385-0.043-0.085 0-0.145 0.017-0.178 0.050s-0.050 0.092-0.050 0.178v1.55c0 0.085 0.017 0.145 0.050 0.178s0.092 0.050 0.178 0.050z"></path>
</svg>
