<?xml version="1.0" encoding="UTF-8"?>
<svg width="32px" height="32px" viewBox="0 0 32 32" version="1.1"
    xmlns="http://www.w3.org/2000/svg"
    xmlns:xlink="http://www.w3.org/1999/xlink">
    <!-- Generator: Sketch 61.2 (89653) - https://sketch.com -->
    <title>currency/nok</title>
    <g id="currency/nok" stroke="none" stroke-width="1" fill="none" fill-rule="evenodd">
        <path d="M14.9641728,0.270977675 C15.58768,-0.0903258917 16.3424519,-0.0903258917 16.9659591,0.270977675 L16.9659591,0.270977675 L19.7553334,1.88042084 L23.004134,1.88042084 C23.7260897,1.88042084 24.3824131,2.2417244 24.743391,2.8657942 L24.743391,2.8657942 L26.3841994,5.69053118 L29.1079414,7.26712856 C29.6986324,7.62843213 30.0924264,8.2853477 30.0924264,9.00795484 L30.0924264,9.00795484 L30.0924264,12.1611496 L31.7332348,15.0187324 C32.0942127,15.6428022 32.0942127,16.3982551 31.7004187,16.9894791 L31.7004187,16.9894791 L30.0596102,19.8470618 L30.0596102,23.0002566 C30.0596102,23.7228637 29.6986324,24.3797793 29.0751252,24.7410829 L29.0751252,24.7410829 L26.3513832,26.3176803 L24.7105748,29.1424172 C24.3495969,29.7336413 23.6932736,30.1277906 22.9713179,30.1277906 L22.9713179,30.1277906 L19.7225172,30.1277906 L16.9331429,31.7372338 C16.6377974,31.9014627 16.2768195,32 15.9486578,32 C15.6204962,32 15.2595183,31.9014627 14.9641728,31.7372338 L14.9641728,31.7372338 L12.1747985,30.1277906 L8.99163014,30.1277906 C8.26967443,30.1277906 7.61335107,29.766487 7.25237321,29.1424172 L7.25237321,29.1424172 L5.64438096,26.3833718 L2.82219048,24.7410829 C2.23149945,24.3797793 1.83770543,23.7228637 1.83770543,23.0002566 L1.83770543,23.0002566 L1.83770543,19.7156787 L0.262529347,16.9894791 C0.0984485052,16.6938671 -5.68434189e-14,16.3325635 -5.68434189e-14,16.0041057 C-5.68434189e-14,15.6756479 0.0984485052,15.3143444 0.262529347,15.0187324 L0.262529347,15.0187324 L1.83770543,12.2925327 L1.83770543,9.00795484 C1.83770543,8.2853477 2.19868328,7.62843213 2.82219048,7.26712856 L2.82219048,7.26712856 L5.64438096,5.62483962 L7.25237321,2.8657942 C7.61335107,2.27457018 8.26967443,1.88042084 8.99163014,1.88042084 L8.99163014,1.88042084 L12.1747985,1.88042084 Z M17.308,11.528 L15.28,11.528 C14.536,11.528 13.958,11.724 13.546,12.116 C13.1752,12.4688 12.97126,12.94472 12.93418,13.54376 L12.928,13.748 L12.928,17.876 C12.928,18.572 13.134,19.116 13.546,19.508 C13.9168,19.8608 14.42206,20.05484 15.06178,20.09012 L15.28,20.096 L17.308,20.096 C18.052,20.096 18.63,19.9 19.042,19.508 C19.4128,19.1552 19.61674,18.67928 19.65382,18.08024 L19.66,17.876 L19.66,13.748 C19.66,13.052 19.454,12.508 19.042,12.116 C18.6712,11.7632 18.16594,11.56916 17.52622,11.53388 L17.308,11.528 Z M6.64,11.624 L5.02,11.624 C4.948,11.624 4.898,11.638 4.87,11.666 C4.85133333,11.6846667 4.83888889,11.7131111 4.83266667,11.7513333 L4.828,11.816 L4.828,19.808 C4.828,19.88 4.842,19.93 4.87,19.958 C4.88866667,19.9766667 4.91711111,19.9891111 4.95533333,19.9953333 L5.02,20 L6.388,20 C6.46,20 6.51,19.986 6.538,19.958 C6.55666667,19.9393333 6.56911111,19.9108889 6.57533333,19.8726667 L6.58,19.808 L6.58,16.436 C6.58,15.996 6.56611111,15.4837778 6.53833333,14.8993333 L6.52,14.54 L9.544,19.808 C9.592,19.88 9.632,19.93 9.664,19.958 C9.68533333,19.9766667 9.71555556,19.9891111 9.75466667,19.9953333 L9.82,20 L11.44,20 C11.512,20 11.562,19.986 11.59,19.958 C11.6086667,19.9393333 11.6211111,19.9108889 11.6273333,19.8726667 L11.632,19.808 L11.632,11.816 C11.632,11.744 11.618,11.694 11.59,11.666 C11.5713333,11.6473333 11.5428889,11.6348889 11.5046667,11.6286667 L11.44,11.624 L10.072,11.624 C10,11.624 9.95,11.638 9.922,11.666 C9.90333333,11.6846667 9.89088889,11.7131111 9.88466667,11.7513333 L9.88,11.816 L9.88,15.164 C9.88,15.5973333 9.89388889,16.1084444 9.92166667,16.6973333 L9.94,17.06 L6.916,11.816 C6.868,11.744 6.828,11.694 6.796,11.666 C6.77466667,11.6473333 6.74444444,11.6348889 6.70533333,11.6286667 L6.64,11.624 Z M22.576,11.624 L21.148,11.624 C21.076,11.624 21.026,11.638 20.998,11.666 C20.9793333,11.6846667 20.9668889,11.7131111 20.9606667,11.7513333 L20.956,11.816 L20.956,19.808 C20.956,19.88 20.97,19.93 20.998,19.958 C21.0166667,19.9766667 21.0451111,19.9891111 21.0833333,19.9953333 L21.148,20 L22.576,20 C22.648,20 22.698,19.986 22.726,19.958 C22.7446667,19.9393333 22.7571111,19.9108889 22.7633333,19.8726667 L22.768,19.808 L22.768,16.544 L23.488,16.544 L25.588,19.808 C25.636,19.88 25.678,19.93 25.714,19.958 C25.738,19.9766667 25.77,19.9891111 25.81,19.9953333 L25.876,20 L27.592,20 C27.712,20 27.772,19.96 27.772,19.88 C27.772,19.85 27.754,19.802 27.718,19.736 L27.676,19.664 L24.964,15.632 L27.46,11.96 C27.524,11.864 27.556,11.792 27.556,11.744 C27.556,11.68 27.5176,11.6416 27.4408,11.6288 L27.376,11.624 L25.804,11.624 C25.732,11.624 25.678,11.638 25.642,11.666 C25.618,11.6846667 25.5913333,11.7131111 25.562,11.7513333 L25.516,11.816 L23.488,14.876 L22.768,14.876 L22.768,11.816 C22.768,11.744 22.754,11.694 22.726,11.666 C22.7073333,11.6473333 22.6788889,11.6348889 22.6406667,11.6286667 L22.576,11.624 Z M17.044,13.22 C17.324,13.22 17.526,13.286 17.65,13.418 C17.7533333,13.528 17.8136111,13.6949444 17.8308333,13.9188333 L17.836,14.06 L17.836,17.564 C17.836,17.86 17.774,18.074 17.65,18.206 C17.526,18.338 17.324,18.404 17.044,18.404 L15.544,18.404 C15.264,18.404 15.062,18.338 14.938,18.206 C14.8346667,18.096 14.7743889,17.9290556 14.7571667,17.7051667 L14.752,17.564 L14.752,14.06 C14.752,13.764 14.814,13.55 14.938,13.418 C15.0413333,13.308 15.1988333,13.2438333 15.4105,13.2255 L15.544,13.22 L17.044,13.22 Z" id="Combined-Shape" fill="#000"></path>
    </g>
</svg>
