<?xml version="1.0" encoding="UTF-8"?>
<svg width="32px" height="32px" viewBox="0 0 32 32" version="1.1"
    xmlns="http://www.w3.org/2000/svg"
    xmlns:xlink="http://www.w3.org/1999/xlink">
    <!-- Generator: Sketch 61.2 (89653) - https://sketch.com -->
    <title>currency/pln</title>
    <g id="currency/pln" stroke="none" stroke-width="1" fill="none" fill-rule="evenodd">
        <path d="M14.9641728,0.270977675 C15.58768,-0.0903258917 16.3424519,-0.0903258917 16.9659591,0.270977675 L16.9659591,0.270977675 L19.7553334,1.88042084 L23.004134,1.88042084 C23.7260897,1.88042084 24.3824131,2.2417244 24.743391,2.8657942 L24.743391,2.8657942 L26.3841994,5.69053118 L29.1079414,7.26712856 C29.6986324,7.62843213 30.0924264,8.2853477 30.0924264,9.00795484 L30.0924264,9.00795484 L30.0924264,12.1611496 L31.7332348,15.0187324 C32.0942127,15.6428022 32.0942127,16.3982551 31.7004187,16.9894791 L31.7004187,16.9894791 L30.0596102,19.8470618 L30.0596102,23.0002566 C30.0596102,23.7228637 29.6986324,24.3797793 29.0751252,24.7410829 L29.0751252,24.7410829 L26.3513832,26.3176803 L24.7105748,29.1424172 C24.3495969,29.7336413 23.6932736,30.1277906 22.9713179,30.1277906 L22.9713179,30.1277906 L19.7225172,30.1277906 L16.9331429,31.7372338 C16.6377974,31.9014627 16.2768195,32 15.9486578,32 C15.6204962,32 15.2595183,31.9014627 14.9641728,31.7372338 L14.9641728,31.7372338 L12.1747985,30.1277906 L8.99163014,30.1277906 C8.26967443,30.1277906 7.61335107,29.766487 7.25237321,29.1424172 L7.25237321,29.1424172 L5.64438096,26.3833718 L2.82219048,24.7410829 C2.23149945,24.3797793 1.83770543,23.7228637 1.83770543,23.0002566 L1.83770543,23.0002566 L1.83770543,19.7156787 L0.262529347,16.9894791 C0.0984485052,16.6938671 -5.68434189e-14,16.3325635 -5.68434189e-14,16.0041057 C-5.68434189e-14,15.6756479 0.0984485052,15.3143444 0.262529347,15.0187324 L0.262529347,15.0187324 L1.83770543,12.2925327 L1.83770543,9.00795484 C1.83770543,8.2853477 2.19868328,7.62843213 2.82219048,7.26712856 L2.82219048,7.26712856 L5.64438096,5.62483962 L7.25237321,2.8657942 C7.61335107,2.27457018 8.26967443,1.88042084 8.99163014,1.88042084 L8.99163014,1.88042084 L12.1747985,1.88042084 Z M9.652,11.624 L6.04,11.624 C5.968,11.624 5.918,11.638 5.89,11.666 C5.87133333,11.6846667 5.85888889,11.7131111 5.85266667,11.7513333 L5.848,11.816 L5.848,19.808 C5.848,19.88 5.862,19.93 5.89,19.958 C5.90866667,19.9766667 5.93711111,19.9891111 5.97533333,19.9953333 L6.04,20 L7.468,20 C7.54,20 7.59,19.986 7.618,19.958 C7.63666667,19.9393333 7.64911111,19.9108889 7.65533333,19.8726667 L7.66,19.808 L7.66,17.444 L9.652,17.444 C10.396,17.444 10.984,17.238 11.416,16.826 C11.8048,16.4552 12.01864,15.96938 12.05752,15.36854 L12.064,15.164 L12.064,13.904 C12.064,13.208 11.848,12.654 11.416,12.242 C11.0272,11.8712 10.51204,11.66726 9.87052,11.63018 L9.652,11.624 Z M14.728,11.624 L13.3,11.624 C13.228,11.624 13.178,11.638 13.15,11.666 C13.1313333,11.6846667 13.1188889,11.7131111 13.1126667,11.7513333 L13.108,11.816 L13.108,19.808 C13.108,19.88 13.122,19.93 13.15,19.958 C13.1686667,19.9766667 13.1971111,19.9891111 13.2353333,19.9953333 L13.3,20 L18.196,20 C18.268,20 18.318,19.986 18.346,19.958 C18.3646667,19.9393333 18.3771111,19.9108889 18.3833333,19.8726667 L18.388,19.808 L18.388,18.5 C18.388,18.428 18.374,18.378 18.346,18.35 C18.3273333,18.3313333 18.2988889,18.3188889 18.2606667,18.3126667 L18.196,18.308 L14.92,18.308 L14.92,11.816 C14.92,11.744 14.906,11.694 14.878,11.666 C14.8593333,11.6473333 14.8308889,11.6348889 14.7926667,11.6286667 L14.728,11.624 Z M21.16,11.624 L19.54,11.624 C19.468,11.624 19.418,11.638 19.39,11.666 C19.3713333,11.6846667 19.3588889,11.7131111 19.3526667,11.7513333 L19.348,11.816 L19.348,19.808 C19.348,19.88 19.362,19.93 19.39,19.958 C19.4086667,19.9766667 19.4371111,19.9891111 19.4753333,19.9953333 L19.54,20 L20.908,20 C20.98,20 21.03,19.986 21.058,19.958 C21.0766667,19.9393333 21.0891111,19.9108889 21.0953333,19.8726667 L21.1,19.808 L21.1,16.436 C21.1,15.996 21.0861111,15.4837778 21.0583333,14.8993333 L21.04,14.54 L24.064,19.808 C24.112,19.88 24.152,19.93 24.184,19.958 C24.2053333,19.9766667 24.2355556,19.9891111 24.2746667,19.9953333 L24.34,20 L25.96,20 C26.032,20 26.082,19.986 26.11,19.958 C26.1286667,19.9393333 26.1411111,19.9108889 26.1473333,19.8726667 L26.152,19.808 L26.152,11.816 C26.152,11.744 26.138,11.694 26.11,11.666 C26.0913333,11.6473333 26.0628889,11.6348889 26.0246667,11.6286667 L25.96,11.624 L24.592,11.624 C24.52,11.624 24.47,11.638 24.442,11.666 C24.4233333,11.6846667 24.4108889,11.7131111 24.4046667,11.7513333 L24.4,11.816 L24.4,15.164 C24.4,15.5973333 24.4138889,16.1084444 24.4416667,16.6973333 L24.46,17.06 L21.436,11.816 C21.388,11.744 21.348,11.694 21.316,11.666 C21.2946667,11.6473333 21.2644444,11.6348889 21.2253333,11.6286667 L21.16,11.624 Z M9.46,13.316 C9.74,13.316 9.942,13.382 10.066,13.514 C10.1693333,13.624 10.2296111,13.7909444 10.2468333,14.0148333 L10.252,14.156 L10.252,14.912 C10.252,15.208 10.19,15.422 10.066,15.554 C9.942,15.686 9.74,15.752 9.46,15.752 L7.66,15.752 L7.66,13.316 L9.46,13.316 Z" id="Combined-Shape" fill="#000"></path>
    </g>
</svg>
