<?xml version="1.0" encoding="UTF-8"?>
<svg width="32px" height="32px" viewBox="0 0 32 32" version="1.1"
    xmlns="http://www.w3.org/2000/svg"
    xmlns:xlink="http://www.w3.org/1999/xlink">
    <!-- Generator: Sketch 61.2 (89653) - https://sketch.com -->
    <title>currency/try</title>
    <g id="currency/try" stroke="none" stroke-width="1" fill="none" fill-rule="evenodd">
        <path d="M14.9641728,0.270977675 C15.58768,-0.0903258917 16.3424519,-0.0903258917 16.9659591,0.270977675 L16.9659591,0.270977675 L19.7553334,1.88042084 L23.004134,1.88042084 C23.7260897,1.88042084 24.3824131,2.2417244 24.743391,2.8657942 L24.743391,2.8657942 L26.3841994,5.69053118 L29.1079414,7.26712856 C29.6986324,7.62843213 30.0924264,8.2853477 30.0924264,9.00795484 L30.0924264,9.00795484 L30.0924264,12.1611496 L31.7332348,15.0187324 C32.0942127,15.6428022 32.0942127,16.3982551 31.7004187,16.9894791 L31.7004187,16.9894791 L30.0596102,19.8470618 L30.0596102,23.0002566 C30.0596102,23.7228637 29.6986324,24.3797793 29.0751252,24.7410829 L29.0751252,24.7410829 L26.3513832,26.3176803 L24.7105748,29.1424172 C24.3495969,29.7336413 23.6932736,30.1277906 22.9713179,30.1277906 L22.9713179,30.1277906 L19.7225172,30.1277906 L16.9331429,31.7372338 C16.6377974,31.9014627 16.2768195,32 15.9486578,32 C15.6204962,32 15.2595183,31.9014627 14.9641728,31.7372338 L14.9641728,31.7372338 L12.1747985,30.1277906 L8.99163014,30.1277906 C8.26967443,30.1277906 7.61335107,29.766487 7.25237321,29.1424172 L7.25237321,29.1424172 L5.64438096,26.3833718 L2.82219048,24.7410829 C2.23149945,24.3797793 1.83770543,23.7228637 1.83770543,23.0002566 L1.83770543,23.0002566 L1.83770543,19.7156787 L0.262529347,16.9894791 C0.0984485052,16.6938671 -5.68434189e-14,16.3325635 -5.68434189e-14,16.0041057 C-5.68434189e-14,15.6756479 0.0984485052,15.3143444 0.262529347,15.0187324 L0.262529347,15.0187324 L1.83770543,12.2925327 L1.83770543,9.00795484 C1.83770543,8.2853477 2.19868328,7.62843213 2.82219048,7.26712856 L2.82219048,7.26712856 L5.64438096,5.62483962 L7.25237321,2.8657942 C7.61335107,2.27457018 8.26967443,1.88042084 8.99163014,1.88042084 L8.99163014,1.88042084 L12.1747985,1.88042084 Z M11.5,11.624 L5.344,11.624 C5.272,11.624 5.222,11.638 5.194,11.666 C5.17533333,11.6846667 5.16288889,11.7131111 5.15666667,11.7513333 L5.152,11.816 L5.152,13.136 C5.152,13.208 5.166,13.258 5.194,13.286 C5.21266667,13.3046667 5.24111111,13.3171111 5.27933333,13.3233333 L5.344,13.328 L7.516,13.328 L7.516,19.808 C7.516,19.88 7.53,19.93 7.558,19.958 C7.57666667,19.9766667 7.60511111,19.9891111 7.64333333,19.9953333 L7.708,20 L9.136,20 C9.208,20 9.258,19.986 9.286,19.958 C9.30466667,19.9393333 9.31711111,19.9108889 9.32333333,19.8726667 L9.328,19.808 L9.328,13.328 L11.5,13.328 C11.572,13.328 11.622,13.314 11.65,13.286 C11.6686667,13.2673333 11.6811111,13.2388889 11.6873333,13.2006667 L11.692,13.136 L11.692,11.816 C11.692,11.744 11.678,11.694 11.65,11.666 C11.6313333,11.6473333 11.6028889,11.6348889 11.5646667,11.6286667 L11.5,11.624 Z M16.528,11.624 L12.808,11.624 C12.736,11.624 12.686,11.638 12.658,11.666 C12.6393333,11.6846667 12.6268889,11.7131111 12.6206667,11.7513333 L12.616,11.816 L12.616,19.808 C12.616,19.88 12.63,19.93 12.658,19.958 C12.6766667,19.9766667 12.7051111,19.9891111 12.7433333,19.9953333 L12.808,20 L14.236,20 C14.308,20 14.358,19.986 14.386,19.958 C14.4046667,19.9393333 14.4171111,19.9108889 14.4233333,19.8726667 L14.428,19.808 L14.428,17.06 L15.832,17.06 L16.912,19.808 C16.944,19.88 16.976,19.93 17.008,19.958 C17.0293333,19.9766667 17.0595556,19.9891111 17.0986667,19.9953333 L17.164,20 L18.76,20 C18.872,20 18.928,19.956 18.928,19.868 C18.928,19.8146667 18.8918889,19.7057778 18.8196667,19.5413333 L18.772,19.436 L17.62,16.832 C18.036,16.696 18.35,16.466 18.562,16.142 C18.7475,15.8585 18.8518437,15.4907813 18.8750312,15.0388438 L18.88,14.84 L18.88,13.844 C18.88,13.148 18.674,12.604 18.262,12.212 C17.8912,11.8592 17.38594,11.66516 16.74622,11.62988 L16.528,11.624 Z M21.292,11.624 L19.756,11.624 C19.628,11.624 19.564,11.668 19.564,11.756 C19.564,11.7816 19.58192,11.85584 19.61776,11.97872 L19.648,12.08 L20.764,15.404 C20.924,15.884 21.054,16.236 21.154,16.46 C21.254,16.684 21.394,16.87 21.574,17.018 C21.718,17.1364 21.9068,17.2228 22.1404,17.2772 L22.324,17.312 L22.324,19.808 C22.324,19.88 22.338,19.93 22.366,19.958 C22.3846667,19.9766667 22.4131111,19.9891111 22.4513333,19.9953333 L22.516,20 L23.944,20 C24.016,20 24.066,19.986 24.094,19.958 C24.1126667,19.9393333 24.1251111,19.9108889 24.1313333,19.8726667 L24.136,19.808 L24.136,17.3 C24.432,17.252 24.672,17.154 24.856,17.006 C25.04,16.858 25.186,16.666 25.294,16.43 C25.384,16.2333333 25.4892778,15.9630556 25.6098333,15.6191667 L25.684,15.404 L26.776,12.08 C26.832,11.896 26.86,11.788 26.86,11.756 C26.86,11.6856 26.81904,11.64336 26.73712,11.62928 L26.668,11.624 L25.204,11.624 C25.14,11.624 25.094,11.638 25.066,11.666 C25.0473333,11.6846667 25.0295556,11.7131111 25.0126667,11.7513333 L24.988,11.816 L23.944,15.044 C23.88,15.244 23.828,15.382 23.788,15.458 C23.748,15.534 23.696,15.586 23.632,15.614 C23.584,15.635 23.5135,15.648125 23.4205,15.653375 L23.32,15.656 L23.176,15.656 C23.024,15.656 22.918,15.642 22.858,15.614 C22.798,15.586 22.75,15.536 22.714,15.464 C22.6852,15.4064 22.64488,15.30528 22.59304,15.16064 L22.552,15.044 L21.496,11.816 C21.472,11.736 21.448,11.684 21.424,11.66 C21.408,11.644 21.3831111,11.6333333 21.3493333,11.628 L21.292,11.624 Z M16.276,13.316 C16.556,13.316 16.758,13.382 16.882,13.514 C16.9853333,13.624 17.0456111,13.7909444 17.0628333,14.0148333 L17.068,14.156 L17.068,14.66 C17.068,14.956 17.006,15.17 16.882,15.302 C16.758,15.434 16.556,15.5 16.276,15.5 L14.428,15.5 L14.428,13.316 L16.276,13.316 Z" id="Combined-Shape" fill="#000"></path>
    </g>
</svg>
