<?xml version="1.0" encoding="UTF-8"?>
<svg width="32px" height="32px" viewBox="0 0 32 32" version="1.1"
    xmlns="http://www.w3.org/2000/svg"
    xmlns:xlink="http://www.w3.org/1999/xlink">
    <!-- Generator: Sketch 61.2 (89653) - https://sketch.com -->
    <title>currency/czk</title>
    <g id="currency/czk" stroke="none" stroke-width="1" fill="none" fill-rule="evenodd">
        <path d="M14.9641728,0.270977675 C15.58768,-0.0903258917 16.3424519,-0.0903258917 16.9659591,0.270977675 L16.9659591,0.270977675 L19.7553334,1.88042084 L23.004134,1.88042084 C23.7260897,1.88042084 24.3824131,2.2417244 24.743391,2.8657942 L24.743391,2.8657942 L26.3841994,5.69053118 L29.1079414,7.26712856 C29.6986324,7.62843213 30.0924264,8.2853477 30.0924264,9.00795484 L30.0924264,9.00795484 L30.0924264,12.1611496 L31.7332348,15.0187324 C32.0942127,15.6428022 32.0942127,16.3982551 31.7004187,16.9894791 L31.7004187,16.9894791 L30.0596102,19.8470618 L30.0596102,23.0002566 C30.0596102,23.7228637 29.6986324,24.3797793 29.0751252,24.7410829 L29.0751252,24.7410829 L26.3513832,26.3176803 L24.7105748,29.1424172 C24.3495969,29.7336413 23.6932736,30.1277906 22.9713179,30.1277906 L22.9713179,30.1277906 L19.7225172,30.1277906 L16.9331429,31.7372338 C16.6377974,31.9014627 16.2768195,32 15.9486578,32 C15.6204962,32 15.2595183,31.9014627 14.9641728,31.7372338 L14.9641728,31.7372338 L12.1747985,30.1277906 L8.99163014,30.1277906 C8.26967443,30.1277906 7.61335107,29.766487 7.25237321,29.1424172 L7.25237321,29.1424172 L5.64438096,26.3833718 L2.82219048,24.7410829 C2.23149945,24.3797793 1.83770543,23.7228637 1.83770543,23.0002566 L1.83770543,23.0002566 L1.83770543,19.7156787 L0.262529347,16.9894791 C0.0984485052,16.6938671 -5.68434189e-14,16.3325635 -5.68434189e-14,16.0041057 C-5.68434189e-14,15.6756479 0.0984485052,15.3143444 0.262529347,15.0187324 L0.262529347,15.0187324 L1.83770543,12.2925327 L1.83770543,9.00795484 C1.83770543,8.2853477 2.19868328,7.62843213 2.82219048,7.26712856 L2.82219048,7.26712856 L5.64438096,5.62483962 L7.25237321,2.8657942 C7.61335107,2.27457018 8.26967443,1.88042084 8.99163014,1.88042084 L8.99163014,1.88042084 L12.1747985,1.88042084 Z M8.188,11.564 C7.444,11.564 6.866,11.76 6.454,12.152 C6.0832,12.5048 5.87926,12.98072 5.84218,13.57976 L5.836,13.784 L5.836,17.84 C5.836,18.536 6.042,19.08 6.454,19.472 C6.866,19.864 7.444,20.06 8.188,20.06 C8.868,20.06 9.768,20.052 10.888,20.036 C11,20.028 11.152,20.024 11.344,20.024 C11.416,20.024 11.466,20.01 11.494,19.982 C11.5126667,19.9633333 11.5251111,19.9348889 11.5313333,19.8966667 L11.536,19.832 L11.536,18.524 C11.536,18.452 11.522,18.402 11.494,18.374 C11.4753333,18.3553333 11.4468889,18.3428889 11.4086667,18.3366667 L11.344,18.332 L10.996,18.332 C10.244,18.356 9.396,18.368 8.452,18.368 C8.172,18.368 7.97,18.302 7.846,18.17 C7.74266667,18.06 7.68238889,17.8930556 7.66516667,17.6691667 L7.66,17.528 L7.66,14.096 C7.66,13.8 7.722,13.586 7.846,13.454 C7.97,13.322 8.172,13.256 8.452,13.256 C9.044,13.256 9.844,13.264 10.852,13.28 C10.956,13.288 11.096,13.292 11.272,13.292 C11.344,13.292 11.394,13.278 11.422,13.25 C11.4406667,13.2313333 11.4531111,13.2028889 11.4593333,13.1646667 L11.464,13.1 L11.464,11.792 C11.464,11.72 11.45,11.67 11.422,11.642 C11.4033333,11.6233333 11.3748889,11.6108889 11.3366667,11.6046667 L11.272,11.6 L10.936,11.6 C9.352,11.576 8.436,11.564 8.188,11.564 Z M18.292,11.624 L12.676,11.624 C12.604,11.624 12.554,11.638 12.526,11.666 C12.5073333,11.6846667 12.4948889,11.7131111 12.4886667,11.7513333 L12.484,11.816 L12.484,13.124 C12.484,13.196 12.498,13.246 12.526,13.274 C12.5446667,13.2926667 12.5731111,13.3051111 12.6113333,13.3113333 L12.676,13.316 L16.156,13.316 L12.52,18.428 C12.48,18.484 12.454,18.534 12.442,18.578 C12.434,18.6073333 12.4286667,18.6464444 12.426,18.6953333 L12.424,18.776 L12.424,19.808 C12.424,19.88 12.438,19.93 12.466,19.958 C12.4846667,19.9766667 12.5131111,19.9891111 12.5513333,19.9953333 L12.616,20 L18.412,20 C18.484,20 18.534,19.986 18.562,19.958 C18.5806667,19.9393333 18.5931111,19.9108889 18.5993333,19.8726667 L18.604,19.808 L18.604,18.5 C18.604,18.428 18.59,18.378 18.562,18.35 C18.5433333,18.3313333 18.5148889,18.3188889 18.4766667,18.3126667 L18.412,18.308 L14.788,18.308 L18.388,13.22 C18.428,13.164 18.454,13.114 18.466,13.07 C18.474,13.0406667 18.4793333,13.0015556 18.482,12.9526667 L18.484,12.872 L18.484,11.816 C18.484,11.744 18.47,11.694 18.442,11.666 C18.4233333,11.6473333 18.3948889,11.6348889 18.3566667,11.6286667 L18.292,11.624 Z M21.424,11.624 L19.996,11.624 C19.924,11.624 19.874,11.638 19.846,11.666 C19.8273333,11.6846667 19.8148889,11.7131111 19.8086667,11.7513333 L19.804,11.816 L19.804,19.808 C19.804,19.88 19.818,19.93 19.846,19.958 C19.8646667,19.9766667 19.8931111,19.9891111 19.9313333,19.9953333 L19.996,20 L21.424,20 C21.496,20 21.546,19.986 21.574,19.958 C21.5926667,19.9393333 21.6051111,19.9108889 21.6113333,19.8726667 L21.616,19.808 L21.616,16.544 L22.336,16.544 L24.436,19.808 C24.484,19.88 24.526,19.93 24.562,19.958 C24.586,19.9766667 24.618,19.9891111 24.658,19.9953333 L24.724,20 L26.44,20 C26.56,20 26.62,19.96 26.62,19.88 C26.62,19.85 26.602,19.802 26.566,19.736 L26.524,19.664 L23.812,15.632 L26.308,11.96 C26.372,11.864 26.404,11.792 26.404,11.744 C26.404,11.68 26.3656,11.6416 26.2888,11.6288 L26.224,11.624 L24.652,11.624 C24.58,11.624 24.526,11.638 24.49,11.666 C24.466,11.6846667 24.4393333,11.7131111 24.41,11.7513333 L24.364,11.816 L22.336,14.876 L21.616,14.876 L21.616,11.816 C21.616,11.744 21.602,11.694 21.574,11.666 C21.5553333,11.6473333 21.5268889,11.6348889 21.4886667,11.6286667 L21.424,11.624 Z" id="Combined-Shape" fill="#000"></path>
    </g>
</svg>
