<?xml version="1.0" encoding="UTF-8"?>
<svg width="32px" height="32px" viewBox="0 0 32 32" version="1.1"
    xmlns="http://www.w3.org/2000/svg"
    xmlns:xlink="http://www.w3.org/1999/xlink">
    <!-- Generator: Sketch 61.2 (89653) - https://sketch.com -->
    <title>currency/sek</title>
    <g id="currency/sek" stroke="none" stroke-width="1" fill="none" fill-rule="evenodd">
        <path d="M14.9641728,0.270977675 C15.58768,-0.0903258917 16.3424519,-0.0903258917 16.9659591,0.270977675 L16.9659591,0.270977675 L19.7553334,1.88042084 L23.004134,1.88042084 C23.7260897,1.88042084 24.3824131,2.2417244 24.743391,2.8657942 L24.743391,2.8657942 L26.3841994,5.69053118 L29.1079414,7.26712856 C29.6986324,7.62843213 30.0924264,8.2853477 30.0924264,9.00795484 L30.0924264,9.00795484 L30.0924264,12.1611496 L31.7332348,15.0187324 C32.0942127,15.6428022 32.0942127,16.3982551 31.7004187,16.9894791 L31.7004187,16.9894791 L30.0596102,19.8470618 L30.0596102,23.0002566 C30.0596102,23.7228637 29.6986324,24.3797793 29.0751252,24.7410829 L29.0751252,24.7410829 L26.3513832,26.3176803 L24.7105748,29.1424172 C24.3495969,29.7336413 23.6932736,30.1277906 22.9713179,30.1277906 L22.9713179,30.1277906 L19.7225172,30.1277906 L16.9331429,31.7372338 C16.6377974,31.9014627 16.2768195,32 15.9486578,32 C15.6204962,32 15.2595183,31.9014627 14.9641728,31.7372338 L14.9641728,31.7372338 L12.1747985,30.1277906 L8.99163014,30.1277906 C8.26967443,30.1277906 7.61335107,29.766487 7.25237321,29.1424172 L7.25237321,29.1424172 L5.64438096,26.3833718 L2.82219048,24.7410829 C2.23149945,24.3797793 1.83770543,23.7228637 1.83770543,23.0002566 L1.83770543,23.0002566 L1.83770543,19.7156787 L0.262529347,16.9894791 C0.0984485052,16.6938671 -5.68434189e-14,16.3325635 -5.68434189e-14,16.0041057 C-5.68434189e-14,15.6756479 0.0984485052,15.3143444 0.262529347,15.0187324 L0.262529347,15.0187324 L1.83770543,12.2925327 L1.83770543,9.00795484 C1.83770543,8.2853477 2.19868328,7.62843213 2.82219048,7.26712856 L2.82219048,7.26712856 L5.64438096,5.62483962 L7.25237321,2.8657942 C7.61335107,2.27457018 8.26967443,1.88042084 8.99163014,1.88042084 L8.99163014,1.88042084 L12.1747985,1.88042084 Z M8.2,11.564 C7.44,11.564 6.858,11.732 6.454,12.068 C6.0904,12.3704 5.89042,12.81212 5.85406,13.39316 L5.848,13.592 L5.848,14.24 C5.848,14.704 5.924,15.068 6.076,15.332 C6.228,15.596 6.412,15.786 6.628,15.902 C6.8008,15.9948 7.02224,16.08632 7.29232,16.17656 L7.504,16.244 L9.352,16.844 C9.568,16.908 9.71,16.986 9.778,17.078 C9.8324,17.1516 9.86504,17.26488 9.87592,17.41784 L9.88,17.54 L9.88,17.732 C9.88,17.932 9.854,18.076 9.802,18.164 C9.75,18.252 9.674,18.308 9.574,18.332 C9.474,18.356 9.316,18.368 9.1,18.368 C8.54,18.368 7.588,18.356 6.244,18.332 C6.172,18.332 6.122,18.346 6.094,18.374 C6.07533333,18.3926667 6.06288889,18.4211111 6.05666667,18.4593333 L6.052,18.524 L6.052,19.832 C6.052,19.904 6.066,19.954 6.094,19.982 C6.122,20.01 6.172,20.024 6.244,20.024 C7.636,20.048 8.672,20.06 9.352,20.06 C10.104,20.06 10.684,19.884 11.092,19.532 C11.4592,19.2152 11.66116,18.76232 11.69788,18.17336 L11.704,17.972 L11.704,17.312 C11.704,16.84 11.628,16.472 11.476,16.208 C11.324,15.944 11.14,15.756 10.924,15.644 C10.7512,15.5544 10.52976,15.46224 10.25968,15.36752 L10.048,15.296 L8.188,14.684 C7.972,14.612 7.83,14.538 7.762,14.462 C7.7076,14.4012 7.67496,14.2956 7.66408,14.1452 L7.66,14.024 L7.66,13.856 C7.66,13.664 7.686,13.526 7.738,13.442 C7.79,13.358 7.866,13.306 7.966,13.286 C8.066,13.266 8.228,13.256 8.452,13.256 C8.98,13.256 9.832,13.268 11.008,13.292 C11.08,13.292 11.13,13.278 11.158,13.25 C11.1766667,13.2313333 11.1891111,13.2028889 11.1953333,13.1646667 L11.2,13.1 L11.2,11.792 C11.2,11.72 11.186,11.67 11.158,11.642 C11.13,11.614 11.08,11.6 11.008,11.6 C9.712,11.576 8.776,11.564 8.2,11.564 Z M18.16,11.624 L12.952,11.624 C12.88,11.624 12.83,11.638 12.802,11.666 C12.7833333,11.6846667 12.7708889,11.7131111 12.7646667,11.7513333 L12.76,11.816 L12.76,18.248 C12.76,18.88 12.894,19.33 13.162,19.598 C13.4002222,19.8362222 13.7822469,19.9685679 14.3080741,19.995037 L14.512,20 L18.256,20 C18.328,20 18.378,19.986 18.406,19.958 C18.4246667,19.9393333 18.4371111,19.9108889 18.4433333,19.8726667 L18.448,19.808 L18.448,18.5 C18.448,18.428 18.434,18.378 18.406,18.35 C18.3873333,18.3313333 18.3588889,18.3188889 18.3206667,18.3126667 L18.256,18.308 L14.956,18.308 C14.812,18.308 14.712,18.274 14.656,18.206 C14.614,18.155 14.58775,18.080375 14.57725,17.982125 L14.572,17.876 L14.572,16.592 L17.908,16.592 C17.98,16.592 18.03,16.578 18.058,16.55 C18.0766667,16.5313333 18.0891111,16.5028889 18.0953333,16.4646667 L18.1,16.4 L18.1,15.092 C18.1,15.02 18.086,14.97 18.058,14.942 C18.0393333,14.9233333 18.0108889,14.9108889 17.9726667,14.9046667 L17.908,14.9 L14.572,14.9 L14.572,13.316 L18.16,13.316 C18.232,13.316 18.282,13.302 18.31,13.274 C18.3286667,13.2553333 18.3411111,13.2268889 18.3473333,13.1886667 L18.352,13.124 L18.352,11.816 C18.352,11.744 18.338,11.694 18.31,11.666 C18.2913333,11.6473333 18.2628889,11.6348889 18.2246667,11.6286667 L18.16,11.624 Z M21.256,11.624 L19.828,11.624 C19.756,11.624 19.706,11.638 19.678,11.666 C19.6593333,11.6846667 19.6468889,11.7131111 19.6406667,11.7513333 L19.636,11.816 L19.636,19.808 C19.636,19.88 19.65,19.93 19.678,19.958 C19.6966667,19.9766667 19.7251111,19.9891111 19.7633333,19.9953333 L19.828,20 L21.256,20 C21.328,20 21.378,19.986 21.406,19.958 C21.4246667,19.9393333 21.4371111,19.9108889 21.4433333,19.8726667 L21.448,19.808 L21.448,16.544 L22.168,16.544 L24.268,19.808 C24.316,19.88 24.358,19.93 24.394,19.958 C24.418,19.9766667 24.45,19.9891111 24.49,19.9953333 L24.556,20 L26.272,20 C26.392,20 26.452,19.96 26.452,19.88 C26.452,19.85 26.434,19.802 26.398,19.736 L26.356,19.664 L23.644,15.632 L26.14,11.96 C26.204,11.864 26.236,11.792 26.236,11.744 C26.236,11.68 26.1976,11.6416 26.1208,11.6288 L26.056,11.624 L24.484,11.624 C24.412,11.624 24.358,11.638 24.322,11.666 C24.298,11.6846667 24.2713333,11.7131111 24.242,11.7513333 L24.196,11.816 L22.168,14.876 L21.448,14.876 L21.448,11.816 C21.448,11.744 21.434,11.694 21.406,11.666 C21.3873333,11.6473333 21.3588889,11.6348889 21.3206667,11.6286667 L21.256,11.624 Z" id="Combined-Shape" fill="#000"></path>
    </g>
</svg>
