<!-- Generated by IcoMoon.io -->
<svg version="1.1" xmlns="http://www.w3.org/2000/svg" width="32" height="32" viewBox="0 0 32 32">
<title>Promo-Euro</title>
<path fill="#000" d="M31.733 15.019c0.361 0.624 0.361 1.38-0.033 1.971l-1.641 2.858v3.153c0 0.723-0.361 1.38-0.985 1.741l-2.724 1.577-1.641 2.825c-0.361 0.591-1.017 0.985-1.739 0.985h-3.249l-2.789 1.609c-0.295 0.164-0.656 0.263-0.985 0.263s-0.689-0.099-0.985-0.263l-2.789-1.609h-3.183c-0.722 0-1.378-0.361-1.739-0.985l-1.608-2.759-2.822-1.642c-0.591-0.361-0.985-1.018-0.985-1.741v-3.285l-1.575-2.726c-0.164-0.296-0.263-0.657-0.263-0.985s0.098-0.69 0.263-0.985l1.575-2.726v-3.285c0-0.723 0.361-1.38 0.985-1.741l2.822-1.642 1.608-2.759c0.361-0.591 1.017-0.985 1.739-0.985h3.183l2.789-1.609c0.623-0.361 1.378-0.361 2.002 0l2.789 1.609h3.249c0.722 0 1.378 0.361 1.739 0.985l1.641 2.825 2.724 1.577c0.591 0.361 0.985 1.018 0.985 1.741v3.153l1.641 2.858zM15.381 18.404v-0.256h1.422c0.085 0 0.147-0.017 0.185-0.050s0.085-0.092 0.142-0.178l0.398-0.697c0.114-0.199 0.171-0.327 0.171-0.384 0-0.095-0.071-0.142-0.213-0.142h-2.105v-0.668h2.503c0.085 0 0.147-0.017 0.185-0.050s0.085-0.092 0.142-0.178l0.398-0.697c0.114-0.199 0.171-0.327 0.171-0.384 0-0.095-0.071-0.142-0.213-0.142h-3.186v-0.242c0-0.351 0.073-0.604 0.22-0.761s0.386-0.235 0.718-0.235c0.721 0 1.631 0.009 2.731 0.028 0.095 0.009 0.228 0.014 0.398 0.014 0.085 0 0.145-0.017 0.178-0.050s0.050-0.092 0.050-0.178v-1.55c0-0.085-0.017-0.145-0.050-0.178s-0.092-0.050-0.178-0.050h-0.299c-1.735-0.028-2.783-0.043-3.143-0.043-0.882 0-1.567 0.232-2.055 0.697s-0.732 1.109-0.732 1.934v0.612h-0.284c-0.085 0-0.147 0.017-0.185 0.050s-0.085 0.092-0.142 0.178l-0.398 0.697c-0.114 0.199-0.171 0.327-0.171 0.384 0 0.095 0.071 0.142 0.213 0.142h0.967v0.668h-0.327c-0.085 0-0.147 0.017-0.185 0.050s-0.085 0.092-0.142 0.178l-0.398 0.697c-0.114 0.199-0.171 0.327-0.171 0.384 0 0.095 0.071 0.142 0.213 0.142h1.010v0.626c0 0.825 0.244 1.47 0.732 1.934s1.173 0.697 2.055 0.697c1.138 0 2.166-0.014 3.086-0.043h0.441c0.085 0 0.145-0.017 0.178-0.050s0.050-0.092 0.050-0.178v-1.55c0-0.085-0.017-0.145-0.050-0.178s-0.092-0.050-0.178-0.050c-1.564 0.028-2.636 0.043-3.214 0.043-0.332 0-0.571-0.078-0.718-0.235s-0.22-0.41-0.22-0.761z"></path>
</svg>
