<!-- Generated by IcoMoon.io -->
<svg version="1.1" xmlns="http://www.w3.org/2000/svg" width="32" height="32" viewBox="0 0 32 32">
<title>Promo-Ticket-Music</title>
<path fill="#000" d="M29.224 19.022c-0.182 1.030 0.48 2.011 1.488 2.241l-0.191 1.082c-1.026-0.128-1.983 0.567-2.165 1.597s0.48 2.011 1.488 2.241l-0.211 1.198-30.102-5.308 0.211-1.198c1.026 0.128 1.983-0.567 2.165-1.597s-0.48-2.011-1.488-2.241l0.191-1.082c1.026 0.128 1.983-0.567 2.165-1.597s-0.48-2.011-1.488-2.241l0.191-1.081c1.026 0.128 1.983-0.567 2.165-1.597s-0.48-2.011-1.488-2.241l0.211-1.198 30.102 5.308-0.211 1.198c-1.026-0.128-1.983 0.567-2.165 1.597s0.48 2.011 1.488 2.241l-0.191 1.081c-1.026-0.128-1.983 0.567-2.165 1.597zM26.573 22.401l-0-0 1.273-7.218c-0.111-0.002-0.225-0.012-0.338-0.032-1.14-0.201-1.901-1.288-1.7-2.428 0.039-0.223 0.113-0.431 0.213-0.62l-17.804-3.139c0.002 0.132-0.008 0.266-0.032 0.401-0.201 1.14-1.288 1.901-2.428 1.7-0.113-0.020-0.224-0.049-0.329-0.086l-1.273 7.218c0.112 0.001 0.225 0.011 0.339 0.031 1.14 0.201 1.901 1.288 1.7 2.428-0.039 0.222-0.112 0.43-0.213 0.62l17.804 3.139c-0.002-0.132 0.008-0.267 0.031-0.401 0.201-1.14 1.288-1.901 2.428-1.7 0.113 0.020 0.223 0.050 0.329 0.087z"></path>
<path fill="#8c8c8c" d="M19.343 19.388c-0.054 0.721-0.86 1.245-1.799 1.17s-1.655-0.719-1.601-1.441c0.055-0.72 0.861-1.245 1.8-1.17 0.297 0.024 0.571 0.105 0.806 0.227l0.614-3.483-4.441-0.142-0.767 4.35c0 0-0.008 0.022-0.008 0.034-0.055 0.721-0.861 1.246-1.8 1.17s-1.655-0.72-1.6-1.441c0.055-0.72 0.86-1.244 1.799-1.17 0.297 0.023 0.571 0.104 0.806 0.226 0 0 0.884-5.014 0.885-5.014l6.438 0.282-1.123 6.367c-0 0-0.007 0.023-0.009 0.035z"></path>
</svg>
