<!-- Generated by IcoMoon.io -->
<svg version="1.1" xmlns="http://www.w3.org/2000/svg" width="32" height="32" viewBox="0 0 32 32">
<title>Promo-Pound</title>
<path fill="#000" d="M31.733 15.019c0.361 0.624 0.361 1.38-0.033 1.971l-1.641 2.858v3.153c0 0.723-0.361 1.38-0.985 1.741l-2.724 1.577-1.641 2.825c-0.361 0.591-1.017 0.985-1.739 0.985h-3.249l-2.789 1.609c-0.295 0.164-0.656 0.263-0.985 0.263s-0.689-0.099-0.985-0.263l-2.789-1.609h-3.183c-0.722 0-1.378-0.361-1.739-0.985l-1.608-2.759-2.822-1.642c-0.591-0.361-0.985-1.018-0.985-1.741v-3.285l-1.575-2.726c-0.164-0.296-0.263-0.657-0.263-0.985s0.098-0.69 0.263-0.985l1.575-2.726v-3.285c0-0.723 0.361-1.38 0.985-1.741l2.822-1.642 1.608-2.759c0.361-0.591 1.017-0.985 1.739-0.985h3.183l2.789-1.609c0.623-0.361 1.378-0.361 2.002 0l2.789 1.609h3.249c0.722 0 1.378 0.361 1.739 0.985l1.641 2.825 2.724 1.577c0.591 0.361 0.985 1.018 0.985 1.741v3.153l1.641 2.858zM16.924 13.412h1.906c0.085 0 0.145-0.017 0.178-0.050s0.050-0.092 0.050-0.178v-1.55c0-0.085-0.017-0.145-0.050-0.178s-0.092-0.050-0.178-0.050h-2.219c-0.882 0-1.564 0.232-2.048 0.697s-0.725 1.109-0.725 1.934v1.294h-1.394c-0.085 0-0.145 0.017-0.178 0.050s-0.050 0.092-0.050 0.178v1.465c0 0.085 0.017 0.145 0.050 0.178s0.092 0.050 0.178 0.050h1.394v1.479c0 0.19-0.043 0.337-0.128 0.441s-0.242 0.156-0.469 0.156h-0.811c-0.085 0-0.145 0.017-0.178 0.050s-0.050 0.092-0.050 0.178v1.55c0 0.085 0.017 0.145 0.050 0.178s0.092 0.050 0.178 0.050h7.282c0.085 0 0.145-0.017 0.178-0.050s0.050-0.092 0.050-0.178v-1.55c0-0.085-0.017-0.145-0.050-0.178s-0.092-0.050-0.178-0.050h-4.153l0.341-0.597c0.028-0.057 0.050-0.109 0.064-0.156s0.021-0.109 0.021-0.185v-1.138h2.332c0.085 0 0.145-0.017 0.178-0.050s0.050-0.092 0.050-0.178v-1.465c0-0.085-0.017-0.145-0.050-0.178s-0.092-0.050-0.178-0.050h-2.332v-0.924c0-0.351 0.073-0.604 0.22-0.761s0.386-0.235 0.718-0.235z"></path>
</svg>
