<!-- Generated by IcoMoon.io -->
<svg version="1.1" xmlns="http://www.w3.org/2000/svg" width="32" height="32" viewBox="0 0 32 32">
<title>Promo-DKK</title>
<path fill="#000" d="M31.733 15.019c0.361 0.624 0.361 1.38-0.033 1.971l-1.641 2.858v3.153c0 0.723-0.361 1.38-0.985 1.741l-2.724 1.577-1.641 2.825c-0.361 0.591-1.017 0.985-1.739 0.985h-3.249l-2.789 1.609c-0.295 0.164-0.656 0.263-0.985 0.263s-0.689-0.099-0.985-0.263l-2.789-1.609h-3.183c-0.722 0-1.378-0.361-1.739-0.985l-1.608-2.759-2.822-1.642c-0.591-0.361-0.985-1.018-0.985-1.741v-3.285l-1.575-2.726c-0.164-0.296-0.263-0.657-0.263-0.985s0.098-0.69 0.263-0.985l1.575-2.726v-3.285c0-0.723 0.361-1.38 0.985-1.741l2.822-1.642 1.608-2.759c0.361-0.591 1.017-0.985 1.739-0.985h3.183l2.789-1.609c0.623-0.361 1.378-0.361 2.002 0l2.789 1.609h3.249c0.722 0 1.378 0.361 1.739 0.985l1.641 2.825 2.724 1.577c0.591 0.361 0.985 1.018 0.985 1.741v3.153l1.641 2.858zM4.691 20.622h4.134c0.794 0 1.41-0.209 1.85-0.627s0.659-0.998 0.659-1.741v-4.198c0-0.742-0.22-1.323-0.659-1.741s-1.056-0.627-1.85-0.627h-4.134c-0.077 0-0.13 0.015-0.16 0.045s-0.045 0.083-0.045 0.16v8.525c0 0.077 0.015 0.13 0.045 0.16s0.083 0.045 0.16 0.045zM8.557 18.817h-2.138v-5.325h2.138c0.299 0 0.514 0.070 0.646 0.211s0.198 0.369 0.198 0.685v3.533c0 0.316-0.066 0.544-0.198 0.685s-0.348 0.211-0.646 0.211zM19.885 20.264l-2.893-4.301 2.662-3.917c0.068-0.102 0.102-0.179 0.102-0.23 0-0.085-0.064-0.128-0.192-0.128h-1.677c-0.077 0-0.134 0.015-0.173 0.045s-0.083 0.083-0.134 0.16l-2.163 3.264h-0.768v-3.264c0-0.077-0.015-0.13-0.045-0.16s-0.083-0.045-0.16-0.045h-1.523c-0.077 0-0.13 0.015-0.16 0.045s-0.045 0.083-0.045 0.16v8.525c0 0.077 0.015 0.13 0.045 0.16s0.083 0.045 0.16 0.045h1.523c0.077 0 0.13-0.015 0.16-0.045s0.045-0.083 0.045-0.16v-3.482h0.768l2.24 3.482c0.051 0.077 0.096 0.13 0.134 0.16s0.096 0.045 0.173 0.045h1.83c0.128 0 0.192-0.043 0.192-0.128 0-0.043-0.034-0.119-0.102-0.23zM28.051 20.264l-2.893-4.301 2.662-3.917c0.068-0.102 0.102-0.179 0.102-0.23 0-0.085-0.064-0.128-0.192-0.128h-1.677c-0.077 0-0.134 0.015-0.173 0.045s-0.083 0.083-0.134 0.16l-2.163 3.264h-0.768v-3.264c0-0.077-0.015-0.13-0.045-0.16s-0.083-0.045-0.16-0.045h-1.523c-0.077 0-0.13 0.015-0.16 0.045s-0.045 0.083-0.045 0.16v8.525c0 0.077 0.015 0.13 0.045 0.16s0.083 0.045 0.16 0.045h1.523c0.077 0 0.13-0.015 0.16-0.045s0.045-0.083 0.045-0.16v-3.482h0.768l2.24 3.482c0.051 0.077 0.096 0.13 0.134 0.16s0.096 0.045 0.173 0.045h1.83c0.128 0 0.192-0.043 0.192-0.128 0-0.043-0.034-0.119-0.102-0.23z"></path>
</svg>
