<?xml version="1.0" encoding="UTF-8"?>
<svg width="32px" height="32px" viewBox="0 0 32 32" version="1.1"
    xmlns="http://www.w3.org/2000/svg"
    xmlns:xlink="http://www.w3.org/1999/xlink">
    <!-- Generator: Sketch 61.2 (89653) - https://sketch.com -->
    <title>currency/ron</title>
    <g id="currency/ron" stroke="none" stroke-width="1" fill="none" fill-rule="evenodd">
        <path d="M14.9641728,0.270977675 C15.58768,-0.0903258917 16.3424519,-0.0903258917 16.9659591,0.270977675 L16.9659591,0.270977675 L19.7553334,1.88042084 L23.004134,1.88042084 C23.7260897,1.88042084 24.3824131,2.2417244 24.743391,2.8657942 L24.743391,2.8657942 L26.3841994,5.69053118 L29.1079414,7.26712856 C29.6986324,7.62843213 30.0924264,8.2853477 30.0924264,9.00795484 L30.0924264,9.00795484 L30.0924264,12.1611496 L31.7332348,15.0187324 C32.0942127,15.6428022 32.0942127,16.3982551 31.7004187,16.9894791 L31.7004187,16.9894791 L30.0596102,19.8470618 L30.0596102,23.0002566 C30.0596102,23.7228637 29.6986324,24.3797793 29.0751252,24.7410829 L29.0751252,24.7410829 L26.3513832,26.3176803 L24.7105748,29.1424172 C24.3495969,29.7336413 23.6932736,30.1277906 22.9713179,30.1277906 L22.9713179,30.1277906 L19.7225172,30.1277906 L16.9331429,31.7372338 C16.6377974,31.9014627 16.2768195,32 15.9486578,32 C15.6204962,32 15.2595183,31.9014627 14.9641728,31.7372338 L14.9641728,31.7372338 L12.1747985,30.1277906 L8.99163014,30.1277906 C8.26967443,30.1277906 7.61335107,29.766487 7.25237321,29.1424172 L7.25237321,29.1424172 L5.64438096,26.3833718 L2.82219048,24.7410829 C2.23149945,24.3797793 1.83770543,23.7228637 1.83770543,23.0002566 L1.83770543,23.0002566 L1.83770543,19.7156787 L0.262529347,16.9894791 C0.0984485052,16.6938671 -5.68434189e-14,16.3325635 -5.68434189e-14,16.0041057 C-5.68434189e-14,15.6756479 0.0984485052,15.3143444 0.262529347,15.0187324 L0.262529347,15.0187324 L1.83770543,12.2925327 L1.83770543,9.00795484 C1.83770543,8.2853477 2.19868328,7.62843213 2.82219048,7.26712856 L2.82219048,7.26712856 L5.64438096,5.62483962 L7.25237321,2.8657942 C7.61335107,2.27457018 8.26967443,1.88042084 8.99163014,1.88042084 L8.99163014,1.88042084 L12.1747985,1.88042084 Z M16.63,11.528 L14.602,11.528 C13.858,11.528 13.28,11.724 12.868,12.116 C12.4972,12.4688 12.29326,12.94472 12.25618,13.54376 L12.25,13.748 L12.25,17.876 C12.25,18.572 12.456,19.116 12.868,19.508 C13.2388,19.8608 13.74406,20.05484 14.38378,20.09012 L14.602,20.096 L16.63,20.096 C17.374,20.096 17.952,19.9 18.364,19.508 C18.7348,19.1552 18.93874,18.67928 18.97582,18.08024 L18.982,17.876 L18.982,13.748 C18.982,13.052 18.776,12.508 18.364,12.116 C17.9932,11.7632 17.48794,11.56916 16.84822,11.53388 L16.63,11.528 Z M8.83,11.624 L5.11,11.624 C5.038,11.624 4.988,11.638 4.96,11.666 C4.94133333,11.6846667 4.92888889,11.7131111 4.92266667,11.7513333 L4.918,11.816 L4.918,19.808 C4.918,19.88 4.932,19.93 4.96,19.958 C4.97866667,19.9766667 5.00711111,19.9891111 5.04533333,19.9953333 L5.11,20 L6.538,20 C6.61,20 6.66,19.986 6.688,19.958 C6.70666667,19.9393333 6.71911111,19.9108889 6.72533333,19.8726667 L6.73,19.808 L6.73,17.06 L8.134,17.06 L9.214,19.808 C9.246,19.88 9.278,19.93 9.31,19.958 C9.33133333,19.9766667 9.36155556,19.9891111 9.40066667,19.9953333 L9.466,20 L11.062,20 C11.174,20 11.23,19.956 11.23,19.868 C11.23,19.8146667 11.1938889,19.7057778 11.1216667,19.5413333 L11.074,19.436 L9.922,16.832 C10.338,16.696 10.652,16.466 10.864,16.142 C11.0495,15.8585 11.1538437,15.4907813 11.1770312,15.0388438 L11.182,14.84 L11.182,13.844 C11.182,13.148 10.976,12.604 10.564,12.212 C10.1932,11.8592 9.68794,11.66516 9.04822,11.62988 L8.83,11.624 Z M22.09,11.624 L20.47,11.624 C20.398,11.624 20.348,11.638 20.32,11.666 C20.3013333,11.6846667 20.2888889,11.7131111 20.2826667,11.7513333 L20.278,11.816 L20.278,19.808 C20.278,19.88 20.292,19.93 20.32,19.958 C20.3386667,19.9766667 20.3671111,19.9891111 20.4053333,19.9953333 L20.47,20 L21.838,20 C21.91,20 21.96,19.986 21.988,19.958 C22.0066667,19.9393333 22.0191111,19.9108889 22.0253333,19.8726667 L22.03,19.808 L22.03,16.436 C22.03,15.996 22.0161111,15.4837778 21.9883333,14.8993333 L21.97,14.54 L24.994,19.808 C25.042,19.88 25.082,19.93 25.114,19.958 C25.1353333,19.9766667 25.1655556,19.9891111 25.2046667,19.9953333 L25.27,20 L26.89,20 C26.962,20 27.012,19.986 27.04,19.958 C27.0586667,19.9393333 27.0711111,19.9108889 27.0773333,19.8726667 L27.082,19.808 L27.082,11.816 C27.082,11.744 27.068,11.694 27.04,11.666 C27.0213333,11.6473333 26.9928889,11.6348889 26.9546667,11.6286667 L26.89,11.624 L25.522,11.624 C25.45,11.624 25.4,11.638 25.372,11.666 C25.3533333,11.6846667 25.3408889,11.7131111 25.3346667,11.7513333 L25.33,11.816 L25.33,15.164 C25.33,15.5973333 25.3438889,16.1084444 25.3716667,16.6973333 L25.39,17.06 L22.366,11.816 C22.318,11.744 22.278,11.694 22.246,11.666 C22.2246667,11.6473333 22.1944444,11.6348889 22.1553333,11.6286667 L22.09,11.624 Z M16.366,13.22 C16.646,13.22 16.848,13.286 16.972,13.418 C17.0753333,13.528 17.1356111,13.6949444 17.1528333,13.9188333 L17.158,14.06 L17.158,17.564 C17.158,17.86 17.096,18.074 16.972,18.206 C16.848,18.338 16.646,18.404 16.366,18.404 L14.866,18.404 C14.586,18.404 14.384,18.338 14.26,18.206 C14.1566667,18.096 14.0963889,17.9290556 14.0791667,17.7051667 L14.074,17.564 L14.074,14.06 C14.074,13.764 14.136,13.55 14.26,13.418 C14.3633333,13.308 14.5208333,13.2438333 14.7325,13.2255 L14.866,13.22 L16.366,13.22 Z M8.578,13.316 C8.858,13.316 9.06,13.382 9.184,13.514 C9.28733333,13.624 9.34761111,13.7909444 9.36483333,14.0148333 L9.37,14.156 L9.37,14.66 C9.37,14.956 9.308,15.17 9.184,15.302 C9.06,15.434 8.858,15.5 8.578,15.5 L6.73,15.5 L6.73,13.316 L8.578,13.316 Z" id="Combined-Shape" fill="#000"></path>
    </g>
</svg>
