<!-- Generated by IcoMoon.io -->
<svg version="1.1" xmlns="http://www.w3.org/2000/svg" width="32" height="32" viewBox="0 0 32 32">
<title>Promo-Percent</title>
<path fill="#000" d="M31.733 15.019c0.361 0.624 0.361 1.38-0.033 1.971l-1.641 2.858v3.153c0 0.723-0.361 1.38-0.985 1.741l-2.724 1.577-1.641 2.825c-0.361 0.591-1.017 0.985-1.739 0.985h-3.249l-2.789 1.609c-0.295 0.164-0.656 0.263-0.985 0.263s-0.689-0.099-0.985-0.263l-2.789-1.609h-3.183c-0.722 0-1.378-0.361-1.739-0.985l-1.608-2.759-2.822-1.642c-0.591-0.361-0.985-1.018-0.985-1.741v-3.285l-1.575-2.726c-0.164-0.296-0.263-0.657-0.263-0.985s0.098-0.69 0.263-0.985l1.575-2.726v-3.285c0-0.723 0.361-1.38 0.985-1.741l2.822-1.642 1.608-2.759c0.361-0.591 1.017-0.985 1.739-0.985h3.183l2.789-1.609c0.623-0.361 1.378-0.361 2.002 0l2.789 1.609h3.249c0.722 0 1.378 0.361 1.739 0.985l1.641 2.825 2.724 1.577c0.591 0.361 0.985 1.018 0.985 1.741v3.153l1.641 2.858zM10.368 12.828v2.276c0 0.484 0.142 0.86 0.427 1.131s0.683 0.405 1.195 0.405h1.294c0.512 0 0.91-0.135 1.195-0.405s0.427-0.647 0.427-1.131v-2.276c0-0.484-0.142-0.86-0.427-1.131s-0.683-0.405-1.195-0.405h-1.294c-0.512 0-0.91 0.135-1.195 0.405s-0.427 0.647-0.427 1.131zM14.066 21.106l5.333-9.23c0.009-0.019 0.036-0.064 0.078-0.135s0.064-0.135 0.064-0.192c0-0.095-0.071-0.142-0.213-0.142h-1.166c-0.085 0-0.147 0.017-0.185 0.050s-0.085 0.092-0.142 0.178l-5.333 9.23c-0.009 0.019-0.036 0.064-0.078 0.135s-0.064 0.135-0.064 0.192c0 0.095 0.071 0.142 0.213 0.142h1.166c0.085 0 0.147-0.017 0.185-0.050s0.085-0.092 0.142-0.178zM13.34 13.241v1.465c0 0.18-0.038 0.311-0.114 0.391s-0.204 0.121-0.384 0.121h-0.412c-0.18 0-0.308-0.040-0.384-0.121s-0.114-0.211-0.114-0.391v-1.465c0-0.19 0.038-0.325 0.114-0.405s0.204-0.121 0.384-0.121h0.412c0.18 0 0.308 0.040 0.384 0.121s0.114 0.216 0.114 0.405zM16.981 17.636v2.276c0 0.484 0.142 0.86 0.427 1.131s0.683 0.405 1.195 0.405h1.408c0.512 0 0.91-0.135 1.195-0.405s0.427-0.647 0.427-1.131v-2.276c0-0.484-0.142-0.86-0.427-1.131s-0.683-0.405-1.195-0.405h-1.408c-0.512 0-0.91 0.135-1.195 0.405s-0.427 0.647-0.427 1.131zM20.068 18.048v1.465c0 0.18-0.038 0.311-0.114 0.391s-0.204 0.121-0.384 0.121h-0.526c-0.18 0-0.308-0.040-0.384-0.121s-0.114-0.211-0.114-0.391v-1.465c0-0.19 0.038-0.325 0.114-0.405s0.204-0.121 0.384-0.121h0.526c0.18 0 0.308 0.040 0.384 0.121s0.114 0.216 0.114 0.405z"></path>
</svg>
