<!-- Generated by IcoMoon.io -->
<svg version="1.1" xmlns="http://www.w3.org/2000/svg" width="32" height="32" viewBox="0 0 32 32">
<title>Promo-Ticket-Football</title>
<path fill="#000" d="M28.849 18.652c-0.176 1.001 0.466 1.953 1.446 2.177l-0.185 1.051c-0.997-0.125-1.927 0.551-2.103 1.552s0.466 1.953 1.446 2.177l-0.205 1.164-29.246-5.157 0.205-1.164c0.997 0.125 1.927-0.551 2.103-1.552s-0.466-1.954-1.446-2.178l0.185-1.051c0.997 0.125 1.927-0.551 2.103-1.552s-0.466-1.953-1.446-2.177l0.185-1.051c0.997 0.125 1.927-0.551 2.103-1.552s-0.466-1.954-1.446-2.177l0.205-1.164 29.246 5.157-0.205 1.164c-0.997-0.125-1.927 0.551-2.103 1.552s0.466 1.953 1.446 2.177l-0.185 1.051c-0.997-0.125-1.927 0.551-2.103 1.552zM26.272 21.935l-0-0 1.237-7.013c-0.108-0.002-0.218-0.011-0.329-0.031-1.108-0.195-1.847-1.251-1.652-2.359 0.038-0.216 0.109-0.418 0.207-0.602l-17.298-3.050c0.002 0.129-0.008 0.259-0.031 0.39-0.195 1.108-1.251 1.847-2.359 1.652-0.11-0.019-0.217-0.048-0.32-0.084l-1.237 7.013c0.109 0.001 0.219 0.011 0.329 0.030 1.107 0.195 1.847 1.251 1.652 2.359-0.038 0.216-0.109 0.418-0.207 0.602l17.298 3.050c-0.002-0.129 0.007-0.259 0.030-0.39 0.195-1.108 1.251-1.847 2.359-1.652 0.11 0.019 0.217 0.048 0.319 0.084z"></path>
<path fill="#8c8c8c" d="M16.005 11.708c2.559 0 4.642 2.082 4.642 4.642s-2.082 4.642-4.642 4.642c-2.559 0-4.642-2.082-4.642-4.642s2.082-4.642 4.642-4.642zM17.428 14.011c-0.435-0.329-1.247-0.466-1.467-0.479-0.625 0.287-1.016 0.76-1.149 0.941 0.045 0.463 0.223 1.099 0.338 1.474 0.27 0.057 1.069 0.238 1.55 0.495 0.309-0.274 0.916-0.814 1.146-1.040-0.025-0.388-0.071-0.953-0.418-1.392zM13.185 13.821c-0.005 0.084-0.012 0.314 0.051 0.531 0.475-0.175 1.229-0.145 1.308-0.124 0.149-0.323 0.764-0.774 1.174-0.979l-0.126-0.608c-0.152-0.008-0.419-0.020-0.708-0.021-0.464 0.145-0.89 0.374-1.263 0.669-0.303 0.341-0.404 0.481-0.436 0.532zM12.83 14.131c-0.878 1.139-0.692 2.279-0.692 2.31 0.094-0.098 0.206-0.204 0.325-0.288-0.011-0.073 0.041-0.872 0.462-1.592-0.056-0.145-0.083-0.295-0.096-0.431zM13.473 19.207c0.129-0.114 0.355-0.315 0.496-0.445-0.050-0.093-0.404-0.694-0.425-1.468-0.418-0.182-0.749-0.579-0.917-0.812-0.184 0.143-0.357 0.353-0.421 0.432-0.003 0.035 0.039 1.108 1.135 2.253l0.131 0.040zM15.868 19.174c0.471-0.26 0.919-0.742 1.089-0.936-0.092-0.438-0.254-1.167-0.343-1.427-0.418-0.265-1.349-0.47-1.565-0.515-0.062 0.035-1.045 0.872-1.143 0.964-0.005 0.652 0.378 1.328 0.434 1.425 0.028 0.027 0.477 0.444 1.528 0.489zM18.679 18.891l0.011-0.002c-0.011-0.228-0.060-0.407-0.111-0.535-0.154 0.071-0.693 0.256-1.342 0.113-0.175 0.201-0.63 0.689-1.129 0.985 0.010 0.122 0.046 0.357 0.176 0.576 0.031 0.011 0.333 0.128 0.459 0.163 0.647-0.118 1.238-0.395 1.732-0.79 0.1-0.138 0.203-0.51 0.203-0.51zM19.045 18.786c0.022-0.008 0.961-1.045 0.8-2.618-0.122 0.121-0.278 0.254-0.448 0.351-0.018 0.339-0.105 1.196-0.517 1.619 0.069 0.151 0.141 0.368 0.165 0.648zM19.585 14.714c-0.022-0.047-0.503-0.764-1.212-1.196l-0.564 0.403c0.32 0.491 0.371 1.065 0.396 1.439 0.25 0.141 0.748 0.447 1.059 0.816 0.174-0.11 0.332-0.267 0.427-0.371-0.005-0.215-0.074-0.819-0.106-1.092z"></path>
</svg>
