<?xml version="1.0" encoding="UTF-8"?>
<svg width="32px" height="32px" viewBox="0 0 32 32" version="1.1"
    xmlns="http://www.w3.org/2000/svg"
    xmlns:xlink="http://www.w3.org/1999/xlink">
    <!-- Generator: Sketch 61.2 (89653) - https://sketch.com -->
    <title>currency/rub</title>
    <g id="currency/rub" stroke="none" stroke-width="1" fill="none" fill-rule="evenodd">
        <path d="M14.9641728,0.270977675 C15.58768,-0.0903258917 16.3424519,-0.0903258917 16.9659591,0.270977675 L16.9659591,0.270977675 L19.7553334,1.88042084 L23.004134,1.88042084 C23.7260897,1.88042084 24.3824131,2.2417244 24.743391,2.8657942 L24.743391,2.8657942 L26.3841994,5.69053118 L29.1079414,7.26712856 C29.6986324,7.62843213 30.0924264,8.2853477 30.0924264,9.00795484 L30.0924264,9.00795484 L30.0924264,12.1611496 L31.7332348,15.0187324 C32.0942127,15.6428022 32.0942127,16.3982551 31.7004187,16.9894791 L31.7004187,16.9894791 L30.0596102,19.8470618 L30.0596102,23.0002566 C30.0596102,23.7228637 29.6986324,24.3797793 29.0751252,24.7410829 L29.0751252,24.7410829 L26.3513832,26.3176803 L24.7105748,29.1424172 C24.3495969,29.7336413 23.6932736,30.1277906 22.9713179,30.1277906 L22.9713179,30.1277906 L19.7225172,30.1277906 L16.9331429,31.7372338 C16.6377974,31.9014627 16.2768195,32 15.9486578,32 C15.6204962,32 15.2595183,31.9014627 14.9641728,31.7372338 L14.9641728,31.7372338 L12.1747985,30.1277906 L8.99163014,30.1277906 C8.26967443,30.1277906 7.61335107,29.766487 7.25237321,29.1424172 L7.25237321,29.1424172 L5.64438096,26.3833718 L2.82219048,24.7410829 C2.23149945,24.3797793 1.83770543,23.7228637 1.83770543,23.0002566 L1.83770543,23.0002566 L1.83770543,19.7156787 L0.262529347,16.9894791 C0.0984485052,16.6938671 -5.68434189e-14,16.3325635 -5.68434189e-14,16.0041057 C-5.68434189e-14,15.6756479 0.0984485052,15.3143444 0.262529347,15.0187324 L0.262529347,15.0187324 L1.83770543,12.2925327 L1.83770543,9.00795484 C1.83770543,8.2853477 2.19868328,7.62843213 2.82219048,7.26712856 L2.82219048,7.26712856 L5.64438096,5.62483962 L7.25237321,2.8657942 C7.61335107,2.27457018 8.26967443,1.88042084 8.99163014,1.88042084 L8.99163014,1.88042084 L12.1747985,1.88042084 Z M14.422,11.624 L12.994,11.624 C12.922,11.624 12.872,11.638 12.844,11.666 C12.8253333,11.6846667 12.8128889,11.7131111 12.8066667,11.7513333 L12.802,11.816 L12.802,17.876 C12.802,18.572 13.008,19.116 13.42,19.508 C13.7908,19.8608 14.29606,20.05484 14.93578,20.09012 L15.154,20.096 L16.87,20.096 C17.614,20.096 18.192,19.9 18.604,19.508 C18.9748,19.1552 19.17874,18.67928 19.21582,18.08024 L19.222,17.876 L19.222,11.816 C19.222,11.744 19.208,11.694 19.18,11.666 C19.1613333,11.6473333 19.1328889,11.6348889 19.0946667,11.6286667 L19.03,11.624 L17.602,11.624 C17.53,11.624 17.48,11.638 17.452,11.666 C17.4333333,11.6846667 17.4208889,11.7131111 17.4146667,11.7513333 L17.41,11.816 L17.41,17.564 C17.41,17.86 17.348,18.074 17.224,18.206 C17.1206667,18.316 16.9631667,18.3801667 16.7515,18.3985 L16.618,18.404 L15.406,18.404 C15.126,18.404 14.924,18.338 14.8,18.206 C14.6966667,18.096 14.6363889,17.9290556 14.6191667,17.7051667 L14.614,17.564 L14.614,11.816 C14.614,11.744 14.6,11.694 14.572,11.666 C14.5533333,11.6473333 14.5248889,11.6348889 14.4866667,11.6286667 L14.422,11.624 Z M9.298,11.624 L5.578,11.624 C5.506,11.624 5.456,11.638 5.428,11.666 C5.40933333,11.6846667 5.39688889,11.7131111 5.39066667,11.7513333 L5.386,11.816 L5.386,19.808 C5.386,19.88 5.4,19.93 5.428,19.958 C5.44666667,19.9766667 5.47511111,19.9891111 5.51333333,19.9953333 L5.578,20 L7.006,20 C7.078,20 7.128,19.986 7.156,19.958 C7.17466667,19.9393333 7.18711111,19.9108889 7.19333333,19.8726667 L7.198,19.808 L7.198,17.06 L8.602,17.06 L9.682,19.808 C9.714,19.88 9.746,19.93 9.778,19.958 C9.79933333,19.9766667 9.82955556,19.9891111 9.86866667,19.9953333 L9.934,20 L11.53,20 C11.642,20 11.698,19.956 11.698,19.868 C11.698,19.8146667 11.6618889,19.7057778 11.5896667,19.5413333 L11.542,19.436 L10.39,16.832 C10.806,16.696 11.12,16.466 11.332,16.142 C11.5175,15.8585 11.6218437,15.4907813 11.6450312,15.0388438 L11.65,14.84 L11.65,13.844 C11.65,13.148 11.444,12.604 11.032,12.212 C10.6612,11.8592 10.15594,11.66516 9.51622,11.62988 L9.298,11.624 Z M24.478,11.624 L20.794,11.624 C20.722,11.624 20.672,11.638 20.644,11.666 C20.6253333,11.6846667 20.6128889,11.7131111 20.6066667,11.7513333 L20.602,11.816 L20.602,19.808 C20.602,19.88 20.616,19.93 20.644,19.958 C20.6626667,19.9766667 20.6911111,19.9891111 20.7293333,19.9953333 L20.794,20 L24.586,20 C25.338,20 25.92,19.814 26.332,19.442 C26.7028,19.1072 26.90674,18.64442 26.94382,18.05366 L26.95,17.852 L26.95,17.216 C26.95,16.784 26.854,16.452 26.662,16.22 C26.47,15.988 26.29,15.842 26.122,15.782 C25.954,15.722 25.778,15.672 25.594,15.632 C25.698,15.624 25.846,15.576 26.038,15.488 C26.23,15.4 26.412,15.236 26.584,14.996 C26.7314286,14.7902857 26.8156735,14.5228571 26.8367347,14.1937143 L26.842,14.024 L26.842,13.736 C26.842,13.048 26.636,12.524 26.224,12.164 C25.8577778,11.844 25.3572346,11.6662222 24.7223704,11.6306667 L24.478,11.624 Z M24.31,16.46 C24.598,16.46 24.802,16.516 24.922,16.628 C25.022,16.7213333 25.0803333,16.8785556 25.097,17.0996667 L25.102,17.24 L25.102,17.576 C25.102,17.872 25.048,18.076 24.94,18.188 C24.832,18.3 24.638,18.356 24.358,18.356 L22.414,18.356 L22.414,16.46 L24.31,16.46 Z M9.046,13.316 C9.326,13.316 9.528,13.382 9.652,13.514 C9.75533333,13.624 9.81561111,13.7909444 9.83283333,14.0148333 L9.838,14.156 L9.838,14.66 C9.838,14.956 9.776,15.17 9.652,15.302 C9.528,15.434 9.326,15.5 9.046,15.5 L7.198,15.5 L7.198,13.316 L9.046,13.316 Z M24.25,13.268 C24.53,13.268 24.724,13.32 24.832,13.424 C24.922,13.5106667 24.9745,13.6612222 24.9895,13.8756667 L24.994,14.012 L24.994,14.348 C24.994,14.644 24.932,14.842 24.808,14.942 C24.684,15.042 24.482,15.092 24.202,15.092 L22.414,15.092 L22.414,13.268 L24.25,13.268 Z" id="Combined-Shape" fill="#000"></path>
    </g>
</svg>
