<!-- Generated by IcoMoon.io -->
<svg version="1.1" xmlns="http://www.w3.org/2000/svg" width="32" height="32" viewBox="0 0 32 32">
<title>Pushchair</title>
<path fill="#000" d="M23.786 11.949l2.856-2.856c0.319 0.707 0.884 1.272 1.591 1.591l-2.833 2.834v4.539c0 0.451-0.37 0.82-0.822 0.82h-19.698c-0.453 0-0.822-0.37-0.822-0.82v-5.978l19.728-0.131zM17.791 25.969c0 1.379 1.117 2.497 2.497 2.497 1.379 0 2.496-1.119 2.496-2.497 0-1.38-1.117-2.497-2.496-2.497-1.38 0-2.497 1.117-2.497 2.497zM15.491 25.969c0-2.65 2.148-4.797 4.797-4.797s4.796 2.148 4.796 4.797c0 2.65-2.147 4.797-4.796 4.797s-4.797-2.148-4.797-4.797zM6.3 25.969c0 1.379 1.117 2.497 2.497 2.497 1.379 0 2.496-1.119 2.496-2.497 0-1.38-1.117-2.497-2.496-2.497-1.38 0-2.497 1.117-2.497 2.497zM4 25.969c0-2.65 2.148-4.797 4.797-4.797s4.796 2.148 4.796 4.797c0 2.65-2.147 4.797-4.796 4.797s-4.797-2.148-4.797-4.797zM4.057 10.67c0-5.893 4.777-10.67 10.67-10.67v10.67h-10.67z"></path>
</svg>
