<!-- Generated by IcoMoon.io -->
<svg version="1.1" xmlns="http://www.w3.org/2000/svg" width="32" height="32" viewBox="0 0 32 32">
<title>Romantic-meal</title>
<path fill="#000" d="M5.207 5.641c0.418 0 0.757 0.367 0.757 0.819v4.269c0 1.447-0.959 2.656-2.225 2.92v12.054c0 0.453-0.339 0.82-0.757 0.82s-0.756-0.367-0.756-0.82v-12.054c-1.266-0.264-2.225-1.473-2.225-2.92v-4.269c0-0.453 0.339-0.819 0.757-0.819s0.757 0.367 0.757 0.819v4.269c0 0.534 0.292 0.995 0.712 1.209v-5.52c0-0.453 0.338-0.819 0.756-0.819s0.757 0.367 0.757 0.819v5.52c0.42-0.213 0.712-0.674 0.712-1.209v-4.269c0-0.453 0.339-0.819 0.757-0.819zM31.708 6.32c0.005 0.040 0.009 0.080 0.009 0.122v19.262c0 0.452-0.337 0.818-0.754 0.818s-0.754-0.367-0.754-0.818v-8.309h-0.593c-0.637 0-1.218-0.545-1.159-1.258l1.75-10.057c0.132-0.86 1.5-0.819 1.5 0.231v0.008z"></path>
<path fill="#8c8c8c" d="M20.544 17.025l-3.971 3.931c-0.055 0.054-0.128 0.081-0.198 0.079s-0.142-0.033-0.195-0.089l-3.818-4.087c-0.502-0.538-0.773-1.242-0.76-1.987 0.011-0.746 0.306-1.441 0.827-1.959 0.519-0.516 1.204-0.793 1.925-0.78 0.723 0.014 1.399 0.32 1.901 0.857l0.266 0.285 0.272-0.27c0.521-0.518 1.206-0.796 1.929-0.782s1.395 0.315 1.897 0.853c0.502 0.538 0.769 1.244 0.754 1.989-0.013 0.746-0.308 1.441-0.829 1.959zM16.556 5.477c-5.635 0-10.22 4.728-10.22 10.54s4.585 10.54 10.22 10.54c5.636 0 10.22-4.728 10.22-10.54s-4.585-10.54-10.22-10.54z"></path>
</svg>
