<!-- Generated by IcoMoon.io -->
<svg version="1.1" xmlns="http://www.w3.org/2000/svg" width="32" height="32" viewBox="0 0 32 32">
<title>Romantic-1-Night</title>
<path fill="#000" d="M3.724 12.277c0.26 0.137 0.45 0.366 0.536 0.646s0.059 0.576-0.079 0.835l-1.049 1.967c-0.014 0.027-0.039 0.046-0.067 0.055s-0.059 0.006-0.086-0.009l-1.977-1.040c-0.26-0.137-0.451-0.365-0.538-0.645s-0.060-0.576 0.078-0.835c0.137-0.258 0.367-0.448 0.647-0.534s0.579-0.058 0.839 0.079l0.138 0.073 0.072-0.135c0.137-0.259 0.367-0.449 0.648-0.535s0.577-0.059 0.837 0.078zM1.308 10.304c0.156 0.007 0.299 0.075 0.404 0.19s0.159 0.263 0.151 0.419l-0.058 1.181c-0.001 0.016-0.008 0.031-0.020 0.041s-0.027 0.016-0.044 0.015l-1.185-0.056c-0.156-0.007-0.3-0.074-0.405-0.189s-0.159-0.263-0.152-0.418c0.007-0.155 0.075-0.298 0.19-0.402s0.265-0.158 0.421-0.151l0.083 0.004 0.004-0.081c0.007-0.155 0.075-0.298 0.19-0.403s0.264-0.158 0.42-0.151zM16.685 17.189l-0.003-0.823c0-0.433-0.098-0.844-0.273-1.211h1.174l2.217-3.941h1.812l1.033 3.941h5.513l0.539 0.907h-2.378c0 0-0.192 0.007-0.192 0.154s0.013 0.274 0.037 0.432c0.024 0.157 0.101 0.322 0.401 0.393 0.255 0.060 2.453 0.519 3.103 0.654l0.295 0.496-12.189 0.009v-0.154c0-0.472-0.386-0.856-0.86-0.856h-0.229zM17.774 18.886l14.226-0.011-1.824 3.178h-0.274c-2.809 0-3.777 1.096-6.622 1.096-1.959 0-3.773-0.969-5.673-1.165 0.114-0.184 0.166-0.361 0.166-0.59v-2.508zM18.114 16.428v0.731c0 0.201 0.165 0.365 0.367 0.365h0.395c0.202 0 0.367-0.165 0.367-0.365v-0.731c0-0.201-0.165-0.365-0.367-0.365h-0.395c-0.202 0-0.367 0.165-0.367 0.365zM20.992 16.428v0.731c0 0.201 0.165 0.365 0.367 0.365h0.395c0.202 0 0.367-0.165 0.367-0.365v-0.731c0-0.201-0.165-0.365-0.367-0.365h-0.395c-0.202 0-0.367 0.165-0.367 0.365zM23.87 16.428v0.731c0 0.201 0.165 0.365 0.367 0.365h0.395c0.202 0 0.367-0.165 0.367-0.365v-0.731c0-0.201-0.165-0.365-0.367-0.365h-0.395c-0.202 0-0.367 0.165-0.367 0.365z"></path>
<path fill="#8c8c8c" d="M16.439 17.885c0.274 0 0.499 0.228 0.499 0.508v3.407c0 0.28-0.225 0.508-0.499 0.508h-0.647c0.016 0.052 0.027 0.105 0.027 0.162v0.236c0 0.303-0.241 0.549-0.539 0.549h-0.232c-0.298 0-0.539-0.246-0.539-0.549v-0.236c0-0.057 0.011-0.11 0.027-0.162h-9.072c0.016 0.052 0.027 0.105 0.027 0.162v0.236c0 0.303-0.242 0.549-0.539 0.549h-0.232c-0.298 0-0.539-0.246-0.539-0.549v-0.236c0-0.057 0.011-0.11 0.027-0.162h-0.795c-0.275 0-0.499-0.228-0.499-0.508v-3.407c0-0.28 0.225-0.508 0.499-0.508h0.751v-0.001l12.278 0.001zM4.803 17.096c0 0.004 0.001 0.009 0.001 0.013h-0.642v-0.425c0-1.392 1.12-2.531 2.489-2.531h6.712c1.369 0 2.489 1.139 2.489 2.531v0.425h-0.636c0-0.004 0.001-0.008 0.001-0.013 0-0.541-0.435-0.984-0.967-0.984h-3.297c-0.457 0-0.842 0.327-0.942 0.763-0.1-0.435-0.484-0.763-0.942-0.763h-3.297c-0.532 0-0.967 0.443-0.967 0.984zM8.471 7.503c0.911 0.524 1.524 1.503 1.524 2.625 0 1.674-1.363 3.031-3.044 3.031-1.127 0-2.111-0.61-2.637-1.517 0.448 0.258 0.967 0.406 1.521 0.406 1.681 0 3.044-1.357 3.044-3.031 0-0.552-0.149-1.068-0.407-1.514z"></path>
</svg>
