<!-- Generated by IcoMoon.io -->
<svg version="1.1" xmlns="http://www.w3.org/2000/svg" width="32" height="32" viewBox="0 0 32 32">
<title>Romantic-2-night</title>
<path fill="#000" d="M3.796 12.395c0.259 0.139 0.447 0.372 0.533 0.655s0.058 0.584-0.078 0.847l-1.042 1.996c-0.014 0.028-0.039 0.047-0.066 0.056s-0.059 0.006-0.086-0.009l-1.966-1.055c-0.259-0.139-0.449-0.37-0.535-0.654s-0.059-0.584 0.077-0.847c0.136-0.262 0.365-0.455 0.643-0.542s0.576-0.059 0.835 0.080l0.137 0.074 0.071-0.137c0.137-0.263 0.365-0.456 0.644-0.543s0.574-0.060 0.833 0.079zM1.395 10.392c0.155 0.007 0.297 0.076 0.401 0.193s0.158 0.267 0.151 0.425l-0.058 1.198c-0.001 0.017-0.008 0.032-0.019 0.042s-0.027 0.016-0.043 0.015l-1.179-0.056c-0.155-0.007-0.298-0.075-0.402-0.192s-0.158-0.267-0.151-0.425c0.007-0.157 0.074-0.302 0.189-0.408s0.264-0.16 0.419-0.153l0.082 0.004 0.004-0.082c0.007-0.157 0.074-0.303 0.189-0.409s0.262-0.16 0.418-0.153zM16.681 17.38l-0.003-0.835c0-0.439-0.098-0.856-0.271-1.229h1.167l2.204-3.999h1.802l1.027 3.999h5.48l0.536 0.921h-2.364c0 0-0.191 0.008-0.191 0.156s0.013 0.278 0.036 0.438c0.024 0.16 0.1 0.327 0.398 0.399 0.254 0.061 2.439 0.526 3.085 0.664l0.293 0.503-12.117 0.009v-0.156c0-0.479-0.384-0.869-0.855-0.869h-0.228zM17.764 19.101l14.143-0.011-1.813 3.225h-0.272c-2.792 0-3.755 1.113-6.584 1.113-1.948 0-3.751-0.983-5.639-1.182 0.113-0.187 0.165-0.367 0.165-0.599v-2.545zM18.101 16.607v0.742c0 0.204 0.164 0.371 0.365 0.371h0.393c0.201 0 0.365-0.167 0.365-0.371v-0.742c0-0.204-0.164-0.371-0.365-0.371h-0.393c-0.201 0-0.365 0.167-0.365 0.371zM20.962 16.607v0.742c0 0.204 0.164 0.371 0.365 0.371h0.393c0.201 0 0.365-0.167 0.365-0.371v-0.742c0-0.204-0.164-0.371-0.365-0.371h-0.393c-0.201 0-0.365 0.167-0.365 0.371zM23.823 16.607v0.742c0 0.204 0.164 0.371 0.365 0.371h0.393c0.201 0 0.365-0.167 0.365-0.371v-0.742c0-0.204-0.164-0.371-0.365-0.371h-0.393c-0.201 0-0.365 0.167-0.365 0.371z"></path>
<path fill="#8c8c8c" d="M16.545 18.023c0.271 0 0.492 0.23 0.492 0.511v3.429c0 0.281-0.222 0.511-0.492 0.511h-0.638c0.016 0.052 0.026 0.106 0.026 0.163v0.237c0 0.305-0.238 0.552-0.532 0.552h-0.229c-0.294 0-0.532-0.247-0.532-0.552v-0.237c0-0.057 0.011-0.111 0.026-0.163h-8.945c0.016 0.052 0.026 0.106 0.026 0.163v0.237c0 0.305-0.238 0.552-0.532 0.552h-0.229c-0.294 0-0.532-0.247-0.532-0.552v-0.237c0-0.057 0.011-0.111 0.026-0.163h-0.784c-0.271 0-0.492-0.23-0.492-0.511v-3.429c0-0.281 0.222-0.511 0.492-0.511h0.74v-0.001l12.107 0.001zM5.071 17.229c0 0.004 0.001 0.009 0.001 0.013h-0.634v-0.428c0-1.401 1.104-2.548 2.454-2.548h6.618c1.35 0 2.454 1.147 2.454 2.548v0.428h-0.627c0-0.004 0.001-0.009 0.001-0.013 0-0.545-0.429-0.99-0.954-0.99h-3.251c-0.451 0-0.83 0.329-0.928 0.768-0.098-0.438-0.478-0.768-0.928-0.768h-3.251c-0.525 0-0.954 0.446-0.954 0.99zM8.689 7.573c0.898 0.527 1.503 1.513 1.503 2.642 0 1.685-1.344 3.051-3.002 3.051-1.111 0-2.081-0.614-2.6-1.527 0.441 0.259 0.953 0.408 1.5 0.408 1.658 0 3.002-1.366 3.002-3.051 0-0.555-0.147-1.075-0.402-1.524zM11.229 9.529c-0.047-0.078-0.070-0.128-0.070-0.151 0-0.029 0.019-0.044 0.057-0.044h0.614c0.023 0 0.040 0.005 0.050 0.015s0.024 0.031 0.042 0.063l0.333 0.671 0.347-0.671c0.018-0.032 0.032-0.053 0.044-0.063s0.029-0.015 0.053-0.015h0.588c0.038 0 0.057 0.015 0.057 0.044 0 0.016-0.011 0.041-0.033 0.075s-0.037 0.059-0.046 0.075l-0.605 1.055 0.653 1.123c0.047 0.078 0.070 0.128 0.070 0.151 0 0.029-0.019 0.044-0.057 0.044h-0.618c-0.023 0-0.041-0.005-0.053-0.015s-0.026-0.031-0.044-0.063l-0.36-0.69-0.368 0.69c-0.018 0.032-0.031 0.053-0.042 0.063s-0.028 0.015-0.055 0.015h-0.57c-0.038 0-0.057-0.015-0.057-0.044 0-0.023 0.023-0.073 0.070-0.151l0.627-1.084-0.627-1.093zM14.812 9.315c-0.123 0-0.322 0.003-0.596 0.010l-0.509 0.005c-0.026 0-0.045-0.006-0.055-0.017s-0.015-0.032-0.015-0.061v-0.53c0-0.029 0.005-0.049 0.015-0.061s0.028-0.017 0.055-0.017h0.145c0.307-0.010 0.651-0.015 1.031-0.015 0.272 0 0.487 0.083 0.645 0.25s0.237 0.391 0.237 0.673v0.228c0 0.369-0.168 0.619-0.504 0.748l-0.772 0.296c-0.102 0.039-0.169 0.078-0.2 0.117s-0.046 0.104-0.046 0.194v0.238h1.39c0.026 0 0.045 0.006 0.055 0.017s0.015 0.032 0.015 0.061v0.53c0 0.029-0.005 0.049-0.015 0.061s-0.028 0.017-0.055 0.017h-1.982c-0.026 0-0.045-0.006-0.055-0.017s-0.015-0.032-0.015-0.061v-0.923c0-0.204 0.048-0.366 0.145-0.486s0.216-0.207 0.36-0.262l0.855-0.33c0.067-0.026 0.111-0.062 0.132-0.109s0.031-0.108 0.031-0.182v-0.058c0-0.113-0.023-0.194-0.068-0.243s-0.119-0.073-0.222-0.073z"></path>
</svg>
