<!-- Generated by IcoMoon.io -->
<svg version="1.1" xmlns="http://www.w3.org/2000/svg" width="32" height="32" viewBox="0 0 32 32">
<title>Romantic-City</title>
<path fill="#000" d="M9.897 18.291c0.126 0.078 0.213 0.201 0.246 0.345s0.008 0.292-0.071 0.417l-0.602 0.95c-0.008 0.013-0.021 0.022-0.036 0.025s-0.030 0.001-0.043-0.008l-0.957-0.597c-0.126-0.078-0.214-0.2-0.247-0.344s-0.008-0.292 0.071-0.417c0.079-0.125 0.202-0.212 0.346-0.244s0.294-0.008 0.42 0.071l0.067 0.042 0.041-0.065c0.079-0.125 0.202-0.212 0.347-0.245s0.293-0.008 0.419 0.070zM7.117 15c0.172 0.008 0.331 0.082 0.446 0.21s0.175 0.291 0.167 0.462l-0.064 1.302c-0.001 0.018-0.009 0.034-0.022 0.046s-0.030 0.018-0.048 0.017l-1.31-0.061c-0.172-0.008-0.331-0.082-0.447-0.208s-0.176-0.29-0.168-0.462c0.008-0.171 0.083-0.328 0.21-0.443s0.293-0.174 0.465-0.166l0.092 0.004 0.004-0.089c0.008-0.171 0.083-0.329 0.21-0.444s0.292-0.174 0.464-0.166zM2.773 13.194c0.332 0.015 0.638 0.159 0.861 0.404s0.338 0.561 0.322 0.891l-0.124 2.513c-0.001 0.035-0.018 0.066-0.042 0.088s-0.058 0.034-0.093 0.032l-2.528-0.118c-0.332-0.016-0.639-0.157-0.862-0.402s-0.339-0.56-0.323-0.891c0.016-0.329 0.16-0.633 0.405-0.855s0.566-0.336 0.898-0.321l0.176 0.008 0.008-0.173c0.016-0.33 0.159-0.635 0.405-0.857s0.563-0.336 0.895-0.321zM15.226 7.64h15.975c0.428 0 0.778 0.348 0.778 0.774v23.586h-17.531v-1.553c0.144-0.016 0.279-0.069 0.376-0.151l0.291-0.226c0.302-0.233 0.398-0.605 0.247-0.943l-0.914-2.093v-3.354l0.756-0.215c0.789-0.204 0.963-0.689 0.969-1.050l0.003-0.079c0.011-0.605-0.476-1.107-1.085-1.118l-0.643-0.012v-12.791c0-0.425 0.35-0.774 0.778-0.774zM29.818 13.738v-2.796c0-0.425-0.35-0.773-0.778-0.773h-1.374c-0.428 0-0.778 0.348-0.778 0.773v2.796c0 0.425 0.35 0.773 0.778 0.773h1.374c0.428 0 0.778-0.348 0.778-0.773zM29.818 20.047v-2.766c0-0.425-0.35-0.773-0.778-0.773h-1.374c-0.428 0-0.778 0.348-0.778 0.773v2.766c0 0.425 0.35 0.773 0.778 0.773h1.374c0.428 0 0.778-0.348 0.778-0.773zM29.818 26.388v-2.796c0-0.425-0.35-0.774-0.778-0.774h-1.374c-0.428 0-0.778 0.348-0.778 0.774v2.796c0 0.425 0.35 0.773 0.778 0.773h1.374c0.428 0 0.778-0.348 0.778-0.773zM24.547 13.738v-2.796c0-0.425-0.35-0.773-0.778-0.773h-1.374c-0.428 0-0.778 0.348-0.778 0.773v2.796c0 0.425 0.35 0.773 0.778 0.773h1.374c0.428 0 0.778-0.348 0.778-0.773zM24.547 20.047v-2.766c0-0.425-0.35-0.773-0.778-0.773h-1.374c-0.428 0-0.778 0.348-0.778 0.773v2.766c0 0.425 0.35 0.773 0.778 0.773h1.374c0.428 0 0.778-0.348 0.778-0.773zM24.547 26.388v-2.796c0-0.425-0.35-0.774-0.778-0.774h-1.374c-0.428 0-0.778 0.348-0.778 0.774v2.796c0 0.425 0.35 0.773 0.778 0.773h1.374c0.428 0 0.778-0.348 0.778-0.773zM19.276 13.738v-2.796c0-0.425-0.35-0.773-0.778-0.773h-1.374c-0.428 0-0.778 0.348-0.778 0.773v2.796c0 0.425 0.35 0.773 0.778 0.773h1.374c0.428 0 0.778-0.348 0.778-0.773zM19.276 20.047v-2.766c0-0.425-0.35-0.773-0.778-0.773h-1.374c-0.428 0-0.778 0.348-0.778 0.773v2.766c0 0.425 0.35 0.773 0.778 0.773h1.374c0.428 0 0.778-0.348 0.778-0.773zM19.266 26.388v-2.796c0-0.425-0.35-0.774-0.778-0.774h-1.374c-0.428 0-0.778 0.348-0.778 0.774v2.796c0 0.425 0.35 0.773 0.778 0.773h1.374c0.428 0 0.778-0.348 0.778-0.773zM9.971 7.085c-0.167-0.207-0.363-0.389-0.58-0.542l1.168-1.19c0.153-0.156 0.402-0.156 0.556 0s0.153 0.41 0 0.566l-1.144 1.166zM5.588 7.085l-1.144-1.166c-0.153-0.156-0.153-0.41 0-0.566s0.403-0.156 0.556 0l1.168 1.19c-0.217 0.153-0.412 0.335-0.58 0.542zM7.779 6.030c-0.134 0-0.264 0.013-0.393 0.031v-1.715c0-0.221 0.176-0.4 0.393-0.4s0.393 0.179 0.393 0.4v1.715c-0.129-0.018-0.259-0.031-0.393-0.031zM4.939 8.923c0 0.077 0.005 0.153 0.011 0.229h-1.496c-0.217 0-0.393-0.179-0.393-0.4s0.176-0.4 0.393-0.4h1.54c-0.036 0.185-0.056 0.376-0.056 0.572zM10.114 10.566l1 1.019c0.153 0.157 0.153 0.41 0 0.566-0.077 0.078-0.177 0.117-0.278 0.117s-0.201-0.039-0.278-0.117l-0.976-0.995c0.203-0.171 0.382-0.37 0.532-0.591zM12.103 8.352c0.217 0 0.393 0.179 0.393 0.4s-0.176 0.4-0.393 0.4h-1.496c0.006-0.076 0.011-0.152 0.011-0.229 0-0.196-0.020-0.387-0.056-0.572h1.541zM5.444 10.566c0.15 0.221 0.329 0.42 0.532 0.591l-0.976 0.995c-0.077 0.078-0.177 0.117-0.278 0.117s-0.201-0.039-0.278-0.117c-0.153-0.156-0.153-0.41 0-0.566l1-1.019zM7.779 11.817c0.134 0 0.264-0.013 0.393-0.031v1.372c0 0.221-0.176 0.4-0.393 0.4s-0.393-0.179-0.393-0.4v-1.372c0.129 0.018 0.259 0.031 0.393 0.031zM9.616 8.919c0 1.031-0.82 1.867-1.832 1.867s-1.832-0.836-1.832-1.867c0-1.031 0.82-1.867 1.832-1.867s1.832 0.836 1.832 1.867z"></path>
<path fill="#8c8c8c" d="M11.959 21.11c-0.758-0.026-1.349-0.687-1.322-1.476s0.664-1.407 1.421-1.38c0.757 0.026 1.349 0.687 1.322 1.476s-0.664 1.407-1.421 1.38zM6.030 20.903c-0.757-0.026-1.349-0.687-1.322-1.476s0.664-1.407 1.421-1.38c0.758 0.026 1.349 0.687 1.322 1.476s-0.664 1.407-1.421 1.38zM15.024 21.781c0.28 0.015 0.496 0.266 0.48 0.557l-0.005 0.070c-0.015 0.291-0.208 0.425-0.536 0.502l-1.597 0.416 0.083 3.18c-0.001 0.017-0.007 0.033-0.009 0.050l1.077 2.861c0.044 0.113 0.007 0.197-0.078 0.261l-0.175 0.132-0.116 0.088c-0.042 0.034-0.127 0.045-0.158 0.010l-2.277-2.76c-0.070 0.445-0.704 4.444-0.712 4.493-0.022 0.14-0.095 0.331-0.268 0.325l-0.381-0.014c-0.105-0.004-0.192-0.062-0.205-0.172l-0.468-4.745-0.346-1.96-0.874-0.025-0.009 0.154 0.705 3.231c-0.004 0.119-0.1 0.213-0.214 0.209l-1.316-0.046-0.521 3.078c-0.056 0.107-0.111 0.16-0.215 0.156l-0.215-0.008-0.143-0.004c-0.032-0.001-0.067-0.009-0.082-0.022s-0.032-0.037-0.048-0.071l-0.245-1.992-1.404 1.684c-0.099 0.066-0.171 0.084-0.261 0.028l-0.184-0.115-0.123-0.077c-0.027-0.017-0.054-0.041-0.061-0.061s-0.010-0.048-0.009-0.086l1.232-2.59-1.475-0.052c-0.155-0.005-0.257-0.063-0.199-0.223l1.705-5.78c0.177-0.581 0.694-0.979 1.278-0.983 0.575 0.020 0.827 0.433 1.302 0.963l0.618 0.72 1.414-1.399c0.141-0.137 0.224-0.209 0.648-0.195l1.348 0.047c0.005-0 0.010 0.001 0.015 0.001l-0-0.001 3.027 0.165z"></path>
</svg>
