<!-- Generated by IcoMoon.io -->
<svg version="1.1" xmlns="http://www.w3.org/2000/svg" width="32" height="32" viewBox="0 0 32 32">
<title>Romantic-Cruise</title>
<path fill="#8c8c8c" d="M14.709 9.793c-1.166 0-2.111-0.945-2.111-2.111s0.945-2.111 2.111-2.111c1.166 0 2.111 0.945 2.111 2.111s-0.945 2.111-2.111 2.111zM17.979 12.409l0.334 5.253c-0.002 0.284-0.163 0.541-0.417 0.667l-0.834 0.334-1.001 7.171c-0.027 0.171-0.167 0.25-0.334 0.25l-0.571 0.001c-0.051 0-0.107-0.009-0.132-0.030s-0.291-0.477-0.291-0.477-0.274 0.45-0.291 0.477c-0.016 0.023-0.064 0.030-0.114 0.030l-0.602-0.001c-0.167 0-0.307-0.080-0.334-0.25l-1.001-7.171-0.654-4.123-1.778 1.812c-0.404 0.404-1.045 0.323-1.369 0l-1.778-1.812-0.654 4.123-1 7.171c0 0.167-0.167 0.25-0.334 0.25h-0.281l-0.32 0.001c-0.050 0-0.089-0.009-0.114-0.030s-0.052-0.055-0.080-0.105l-0.211-0.371-0.211 0.371c-0.028 0.051-0.055 0.086-0.080 0.105s-0.081 0.030-0.132 0.030l-0.228-0.001h-0.343c-0.167 0-0.25-0.083-0.334-0.25l-1-7.171-0.834-0.334c-0.356-0.161-0.5-0.395-0.416-0.667l1.461-5.253c0.367-1.2 0.695-2.088 1.876-2.085h1.378c0.479 0 0.788 0.114 1.013 0.329l3.312 3.377 3.306-3.377c0.232-0.233 0.656-0.329 1.012-0.329h2.131c1.181-0.003 2.164 0.907 2.251 2.085zM4.258 9.793c-1.166 0-2.111-0.945-2.111-2.111s0.945-2.111 2.111-2.111c1.166 0 2.111 0.945 2.111 2.111s-0.945 2.111-2.111 2.111z"></path>
<path fill="#000" d="M24.263 14.411c2.622 0.313 6.81 2.983 6.81 5.047l-1.692 5.444c-0.781 0.25-1.020 1.096-2.037 1.096-1.124 0-2.342-1.032-3.46-1.153l0.379-10.435zM31.984 9.794l-0.602 1.941h-1.466l1.056 6.272c-0.789-1.076-2.142-2.57-3.558-3.384 1.703-0.073 2.034-0.333 1.72-1.237h-10.201l-0.048-0.756h9.929c-0.010-0.021-0.018-0.040-0.029-0.061-0.501-1.063-0.867-1.041-3.562-1.041h-3.111c-2.189 0-2.842-0.015-3.278 0.549-0.17-1.019-0.841-1.862-1.739-2.283h5.063l1.027-3.921h0.998l1.027 3.921h6.776zM23.138 14.411l0.379 10.435c-1.118 0.121-2.336 1.153-3.46 1.153-1.017 0-1.256-0.846-2.037-1.096l-0.643-2.071 0.497-3.565 0.439-0.195 0.016-0.008c0.534-0.265 0.869-0.8 0.873-1.396l0-0.029-0.002-0.029-0.099-1.567c1.306-0.849 2.836-1.488 4.038-1.632z"></path>
</svg>
