<!-- Generated by IcoMoon.io -->
<svg version="1.1" xmlns="http://www.w3.org/2000/svg" width="32" height="32" viewBox="0 0 32 32">
<title>Save-Money</title>
<path fill="#000" d="M31.406 19.937c-0.847 3.363-2.292 6.463-5.141 7.519-7.441 2.753-15.463-2.542-21.079 0.742l-5.186-5.186c2.783-1.179 6.324-5.705 10.445-6.232 2.137-0.277 4.833 0.932 7.514 1.183 2.351 0.221 6.34-1.029 6.723 1.585 0.328 2.26-3.659 2.136-6.329 2.372 2.085 0.416 4.341 2.368 6.057 1.892 2.215-0.61 3.368-3.885 4.911-4.834 1.748-1.076 2.418-0.384 2.086 0.958z"></path>
<path fill="#8c8c8c" d="M22.795 6.855c2.55 0 4.625 2.075 4.625 4.625s-2.075 4.626-4.625 4.626c-2.116 0-3.901-1.431-4.449-3.375-0.112-0.398-0.177-0.817-0.177-1.251 0-2.305 1.698-4.216 3.907-4.563 0.235-0.037 0.474-0.062 0.719-0.062zM21.646 5.887c-2.6 0.533-4.561 2.838-4.561 5.594 0 0.445 0.056 0.876 0.154 1.292-2.369-0.198-4.236-2.187-4.236-4.606 0-2.55 2.076-4.625 4.626-4.625 1.721 0 3.222 0.946 4.018 2.345z"></path>
</svg>
