<!-- Generated by IcoMoon.io -->
<svg version="1.1" xmlns="http://www.w3.org/2000/svg" width="32" height="32" viewBox="0 0 32 32">
<title>Seaview</title>
<path fill="#000" d="M28.254 25.586c-0.429 0.208-0.915 0.284-1.389 0.255-1.064-0.068-1.682-0.923-2.656-1.186-0.56-0.15-1.209-0.115-1.739 0.118-0.541 0.24-0.953 0.694-1.51 0.908-0.771 0.295-1.962 0.258-2.696-0.103-1.033-0.505-1.916-1.426-3.181-0.87-0.95 0.418-1.491 1.107-2.621 1.14-0.482 0.014-0.987 0.006-1.441-0.167-0.522-0.2-0.91-0.617-1.405-0.862-1.325-0.654-2.242 0.088-3.353 0.694-0.521 0.284-1.108 0.38-1.693 0.311-1.028-0.121-1.636-1.044-2.62-1.218 0 1.326-0.389 3.295 0.826 4.196 0.714 0.53 1.541 0.476 2.37 0.475 5.314-0.003 10.629-0.007 15.944-0.010 2.052-0.002 4.105-0.003 6.157-0.004 0.973-0.001 1.989-0.164 2.533-1.094 0.545-0.932 0.251-2.512 0.251-3.548-0.711 0.126-1.154 0.662-1.776 0.965zM30.11 22.651c0 0.201 0 0.409-0.097 0.588-0.097 0.171-0.268 0.29-0.439 0.394-0.871 0.566-1.86 1.116-2.88 0.953-1.131-0.186-2.009-1.22-3.14-1.287-1.488-0.098-2.724 1.474-4.205 1.324-0.878-0.089-1.578-0.766-2.411-1.078-0.298-0.112-0.618-0.171-0.938-0.186-0.32 0.015-0.64 0.074-0.938 0.186-0.834 0.313-1.533 0.989-2.411 1.078-1.481 0.15-2.709-1.421-4.197-1.324-1.139 0.067-2.017 1.101-3.14 1.287-1.027 0.163-2.017-0.387-2.887-0.953-0.171-0.103-0.342-0.223-0.439-0.394-0.089-0.179-0.097-0.387-0.097-0.588 0.007-5.514 0.007-11.029 0.007-16.543 0-0.938 0.030-2.054 0.804-2.739 0.744-0.655 1.838-0.677 2.776-0.677 3.505 0 7.018 0 10.523-0.007 3.505 0.007 7.018 0.007 10.523 0.007 0.938 0 2.032 0.022 2.776 0.677 0.774 0.685 0.804 1.801 0.804 2.739 0 5.514 0.007 11.029 0.007 16.543zM19.443 13.111c0-1.668-1.351-3.020-3.019-3.020s-3.019 1.352-3.019 3.020 1.352 3.020 3.019 3.020c1.668 0 3.019-1.352 3.019-3.020zM20.028 10.146l1.885-1.885c0.253-0.253 0.253-0.663 0-0.916s-0.663-0.253-0.916 0l-1.925 1.925c0.357 0.247 0.68 0.542 0.955 0.876zM12.806 10.146c0.276-0.334 0.599-0.629 0.955-0.876l-1.925-1.925c-0.252-0.253-0.663-0.253-0.916 0s-0.253 0.663 0 0.916l1.885 1.885zM16.417 8.439c0.22 0 0.435 0.021 0.647 0.050v-2.773c0-0.358-0.29-0.648-0.647-0.648s-0.648 0.29-0.648 0.648v2.773c0.212-0.029 0.427-0.050 0.648-0.050zM11.738 13.119c0-0.317 0.033-0.625 0.093-0.925h-2.538c-0.358 0-0.648 0.29-0.648 0.648s0.29 0.648 0.648 0.648h2.464c-0.009-0.123-0.019-0.246-0.019-0.371zM20.265 15.775c-0.247 0.357-0.541 0.68-0.876 0.956l1.608 1.609c0.126 0.126 0.292 0.19 0.458 0.19s0.331-0.063 0.458-0.19c0.252-0.253 0.252-0.663 0-0.916l-1.648-1.648zM23.541 12.194h-2.538c0.060 0.299 0.093 0.608 0.093 0.925 0 0.126-0.009 0.248-0.019 0.371h2.464c0.358 0 0.648-0.29 0.648-0.648s-0.29-0.648-0.648-0.648zM12.569 15.775l-1.648 1.648c-0.252 0.253-0.252 0.662 0 0.916 0.127 0.126 0.292 0.19 0.458 0.19s0.332-0.063 0.458-0.19l1.608-1.609c-0.334-0.276-0.628-0.598-0.876-0.956zM16.417 17.799c-0.22 0-0.436-0.021-0.648-0.050v2.219c0 0.358 0.29 0.647 0.648 0.647s0.647-0.29 0.647-0.647v-2.219c-0.212 0.029-0.427 0.050-0.647 0.050z"></path>
<path fill="#000" d="M4.093 1.889c-1.644 0-2.977 1.333-2.977 2.977v22.326c0 1.644 1.333 2.977 2.977 2.977h23.814c1.644 0 2.977-1.333 2.977-2.977v-22.326c0-1.644-1.333-2.977-2.977-2.977h-23.814zM4.093 1.145h23.814c2.055 0 3.721 1.666 3.721 3.721v22.326c0 2.055-1.666 3.721-3.721 3.721h-23.814c-2.055 0-3.721-1.666-3.721-3.721v-22.326c0-2.055 1.666-3.721 3.721-3.721z"></path>
</svg>
