<!-- Generated by IcoMoon.io -->
<svg version="1.1" xmlns="http://www.w3.org/2000/svg" width="32" height="32" viewBox="0 0 32 32">
<title>Seaview-Cabin</title>
<path fill="#8c8c8c" d="M22.712 18.897c0.461 0 0.838 0.384 0.838 0.854v5.73c0 0.47-0.377 0.854-0.838 0.854h-1.087c0.027 0.087 0.045 0.177 0.045 0.273v0.397c0 0.509-0.405 0.923-0.906 0.923h-0.389c-0.5 0-0.906-0.413-0.906-0.923v-0.397c0-0.096 0.018-0.186 0.045-0.273h-15.23c0.027 0.087 0.045 0.177 0.045 0.273v0.397c0 0.509-0.406 0.923-0.906 0.923h-0.389c-0.5 0-0.906-0.413-0.906-0.923v-0.397c0-0.096 0.018-0.186 0.045-0.273h-1.335c-0.461 0-0.838-0.384-0.838-0.854v-5.73c0-0.47 0.377-0.854 0.838-0.854h1.26v-0.002l20.613 0.002zM3.176 17.571c0 0.007 0.001 0.014 0.001 0.021h-1.079v-0.715c0-2.342 1.88-4.258 4.178-4.258h11.269c2.298 0 4.178 1.916 4.178 4.258v0.715h-1.068c0-0.007 0.001-0.014 0.001-0.021 0-0.91-0.731-1.655-1.624-1.655h-5.535c-0.768 0-1.414 0.55-1.581 1.283-0.167-0.732-0.813-1.283-1.581-1.283h-5.535c-0.893 0-1.624 0.745-1.624 1.655z"></path>
<path fill="#000" d="M31.76 14.279c0.077-0.034 0.158-0.059 0.24-0.077v1.867c0 0.778-0.636 1.414-1.414 1.414h-7.292v-1.179c0-0.727-0.161-1.417-0.442-2.040 0.075-0.030 0.153-0.055 0.231-0.069 0.197-0.035 0.397-0.034 0.587-0.001 0.095 0.017 0.187 0.045 0.273 0.084 0.089 0.039 0.174 0.089 0.255 0.146 0.086 0.061 0.163 0.125 0.233 0.184 0.090 0.075 0.165 0.135 0.236 0.185 0.084 0.060 0.174 0.113 0.271 0.157 0.095 0.042 0.196 0.072 0.301 0.091 0.090 0.015 0.183 0.024 0.294 0.026v0.002l0.308-0.001c0.099-0 0.201-0.009 0.301-0.026 0.103-0.018 0.205-0.048 0.304-0.091 0.094-0.042 0.184-0.094 0.265-0.152 0.075-0.052 0.149-0.113 0.24-0.189 0.068-0.057 0.144-0.121 0.233-0.185 0.079-0.057 0.163-0.106 0.249-0.145 0.088-0.039 0.18-0.068 0.274-0.085 0.192-0.035 0.396-0.035 0.586-0.001 0.095 0.017 0.187 0.046 0.273 0.083 0.088 0.040 0.174 0.089 0.255 0.147 0.085 0.060 0.163 0.124 0.233 0.183 0.081 0.067 0.16 0.132 0.237 0.185 0.084 0.060 0.175 0.112 0.271 0.155 0.095 0.042 0.194 0.072 0.295 0.091 0.019 0.004 0.038 0.007 0.050 0.009l0.056 0.007c0.016 0.002 0.030 0.004 0.044 0.005l0.040 0.003c0.015 0.002 0.034 0.003 0.051 0.003l0.068 0.002c0.103 0 0.205-0.008 0.302-0.024 0.103-0.017 0.205-0.047 0.302-0.089 0.095-0.042 0.185-0.093 0.267-0.152 0.081-0.057 0.162-0.124 0.245-0.195 0.067-0.057 0.142-0.12 0.226-0.181 0.078-0.057 0.162-0.106 0.248-0.146zM22.434 13.508c-0.897-1.319-2.41-2.188-4.121-2.188h-1.235v-6.707c0-0.778 0.636-1.414 1.413-1.414h12.095c0.777 0 1.414 0.636 1.414 1.414v8.719c-0.040 0.005-0.080 0.009-0.12 0.016-0.162 0.030-0.321 0.079-0.473 0.147-0.141 0.064-0.276 0.143-0.401 0.235-0.106 0.077-0.196 0.153-0.282 0.225-0.074 0.062-0.129 0.108-0.183 0.146-0.034 0.025-0.071 0.045-0.107 0.062-0.033 0.014-0.069 0.025-0.102 0.030-0.052 0.009-0.107 0.009-0.152 0.012l-0.161-0.013c-0.037-0.007-0.074-0.018-0.105-0.032-0.042-0.019-0.082-0.042-0.123-0.071-0.057-0.040-0.12-0.092-0.185-0.146-0.082-0.068-0.175-0.145-0.285-0.222-0.126-0.090-0.262-0.168-0.404-0.231-0.15-0.066-0.307-0.114-0.469-0.143-0.293-0.052-0.594-0.053-0.892 0.001-0.162 0.030-0.32 0.079-0.472 0.146-0.141 0.064-0.275 0.142-0.4 0.232-0.11 0.078-0.203 0.156-0.284 0.224-0.071 0.060-0.129 0.107-0.186 0.147-0.034 0.025-0.074 0.047-0.111 0.065-0.033 0.014-0.069 0.025-0.104 0.031-0.052 0.009-0.106 0.013-0.159 0.014l-0.302 0.001v-0.001c-0.051-0.001-0.101-0.005-0.149-0.013-0.036-0.006-0.071-0.017-0.101-0.030-0.041-0.019-0.081-0.042-0.12-0.070-0.054-0.038-0.113-0.087-0.188-0.149-0.073-0.061-0.174-0.144-0.283-0.222-0.125-0.090-0.261-0.168-0.405-0.232-0.15-0.066-0.308-0.114-0.469-0.143-0.294-0.053-0.601-0.052-0.893 0.001-0.161 0.030-0.32 0.079-0.473 0.147-0.008 0.004-0.016 0.008-0.024 0.012zM26.668 8.157c0-0.908-0.735-1.644-1.643-1.644s-1.643 0.736-1.643 1.644 0.736 1.644 1.643 1.644c0.908 0 1.643-0.736 1.643-1.644zM26.986 6.542l1.026-1.026c0.138-0.138 0.138-0.361 0-0.498s-0.361-0.138-0.498 0l-1.048 1.048c0.194 0.135 0.37 0.295 0.52 0.477zM23.056 6.542c0.15-0.182 0.326-0.342 0.52-0.477l-1.048-1.048c-0.137-0.138-0.361-0.138-0.498 0s-0.138 0.361 0 0.498l1.026 1.026zM25.021 5.613c0.12 0 0.237 0.011 0.352 0.027v-1.509c0-0.195-0.158-0.353-0.352-0.353s-0.353 0.158-0.353 0.353v1.509c0.115-0.016 0.233-0.027 0.353-0.027zM22.474 8.161c0-0.172 0.018-0.34 0.050-0.503h-1.381c-0.195 0-0.353 0.158-0.353 0.353s0.158 0.353 0.353 0.353h1.341c-0.005-0.067-0.010-0.134-0.010-0.202zM27.115 9.606c-0.135 0.194-0.295 0.37-0.477 0.52l0.875 0.876c0.069 0.069 0.159 0.103 0.249 0.103s0.18-0.034 0.249-0.103c0.137-0.138 0.137-0.361 0-0.498l-0.897-0.897zM28.899 7.657h-1.381c0.033 0.163 0.050 0.331 0.050 0.503 0 0.068-0.005 0.135-0.010 0.202h1.341c0.195 0 0.353-0.158 0.353-0.353s-0.158-0.353-0.353-0.353zM22.927 9.606l-0.897 0.897c-0.137 0.138-0.137 0.361 0 0.498 0.069 0.069 0.159 0.103 0.249 0.103s0.18-0.034 0.249-0.103l0.875-0.876c-0.182-0.15-0.342-0.326-0.477-0.52zM25.021 10.708c-0.12 0-0.237-0.011-0.353-0.027v1.208c0 0.195 0.158 0.352 0.353 0.352s0.352-0.158 0.352-0.352v-1.208c-0.115 0.016-0.233 0.027-0.352 0.027z"></path>
</svg>
