<svg width="100px" height="55px" viewBox="0 0 100 55" version="1.1" xmlns="http://www.w3.org/2000/svg" xmlns:xlink="http://www.w3.org/1999/xlink">
    <title>light</title>
    <desc>Created with Sketch.</desc>
    <g id="Page-1" stroke="none" stroke-width="1" fill="#000" fill-rule="evenodd">
        <g id="Page-loader-booking-flow" transform="translate(-634.000000, -335.000000)" fill="#000">
            <g id="Group" transform="translate(610.000000, 335.000000)">
                <g id="Outbound" transform="translate(24.000000, 0.000000)">
                    <path d="M0.000107006942,38.4676226 L100,38.375 L91.4825638,54.6398284 C33.3904682,54.7633251 4.34442044,54.8250735 4.34442044,54.8250735 C1.49241235,49.9382764 -0.0146266142,44.2615084 0.000107006942,38.4676226 Z M89.2239513,32.805644 L90.625,35.25 L15.625,35.25 L22.5210431,20.2920445 L31.8037937,20.2920445 L42.3369963,0.875 L50.9481286,0.875 L55.8550108,20.2920445 L82.0466992,20.2920445 L84.6104114,24.7614504 L73.3135194,24.7614504 C73.3135194,24.7614504 72.4013746,24.7982962 72.4013746,25.5204756 C72.4013746,26.241918 72.4620415,26.8719827 72.5755244,27.6464832 C72.6875797,28.4217206 73.0530086,29.2352777 74.4790378,29.5838398 C75.692376,29.8808176 86.1356488,32.1394704 89.2239513,32.805644 Z M65.625,30.5226982 L65.625,27.4766624 C65.625,26.5917519 64.7130301,25.875 63.5868277,25.875 L61.4123256,25.875 C60.2869699,25.875 59.375,26.5917519 59.375,27.4766624 L59.375,30.5226982 C59.375,31.1774297 59.8771339,31.737532 60.5909599,31.9862532 C60.8416034,32.0744885 61.1184968,32.125 61.4123256,32.125 L63.5868277,32.125 C63.8798096,32.125 64.156703,32.0757673 64.4081933,31.9862532 L64.4175078,31.9824169 C65.1279468,31.7336957 65.625,31.1748721 65.625,30.5226982 Z M53.125,30.5226982 L53.125,27.4766624 C53.125,26.5917519 52.2129065,25.875 51.0857046,25.875 L48.9117547,25.875 C47.7862466,25.875 46.875,26.5917519 46.875,27.4766624 L46.875,30.5226982 C46.875,31.1774297 47.3755081,31.737532 48.0902778,31.9862532 C48.3409553,32.0744885 48.6178862,32.125 48.9117547,32.125 L51.0857046,32.125 C51.3795732,32.125 51.6556572,32.0757673 51.9080285,31.9862532 L51.9181911,31.9824169 C52.6287263,31.7336957 53.125,31.1748721 53.125,30.5226982 Z M40.625,30.5226982 L40.625,27.4766624 C40.625,26.8826726 40.2034555,26.3852302 39.6031495,26.1096547 C39.3096481,25.9741049 38.987046,25.875 38.6237029,25.875 L36.3762971,25.875 C35.2713017,25.875 34.375,26.5917519 34.375,27.4766624 L34.375,30.5226982 C34.375,31.1774297 34.8680491,31.737532 35.5689604,31.9862532 C35.8159006,32.0744885 36.0877844,32.125 36.3762971,32.125 L38.6237029,32.125 C38.9113842,32.125 39.1832679,32.0757673 39.4302082,31.9862532 L39.4401856,31.9824169 C40.1377711,31.7336957 40.625,31.1748721 40.625,30.5226982 Z" id="light"></path>
                </g>
            </g>
        </g>
    </g>
</svg>
