<!-- Generated by IcoMoon.io -->
<svg version="1.1" xmlns="http://www.w3.org/2000/svg" width="32" height="32" viewBox="0 0 32 32">
<title>Trailer</title>
<path fill="#000" d="M31.084 18.887v2.13l-15.206-0c0-0.143 0-0.287 0-0.43-0.111-2.080-1.829-3.709-3.912-3.709s-3.801 1.63-3.912 3.709c0 0.143 0 0.287 0 0.43h-5.616c-0.566 0.003-1.109-0.22-1.509-0.62s-0.623-0.943-0.621-1.509c0-1.887 0-3.302 0-4.245 5.477-0.079 19.213-0.079 25.069-0.079l-0.077 3.728c0.096 0.183 0.123 0.394 0.077 0.596h5.705zM11.917 17.783c0.734-0.006 1.441 0.282 1.961 0.801s0.812 1.223 0.809 1.958c0 1.522-1.233 2.757-2.755 2.759s-2.758-1.229-2.762-2.751c-0.004-1.522 1.225-2.76 2.748-2.766zM11.917 21.977c0.382 0.003 0.75-0.147 1.021-0.416s0.424-0.636 0.424-1.018c-0-0.791-0.64-1.432-1.431-1.434s-1.434 0.636-1.438 1.427c-0.004 0.791 0.633 1.436 1.423 1.442zM4.207 9h16.966c1.105 0 2 0.895 2 2v2.414h-20.966v-2.414c0-1.105 0.895-2 2-2z"></path>
</svg>
