<svg xmlns="http://www.w3.org/2000/svg" viewBox="0 0 32 32">
    <title>Two passengers</title>
    <path fill="#000" fill-rule="evenodd" d="M23.22 8.92c1.52 0 2.8 1.12 3 2.61l.01.17.45 7.03a1 1 0 01-.45.83l-.11.06-1 .45H25l-1.34 9.6c-.1.19-.19.3-.35.32h-.1l-.76.01c-.06 0-.14-.01-.17-.04a.34.34 0 01-.07-.08l-.04-.06-.28-.5-.28.5a.46.46 0 01-.11.14.2.2 0 01-.1.04H20.56c-.2 0-.4-.09-.44-.26l-.01-.08-1.34-9.59h-.12l-1-.45a.9.9 0 01-.56-.77v-.12l.23-7.03a3.01 3.01 0 012.83-2.78h3.08zm-12.08 0c1.52 0 2.8 1.12 3 2.61v.17l.46 7.03a1 1 0 01-.45.83l-.11.06-1 .45h-.12l-1.34 9.6c-.1.19-.19.3-.35.32h-.1l-.76.01c-.06 0-.14-.01-.17-.04a.34.34 0 01-.07-.08l-.04-.06-.28-.5-.28.5a.46.46 0 01-.11.14.2.2 0 01-.1.04H8.47c-.2 0-.39-.09-.44-.26v-.08l-1.34-9.59h-.12l-1-.45a.9.9 0 01-.56-.77v-.12l.23-7.03a3.01 3.01 0 012.83-2.78h3.08zM21.66 2a2.9 2.9 0 110 5.8 2.9 2.9 0 010-5.8zM9.58 2a2.9 2.9 0 110 5.8 2.9 2.9 0 010-5.8z"/>
</svg>
