<!-- Generated by IcoMoon.io -->
<svg version="1.1" xmlns="http://www.w3.org/2000/svg" width="32" height="32" viewBox="0 0 32 32">
<title>Wifi-Onboard</title>
<path fill="#000" d="M4.38 19.013l27.518-0.023-2.344 4.102h-0.351c-3.61 0-4.855 1.415-8.512 1.415s-6.739-2.076-10.133-2.076c-3.394 0-4.982 0.707-4.982 0.707-0.785-1.233-1.199-2.665-1.195-4.125zM22.605 16.796v-0.92c0-0.268-0.208-0.484-0.465-0.484h-0.496c-0.257 0-0.465 0.216-0.465 0.484v0.92c0 0.197 0.115 0.366 0.277 0.442 0.057 0.027 0.12 0.042 0.187 0.042h0.496c0.067 0 0.13-0.015 0.187-0.042l0.003-0.001c0.162-0.075 0.275-0.244 0.275-0.441zM18.724 16.796v-0.92c0-0.268-0.208-0.484-0.465-0.484h-0.495c-0.257 0-0.465 0.216-0.465 0.484v0.92c0 0.197 0.114 0.366 0.277 0.442 0.058 0.027 0.121 0.042 0.188 0.042h0.495c0.067 0 0.13-0.015 0.187-0.042l0.002-0.001c0.162-0.075 0.276-0.244 0.276-0.441zM14.843 16.796v-0.92c0-0.18-0.098-0.33-0.237-0.413-0.068-0.041-0.143-0.071-0.228-0.071h-0.522c-0.257 0-0.465 0.216-0.465 0.484v0.92c0 0.197 0.114 0.366 0.277 0.442 0.058 0.027 0.121 0.042 0.188 0.042h0.522c0.067 0 0.13-0.015 0.188-0.042l0.002-0.001c0.162-0.075 0.275-0.244 0.275-0.441zM28.841 17.5l0.379 0.641h-20.288l0.050-2.817 1.816-1.102h2.511l2.85-5.087h2.329l1.328 5.087h7.085l0.693 1.171h-3.056c0 0-0.247 0.010-0.247 0.199s0.017 0.354 0.047 0.557c0.031 0.203 0.13 0.416 0.515 0.508 0.328 0.078 3.153 0.669 3.988 0.844z"></path>
<path fill="#8c8c8c" d="M7.179 16.019c0 0.454-0.368 0.822-0.822 0.822s-0.821-0.368-0.821-0.822c0-0.454 0.367-0.821 0.821-0.821s0.822 0.367 0.822 0.821zM6.357 12.286c-1.38 0-2.586 0.753-3.233 1.869l-1.314-0.758c0.909-1.569 2.605-2.628 4.546-2.628 1.94 0 3.635 1.058 4.545 2.626l-1.314 0.758c-0.646-1.115-1.852-1.866-3.231-1.866zM6.357 10.051c-2.153 0-4.035 1.174-5.044 2.916l-1.314-0.759c1.271-2.194 3.644-3.675 6.357-3.675 2.713 0 5.084 1.479 6.356 3.673l-1.314 0.759c-1.009-1.74-2.891-2.913-5.042-2.913zM6.357 14.501c-0.562 0-1.051 0.307-1.314 0.761l-1.315-0.759c0.526-0.908 1.507-1.521 2.629-1.521 1.121 0 2.101 0.612 2.627 1.518l-1.315 0.759c-0.263-0.453-0.752-0.758-1.313-0.758z"></path>
</svg>
