<!-- Generated by IcoMoon.io -->
<svg version="1.1" xmlns="http://www.w3.org/2000/svg" width="32" height="32" viewBox="0 0 32 32">
<title>Blog</title>
<path fill="#ed8b00" d="M29.161 15.628c0-10.685 0.038-9.707-0.414-10.573-0.544-1.124-1.593-1.921-2.822-2.145-0.451-0.113-19.565-0.075-19.979 0-1.469 0.321-2.633 1.441-3.010 2.897-0.113 0.414-0.113 0.64-0.113 10.196s0 9.782 0.113 10.196c0.139 0.453 0.342 0.883 0.602 1.279 0.288 0.375 0.631 0.704 1.016 0.978 0.389 0.273 0.821 0.476 1.279 0.602 0.376 0.113 0.828 0.113 10.121 0.113s9.745 0 10.159-0.113c1.621-0.374 2.829-1.732 3.010-3.386 0.038-0.376 0.075-3.236 0.038-10.046zM24.119 17.471c-0.038 2.258-0.038 2.446-0.151 2.822-0.219 0.853-0.66 1.632-1.279 2.258-0.778 0.848-1.831 1.394-2.972 1.543-0.677 0.075-7.337 0.075-7.864-0.038-1.204-0.251-2.274-0.934-3.010-1.919-0.359-0.446-0.627-0.957-0.79-1.505-0.226-0.715-0.263-1.279-0.226-4.966 0-2.935 0.038-3.461 0.113-3.8 0.389-1.662 1.571-3.027 3.16-3.65 0.865-0.339 1.43-0.376 3.951-0.376 1.618 0.038 2.107 0.038 2.295 0.113 0.902 0.28 1.717 0.785 2.37 1.467 0.925 0.857 1.468 2.050 1.505 3.311 0 0.64 0.113 0.865 0.451 1.091s0.301 0.15 1.053 0.188l0.903 0.113c0.235 0.156 0.398 0.4 0.451 0.677 0.061 0.889 0.074 1.781 0.038 2.671zM12.191 14.362l1.844 0.038c1.58 0 1.693 0 1.844-0.113 0.288-0.157 0.463-0.463 0.451-0.79 0.025-0.342-0.172-0.661-0.489-0.79-0.226-0.113-0.113-0.113-1.881-0.113s-1.844 0-2.145 0.301c-0.189 0.232-0.257 0.539-0.183 0.829s0.282 0.527 0.559 0.639zM12.163 20.177c0.113 0.038 0.828 0.113 3.311 0.075h2.822l0.527-0.075c0.247-0.14 0.413-0.387 0.45-0.668s-0.060-0.563-0.262-0.762c-0.339-0.301-0.414-0.301-3.574-0.301s-3.273 0-3.537 0.226c-0.23 0.208-0.337 0.52-0.284 0.825s0.26 0.562 0.547 0.68z"></path>
</svg>
