<!-- Generated by IcoMoon.io -->
<svg version="1.1" xmlns="http://www.w3.org/2000/svg" width="32" height="32" viewBox="0 0 32 32">
<title>Facebook</title>
<path fill="#4460a0" d="M16.899 29.176h-12.621c-0.804 0-1.454-0.651-1.454-1.455v-23.444c0-0.803 0.651-1.454 1.454-1.454h23.444c0.803 0 1.454 0.651 1.454 1.454v23.444c0 0.803-0.651 1.455-1.454 1.455h-6.715v-10.205h3.425l0.513-3.977h-3.938v-2.539c0-1.152 0.32-1.936 1.971-1.936l2.106-0.001v-3.557c-0.364-0.048-1.614-0.157-3.069-0.157-3.036 0-5.115 1.853-5.115 5.257v2.933h-3.434v3.977h3.434v10.205z"></path>
</svg>
