<!-- Generated by IcoMoon.io -->
<svg version="1.1" xmlns="http://www.w3.org/2000/svg" width="32" height="32" viewBox="0 0 32 32">
<title>Mail-Share</title>
<path fill="#1b5786" d="M2.824 27.106h26.353c0.52 0 0.941-0.421 0.941-0.941v-19.576c0-0.52-0.421-0.941-0.941-0.941h-26.353c-0.52 0-0.941 0.421-0.941 0.941v19.576c0 0.52 0.421 0.941 0.941 0.941zM27.859 9.035v14.871c0 0.52-0.421 0.941-0.941 0.941h-21.835c-0.52 0-0.941-0.421-0.941-0.941v-14.758l11.215 10.405c0.362 0.336 0.923 0.335 1.284-0.003l11.218-10.514zM16.645 16.334c-0.362 0.341-0.928 0.341-1.29 0l-8.955-8.428h19.2l-8.955 8.428z"></path>
</svg>
