<!-- Generated by IcoMoon.io -->
<svg version="1.1" xmlns="http://www.w3.org/2000/svg" width="32" height="32" viewBox="0 0 32 32">
<title>Twitter</title>
<path fill="#1da1f2" d="M30.295 7.902c-1.057 0.476-2.179 0.79-3.33 0.932 1.207-0.739 2.106-1.89 2.531-3.241-1.139 0.679-2.385 1.16-3.685 1.421-1.794-1.973-4.699-2.474-7.050-1.215s-3.544 3.956-2.895 6.542c-4.683-0.253-9.039-2.479-11.987-6.127-1.554 2.652-0.776 6.056 1.776 7.769-0.917-0.027-1.814-0.27-2.619-0.71v0.089c0.008 2.76 1.956 5.135 4.662 5.683-0.506 0.143-1.028 0.218-1.554 0.222l-1.11-0.089c0.763 2.38 2.961 4.007 5.461 4.040-2.066 1.615-4.614 2.49-7.236 2.486l-1.376-0.089c2.662 1.71 5.759 2.619 8.923 2.619 10.744 0 16.604-8.879 16.604-16.604 0-0.266 0-0.488 0-0.755 1.129-0.814 2.106-1.821 2.886-2.974z"></path>
</svg>
