<!-- Generated by IcoMoon.io -->
<svg version="1.1" xmlns="http://www.w3.org/2000/svg" width="32" height="32" viewBox="0 0 32 32">
<title>Youtube</title>
<path fill="#d0021b" d="M30.761 10.214c0 0-0.298-2.085-1.191-2.979s-2.449-1.225-3.012-1.291c-4.236-0.298-10.558-0.298-10.558-0.298s-6.321 0-10.558 0.298c-0.596 0.066-1.886 0.066-3.012 1.291s-1.191 2.979-1.191 2.979c-0.186 1.615-0.285 3.239-0.298 4.865v2.284c0.011 1.637 0.111 3.272 0.298 4.898 0 0 0.298 2.085 1.191 2.979s2.648 1.158 3.31 1.291c2.416 0.232 10.227 0.298 10.227 0.298s6.321 0 10.558-0.298c0.596-0.066 1.887-0.066 3.012-1.291s1.191-2.979 1.191-2.979c0.198-1.626 0.309-3.261 0.331-4.898v-2.284c-0.012-1.626-0.112-3.25-0.298-4.865zM12.889 20.143v-8.473l8.142 4.269-8.142 4.203z"></path>
</svg>
